<?xml version="1.0" standalone="no"?><!DOCTYPE svg PUBLIC "-//W3C//DTD SVG 1.1//EN" "http://www.w3.org/Graphics/SVG/1.1/DTD/svg11.dtd"><svg xmlns:xlink="http://www.w3.org/1999/xlink" version="1.1" style="font-family:&quot;Lucida Grande&quot;, &quot;Lucida Sans Unicode&quot;, Arial, Helvetica, sans-serif;font-size:12px;" xmlns="http://www.w3.org/2000/svg" width="225" height="150"><desc>Created with Highstock 2.0.4-modified</desc><defs><clipPath id="highcharts-1"><rect x="0" y="0" width="125" height="205"></rect></clipPath></defs><rect x="0" y="0" width="225" height="150" strokeWidth="0" fill="#FFFFFF" class=" highcharts-background"></rect><g class="highcharts-grid" zIndex="1"></g><g class="highcharts-grid" zIndex="1"><path fill="none" d="M 77.5 10 L 77.5 135" stroke="#C0C0C0" stroke-width="1" zIndex="1" opacity="1"></path><path fill="none" d="M 146.5 10 L 146.5 135" stroke="#C0C0C0" stroke-width="1" zIndex="1" opacity="1"></path><path fill="none" d="M 215.5 10 L 215.5 135" stroke="#C0C0C0" stroke-width="1" zIndex="1" opacity="1"></path><path fill="none" d="M 9.5 10 L 9.5 135" stroke="#C0C0C0" stroke-width="1" zIndex="1" opacity="1"></path></g><g class="highcharts-axis" zIndex="2"></g><g class="highcharts-axis" zIndex="2"></g><g class="highcharts-series-group" zIndex="3"><g class="highcharts-series" visibility="visible" zIndex="0.1" transform="translate(215,135) rotate(90) scale(-1,1) scale(1 1)" width="205" height="125" clip-path="url(#highcharts-1)"><path fill="rgba(124,181,236,0.75)" d="M 123.77450980392157 68.33333333333334 L 93.13725490196079 150.33333333333331 L 62.5 177.66666666666666 L 31.862745098039213 95.66666666666666 L 1.2254901960784252 41 L 1.2254901960784252 205 L 123.77450980392157 205" zIndex="0"></path><path fill="none" d="M 123.77450980392157 68.33333333333334 L 93.13725490196079 150.33333333333331 L 62.5 177.66666666666666 L 31.862745098039213 95.66666666666666 L 1.2254901960784252 41" stroke="#7cb5ec" stroke-width="2" zIndex="1" stroke-linejoin="round" stroke-linecap="round"></path><path fill="none" d="M 113.77450980392157 68.33333333333334 L 123.77450980392157 68.33333333333334 L 93.13725490196079 150.33333333333331 L 62.5 177.66666666666666 L 31.862745098039213 95.66666666666666 L 1.2254901960784252 41 L 11.225490196078425 41" stroke-linejoin="round" visibility="visible" stroke="rgba(192,192,192,0.0001)" stroke-width="22" zIndex="2" class=" highcharts-tracker" style=""></path></g><g class="highcharts-markers highcharts-tracker" visibility="visible" zIndex="0.1" transform="translate(215,135) rotate(90) scale(-1,1) scale(1 1)" style="" width="205" height="125" clip-path="none"></g><g class="highcharts-series" visibility="visible" zIndex="0.1" transform="translate(215,135) rotate(90) scale(-1,1) scale(1 1)" width="205" height="125" clip-path="url(#highcharts-1)"><path fill="rgba(67,67,72,0.75)" d="M 123.77450980392157 205 L 93.13725490196079 109.33333333333333 L 62.5 41 L 31.862745098039213 164 L 1.2254901960784252 136.66666666666669 L 1.2254901960784252 205 L 123.77450980392157 205" zIndex="0"></path><path fill="none" d="M 123.77450980392157 205 L 93.13725490196079 109.33333333333333 L 62.5 41 L 31.862745098039213 164 L 1.2254901960784252 136.66666666666669" stroke="#434348" stroke-width="2" zIndex="1" stroke-linejoin="round" stroke-linecap="round"></path><path fill="none" d="M 113.77450980392157 205 L 123.77450980392157 205 L 93.13725490196079 109.33333333333333 L 62.5 41 L 31.862745098039213 164 L 1.2254901960784252 136.66666666666669 L 11.225490196078425 136.66666666666669" stroke-linejoin="round" visibility="visible" stroke="rgba(192,192,192,0.0001)" stroke-width="22" zIndex="2" class=" highcharts-tracker" style=""></path></g><g class="highcharts-markers highcharts-tracker" visibility="visible" zIndex="0.1" transform="translate(215,135) rotate(90) scale(-1,1) scale(1 1)" style="" width="205" height="125" clip-path="none"></g></g><g class="highcharts-data-labels" visibility="visible" zIndex="6" transform="translate(10,10) scale(1 1)" opacity="1"><g zIndex="1" style="cursor:default;" transform="translate(127,1)"><text x="3" zIndex="1" style="font-size:11px;color:#606060;fill:#606060;" y="15">50</text></g><g zIndex="1" style="cursor:default;" transform="translate(45,12)"><text x="3" zIndex="1" style="font-size:11px;color:#606060;fill:#606060;" y="15">20</text></g><g zIndex="1" style="cursor:default;" transform="translate(18,43)"><text x="3" zIndex="1" style="font-size:11px;color:#606060;fill:#606060;" y="15">10</text></g><g zIndex="1" style="cursor:default;" transform="translate(100,73)"><text x="3" zIndex="1" style="font-size:11px;color:#606060;fill:#606060;" y="15">40</text></g><g zIndex="1" style="cursor:default;" transform="translate(155,104)"><text x="3" zIndex="1" style="font-size:11px;color:#606060;fill:#606060;" y="15">60</text></g></g><g class="highcharts-data-labels" visibility="visible" zIndex="6" transform="translate(10,10) scale(1 1)" opacity="1"><g zIndex="1" style="cursor:default;" transform="translate(0,1)"><text x="3" zIndex="1" style="font-size:11px;color:#606060;fill:#606060;" y="15">0</text></g><g zIndex="1" style="cursor:default;" transform="translate(86,12)"><text x="3" zIndex="1" style="font-size:11px;color:#606060;fill:#606060;" y="15">35</text></g><g zIndex="1" style="cursor:default;" transform="translate(155,43)"><text x="3" zIndex="1" style="font-size:11px;color:#606060;fill:#606060;" y="15">60</text></g><g zIndex="1" style="cursor:default;" transform="translate(32,73)"><text x="3" zIndex="1" style="font-size:11px;color:#606060;fill:#606060;" y="15">15</text></g><g zIndex="1" style="cursor:default;" transform="translate(59,104)"><text x="3" zIndex="1" style="font-size:11px;color:#606060;fill:#606060;" y="15">25</text></g></g><g class="highcharts-axis-labels highcharts-xaxis-labels" zIndex="7"></g><g class="highcharts-axis-labels highcharts-yaxis-labels" zIndex="7"></g><g class="highcharts-tooltip" zIndex="8" style="cursor:default;padding:0;white-space:nowrap;" transform="translate(0,-9999)"><path fill="none" d="M 3 0 L 13 0 C 16 0 16 0 16 3 L 16 13 C 16 16 16 16 13 16 L 3 16 C 0 16 0 16 0 13 L 0 3 C 0 0 0 0 3 0" isShadow="true" stroke="black" stroke-width="5" transform="translate(1, 1)" opacity="0.049999999999999996"></path><path fill="none" d="M 3 0 L 13 0 C 16 0 16 0 16 3 L 16 13 C 16 16 16 16 13 16 L 3 16 C 0 16 0 16 0 13 L 0 3 C 0 0 0 0 3 0" isShadow="true" stroke="black" stroke-width="3" transform="translate(1, 1)" opacity="0.09999999999999999"></path><path fill="none" d="M 3 0 L 13 0 C 16 0 16 0 16 3 L 16 13 C 16 16 16 16 13 16 L 3 16 C 0 16 0 16 0 13 L 0 3 C 0 0 0 0 3 0" isShadow="true" stroke="black" stroke-width="1" transform="translate(1, 1)" opacity="0.15"></path><path fill="rgba(249, 249, 249, .85)" d="M 3 0 L 13 0 C 16 0 16 0 16 3 L 16 13 C 16 16 16 16 13 16 L 3 16 C 0 16 0 16 0 13 L 0 3 C 0 0 0 0 3 0"></path><text x="8" zIndex="1" style="font-size:12px;color:#333333;fill:#333333;" y="21"></text></g></svg>