<?xml version="1.0" standalone="no"?><!DOCTYPE svg PUBLIC "-//W3C//DTD SVG 1.1//EN" "http://www.w3.org/Graphics/SVG/1.1/DTD/svg11.dtd"><svg xmlns:xlink="http://www.w3.org/1999/xlink" version="1.1" style="font-family:&quot;Lucida Grande&quot;, &quot;Lucida Sans Unicode&quot;, Arial, Helvetica, sans-serif;font-size:12px;" xmlns="http://www.w3.org/2000/svg" width="150" height="100"><desc>Created with Highstock 2.0.4-modified</desc><defs><clipPath id="highcharts-1"><rect x="0" y="-5" width="150" height="110"></rect></clipPath></defs><rect x="0" y="0" width="150" height="100" strokeWidth="0" fill="#FFFFFF" class=" highcharts-background"></rect><g zIndex="-3" style="stroke:rgba(255,255,255,0);"><path fill="rgba(230,230,230,0)" d="M 0 0" zIndex="78.5" stroke-linejoin="round"></path><path fill="rgba(255,255,255,0)" d="M 41 -18 L 41 -18 L 160 -12 L 160 -12 Z" zIndex="83" stroke-linejoin="round"></path><path fill="rgba(255,255,255,0)" d="M 41 -18 L 160 -12 L 159 72 L 41 64 Z" zIndex="94.25" stroke-linejoin="round"></path></g><g zIndex="-2" style="stroke:rgba(255,255,255,0);"><path fill="rgba(255,255,255,0)" d="M 11 2 L 12 2 L 13 89 L 12 89 Z" zIndex="16.5" stroke-linejoin="round"></path><path fill="rgba(255,255,255,0)" d="M 11 2 L 40 -18 L 41 -18 L 12 2 Z" zIndex="52" stroke-linejoin="round"></path><path fill="rgba(230,230,230,0)" d="M 12 2 L 13 89 L 41 64 L 41 -18 Z" zIndex="63.5" stroke-linejoin="round"></path></g><g zIndex="-1" style="stroke:rgba(255,255,255,0);"><path fill="rgba(255,255,255,0)" d="M 13 88 L 138 98 L 138 99 L 13 89 Z" zIndex="11.75" stroke-linejoin="round"></path><path fill="rgba(230,230,230,0)" d="M 138 98 L 138 99 L 158 72 L 158 71 Z" zIndex="42.25" stroke-linejoin="round"></path><path fill="rgba(255,255,255,0)" d="M 13 88 L 41 63 L 158 71 L 138 98 Z" zIndex="58.25" stroke-linejoin="round"></path></g><g class="highcharts-grid" zIndex="1"></g><g class="highcharts-grid" zIndex="1"></g><g class="highcharts-axis" zIndex="2"></g><g class="highcharts-axis" zIndex="2"></g><g class="highcharts-series-group" zIndex="3"><g class="highcharts-series highcharts-tracker" visibility="visible" zIndex="0.1" transform="translate(10,5) scale(1 1)" style="" clip-path="url(#highcharts-1)"><g zIndex="-19.75" r="0" stroke="#7cb5ec" stroke-width="1"><path fill="#7cb5ec" d="M 13 46 L 24 47 L 24 85 L 14 84 Z" zIndex="19.75" stroke-linejoin="round"></path><path fill="rgba(149,206,255,1)" d="M 13 46 L 20 40 L 31 41 L 24 47 Z" zIndex="26.25" stroke-linejoin="round"></path><path fill="rgba(99,156,211,1)" d="M 24 47 L 24 85 L 31 78 L 31 41 Z" zIndex="30.25" stroke-linejoin="round"></path></g><g zIndex="-10" r="0" stroke="#7cb5ec" stroke-width="1"><path fill="#7cb5ec" d="M 53 53 L 64 54 L 64 88 L 53 87 Z" zIndex="10" stroke-linejoin="round"></path><path fill="rgba(149,206,255,1)" d="M 53 53 L 60 47 L 70 48 L 64 54 Z" zIndex="17" stroke-linejoin="round"></path><path fill="rgba(99,156,211,1)" d="M 64 54 L 64 88 L 70 81 L 70 48 Z" zIndex="20" stroke-linejoin="round"></path></g><g zIndex="-1.25" r="0" stroke="#7cb5ec" stroke-width="1"><path fill="#7cb5ec" d="M 95 73 L 105 74 L 105 91 L 95 91 Z" zIndex="1.25" stroke-linejoin="round"></path><path fill="rgba(149,206,255,1)" d="M 95 73 L 101 67 L 111 68 L 105 74 Z" zIndex="10.75" stroke-linejoin="round"></path><path fill="rgba(99,156,211,1)" d="M 105 74 L 105 91 L 111 85 L 111 68 Z" zIndex="11.75" stroke-linejoin="round"></path></g></g><g class="highcharts-markers" visibility="visible" zIndex="0.1" transform="translate(10,5) scale(1 1)" clip-path="none"></g><g class="highcharts-series highcharts-tracker" visibility="visible" zIndex="0.1" transform="translate(10,5) scale(1 1)" style="" clip-path="url(#highcharts-1)"><g zIndex="-18" r="0" stroke="#434348" stroke-width="1"><path fill="#434348" d="M 26 60 L 36 60 L 36 86 L 26 85 Z" zIndex="18" stroke-linejoin="round"></path><path fill="rgba(92,92,97,1)" d="M 26 60 L 33 53 L 43 54 L 36 60 Z" zIndex="26.25" stroke-linejoin="round"></path><path fill="rgba(42,42,47,1)" d="M 36 60 L 36 86 L 43 79 L 43 54 Z" zIndex="28.5" stroke-linejoin="round"></path></g><g zIndex="-3.25" r="0" stroke="#434348" stroke-width="1"><path fill="#434348" d="M 66 28 L 76 29 L 76 89 L 66 88 Z" zIndex="3.25" stroke-linejoin="round"></path><path fill="rgba(92,92,97,1)" d="M 66 28 L 72 22 L 83 23 L 76 29 Z" zIndex="6.75" stroke-linejoin="round"></path><path fill="rgba(42,42,47,1)" d="M 76 29 L 76 89 L 82 82 L 83 23 Z" zIndex="13.5" stroke-linejoin="round"></path></g><g zIndex="9" r="0" stroke="#434348" stroke-width="1"><path fill="#434348" d="M 108 22 L 119 23 L 118 92 L 107 92 Z" zIndex="-9" stroke-linejoin="round"></path><path fill="rgba(92,92,97,1)" d="M 108 22 L 114 16 L 124 17 L 119 23 Z" zIndex="-6.5" stroke-linejoin="round"></path><path fill="rgba(42,42,47,1)" d="M 119 23 L 118 92 L 123 85 L 124 17 Z" zIndex="1.25" stroke-linejoin="round"></path></g></g><g class="highcharts-markers" visibility="visible" zIndex="0.1" transform="translate(10,5) scale(1 1)" clip-path="none"></g></g><g class="highcharts-axis-labels highcharts-xaxis-labels" zIndex="7"></g><g class="highcharts-axis-labels highcharts-yaxis-labels" zIndex="7"></g><g class="highcharts-tooltip" zIndex="8" style="cursor:default;padding:0;white-space:nowrap;" transform="translate(0,-9999)"><path fill="none" d="M 3 0 L 13 0 C 16 0 16 0 16 3 L 16 13 C 16 16 16 16 13 16 L 3 16 C 0 16 0 16 0 13 L 0 3 C 0 0 0 0 3 0" isShadow="true" stroke="black" stroke-width="5" transform="translate(1, 1)" opacity="0.049999999999999996"></path><path fill="none" d="M 3 0 L 13 0 C 16 0 16 0 16 3 L 16 13 C 16 16 16 16 13 16 L 3 16 C 0 16 0 16 0 13 L 0 3 C 0 0 0 0 3 0" isShadow="true" stroke="black" stroke-width="3" transform="translate(1, 1)" opacity="0.09999999999999999"></path><path fill="none" d="M 3 0 L 13 0 C 16 0 16 0 16 3 L 16 13 C 16 16 16 16 13 16 L 3 16 C 0 16 0 16 0 13 L 0 3 C 0 0 0 0 3 0" isShadow="true" stroke="black" stroke-width="1" transform="translate(1, 1)" opacity="0.15"></path><path fill="rgba(249, 249, 249, .85)" d="M 3 0 L 13 0 C 16 0 16 0 16 3 L 16 13 C 16 16 16 16 13 16 L 3 16 C 0 16 0 16 0 13 L 0 3 C 0 0 0 0 3 0"></path><text x="8" zIndex="1" style="font-size:12px;color:#333333;fill:#333333;" y="21"></text></g></svg>