<?xml version="1.0" standalone="no"?><!DOCTYPE svg PUBLIC "-//W3C//DTD SVG 1.1//EN" "http://www.w3.org/Graphics/SVG/1.1/DTD/svg11.dtd"><svg xmlns:xlink="http://www.w3.org/1999/xlink" version="1.1" style="font-family:&quot;Lucida Grande&quot;, &quot;Lucida Sans Unicode&quot;, Arial, Helvetica, sans-serif;font-size:12px;" xmlns="http://www.w3.org/2000/svg" width="210" height="150"><desc>Created with Highstock 2.0.4-modified</desc><defs><clipPath id="highcharts-1"><rect x="0" y="0" width="190" height="125"></rect></clipPath></defs><rect x="0" y="0" width="210" height="150" strokeWidth="0" fill="#FFFFFF" class=" highcharts-background"></rect><path fill="#EEE" d="M 17.5 116.24999999999999 A 87.5 87.5 0 1 1 192.49995625000366 116.16250001458337 L 157.4999737500022 116.19750000875003 A 52.5 52.5 0 1 0 52.5 116.25 Z" stroke="silver" stroke-width="1"></path><g class="highcharts-grid" zIndex="1"></g><g class="highcharts-axis" zIndex="2"></g><g class="highcharts-data-labels highcharts-tracker" visibility="visible" zIndex="2" transform="translate(10,10) scale(1 1)" style=""><g zIndex="1" style="cursor:default;" transform="translate(76,79)"></g></g><g class="highcharts-series-group" zIndex="3"><g class="highcharts-series highcharts-tracker" visibility="visible" zIndex="0.1" transform="translate(10,10) scale(1 1)" style="" clip-path="url(#highcharts-1)"><path fill="rgb(222,153,48)" d="M 7.5 105.99999999999999 A 87.5 87.5 0 0 1 146.3603948847791 35.15961718567894 L 125.81623693086746 63.49577031140736 A 52.5 52.5 0 0 0 42.5 106 Z" sweep-flag="0"></path></g><g class="highcharts-markers" visibility="visible" zIndex="0.1" transform="translate(10,10) scale(1 1)" clip-path="none"></g></g><g class="highcharts-legend" zIndex="7"><g zIndex="1"><g></g></g></g><g class="highcharts-axis-labels highcharts-yaxis-labels" zIndex="7"><text x="42.5" style="color:#606060;cursor:default;font-size:11px;fill:#606060;" y="132.25" opacity="1">0</text><text x="167.5" style="color:#606060;cursor:default;font-size:11px;fill:#606060;" y="132.25000000000003" opacity="1">100</text></g></svg>