<?xml version="1.0" standalone="no"?><!DOCTYPE svg PUBLIC "-//W3C//DTD SVG 1.1//EN" "http://www.w3.org/Graphics/SVG/1.1/DTD/svg11.dtd"><svg xmlns:xlink="http://www.w3.org/1999/xlink" version="1.1" style="font-family:&quot;Lucida Grande&quot;, &quot;Lucida Sans Unicode&quot;, Arial, Helvetica, sans-serif;font-size:12px;" xmlns="http://www.w3.org/2000/svg" width="300" height="200"><desc>Created with Highstock 2.0.4-modified</desc><defs><clipPath id="highcharts-1"><rect x="0" y="0" width="280" height="122"></rect></clipPath></defs><rect x="0" y="0" width="300" height="200" strokeWidth="0" fill="#FFFFFF" class=" highcharts-background"></rect><g class="highcharts-series-group" zIndex="3"><g class="highcharts-series highcharts-tracker" visibility="visible" zIndex="0.1" transform="translate(10,10) scale(1 1)" style="cursor:pointer;"><path fill="#7cb5ec" d="M 139.98627242607094 -6.399998602030507 A 67.4 67.4 0 0 1 197.98210561311853 26.6367139425059 L 171.74391242023847 42.18686564508113 A 36.9 36.9 0 0 0 139.99248445878365 24.100000765357187 Z" stroke="#FFFFFF" stroke-width="1" stroke-linejoin="round" transform="translate(0,0)"></path><path fill="#434348" d="M 198.01643990239842 26.694713220096936 A 67.4 67.4 0 0 1 204.56633173998 41.662244038077986 L 175.34862969147272 50.413008976336464 A 36.9 36.9 0 0 0 171.762709679503 42.21861895877711 Z" stroke="#FFFFFF" stroke-width="1" stroke-linejoin="round" transform="translate(0,0)"></path><path fill="#90ed7d" d="M 204.58563720955578 41.72682002793408 A 67.4 67.4 0 0 1 207.21052634076278 66.05026227018283 L 176.79626738834045 63.764906198364194 A 36.9 36.9 0 0 0 175.35919900641852 50.44836289363157 Z" stroke="#FFFFFF" stroke-width="1" stroke-linejoin="round" transform="translate(0,0)"></path><path fill="#f7a35c" d="M 207.20544247407395 66.11747026019091 A 67.4 67.4 0 0 1 166.1099296978589 123.13719957620287 L 154.2946054280563 95.01873389260959 A 36.9 36.9 0 0 0 176.79348408447075 63.80170107716684 Z" stroke="#FFFFFF" stroke-width="1" stroke-linejoin="round" transform="translate(0,0)"></path><path fill="#8085e9" d="M 166.04777945367513 123.16327843295187 A 67.4 67.4 0 1 1 139.90638275217398 -6.399934983729111 L 139.94874664028515 24.10003559496137 A 36.9 36.9 0 1 0 154.26057955253134 95.03301148628967 Z" stroke="#FFFFFF" stroke-width="1" stroke-linejoin="round" transform="translate(0,0)"></path></g><g class="highcharts-markers" visibility="visible" zIndex="0.1" transform="translate(10,10) scale(1 1)"></g></g><g class="highcharts-legend" zIndex="7" transform="translate(32,152)"><g zIndex="1"><g><g class="highcharts-legend-item" zIndex="1" transform="translate(8,3)"><text x="21" style="color:#333333;font-size:12px;font-weight:bold;cursor:pointer;fill:#333333;" text-anchor="start" zIndex="2" y="15">Firefox</text><rect x="0" y="4" width="16" height="12" zIndex="3" fill="#7cb5ec"></rect></g><g class="highcharts-legend-item" zIndex="1" transform="translate(95,3)"><text x="21" y="15" style="color:#333333;font-size:12px;font-weight:bold;cursor:pointer;fill:#333333;" text-anchor="start" zIndex="2">Opera</text><rect x="0" y="4" width="16" height="12" zIndex="3" fill="#434348"></rect></g><g class="highcharts-legend-item" zIndex="1" transform="translate(176,3)"><text x="21" y="15" style="color:#333333;font-size:12px;font-weight:bold;cursor:pointer;fill:#333333;" text-anchor="start" zIndex="2">Safari</text><rect x="0" y="4" width="16" height="12" zIndex="3" fill="#90ed7d"></rect></g><g class="highcharts-legend-item" zIndex="1" transform="translate(8,18)"><text x="21" y="15" style="color:#333333;font-size:12px;font-weight:bold;cursor:pointer;fill:#333333;" text-anchor="start" zIndex="2">Chrome</text><rect x="0" y="4" width="16" height="12" zIndex="3" fill="#f7a35c"></rect></g><g class="highcharts-legend-item" zIndex="1" transform="translate(100,18)"><text x="21" y="15" style="color:#333333;font-size:12px;font-weight:bold;cursor:pointer;fill:#333333;" text-anchor="start" zIndex="2">IE</text><rect x="0" y="4" width="16" height="12" zIndex="3" fill="#8085e9"></rect></g></g></g></g><g class="highcharts-tooltip" zIndex="8" style="cursor:default;padding:0;white-space:nowrap;" transform="translate(0,-9999)"><path fill="none" d="M 3 0 L 13 0 C 16 0 16 0 16 3 L 16 13 C 16 16 16 16 13 16 L 3 16 C 0 16 0 16 0 13 L 0 3 C 0 0 0 0 3 0" isShadow="true" stroke="black" stroke-width="5" transform="translate(1, 1)" opacity="0.049999999999999996"></path><path fill="none" d="M 3 0 L 13 0 C 16 0 16 0 16 3 L 16 13 C 16 16 16 16 13 16 L 3 16 C 0 16 0 16 0 13 L 0 3 C 0 0 0 0 3 0" isShadow="true" stroke="black" stroke-width="3" transform="translate(1, 1)" opacity="0.09999999999999999"></path><path fill="none" d="M 3 0 L 13 0 C 16 0 16 0 16 3 L 16 13 C 16 16 16 16 13 16 L 3 16 C 0 16 0 16 0 13 L 0 3 C 0 0 0 0 3 0" isShadow="true" stroke="black" stroke-width="1" transform="translate(1, 1)" opacity="0.15"></path><path fill="rgba(249, 249, 249, .85)" d="M 3 0 L 13 0 C 16 0 16 0 16 3 L 16 13 C 16 16 16 16 13 16 L 3 16 C 0 16 0 16 0 13 L 0 3 C 0 0 0 0 3 0"></path><text x="8" zIndex="1" style="font-size:12px;color:#333333;fill:#333333;" y="21"></text></g></svg>