<?xml version="1.0" standalone="no"?><!DOCTYPE svg PUBLIC "-//W3C//DTD SVG 1.1//EN" "http://www.w3.org/Graphics/SVG/1.1/DTD/svg11.dtd"><svg xmlns:xlink="http://www.w3.org/1999/xlink" version="1.1" style="font-family:&quot;Lucida Grande&quot;, &quot;Lucida Sans Unicode&quot;, Arial, Helvetica, sans-serif;font-size:12px;" xmlns="http://www.w3.org/2000/svg" width="225" height="150"><desc>Created with Highstock 2.0.4-modified</desc><defs><clipPath id="highcharts-1"><rect x="0" y="0" width="205" height="125"></rect></clipPath></defs><rect x="0" y="0" width="225" height="150" strokeWidth="0" fill="#FFFFFF" class=" highcharts-background"></rect><g class="highcharts-grid" zIndex="1"></g><g class="highcharts-grid" zIndex="1"><path fill="none" d="M 10 9.5 L 215 9.5" stroke="#C0C0C0" stroke-width="1" zIndex="1" opacity="1"></path><path fill="none" d="M 10 52.5 L 215 52.5" stroke="#C0C0C0" stroke-width="1" zIndex="1" opacity="1"></path><path fill="none" d="M 10 93.5 L 215 93.5" stroke="#C0C0C0" stroke-width="1" zIndex="1" opacity="1"></path><path fill="none" d="M 10 135.5 L 215 135.5" stroke="#C0C0C0" stroke-width="1" zIndex="1" opacity="1"></path></g><g class="highcharts-axis" zIndex="2"></g><g class="highcharts-axis" zIndex="2"></g><g class="highcharts-series-group" zIndex="3"><g class="highcharts-series" visibility="visible" zIndex="0.1" transform="translate(10,10) scale(1 1)" clip-path="url(#highcharts-1)"><path fill="rgba(0,0,0,0.75)" d="M 2.0098039215686274 41.66666666666666 L 52.25490196078431 91.66666666666666 L 102.5 108.33333333333333 L 152.7450980392157 58.33333333333333 L 202.99019607843135 25 L 202.99019607843135 125 L 2.0098039215686274 125" zIndex="0"></path><path fill="none" d="M 2.0098039215686274 41.66666666666666 L 52.25490196078431 91.66666666666666 L 102.5 108.33333333333333 L 152.7450980392157 58.33333333333333 L 202.99019607843135 25" stroke="rgba(0, 0, 0, 0.08)" stroke-width="2" zIndex="1" stroke-linejoin="round" stroke-linecap="round"></path><path fill="none" d="M -7.990196078431373 41.66666666666666 L 2.0098039215686274 41.66666666666666 L 52.25490196078431 91.66666666666666 L 102.5 108.33333333333333 L 152.7450980392157 58.33333333333333 L 202.99019607843135 25 L 212.99019607843135 25" stroke-linejoin="round" visibility="visible" stroke="rgba(192,192,192,0.0001)" stroke-width="22" zIndex="2" class=" highcharts-tracker" style=""></path></g><g class="highcharts-markers highcharts-tracker" visibility="visible" zIndex="0.1" transform="translate(10,10) scale(1 1)" style="" clip-path="none"></g><g class="highcharts-series" visibility="visible" zIndex="0.1" transform="translate(10,10) scale(1 1)" clip-path="url(#highcharts-1)"><path fill="rgba(124,181,236,0.75)" d="M 2.0098039215686274 125 L 52.25490196078431 66.66666666666666 L 102.5 25 L 152.7450980392157 100 L 202.99019607843135 83.33333333333333 L 202.99019607843135 125 L 2.0098039215686274 125" zIndex="0"></path><path fill="none" d="M 2.0098039215686274 125 L 52.25490196078431 66.66666666666666 L 102.5 25 L 152.7450980392157 100 L 202.99019607843135 83.33333333333333" stroke="#7cb5ec" stroke-width="2" zIndex="1" stroke-linejoin="round" stroke-linecap="round"></path><path fill="none" d="M -7.990196078431373 125 L 2.0098039215686274 125 L 52.25490196078431 66.66666666666666 L 102.5 25 L 152.7450980392157 100 L 202.99019607843135 83.33333333333333 L 212.99019607843135 83.33333333333333" stroke-linejoin="round" visibility="visible" stroke="rgba(192,192,192,0.0001)" stroke-width="22" zIndex="2" class=" highcharts-tracker" style=""></path></g><g class="highcharts-markers highcharts-tracker" visibility="visible" zIndex="0.1" transform="translate(10,10) scale(1 1)" style="" clip-path="none"></g></g><g class="highcharts-data-labels" visibility="visible" zIndex="6" transform="translate(10,10) scale(1 1)" opacity="1"><g zIndex="1" style="cursor:default;" transform="translate(0,22)"><text x="3" zIndex="1" style="font-size:11px;color:#606060;fill:#606060;" y="15">50</text></g><g zIndex="1" style="cursor:default;" transform="translate(43,72)"><text x="3" zIndex="1" style="font-size:11px;color:#606060;fill:#606060;" y="15">20</text></g><g zIndex="1" style="cursor:default;" transform="translate(93,88)"><text x="3" zIndex="1" style="font-size:11px;color:#606060;fill:#606060;" y="15">10</text></g><g zIndex="1" style="cursor:default;" transform="translate(143,38)"><text x="3" zIndex="1" style="font-size:11px;color:#606060;fill:#606060;" y="15">40</text></g><g zIndex="1" style="cursor:default;" transform="translate(186,5)"><text x="3" zIndex="1" style="font-size:11px;color:#606060;fill:#606060;" y="15">60</text></g></g><g class="highcharts-data-labels" visibility="visible" zIndex="6" transform="translate(10,10) scale(1 1)" opacity="1"><g zIndex="1" style="cursor:default;" transform="translate(0,105)"><text x="3" zIndex="1" style="font-size:11px;color:#606060;fill:#606060;" y="15">0</text></g><g zIndex="1" style="cursor:default;" transform="translate(43,47)"><text x="3" zIndex="1" style="font-size:11px;color:#606060;fill:#606060;" y="15">35</text></g><g zIndex="1" style="cursor:default;" transform="translate(93,5)"><text x="3" zIndex="1" style="font-size:11px;color:#606060;fill:#606060;" y="15">60</text></g><g zIndex="1" style="cursor:default;" transform="translate(143,80)"><text x="3" zIndex="1" style="font-size:11px;color:#606060;fill:#606060;" y="15">15</text></g><g zIndex="1" style="cursor:default;" transform="translate(186,63)"><text x="3" zIndex="1" style="font-size:11px;color:#606060;fill:#606060;" y="15">25</text></g></g><g class="highcharts-axis-labels highcharts-xaxis-labels" zIndex="7"></g><g class="highcharts-axis-labels highcharts-yaxis-labels" zIndex="7"></g><g class="highcharts-tooltip" zIndex="8" style="cursor:default;padding:0;white-space:nowrap;" transform="translate(0,-9999)"><path fill="none" d="M 3 0 L 13 0 C 16 0 16 0 16 3 L 16 13 C 16 16 16 16 13 16 L 3 16 C 0 16 0 16 0 13 L 0 3 C 0 0 0 0 3 0" isShadow="true" stroke="black" stroke-width="5" transform="translate(1, 1)" opacity="0.049999999999999996"></path><path fill="none" d="M 3 0 L 13 0 C 16 0 16 0 16 3 L 16 13 C 16 16 16 16 13 16 L 3 16 C 0 16 0 16 0 13 L 0 3 C 0 0 0 0 3 0" isShadow="true" stroke="black" stroke-width="3" transform="translate(1, 1)" opacity="0.09999999999999999"></path><path fill="none" d="M 3 0 L 13 0 C 16 0 16 0 16 3 L 16 13 C 16 16 16 16 13 16 L 3 16 C 0 16 0 16 0 13 L 0 3 C 0 0 0 0 3 0" isShadow="true" stroke="black" stroke-width="1" transform="translate(1, 1)" opacity="0.15"></path><path fill="rgba(249, 249, 249, .85)" d="M 3 0 L 13 0 C 16 0 16 0 16 3 L 16 13 C 16 16 16 16 13 16 L 3 16 C 0 16 0 16 0 13 L 0 3 C 0 0 0 0 3 0"></path><text x="8" zIndex="1" style="font-size:12px;color:#333333;fill:#333333;" y="21"></text></g></svg>