<?xml version="1.0" standalone="no"?><!DOCTYPE svg PUBLIC "-//W3C//DTD SVG 1.1//EN" "http://www.w3.org/Graphics/SVG/1.1/DTD/svg11.dtd"><svg xmlns:xlink="http://www.w3.org/1999/xlink" version="1.1" style="font-family:&quot;Lucida Grande&quot;, &quot;Lucida Sans Unicode&quot;, Arial, Helvetica, sans-serif;font-size:12px;" xmlns="http://www.w3.org/2000/svg" width="225" height="150"><desc>Created with Highstock 2.0.4-modified</desc><defs><clipPath id="highcharts-1"><rect x="0" y="0" width="205" height="91"></rect></clipPath></defs><rect x="0" y="0" width="225" height="150" strokeWidth="0" fill="#FFFFFF" class=" highcharts-background"></rect><g class="highcharts-scrollbar" transform="translate(10,122)"><rect x="0" y="-0.5" fill="#eeeeee" stroke="#eeeeee" stroke-width="1" rx="0" ry="0" height="14" width="205"></rect><rect y="-0.5" height="14" fill="#bfc8d1" stroke="#bfc8d1" stroke-width="1" rx="0" ry="0" x="171.5" width="19"></rect><path fill="none" stroke="#666" stroke-width="1" visibility="visible" d="M 177.5 3.5 L 177.5 9.333333333333334 M 180.5 3.5 L 180.5 9.333333333333334 M 183.5 3.5 L 183.5 9.333333333333334"></path><g><rect x="-0.5" y="-0.5" width="14" height="14" strokeWidth="1" stroke="#bbb" stroke-width="1" fill="#ebe7e8"></rect><path fill="#666" d="M 8 4 L 8 10 5 7"></path></g><g transform="translate(191,0)"><rect x="-0.5" y="-0.5" width="14" height="14" strokeWidth="1" stroke="#bbb" stroke-width="1" fill="#ebe7e8"></rect><path fill="#666" d="M 6 4 L 6 10 9 7"></path></g></g><g class="highcharts-grid" zIndex="1"></g><g class="highcharts-grid" zIndex="1"><path fill="none" d="M 137.5 101 L 137.5 121" stroke="#EEE" stroke-width="1" zIndex="1" opacity="1"></path></g><g class="highcharts-grid" zIndex="1"><path fill="none" d="M 10 9.5 L 215 9.5" stroke="#C0C0C0" stroke-width="1" zIndex="1" opacity="1"></path><path fill="none" d="M 10 56.5 L 215 56.5" stroke="#C0C0C0" stroke-width="1" zIndex="1" opacity="1"></path><path fill="none" d="M 10 101.5 L 215 101.5" stroke="#C0C0C0" stroke-width="1" zIndex="1" opacity="1"></path></g><g class="highcharts-grid" zIndex="1"></g><g class="highcharts-axis" zIndex="2"></g><g class="highcharts-axis" zIndex="2"></g><g class="highcharts-axis" zIndex="2"></g><g class="highcharts-axis" zIndex="2"></g><g class="highcharts-series-group" zIndex="3"><g class="highcharts-series" visibility="visible" zIndex="0.1" transform="translate(10,10) scale(1 1)" clip-path="url(#highcharts-1)"><path fill="none" d="M -1.2878013148283418 34.037822 L 1.2279035792549307 35.721685999999984 L 3.743608473338203 41.35695200000001 L 6.259313367421475 46.47133399999999 L 8.775018261504748 44.520293999999986 L 11.29072315558802 39.225004 L 13.806428049671293 37.01607000000002 L 16.322132943754564 42.55760600000001 L 18.83783783783784 44.25402799999999 L 21.35354273192111 44.455138 L 23.869247626004384 37.11726200000001 L 26.384952520087655 36.07076199999998 L 28.90065741417093 35.59100999999999 L 31.4163623082542 34.99841799999997 L 33.93206720233747 37.63687199999999 L 36.44777209642074 39.50491999999998 L 38.96347699050402 40.024347999999996 L 41.47918188458729 41.386618000000006 L 43.99488677867056 40.43293800000001 L 46.51059167275383 38.779650000000004 L 49.02629656683711 40.92306400000001 L 51.54200146092038 47.56260600000001 L 54.05770635500365 48.67080399999999 L 56.573411249086924 48.75324999999999 L 59.089116143170195 47.66379800000001 L 61.60482103725347 46.921056 L 64.12052593133674 44.807308 L 66.63623082542001 43.47470400000001 L 69.15193571950329 40.794936 L 71.66764061358656 40.748707999999986 L 74.18334550766983 45.668532000000006 L 76.6990504017531 47.98357199999999 L 79.21475529583638 45.203886 L 81.73046018991965 41.857270000000014 L 84.24616508400293 43.460508000000004 L 86.7618699780862 39.16694599999998 L 89.27757487216947 35.204988 L 91.79327976625274 29.687111999999992 L 94.30898466033601 29.159494000000016 L 96.82468955441928 25.220649999999978 L 99.34039444850255 27.487096 L 101.85609934258584 31.04192000000002 L 104.3718042366691 27.76373599999998 L 106.88750913075238 27.762279999999983 L 109.40321402483565 24.749269999999996 L 111.91891891891892 22.42258199999999 L 114.43462381300219 21.756643999999966 L 116.95032870708546 24.25149999999998 L 119.46603360116873 25.91352400000001 L 121.981738495252 26.872663999999986 L 124.49744338933529 26.002340000000004 L 127.01314828341856 29.425031999999987 L 129.52885317750182 29.640702000000005 L 132.0445580715851 27.713504000000015 L 134.56026296566836 24.470628000000005 L 137.07596785975164 25.686206000000013 L 139.59167275383493 28.72706199999999 L 142.10737764791818 36.05747600000001 L 144.62308254200147 37.68928800000002 L 147.13878743608473 37.665810000000015 L 149.654492330168 41.69802 L 152.17019722425127 41.255396 L 154.68590211833455 44.202158000000004 L 157.2016070124178 44.732505999999994 L 159.7173119065011 42.634409999999995 L 162.23301680058438 45.76899600000001 L 164.74872169466764 52.23563800000001 L 167.26442658875092 55.5373 L 169.78013148283418 56.08384599999999 L 172.29583637691746 58.20687600000001 L 174.81154127100072 57.867810000000006 L 177.327246165084 59.249736 L 179.84295105916726 60.82403599999999 L 182.35865595325055 58.71956999999999 L 184.87436084733383 58.82949799999999 L 187.3900657414171 60.28167599999999 L 189.90577063550037 58.032884 L 192.42147552958363 67.439918 L 194.93718042366692 68.794908 L 197.45288531775017 71.399146 L 199.96859021183346 75.2388 L 202.48429510591671 79.195662 L 205 83.51306600000001" stroke="#7cb5ec" stroke-width="2" zIndex="1" stroke-linejoin="round" stroke-linecap="round"></path><path fill="none" d="M -11.287801314828341 34.037822 L -1.2878013148283418 34.037822 L 1.2279035792549307 35.721685999999984 L 3.743608473338203 41.35695200000001 L 6.259313367421475 46.47133399999999 L 8.775018261504748 44.520293999999986 L 11.29072315558802 39.225004 L 13.806428049671293 37.01607000000002 L 16.322132943754564 42.55760600000001 L 18.83783783783784 44.25402799999999 L 21.35354273192111 44.455138 L 23.869247626004384 37.11726200000001 L 26.384952520087655 36.07076199999998 L 28.90065741417093 35.59100999999999 L 31.4163623082542 34.99841799999997 L 33.93206720233747 37.63687199999999 L 36.44777209642074 39.50491999999998 L 38.96347699050402 40.024347999999996 L 41.47918188458729 41.386618000000006 L 43.99488677867056 40.43293800000001 L 46.51059167275383 38.779650000000004 L 49.02629656683711 40.92306400000001 L 51.54200146092038 47.56260600000001 L 54.05770635500365 48.67080399999999 L 56.573411249086924 48.75324999999999 L 59.089116143170195 47.66379800000001 L 61.60482103725347 46.921056 L 64.12052593133674 44.807308 L 66.63623082542001 43.47470400000001 L 69.15193571950329 40.794936 L 71.66764061358656 40.748707999999986 L 74.18334550766983 45.668532000000006 L 76.6990504017531 47.98357199999999 L 79.21475529583638 45.203886 L 81.73046018991965 41.857270000000014 L 84.24616508400293 43.460508000000004 L 86.7618699780862 39.16694599999998 L 89.27757487216947 35.204988 L 91.79327976625274 29.687111999999992 L 94.30898466033601 29.159494000000016 L 96.82468955441928 25.220649999999978 L 99.34039444850255 27.487096 L 101.85609934258584 31.04192000000002 L 104.3718042366691 27.76373599999998 L 106.88750913075238 27.762279999999983 L 109.40321402483565 24.749269999999996 L 111.91891891891892 22.42258199999999 L 114.43462381300219 21.756643999999966 L 116.95032870708546 24.25149999999998 L 119.46603360116873 25.91352400000001 L 121.981738495252 26.872663999999986 L 124.49744338933529 26.002340000000004 L 127.01314828341856 29.425031999999987 L 129.52885317750182 29.640702000000005 L 132.0445580715851 27.713504000000015 L 134.56026296566836 24.470628000000005 L 137.07596785975164 25.686206000000013 L 139.59167275383493 28.72706199999999 L 142.10737764791818 36.05747600000001 L 144.62308254200147 37.68928800000002 L 147.13878743608473 37.665810000000015 L 149.654492330168 41.69802 L 152.17019722425127 41.255396 L 154.68590211833455 44.202158000000004 L 157.2016070124178 44.732505999999994 L 159.7173119065011 42.634409999999995 L 162.23301680058438 45.76899600000001 L 164.74872169466764 52.23563800000001 L 167.26442658875092 55.5373 L 169.78013148283418 56.08384599999999 L 172.29583637691746 58.20687600000001 L 174.81154127100072 57.867810000000006 L 177.327246165084 59.249736 L 179.84295105916726 60.82403599999999 L 182.35865595325055 58.71956999999999 L 184.87436084733383 58.82949799999999 L 187.3900657414171 60.28167599999999 L 189.90577063550037 58.032884 L 192.42147552958363 67.439918 L 194.93718042366692 68.794908 L 197.45288531775017 71.399146 L 199.96859021183346 75.2388 L 202.48429510591671 79.195662 L 205 83.51306600000001 L 215 83.51306600000001" stroke-linejoin="round" visibility="visible" stroke="rgba(192,192,192,0.0001)" stroke-width="22" zIndex="2" class=" highcharts-tracker" style=""></path></g><g class="highcharts-markers highcharts-tracker" visibility="visible" zIndex="0.1" transform="translate(10,10) scale(1 1)" style="" clip-path="none"></g><g class="highcharts-series" visibility="visible" zIndex="0.1" transform="translate(24,101) scale(1 1)" clip-path="url(#highcharts-1)"><path fill="rgba(69,114,167,0.05)" d="M 3.831093045182757e-13 16.00851895814825 C 3.831093045182757e-13 16.00851895814825 0.617441860465496 16.206792986529546 1.029069767442238 16.206792986529546 C 1.44069767441898 16.206792986529546 1.6465116279073506 16.079012203300778 2.0581395348840927 15.950816891150328 C 2.469767441860834 15.82262157899988 2.675581395349206 15.695855883188264 3.0872093023259475 15.56581642577731 C 3.49883720930269 15.435776968366357 3.7046511627910603 15.300619604095568 4.116279069767803 15.300619604095568 C 4.527906976744545 15.300619604095568 4.7337209302329155 15.392286723374381 5.145348837209657 15.538106393603165 C 5.556976744186399 15.68392606383195 5.762790697674769 16.008372407519378 6.174418604651512 16.02971795523949 C 6.586046511628254 16.051063502959604 6.791860465116625 16.051063502959604 7.203488372093367 16.051063502959604 C 7.615116279070108 16.051063502959604 7.82093023255848 15.983617314556032 8.232558139535222 15.983617314556032 C 8.644186046511965 15.983617314556032 8.850000000000335 16.375341762048194 9.261627906977077 16.516510094766215 C 9.67325581395382 16.657678427484235 9.87906976744219 16.650791146092907 10.290697674418931 16.689458978146128 C 10.702325581395673 16.72812681019935 10.908139534884043 16.689458978146128 11.319767441860787 16.72812681019935 C 11.731395348837527 16.76679464225257 11.937209302325899 16.895828463266515 12.34883720930264 17.149400649799503 C 12.760465116279383 17.402972836332495 12.966279069767754 17.783915464333408 13.377906976744496 17.9959877428643 C 13.78953488372124 18.208060021395198 13.99534883720961 18.142312863221246 14.406976744186352 18.20976204245398 C 14.818604651163094 18.277211221686713 15.024418604651464 18.333233639027977 15.436046511628206 18.333233639027977 C 15.847674418604948 18.333233639027977 16.05348837209332 18.227923553449585 16.46511627907006 18.227923553449585 C 16.8767441860468 18.227923553449585 17.082558139535173 18.229371114763378 17.494186046511917 18.229371114763378 C 17.90581395348866 18.229371114763378 18.11162790697703 17.482498864083084 18.52325581395377 17.42818660285593 C 18.934883720930515 17.373874341628778 19.140697674418885 17.41666616819514 19.552325581395625 17.373874341628778 C 19.96395348837237 17.331082515062413 20.16976744186074 17.214227470024117 20.581395348837482 17.214227470024117 C 20.993023255814244 17.214227470024117 21.19883720930262 17.296378967245154 21.610465116279382 17.296378967245154 C 22.022093023256105 17.296378967245154 22.22790697674447 17.165362226497642 22.63953488372119 17.09981868397296 C 23.05116279069795 17.03427514144827 23.256976744186332 17.09981868397296 23.668604651163093 16.96866125462173 C 24.080232558139834 16.8375038252705 24.286046511628207 16.32462268297474 24.697674418604947 16.32462268297474 C 25.109302325581687 16.32462268297474 25.31511627907006 16.399745612034906 25.7267441860468 16.445311612097594 C 26.13837209302354 16.490877612160283 26.344186046511915 16.55245268328818 26.75581395348866 16.55245268328818 C 27.167441860465402 16.55245268328818 27.373255813953772 16.168696881378686 27.784883720930512 15.889080195614582 C 28.196511627907256 15.609463509850473 28.402325581395626 15.440893080728696 28.813953488372366 15.154369254467639 C 29.22558139534911 14.867845428206579 29.43139534883748 14.456461064309288 29.843023255814224 14.456461064309288 C 30.25465116279097 14.456461064309288 30.46046511627934 14.86518957191186 30.872093023256078 15.076008334124907 C 31.283720930232825 15.28682709633796 31.489534883721195 15.510554875374542 31.90116279069793 15.510554875374542 C 32.31279069767468 15.510554875374542 32.518604651163045 15.046473896162723 32.930232558139785 14.986911533426824 C 33.34186046511653 14.927349170690924 33.5476744186049 14.927349170690924 33.95930232558164 14.927349170690924 C 34.370930232558386 14.927349170690924 34.57674418604675 15.0935704829567 34.98837209302349 15.0935704829567 C 35.40000000000024 15.0935704829567 35.60581395348861 14.715310748346132 36.017441860465354 14.715310748346132 C 36.429069767442094 14.715310748346132 36.63488372093046 14.760368187818326 37.04651162790721 14.760368187818326 C 37.45813953488395 14.760368187818326 37.663953488372314 14.188829707690713 38.07558139534906 13.981177037227209 C 38.4872093023258 13.773524366763708 38.69302325581417 13.946965062090813 39.104651162790915 13.722104835500808 C 39.516279069767656 13.497244608910806 39.72209302325602 13.13249026245842 40.13372093023277 12.856875904277196 C 40.54534883720951 12.581261546095977 40.751162790697876 12.495553833369662 41.16279069767462 12.344033044594697 C 41.57441860465136 12.192512255819736 41.78023255813973 12.302849446684641 42.19186046511648 12.099271960402378 C 42.603488372093224 11.895694474120114 42.80930232558159 11.451032470116232 43.22093023255834 11.326145613183382 C 43.63255813953508 11.201258756250532 43.83837209302345 11.249180811892876 44.25000000000019 11.201258756250532 C 44.66162790697693 11.15333670060819 44.867441860465306 11.08653533497167 45.279069767442046 11.08653533497167 C 45.690697674418786 11.08653533497167 45.89651162790716 11.324235669681341 46.3081395348839 11.411584629817895 C 46.71976744186064 11.49893358995445 46.92558139534901 11.491015070668508 47.33720930232575 11.523280135654442 C 47.74883720930249 11.555545200640374 47.95465116279087 11.538575834148235 48.36627906976761 11.572909954747558 C 48.77790697674435 11.60724407534688 48.98372093023272 11.694950738651059 49.39534883720946 11.694950738651059 C 49.8069767441862 11.694950738651059 50.012790697674575 10.347432062119282 50.42441860465132 10.347432062119282 C 50.83604651162808 10.347432062119282 51.041860465116464 10.451191701860742 51.45348837209322 10.695092623586445 C 51.865116279069944 10.938993545312131 52.070930232558304 11.566936670747753 52.48255813953503 11.566936670747753 C 52.89418604651179 11.566936670747753 53.10000000000017 11.566936670747753 53.51162790697693 11.543608801459907 C 53.92325581395365 11.520280932172062 54.12906976744201 11.543608801459907 54.54069767441874 11.27367151555841 C 54.9523255813955 11.003734229656914 55.15813953488388 9.757129718003089 55.56976744186064 9.757129718003089 C 55.98139534883736 9.757129718003089 56.18720930232572 10.0057142781945 56.598837209302445 10.293173635817023 C 57.01046511627921 10.58063299343957 57.21627906976759 11.19442650611577 57.62790697674435 11.19442650611577 C 58.03953488372107 11.19442650611577 58.24534883720944 10.327537066542122 58.65697674418616 10.245908964424208 C 59.06860465116292 10.164280862306294 59.2744186046513 10.245908964424208 59.686046511628064 10.164280862306294 C 60.09767441860479 10.08265276018838 60.30348837209315 9.735382561743256 60.71511627906987 9.403488096380306 C 61.12674418604663 9.07159363101732 61.33255813953501 8.587871637440681 61.74418604651177 8.504808535491453 C 62.1558139534885 8.421745433542224 62.36162790697686 8.421745433542224 62.773255813953575 8.421745433542224 C 63.18488372093034 8.421745433542224 63.39069767441872 9.221496141950018 63.80232558139548 9.221496141950018 C 64.2139534883722 9.221496141950018 64.41976744186056 8.333505804481602 64.83139534883729 8.333505804481602 C 65.24302325581405 8.333505804481602 65.44883720930243 8.49197165746727 65.86046511627919 8.658544332342853 C 66.2720930232559 8.82511700721842 66.47790697674426 9.000803097446246 66.889534883721 9.166369178859481 C 67.30116279069776 9.331935260272727 67.50697674418613 9.486374739409056 67.9186046511629 9.486374739409056 C 68.33023255813961 9.486374739409056 68.53604651162797 8.632263079075354 68.9476744186047 8.240387534894003 C 69.35930232558147 7.848511990712624 69.56511627906984 7.526997018502227 69.97674418604662 7.526997018502227 C 70.38837209302332 7.526997018502227 70.59418604651168 8.410915641151226 71.00581395348841 8.410915641151226 C 71.41744186046517 8.410915641151226 71.62325581395355 8.063040338150325 72.03488372093032 8.063040338150325 C 72.44651162790703 8.063040338150325 72.65232558139539 8.063040338150325 73.06395348837212 8.260973412007294 C 73.47558139534888 8.458906485864263 73.68139534883726 9.592525247981609 74.09302325581403 9.592525247981609 C 74.50465116279074 9.592525247981609 74.7104651162791 9.38637672531961 75.12209302325583 9.2403383656626 C 75.53372093023259 9.094300006005579 75.73953488372096 8.93921091877554 76.15116279069774 8.862333449696527 C 76.56279069767446 8.785455980617513 76.76860465116283 8.785455980617513 77.18023255813955 8.785455980617513 C 77.59186046511631 8.785455980617513 77.79767441860469 9.817990100594745 78.20930232558145 9.817990100594745 C 78.62093023255817 9.817990100594745 78.82674418604654 8.861993691503871 79.23837209302326 8.840485442677409 C 79.65000000000002 8.818977193850946 79.8558139534884 8.840485442677409 80.26744186046515 8.818977193850946 C 80.67906976744187 8.797468945024484 80.88488372093025 8.256134250425236 81.29651162790697 8.256134250425236 C 81.70813953488373 8.256134250425236 81.9139534883721 8.256134250425236 82.32558139534886 8.269326797853207 C 82.73720930232562 8.282519345281179 82.943023255814 8.405058401322854 83.35465116279077 8.405058401322854 C 83.76627906976749 8.405058401322854 83.97209302325587 8.368152765811136 84.38372093023258 8.368152765811136 C 84.7953488372093 8.368152765811136 85.00116279069766 9.111030465064365 85.41279069767438 9.111030465064365 C 85.82441860465114 9.111030465064365 86.03023255813953 8.50213485385493 86.44186046511629 8.219771749489109 C 86.85348837209305 7.937408645123288 87.05930232558143 7.906581092265176 87.47093023255819 7.699214943235258 C 87.88255813953491 7.491848794205362 88.08837209302328 7.182941004339575 88.5 7.182941004339575 C 88.91162790697672 7.182941004339575 89.11744186046508 7.2664240187029705 89.5290697674418 7.2664240187029705 C 89.94069767441856 7.2664240187029705 90.14651162790695 6.879973838619164 90.55813953488371 6.395500548757333 C 90.96976744186047 5.911027258895503 91.17558139534884 5.306794469980833 91.5872093023256 4.844057569393817 C 91.99883720930232 4.381320668806849 92.2046511627907 4.2815421815777714 92.61627906976742 4.081816045822372 C 93.02790697674418 3.882089910066951 93.23372093023256 4.002721774169435 93.64534883720933 3.845426890616764 C 94.05697674418604 3.6881320070641084 94.2627906976744 3.731073733987978 94.67441860465112 3.2953416280590524 C 95.08604651162788 2.8596095221300817 95.29186046511627 1.666766360972023 95.70348837209303 1.666766360972023 C 96.11511627906975 1.666766360972023 96.32093023255811 1.666766360972023 96.73255813953483 2.503109864161324 C 97.14418604651159 3.3394533673506253 97.34999999999998 4.873481944842837 97.76162790697674 5.947407944072934 C 98.17325581395346 7.021333943302919 98.37906976744182 6.5988571922144335 98.79069767441854 7.872739860311528 C 99.2023255813953 9.146622528408754 99.40813953488369 11.035277906649219 99.81976744186045 12.316821284558733 C 100.23139534883717 13.598364662468116 100.43720930232554 13.590554889730557 100.84883720930226 14.280456749858772 C 101.26046511627902 14.97035860998706 101.4662790697674 15.766330585199988 101.87790697674416 15.766330585199988 C 102.28953488372088 15.766330585199988 102.49534883720926 15.243830936323334 102.90697674418597 15.243830936323334 C 103.31860465116274 15.243830936323334 103.5244186046511 16.13742369497562 103.93604651162786 16.13742369497562 C 104.34767441860458 16.13742369497562 104.55348837209294 16.12718608675845 104.96511627906968 16.000225388885553 C 105.37674418604642 15.873264691012652 105.58255813953481 15.764813875916015 105.99418604651157 15.50262020561113 C 106.40581395348829 15.240426535306272 106.61162790697668 15.007484849057612 107.02325581395338 14.6892570373612 C 107.43488372093016 14.371029225664733 107.64069767441853 13.911481147128935 108.0523255813953 13.911481147128935 C 108.46395348837203 13.911481147128935 108.66976744186039 14.525548619756268 109.08139534883709 14.525548619756268 C 109.49302325581387 14.525548619756268 109.69883720930224 13.654781271092823 110.110465116279 13.654781271092823 C 110.52209302325574 13.654781271092823 110.7279069767441 14.120919940767227 111.1395348837208 14.120919940767227 C 111.55116279069757 14.120919940767227 111.75697674418595 13.50069614539546 112.16860465116271 13.287017552338913 C 112.58023255813944 13.073338959282381 112.7860465116278 13.148115789592051 113.1976744186045 13.052526975484533 C 113.60930232558128 12.956938161376998 113.81511627906966 12.890323064580619 114.22674418604642 12.809073481801283 C 114.63837209302315 12.727823899021953 114.84418604651151 12.646279061587869 115.25581395348823 12.646279061587869 C 115.66744186046499 12.646279061587869 115.87325581395336 13.264738267754819 116.28488372093013 13.264738267754819 C 116.69651162790686 13.264738267754819 116.90232558139522 13.255434516034788 117.31395348837194 13.175554733011072 C 117.7255813953487 13.095674949987348 117.93139534883707 12.865339352636223 118.34302325581383 12.865339352636223 C 118.75465116279057 12.865339352636223 118.96046511627893 13.865643699411619 119.37209302325564 13.893243070906816 C 119.7837209302324 13.920842442402014 119.98953488372078 13.920842442402014 120.40116279069754 13.920842442402014 C 120.81279069767427 13.920842442402014 121.01860465116263 13.787124863289188 121.43023255813935 13.627067649923685 C 121.84186046511611 13.467010436558164 122.04767441860449 13.330732588050605 122.45930232558125 13.120556375574449 C 122.87093023255802 12.910380163098283 123.0767441860464 12.85134119546553 123.48837209302316 12.576186587542885 C 123.89999999999989 12.30103197962026 124.10581395348825 12.003216696578939 124.51744186046497 11.744783335961273 C 124.9290697674417 11.486349975343597 125.13488372093006 11.582572486333676 125.54651162790677 11.284019784454529 C 125.95813953488354 10.98546708257533 126.1639534883719 10.552772223475717 126.57558139534868 10.252019826565405 C 126.98720930232544 9.951267429655104 127.19302325581381 9.946528879566012 127.60465116279057 9.780257799903 C 128.0162790697673 9.61398672024 128.22209302325567 9.560873901139455 128.63372093023239 9.42066442825037 C 129.04534883720913 9.280454955361275 129.2511627906975 9.298181599796889 129.66279069767418 9.079210435457547 C 130.07441860465096 8.86023927111816 130.28023255813932 8.325808606553554 130.6918604651161 8.325808606553554 C 131.10348837209284 8.325808606553554 131.30930232558126 9.619991228496238 131.720930232558 9.651335118100667 C 132.13255813953475 9.682679007705095 132.3383720930231 9.682679007705095 132.7499999999998 9.682679007705095 C 133.16162790697655 9.682679007705095 133.3674418604649 9.614705237037569 133.7790697674416 9.614705237037569 C 134.19069767441837 9.614705237037569 134.39651162790673 9.839294733771935 134.8081395348835 10.061572199931906 C 135.21976744186026 10.28384966609186 135.42558139534867 10.44206309309637 135.83720930232542 10.726092567837384 C 136.24883720930217 11.010122042578395 136.45465116279053 11.457927527663374 136.86627906976722 11.481719573636965 C 137.27790697674396 11.505511619610557 137.48372093023232 11.481719573636965 137.89534883720904 11.505511619610557 C 138.3069767441858 11.529303665584148 138.51279069767418 12.05946402427309 138.92441860465092 12.05946402427309 C 139.33604651162767 12.05946402427309 139.5418604651161 12.041750539485763 139.95348837209283 11.92801409182994 C 140.36511627906958 11.814277644174116 140.57093023255794 11.490781785993974 140.98255813953463 11.490781785993974 C 141.39418604651138 11.490781785993974 141.59999999999974 11.496808306752841 142.01162790697646 11.649811350459856 C 142.4232558139532 11.80281439416688 142.6290697674416 12.018215944086329 143.04069767441834 12.255797004529072 C 143.4523255813951 12.493378064971814 143.6581395348835 12.58959040714277 144.06976744186025 12.837716652673572 C 144.481395348837 13.085842898204376 144.68720930232536 13.496428232183089 145.09883720930208 13.496428232183089 C 145.51046511627882 13.496428232183089 145.7162790697672 12.335503199828299 146.12790697674396 12.048332158136859 C 146.5395348837207 11.761161116445418 146.74534883720906 11.931859699964795 147.15697674418578 11.761161116445418 C 147.56860465116253 11.59046253292603 147.77441860465092 11.194839240539945 148.18604651162767 11.194839240539945 C 148.5976744186044 11.194839240539945 148.80348837209277 11.365541532687494 149.2151162790695 11.534516680811295 C 149.62674418604624 11.703491828935107 149.83255813953463 11.898053759795266 150.24418604651137 12.039714981158973 C 150.65581395348812 12.18137620252268 150.86162790697648 12.190291146451814 151.2732558139532 12.242822787629834 C 151.68488372092995 12.295354428807858 151.89069767441833 12.302373187049087 152.30232558139508 12.302373187049087 C 152.71395348837183 12.302373187049087 152.9197674418602 12.255082196359659 153.3313953488369 12.255082196359659 C 153.74302325581365 12.255082196359659 153.94883720930207 12.397634684813255 154.36046511627882 12.568799837681716 C 154.77209302325554 12.739964990550167 154.9779069767439 12.994983422432128 155.38953488372061 13.11090796070194 C 155.8011627906974 13.226832498971753 156.00697674418575 13.11942404765419 156.41860465116252 13.226832498971753 C 156.83023255813924 13.3342409502893 157.0360465116276 13.553769007018396 157.44767441860432 13.647950217289718 C 157.85930232558107 13.742131427561041 158.06511627906949 13.742131427561041 158.47674418604623 13.742131427561041 C 158.88837209302295 13.742131427561041 159.0941860465113 13.691229309742942 159.50581395348803 13.654568922222406 C 159.9174418604648 13.617908534701865 160.12325581395316 13.55882948995835 160.53488372092994 13.55882948995835 C 160.94651162790666 13.55882948995835 161.15232558139502 13.582808402937909 161.56395348837174 13.712605962086336 C 161.97558139534848 13.842403521234772 162.1813953488369 14.20781728570051 162.59302325581365 14.20781728570051 C 163.00465116279037 14.20781728570051 163.21046511627873 13.849056560886222 163.62209302325545 13.849056560886222 C 164.03372093023222 13.849056560886222 164.23953488372058 14.00539079011246 164.65116279069736 14.00539079011246 C 165.06279069767407 14.00539079011246 165.26860465116243 13.470404549122925 165.68023255813915 13.24748716515574 C 166.0918604651159 13.02456978118854 166.29767441860432 13.010856949119772 166.70930232558106 12.890803870276493 C 167.12093023255784 12.770750791433207 167.3267441860462 12.647221770939332 167.73837209302297 12.647221770939332 C 168.1499999999997 12.647221770939332 168.35581395348805 12.774451643436702 168.76744186046477 12.799742094819816 C 169.1790697674415 12.82503254620293 169.38488372092985 12.799742094819816 169.79651162790657 12.82503254620293 C 170.20813953488332 12.850322997586044 170.4139534883717 13.150526876428264 170.82558139534848 13.361222416479901 C 171.23720930232523 13.571917956531522 171.44302325581364 13.650135317074541 171.8546511627904 13.878510246461072 C 172.2662790697671 14.106885175847589 172.47209302325547 14.291844511338004 172.8837209302322 14.503097063412518 C 173.29534883720893 14.714349615487048 173.50116279069726 14.819878510126829 173.912790697674 14.934773006833685 C 174.32441860465076 15.049667503540544 174.53023255813915 14.934773006833685 174.9418604651159 15.077569546946805 C 175.35348837209264 15.220366087059924 175.55930232558106 15.605909088842688 175.9709302325578 15.899957841272151 C 176.38255813953452 16.19400659370159 176.9999999999996 16.54781330909406 176.9999999999996 16.54781330909406 L 176.9999999999996 20 L 3.831093045182757e-13 20" zIndex="0"></path><path fill="none" d="M 3.831093045182757e-13 16.00851895814825 C 3.831093045182757e-13 16.00851895814825 0.617441860465496 16.206792986529546 1.029069767442238 16.206792986529546 C 1.44069767441898 16.206792986529546 1.6465116279073506 16.079012203300778 2.0581395348840927 15.950816891150328 C 2.469767441860834 15.82262157899988 2.675581395349206 15.695855883188264 3.0872093023259475 15.56581642577731 C 3.49883720930269 15.435776968366357 3.7046511627910603 15.300619604095568 4.116279069767803 15.300619604095568 C 4.527906976744545 15.300619604095568 4.7337209302329155 15.392286723374381 5.145348837209657 15.538106393603165 C 5.556976744186399 15.68392606383195 5.762790697674769 16.008372407519378 6.174418604651512 16.02971795523949 C 6.586046511628254 16.051063502959604 6.791860465116625 16.051063502959604 7.203488372093367 16.051063502959604 C 7.615116279070108 16.051063502959604 7.82093023255848 15.983617314556032 8.232558139535222 15.983617314556032 C 8.644186046511965 15.983617314556032 8.850000000000335 16.375341762048194 9.261627906977077 16.516510094766215 C 9.67325581395382 16.657678427484235 9.87906976744219 16.650791146092907 10.290697674418931 16.689458978146128 C 10.702325581395673 16.72812681019935 10.908139534884043 16.689458978146128 11.319767441860787 16.72812681019935 C 11.731395348837527 16.76679464225257 11.937209302325899 16.895828463266515 12.34883720930264 17.149400649799503 C 12.760465116279383 17.402972836332495 12.966279069767754 17.783915464333408 13.377906976744496 17.9959877428643 C 13.78953488372124 18.208060021395198 13.99534883720961 18.142312863221246 14.406976744186352 18.20976204245398 C 14.818604651163094 18.277211221686713 15.024418604651464 18.333233639027977 15.436046511628206 18.333233639027977 C 15.847674418604948 18.333233639027977 16.05348837209332 18.227923553449585 16.46511627907006 18.227923553449585 C 16.8767441860468 18.227923553449585 17.082558139535173 18.229371114763378 17.494186046511917 18.229371114763378 C 17.90581395348866 18.229371114763378 18.11162790697703 17.482498864083084 18.52325581395377 17.42818660285593 C 18.934883720930515 17.373874341628778 19.140697674418885 17.41666616819514 19.552325581395625 17.373874341628778 C 19.96395348837237 17.331082515062413 20.16976744186074 17.214227470024117 20.581395348837482 17.214227470024117 C 20.993023255814244 17.214227470024117 21.19883720930262 17.296378967245154 21.610465116279382 17.296378967245154 C 22.022093023256105 17.296378967245154 22.22790697674447 17.165362226497642 22.63953488372119 17.09981868397296 C 23.05116279069795 17.03427514144827 23.256976744186332 17.09981868397296 23.668604651163093 16.96866125462173 C 24.080232558139834 16.8375038252705 24.286046511628207 16.32462268297474 24.697674418604947 16.32462268297474 C 25.109302325581687 16.32462268297474 25.31511627907006 16.399745612034906 25.7267441860468 16.445311612097594 C 26.13837209302354 16.490877612160283 26.344186046511915 16.55245268328818 26.75581395348866 16.55245268328818 C 27.167441860465402 16.55245268328818 27.373255813953772 16.168696881378686 27.784883720930512 15.889080195614582 C 28.196511627907256 15.609463509850473 28.402325581395626 15.440893080728696 28.813953488372366 15.154369254467639 C 29.22558139534911 14.867845428206579 29.43139534883748 14.456461064309288 29.843023255814224 14.456461064309288 C 30.25465116279097 14.456461064309288 30.46046511627934 14.86518957191186 30.872093023256078 15.076008334124907 C 31.283720930232825 15.28682709633796 31.489534883721195 15.510554875374542 31.90116279069793 15.510554875374542 C 32.31279069767468 15.510554875374542 32.518604651163045 15.046473896162723 32.930232558139785 14.986911533426824 C 33.34186046511653 14.927349170690924 33.5476744186049 14.927349170690924 33.95930232558164 14.927349170690924 C 34.370930232558386 14.927349170690924 34.57674418604675 15.0935704829567 34.98837209302349 15.0935704829567 C 35.40000000000024 15.0935704829567 35.60581395348861 14.715310748346132 36.017441860465354 14.715310748346132 C 36.429069767442094 14.715310748346132 36.63488372093046 14.760368187818326 37.04651162790721 14.760368187818326 C 37.45813953488395 14.760368187818326 37.663953488372314 14.188829707690713 38.07558139534906 13.981177037227209 C 38.4872093023258 13.773524366763708 38.69302325581417 13.946965062090813 39.104651162790915 13.722104835500808 C 39.516279069767656 13.497244608910806 39.72209302325602 13.13249026245842 40.13372093023277 12.856875904277196 C 40.54534883720951 12.581261546095977 40.751162790697876 12.495553833369662 41.16279069767462 12.344033044594697 C 41.57441860465136 12.192512255819736 41.78023255813973 12.302849446684641 42.19186046511648 12.099271960402378 C 42.603488372093224 11.895694474120114 42.80930232558159 11.451032470116232 43.22093023255834 11.326145613183382 C 43.63255813953508 11.201258756250532 43.83837209302345 11.249180811892876 44.25000000000019 11.201258756250532 C 44.66162790697693 11.15333670060819 44.867441860465306 11.08653533497167 45.279069767442046 11.08653533497167 C 45.690697674418786 11.08653533497167 45.89651162790716 11.324235669681341 46.3081395348839 11.411584629817895 C 46.71976744186064 11.49893358995445 46.92558139534901 11.491015070668508 47.33720930232575 11.523280135654442 C 47.74883720930249 11.555545200640374 47.95465116279087 11.538575834148235 48.36627906976761 11.572909954747558 C 48.77790697674435 11.60724407534688 48.98372093023272 11.694950738651059 49.39534883720946 11.694950738651059 C 49.8069767441862 11.694950738651059 50.012790697674575 10.347432062119282 50.42441860465132 10.347432062119282 C 50.83604651162808 10.347432062119282 51.041860465116464 10.451191701860742 51.45348837209322 10.695092623586445 C 51.865116279069944 10.938993545312131 52.070930232558304 11.566936670747753 52.48255813953503 11.566936670747753 C 52.89418604651179 11.566936670747753 53.10000000000017 11.566936670747753 53.51162790697693 11.543608801459907 C 53.92325581395365 11.520280932172062 54.12906976744201 11.543608801459907 54.54069767441874 11.27367151555841 C 54.9523255813955 11.003734229656914 55.15813953488388 9.757129718003089 55.56976744186064 9.757129718003089 C 55.98139534883736 9.757129718003089 56.18720930232572 10.0057142781945 56.598837209302445 10.293173635817023 C 57.01046511627921 10.58063299343957 57.21627906976759 11.19442650611577 57.62790697674435 11.19442650611577 C 58.03953488372107 11.19442650611577 58.24534883720944 10.327537066542122 58.65697674418616 10.245908964424208 C 59.06860465116292 10.164280862306294 59.2744186046513 10.245908964424208 59.686046511628064 10.164280862306294 C 60.09767441860479 10.08265276018838 60.30348837209315 9.735382561743256 60.71511627906987 9.403488096380306 C 61.12674418604663 9.07159363101732 61.33255813953501 8.587871637440681 61.74418604651177 8.504808535491453 C 62.1558139534885 8.421745433542224 62.36162790697686 8.421745433542224 62.773255813953575 8.421745433542224 C 63.18488372093034 8.421745433542224 63.39069767441872 9.221496141950018 63.80232558139548 9.221496141950018 C 64.2139534883722 9.221496141950018 64.41976744186056 8.333505804481602 64.83139534883729 8.333505804481602 C 65.24302325581405 8.333505804481602 65.44883720930243 8.49197165746727 65.86046511627919 8.658544332342853 C 66.2720930232559 8.82511700721842 66.47790697674426 9.000803097446246 66.889534883721 9.166369178859481 C 67.30116279069776 9.331935260272727 67.50697674418613 9.486374739409056 67.9186046511629 9.486374739409056 C 68.33023255813961 9.486374739409056 68.53604651162797 8.632263079075354 68.9476744186047 8.240387534894003 C 69.35930232558147 7.848511990712624 69.56511627906984 7.526997018502227 69.97674418604662 7.526997018502227 C 70.38837209302332 7.526997018502227 70.59418604651168 8.410915641151226 71.00581395348841 8.410915641151226 C 71.41744186046517 8.410915641151226 71.62325581395355 8.063040338150325 72.03488372093032 8.063040338150325 C 72.44651162790703 8.063040338150325 72.65232558139539 8.063040338150325 73.06395348837212 8.260973412007294 C 73.47558139534888 8.458906485864263 73.68139534883726 9.592525247981609 74.09302325581403 9.592525247981609 C 74.50465116279074 9.592525247981609 74.7104651162791 9.38637672531961 75.12209302325583 9.2403383656626 C 75.53372093023259 9.094300006005579 75.73953488372096 8.93921091877554 76.15116279069774 8.862333449696527 C 76.56279069767446 8.785455980617513 76.76860465116283 8.785455980617513 77.18023255813955 8.785455980617513 C 77.59186046511631 8.785455980617513 77.79767441860469 9.817990100594745 78.20930232558145 9.817990100594745 C 78.62093023255817 9.817990100594745 78.82674418604654 8.861993691503871 79.23837209302326 8.840485442677409 C 79.65000000000002 8.818977193850946 79.8558139534884 8.840485442677409 80.26744186046515 8.818977193850946 C 80.67906976744187 8.797468945024484 80.88488372093025 8.256134250425236 81.29651162790697 8.256134250425236 C 81.70813953488373 8.256134250425236 81.9139534883721 8.256134250425236 82.32558139534886 8.269326797853207 C 82.73720930232562 8.282519345281179 82.943023255814 8.405058401322854 83.35465116279077 8.405058401322854 C 83.76627906976749 8.405058401322854 83.97209302325587 8.368152765811136 84.38372093023258 8.368152765811136 C 84.7953488372093 8.368152765811136 85.00116279069766 9.111030465064365 85.41279069767438 9.111030465064365 C 85.82441860465114 9.111030465064365 86.03023255813953 8.50213485385493 86.44186046511629 8.219771749489109 C 86.85348837209305 7.937408645123288 87.05930232558143 7.906581092265176 87.47093023255819 7.699214943235258 C 87.88255813953491 7.491848794205362 88.08837209302328 7.182941004339575 88.5 7.182941004339575 C 88.91162790697672 7.182941004339575 89.11744186046508 7.2664240187029705 89.5290697674418 7.2664240187029705 C 89.94069767441856 7.2664240187029705 90.14651162790695 6.879973838619164 90.55813953488371 6.395500548757333 C 90.96976744186047 5.911027258895503 91.17558139534884 5.306794469980833 91.5872093023256 4.844057569393817 C 91.99883720930232 4.381320668806849 92.2046511627907 4.2815421815777714 92.61627906976742 4.081816045822372 C 93.02790697674418 3.882089910066951 93.23372093023256 4.002721774169435 93.64534883720933 3.845426890616764 C 94.05697674418604 3.6881320070641084 94.2627906976744 3.731073733987978 94.67441860465112 3.2953416280590524 C 95.08604651162788 2.8596095221300817 95.29186046511627 1.666766360972023 95.70348837209303 1.666766360972023 C 96.11511627906975 1.666766360972023 96.32093023255811 1.666766360972023 96.73255813953483 2.503109864161324 C 97.14418604651159 3.3394533673506253 97.34999999999998 4.873481944842837 97.76162790697674 5.947407944072934 C 98.17325581395346 7.021333943302919 98.37906976744182 6.5988571922144335 98.79069767441854 7.872739860311528 C 99.2023255813953 9.146622528408754 99.40813953488369 11.035277906649219 99.81976744186045 12.316821284558733 C 100.23139534883717 13.598364662468116 100.43720930232554 13.590554889730557 100.84883720930226 14.280456749858772 C 101.26046511627902 14.97035860998706 101.4662790697674 15.766330585199988 101.87790697674416 15.766330585199988 C 102.28953488372088 15.766330585199988 102.49534883720926 15.243830936323334 102.90697674418597 15.243830936323334 C 103.31860465116274 15.243830936323334 103.5244186046511 16.13742369497562 103.93604651162786 16.13742369497562 C 104.34767441860458 16.13742369497562 104.55348837209294 16.12718608675845 104.96511627906968 16.000225388885553 C 105.37674418604642 15.873264691012652 105.58255813953481 15.764813875916015 105.99418604651157 15.50262020561113 C 106.40581395348829 15.240426535306272 106.61162790697668 15.007484849057612 107.02325581395338 14.6892570373612 C 107.43488372093016 14.371029225664733 107.64069767441853 13.911481147128935 108.0523255813953 13.911481147128935 C 108.46395348837203 13.911481147128935 108.66976744186039 14.525548619756268 109.08139534883709 14.525548619756268 C 109.49302325581387 14.525548619756268 109.69883720930224 13.654781271092823 110.110465116279 13.654781271092823 C 110.52209302325574 13.654781271092823 110.7279069767441 14.120919940767227 111.1395348837208 14.120919940767227 C 111.55116279069757 14.120919940767227 111.75697674418595 13.50069614539546 112.16860465116271 13.287017552338913 C 112.58023255813944 13.073338959282381 112.7860465116278 13.148115789592051 113.1976744186045 13.052526975484533 C 113.60930232558128 12.956938161376998 113.81511627906966 12.890323064580619 114.22674418604642 12.809073481801283 C 114.63837209302315 12.727823899021953 114.84418604651151 12.646279061587869 115.25581395348823 12.646279061587869 C 115.66744186046499 12.646279061587869 115.87325581395336 13.264738267754819 116.28488372093013 13.264738267754819 C 116.69651162790686 13.264738267754819 116.90232558139522 13.255434516034788 117.31395348837194 13.175554733011072 C 117.7255813953487 13.095674949987348 117.93139534883707 12.865339352636223 118.34302325581383 12.865339352636223 C 118.75465116279057 12.865339352636223 118.96046511627893 13.865643699411619 119.37209302325564 13.893243070906816 C 119.7837209302324 13.920842442402014 119.98953488372078 13.920842442402014 120.40116279069754 13.920842442402014 C 120.81279069767427 13.920842442402014 121.01860465116263 13.787124863289188 121.43023255813935 13.627067649923685 C 121.84186046511611 13.467010436558164 122.04767441860449 13.330732588050605 122.45930232558125 13.120556375574449 C 122.87093023255802 12.910380163098283 123.0767441860464 12.85134119546553 123.48837209302316 12.576186587542885 C 123.89999999999989 12.30103197962026 124.10581395348825 12.003216696578939 124.51744186046497 11.744783335961273 C 124.9290697674417 11.486349975343597 125.13488372093006 11.582572486333676 125.54651162790677 11.284019784454529 C 125.95813953488354 10.98546708257533 126.1639534883719 10.552772223475717 126.57558139534868 10.252019826565405 C 126.98720930232544 9.951267429655104 127.19302325581381 9.946528879566012 127.60465116279057 9.780257799903 C 128.0162790697673 9.61398672024 128.22209302325567 9.560873901139455 128.63372093023239 9.42066442825037 C 129.04534883720913 9.280454955361275 129.2511627906975 9.298181599796889 129.66279069767418 9.079210435457547 C 130.07441860465096 8.86023927111816 130.28023255813932 8.325808606553554 130.6918604651161 8.325808606553554 C 131.10348837209284 8.325808606553554 131.30930232558126 9.619991228496238 131.720930232558 9.651335118100667 C 132.13255813953475 9.682679007705095 132.3383720930231 9.682679007705095 132.7499999999998 9.682679007705095 C 133.16162790697655 9.682679007705095 133.3674418604649 9.614705237037569 133.7790697674416 9.614705237037569 C 134.19069767441837 9.614705237037569 134.39651162790673 9.839294733771935 134.8081395348835 10.061572199931906 C 135.21976744186026 10.28384966609186 135.42558139534867 10.44206309309637 135.83720930232542 10.726092567837384 C 136.24883720930217 11.010122042578395 136.45465116279053 11.457927527663374 136.86627906976722 11.481719573636965 C 137.27790697674396 11.505511619610557 137.48372093023232 11.481719573636965 137.89534883720904 11.505511619610557 C 138.3069767441858 11.529303665584148 138.51279069767418 12.05946402427309 138.92441860465092 12.05946402427309 C 139.33604651162767 12.05946402427309 139.5418604651161 12.041750539485763 139.95348837209283 11.92801409182994 C 140.36511627906958 11.814277644174116 140.57093023255794 11.490781785993974 140.98255813953463 11.490781785993974 C 141.39418604651138 11.490781785993974 141.59999999999974 11.496808306752841 142.01162790697646 11.649811350459856 C 142.4232558139532 11.80281439416688 142.6290697674416 12.018215944086329 143.04069767441834 12.255797004529072 C 143.4523255813951 12.493378064971814 143.6581395348835 12.58959040714277 144.06976744186025 12.837716652673572 C 144.481395348837 13.085842898204376 144.68720930232536 13.496428232183089 145.09883720930208 13.496428232183089 C 145.51046511627882 13.496428232183089 145.7162790697672 12.335503199828299 146.12790697674396 12.048332158136859 C 146.5395348837207 11.761161116445418 146.74534883720906 11.931859699964795 147.15697674418578 11.761161116445418 C 147.56860465116253 11.59046253292603 147.77441860465092 11.194839240539945 148.18604651162767 11.194839240539945 C 148.5976744186044 11.194839240539945 148.80348837209277 11.365541532687494 149.2151162790695 11.534516680811295 C 149.62674418604624 11.703491828935107 149.83255813953463 11.898053759795266 150.24418604651137 12.039714981158973 C 150.65581395348812 12.18137620252268 150.86162790697648 12.190291146451814 151.2732558139532 12.242822787629834 C 151.68488372092995 12.295354428807858 151.89069767441833 12.302373187049087 152.30232558139508 12.302373187049087 C 152.71395348837183 12.302373187049087 152.9197674418602 12.255082196359659 153.3313953488369 12.255082196359659 C 153.74302325581365 12.255082196359659 153.94883720930207 12.397634684813255 154.36046511627882 12.568799837681716 C 154.77209302325554 12.739964990550167 154.9779069767439 12.994983422432128 155.38953488372061 13.11090796070194 C 155.8011627906974 13.226832498971753 156.00697674418575 13.11942404765419 156.41860465116252 13.226832498971753 C 156.83023255813924 13.3342409502893 157.0360465116276 13.553769007018396 157.44767441860432 13.647950217289718 C 157.85930232558107 13.742131427561041 158.06511627906949 13.742131427561041 158.47674418604623 13.742131427561041 C 158.88837209302295 13.742131427561041 159.0941860465113 13.691229309742942 159.50581395348803 13.654568922222406 C 159.9174418604648 13.617908534701865 160.12325581395316 13.55882948995835 160.53488372092994 13.55882948995835 C 160.94651162790666 13.55882948995835 161.15232558139502 13.582808402937909 161.56395348837174 13.712605962086336 C 161.97558139534848 13.842403521234772 162.1813953488369 14.20781728570051 162.59302325581365 14.20781728570051 C 163.00465116279037 14.20781728570051 163.21046511627873 13.849056560886222 163.62209302325545 13.849056560886222 C 164.03372093023222 13.849056560886222 164.23953488372058 14.00539079011246 164.65116279069736 14.00539079011246 C 165.06279069767407 14.00539079011246 165.26860465116243 13.470404549122925 165.68023255813915 13.24748716515574 C 166.0918604651159 13.02456978118854 166.29767441860432 13.010856949119772 166.70930232558106 12.890803870276493 C 167.12093023255784 12.770750791433207 167.3267441860462 12.647221770939332 167.73837209302297 12.647221770939332 C 168.1499999999997 12.647221770939332 168.35581395348805 12.774451643436702 168.76744186046477 12.799742094819816 C 169.1790697674415 12.82503254620293 169.38488372092985 12.799742094819816 169.79651162790657 12.82503254620293 C 170.20813953488332 12.850322997586044 170.4139534883717 13.150526876428264 170.82558139534848 13.361222416479901 C 171.23720930232523 13.571917956531522 171.44302325581364 13.650135317074541 171.8546511627904 13.878510246461072 C 172.2662790697671 14.106885175847589 172.47209302325547 14.291844511338004 172.8837209302322 14.503097063412518 C 173.29534883720893 14.714349615487048 173.50116279069726 14.819878510126829 173.912790697674 14.934773006833685 C 174.32441860465076 15.049667503540544 174.53023255813915 14.934773006833685 174.9418604651159 15.077569546946805 C 175.35348837209264 15.220366087059924 175.55930232558106 15.605909088842688 175.9709302325578 15.899957841272151 C 176.38255813953452 16.19400659370159 176.9999999999996 16.54781330909406 176.9999999999996 16.54781330909406" stroke="#4572A7" stroke-width="1" zIndex="1" stroke-linejoin="round" stroke-linecap="round"></path></g><g class="highcharts-markers" visibility="visible" zIndex="0.1" transform="translate(24,101) scale(1 1)" clip-path="none"></g></g><g class="highcharts-navigator" zIndex="3"><rect fill="rgba(128,179,236,0.3)" x="181" y="101" width="20" height="20"></rect><path fill="none" stroke="#b2b1b6" stroke-width="1" d="M 10 101.5 L 181.5 101.5 181.5 135.5 L 200.5 135.5 L 200.5 101.5 215 101.5 M 181.5 101.5 L 200.5 101.5"></path></g><g class="highcharts-navigator-handle-right" style="cursor:e-resize;" zIndex="3" transform="translate(201,103)"><rect x="-4.5" y="0.5" width="8" height="15" strokeWidth="1" fill="#ebe7e8" stroke="#b2b1b6" stroke-width="1"></rect><path fill="#ebe7e8" d="M -1.5 4 L -1.5 12 M 0.5 4 L 0.5 12" stroke="#b2b1b6" stroke-width="1"></path></g><g class="highcharts-navigator-handle-left" style="cursor:e-resize;" zIndex="4" transform="translate(181,103)"><rect x="-4.5" y="0.5" width="8" height="15" strokeWidth="1" fill="#ebe7e8" stroke="#b2b1b6" stroke-width="1"></rect><path fill="#ebe7e8" d="M -1.5 4 L -1.5 12 M 0.5 4 L 0.5 12" stroke="#b2b1b6" stroke-width="1"></path></g><g class="highcharts-axis-labels highcharts-xaxis-labels" zIndex="7"></g><g class="highcharts-axis-labels highcharts-xaxis-labels" zIndex="7"><text x="141.40907818418" style="color:#888;cursor:default;font-size:11px;fill:#888;width:195px;text-overflow:clip;" text-anchor="start" transform="translate(0,0)" y="117" opacity="1">2010</text></g><g class="highcharts-axis-labels highcharts-yaxis-labels" zIndex="7"></g><g class="highcharts-axis-labels highcharts-yaxis-labels" zIndex="7"></g><g class="highcharts-tooltip" zIndex="8" style="cursor:default;padding:0;white-space:nowrap;" transform="translate(0,-9999)"><path fill="none" d="M 3 0 L 13 0 C 16 0 16 0 16 3 L 16 13 C 16 16 16 16 13 16 L 3 16 C 0 16 0 16 0 13 L 0 3 C 0 0 0 0 3 0" isShadow="true" stroke="black" stroke-width="5" transform="translate(1, 1)" opacity="0.049999999999999996"></path><path fill="none" d="M 3 0 L 13 0 C 16 0 16 0 16 3 L 16 13 C 16 16 16 16 13 16 L 3 16 C 0 16 0 16 0 13 L 0 3 C 0 0 0 0 3 0" isShadow="true" stroke="black" stroke-width="3" transform="translate(1, 1)" opacity="0.09999999999999999"></path><path fill="none" d="M 3 0 L 13 0 C 16 0 16 0 16 3 L 16 13 C 16 16 16 16 13 16 L 3 16 C 0 16 0 16 0 13 L 0 3 C 0 0 0 0 3 0" isShadow="true" stroke="black" stroke-width="1" transform="translate(1, 1)" opacity="0.15"></path><path fill="rgba(249, 249, 249, .85)" d="M 3 0 L 13 0 C 16 0 16 0 16 3 L 16 13 C 16 16 16 16 13 16 L 3 16 C 0 16 0 16 0 13 L 0 3 C 0 0 0 0 3 0"></path><text x="8" zIndex="1" style="font-size:12px;color:#333333;fill:#333333;" y="21"></text></g></svg>