<?xml version="1.0" standalone="no"?><!DOCTYPE svg PUBLIC "-//W3C//DTD SVG 1.1//EN" "http://www.w3.org/Graphics/SVG/1.1/DTD/svg11.dtd"><svg xmlns:xlink="http://www.w3.org/1999/xlink" version="1.1" style="font-family:&quot;Lucida Grande&quot;, &quot;Lucida Sans Unicode&quot;, Arial, Helvetica, sans-serif;font-size:12px;" xmlns="http://www.w3.org/2000/svg" width="300" height="200"><desc>Created with Highstock 2.0.4-modified</desc><defs><clipPath id="highcharts-1"><rect x="0" y="0" width="300" height="200"></rect></clipPath></defs><rect x="0" y="0" width="300" height="200" strokeWidth="0" fill="#FFFFFF" class=" highcharts-background"></rect><g class="highcharts-series-group" zIndex="3"><g class="highcharts-series highcharts-tracker" visibility="visible" zIndex="0.1" transform="translate(10,10) scale(1 1)" style="cursor:pointer;"><path fill="rgba(99,156,211,1)" d="M 200.89968622995636 62.036391486153576 L 200.89968622995636 67.33969234505268 L 174.86130448499267 78.22695958948879 L 174.86130448499267 72.92365873058968 Z" zIndex="-70.04249854722138" transform="translate(0,0)" visibility="visible"></path><path fill="rgba(103,108,208,1)" d="M 167.34243911494832 133.64083616085293 L 167.34243911494832 138.94413701975202 L 155.65185560643684 119.21607632906932 L 155.65185560643684 113.91277547017022 Z" zIndex="-70.04249442513022" transform="translate(0,0)" visibility="visible"></path><path fill="rgba(99,156,211,1)" d="M 139.98559012083857 37.47219626869782 C 165.78110363288272 37.46848123220919 187.77005013774985 46.33573543235644 200.89968622995636 62.036391486153576 L 200.89968622995636 67.33969234505268 C 187.77005013774985 51.63903629125554 165.78110363288272 42.7717820911083 139.98559012083857 42.77549712759693 Z" zIndex="-36.01098050724061" transform="translate(0,0)" visibility="visible"></path><path fill="rgba(99,156,211,1)" d="M 139.99175123525035 58.86217595593303 C 154.7580875919682 58.860049327271696 167.34539972549638 63.93600402841605 174.86130448499267 72.92365873058968 L 174.86130448499267 78.22695958948879 C 167.34539972549638 69.23930488731516 154.7580875919682 64.1633501861708 139.99175123525035 64.16547681483213 Z" zIndex="-36.01098050724061" transform="translate(0,0)" visibility="visible"></path><path fill="rgba(99,156,211,1)" d="M 139.98559012083857 37.47219626869782 L 139.98559012083857 42.77549712759693 L 139.99175123525035 64.16547681483213 L 139.99175123525035 58.86217595593303 Z" zIndex="-35.650870702168206" transform="translate(0,0)" visibility="visible"></path><path fill="rgba(42,42,47,1)" d="M 207.79555187793426 73.19395852154898 L 207.79555187793426 78.49725938044809 L 178.80876114567263 84.61397676169393 L 178.80876114567263 79.31067590279483 Z" zIndex="-35.65026779349199" transform="translate(0,0)" visibility="visible"></path><path fill="rgba(42,42,47,1)" d="M 200.90004633671646 62.03682211323781 C 203.98922341098017 65.73100018876363 206.0599517279753 69.08150120122271 207.79555187793426 73.19395852154898 L 207.79555187793426 78.49725938044809 C 206.0599517279753 74.38480206012181 203.98922341098017 71.03430104766274 200.90004633671646 67.34012297213691 Z" zIndex="-20.23179788269747" transform="translate(0,0)" visibility="visible"></path><path fill="rgba(42,42,47,1)" d="M 174.86151062384477 72.92390523796652 C 176.62987347200985 75.03859374763148 177.81523738491873 76.95654839080593 178.80876114567263 79.31067590279483 L 178.80876114567263 84.61397676169393 C 177.81523738491873 82.25984924970504 176.62987347200985 80.34189460653059 174.86151062384477 78.22720609686563 Z" zIndex="-20.23179788269747" transform="translate(0,0)" visibility="visible"></path><path fill="rgba(42,42,47,1)" d="M 200.90004633671646 62.03682211323781 L 200.90004633671646 67.34012297213691 L 174.86151062384477 78.22720609686563 L 174.86151062384477 72.92390523796652 Z" zIndex="-20.029479903870495" transform="translate(0,0)" visibility="visible"></path><path fill="rgba(119,212,100,1)" d="M 210.54582604470625 91.29795521761683 L 210.54582604470625 96.60125607651594 L 180.38312303619227 94.97739536509673 L 180.38312303619227 89.67409450619762 Z" zIndex="-20.028808726905442" transform="translate(0,0)" visibility="visible"></path><path fill="rgba(119,212,100,1)" d="M 210.75 87.5 C 210.75 88.83662957125333 210.68933019323381 89.96518296009248 210.54582604470625 91.29795521761683 L 210.54582604470625 96.60125607651594 C 210.68933019323381 95.26848381899158 210.75 94.13993043015243 210.75 92.8033008588991 Z" zIndex="5.371119778039389" transform="translate(0,0)" visibility="visible"></path><path fill="rgba(119,212,100,1)" d="M 178.80887695826425 79.31095032258604 C 180.2991330199804 82.84220037074262 180.77876815305373 85.999602576951 180.38312303619227 89.67409450619762 L 180.38312303619227 94.97739536509673 C 180.77876815305373 91.30290343585011 180.2991330199804 88.14550122964172 178.80887695826425 84.61425118148514 Z" zIndex="5.371119778039389" transform="translate(0,0)" visibility="visible"></path><path fill="rgba(119,212,100,1)" d="M 207.79575419252333 73.19443790920894 L 207.79575419252333 78.49773876810805 L 178.80887695826425 84.61425118148514 L 178.80887695826425 79.31095032258604 Z" zIndex="5.317408580258995" transform="translate(0,0)" visibility="visible"></path><path fill="rgba(222,138,67,1)" d="M 167.34309164354397 133.64064281830474 L 167.34309164354397 138.94394367720383 L 155.65222913870716 119.21596565241632 L 155.65222913870716 113.91266479351721 Z" zIndex="5.318106983670955" transform="translate(0,0)" visibility="visible"></path><path fill="rgba(222,138,67,1)" d="M 210.54577232998116 91.29845405174673 L 210.54577232998116 96.60175491064584 L 180.38309228783373 94.97768091678947 L 180.38309228783373 89.67438005789036 Z" zIndex="64.60019562175674" transform="translate(0,0)" visibility="visible"></path><path fill="rgba(103,108,208,1)" d="M 139.97177213853212 37.472199212898445 L 139.97177213853212 42.77550007179755 L 139.98384129484876 64.16547850020493 L 139.98384129484876 58.86217764130583 Z" zIndex="64.600466315134" transform="translate(0,0)" visibility="visible"></path><path fill="rgba(222,138,67,1)" d="M 210.54577232998116 91.29845405174673 C 208.47198873714592 110.55584971966712 192.53378942109626 126.17659901847306 167.34309164354397 133.64064281830474 L 167.34309164354397 138.94394367720383 C 192.53378942109626 131.47989987737216 208.47198873714592 115.85915057856623 210.54577232998116 96.60175491064584 Z" zIndex="65.25272285025933" transform="translate(0,0)" visibility="visible"></path><path fill="rgba(222,138,67,1)" d="M 180.38309228783373 89.67438005789036 C 179.19597941843688 100.69804824942075 170.0723458876947 109.63996127559236 155.65222913870716 113.91266479351721 L 155.65222913870716 119.21596565241632 C 170.0723458876947 114.94326213449146 179.19597941843688 106.00134910831986 180.38309228783373 94.97768091678947 Z" zIndex="65.25272285025933" transform="translate(0,0)" visibility="visible"></path><path fill="rgba(103,108,208,1)" d="M 167.34243911494832 133.64083616085293 C 131.30420438989137 144.31872283097033 89.84781586844981 132.31690426844054 74.74700372208687 106.83402411236025 C 70.93241191977299 100.39683485389091 69.25 94.4794670898639 69.25 87.5 L 69.25 92.8033008588991 C 69.25 120.43289450030147 100.92585394947136 142.83110562784734 140 142.83110562784734 C 149.87045701662223 142.83110562784734 158.23887876205856 141.64146075062678 167.34243911494832 138.94413701975202 Z" zIndex="65.25299627791313" transform="translate(0,0)" visibility="visible"></path><path fill="rgba(103,108,208,1)" d="M 155.65185560643684 113.91277547017022 C 135.02219473908974 120.02520529546712 111.29097586815854 113.15490633034406 102.64669471016987 98.56753323746418 C 94.0024135521812 83.9801601445843 103.71848352621605 67.19965435512668 124.34814439356313 61.08722452982978 C 129.55412984544193 59.544726039392025 134.3392967924648 58.863770090081864 139.98384129484876 58.86217764130583 L 139.98384129484876 64.16547850020493 C 117.6163107069933 64.17178886708973 99.4910790170712 76.99849423181661 99.50000322350324 92.81472678888673 C 99.50892742993528 108.63095934595685 117.64862811729576 121.44743358447808 140.0161587051512 121.44112321759327 C 145.66070320753516 121.43953076881724 150.44587015455804 120.75857481950707 155.65185560643684 119.21607632906932 Z" zIndex="65.25299627791313" transform="translate(0,0)" visibility="visible"></path><g zIndex="7075" stroke="#7cb5ec" stroke-width="1" stroke-linejoin="round"><path fill="#7cb5ec" d="M 139.98559012083857 37.47219626869782 C 165.78110363288272 37.46848123220919 187.77005013774985 46.33573543235644 200.89968622995636 62.036391486153576 L 174.86130448499267 72.92365873058968 C 167.34539972549638 63.93600402841605 154.7580875919682 58.860049327271696 139.99175123525035 58.86217595593303 Z" zIndex="70.75" transform="translate(0,0)" visibility="visible"></path></g><g zIndex="7075" stroke="#434348" stroke-width="1" stroke-linejoin="round"><path fill="#434348" d="M 200.90004633671646 62.03682211323781 C 203.98922341098017 65.73100018876363 206.0599517279753 69.08150120122271 207.79555187793426 73.19395852154898 L 178.80876114567263 79.31067590279483 C 177.81523738491873 76.95654839080593 176.62987347200985 75.03859374763148 174.86151062384477 72.92390523796652 Z" zIndex="70.75" transform="translate(0,0)" visibility="visible"></path></g><g zIndex="7075" stroke="#90ed7d" stroke-width="1" stroke-linejoin="round"><path fill="#90ed7d" d="M 207.79575419252333 73.19443790920894 C 210.39910274478055 79.36322657358123 211.2369838723099 84.87893536590823 210.54582604470625 91.29795521761683 L 180.38312303619227 89.67409450619762 C 180.77876815305373 85.999602576951 180.2991330199804 82.84220037074262 178.80887695826425 79.31095032258604 Z" zIndex="70.75" transform="translate(0,0)" visibility="visible"></path></g><g zIndex="7075" stroke="#f7a35c" stroke-width="1" stroke-linejoin="round"><path fill="#f7a35c" d="M 210.54577232998116 91.29845405174673 C 208.47198873714592 110.55584971966712 192.53378942109626 126.17659901847306 167.34309164354397 133.64064281830474 L 155.65222913870716 113.91266479351721 C 170.0723458876947 109.63996127559236 179.19597941843688 100.69804824942075 180.38309228783373 89.67438005789036 Z" zIndex="70.75" transform="translate(0,0)" visibility="visible"></path></g><g zIndex="7075" stroke="#8085e9" stroke-width="1" stroke-linejoin="round"><path fill="#8085e9" d="M 167.34243911494832 133.64083616085293 C 131.30420438989137 144.31872283097033 89.84781586844981 132.31690426844054 74.74700372208687 106.83402411236025 C 59.64619157572395 81.35114395627997 76.61932615999471 52.03705050926451 112.65756088505165 41.35916383914709 C 121.75196756950659 38.664552278691005 130.1112406930095 37.474981083291155 139.97177213853212 37.472199212898445 L 139.98384129484876 58.86217764130583 C 117.6163107069933 58.86848800819063 99.4910790170712 71.6951933729175 99.50000322350324 87.51142592998762 C 99.50892742993528 103.32765848705775 117.64862811729576 116.14413272557897 140.0161587051512 116.13782235869417 C 145.66070320753516 116.13622990991813 150.44587015455804 115.45527396060797 155.65185560643684 113.91277547017022 Z" zIndex="70.75" transform="translate(0,0)" visibility="visible"></path></g></g><g class="highcharts-markers" visibility="visible" zIndex="0.1" transform="translate(10,10) scale(1 1)"></g></g><g class="highcharts-data-labels highcharts-tracker" visibility="visible" zIndex="6" transform="translate(10,10) scale(1 1)" style="cursor:pointer;"><path fill="none" d="M 217.93439529422886 17.99362271657972 C 212.93439529422886 17.99362271657972 185.96607757491083 24.94207027387531 180.51457511319634 34.496185665156744 L 175.06307265148186 44.05030105643818" stroke="#7cb5ec" stroke-width="1"></path><path fill="none" d="M 240.52480174609798 55.47540396244352 C 235.52480174609798 55.47540396244352 224.9976760338282 58.67720241969376 214.91708911876503 63.0796752984128 L 204.83650220370185 67.48214817713185" stroke="#434348" stroke-width="1"></path><path fill="none" d="M 245.47045585643573 80 C 240.47045585643573 80 232.22200133478117 79.8304875115994 221.28462112256992 81.00254301093804 L 210.34724091035866 82.17459851027668" stroke="#90ed7d" stroke-width="1"></path><path fill="none" d="M 231.20333461156392 139.64928189195655 C 226.20333461156392 139.64928189195655 215.20225894206447 134.96676231263461 206.28339265243957 128.52829789106693 L 197.36452636281467 122.08983346949925" stroke="#f7a35c" stroke-width="1"></path><path fill="none" d="M 36.47541734338982 108.55870633113032 C 41.47541734338982 108.55870633113032 49.06682441110097 106.98302918323667 59.851351974204896 104.8164731048829 L 70.63587953730882 102.64991702652914" stroke="#8085e9" stroke-width="1"></path><g zIndex="1" style="cursor:pointer;" transform="translate(223,8)"><text x="3" zIndex="1" style="font-size:11px;color:#606060;fill:#606060;" y="15">Firefox</text></g><g zIndex="1" style="cursor:pointer;" transform="translate(246,45)"><text x="3" zIndex="1" style="font-size:11px;color:#606060;fill:#606060;" y="15">Opera</text></g><g zIndex="1" style="cursor:pointer;" transform="translate(250,70)"><text x="3" zIndex="1" style="font-size:11px;color:#606060;fill:#606060;" y="15">Safari</text></g><g zIndex="1" style="cursor:pointer;" transform="translate(236,130)"><text x="3" zIndex="1" style="font-size:11px;color:#606060;fill:#606060;" y="15">Chrome</text></g><g zIndex="1" style="cursor:pointer;" transform="translate(19,99)"><text x="3" zIndex="1" style="font-size:11px;color:#606060;fill:#606060;" y="15">IE</text></g></g><g class="highcharts-legend" zIndex="7"><g zIndex="1"><g></g></g></g><g class="highcharts-tooltip" zIndex="8" style="cursor:default;padding:0;white-space:nowrap;" transform="translate(0,-9999)"><path fill="none" d="M 3 0 L 13 0 C 16 0 16 0 16 3 L 16 13 C 16 16 16 16 13 16 L 3 16 C 0 16 0 16 0 13 L 0 3 C 0 0 0 0 3 0" isShadow="true" stroke="black" stroke-width="5" transform="translate(1, 1)" opacity="0.049999999999999996"></path><path fill="none" d="M 3 0 L 13 0 C 16 0 16 0 16 3 L 16 13 C 16 16 16 16 13 16 L 3 16 C 0 16 0 16 0 13 L 0 3 C 0 0 0 0 3 0" isShadow="true" stroke="black" stroke-width="3" transform="translate(1, 1)" opacity="0.09999999999999999"></path><path fill="none" d="M 3 0 L 13 0 C 16 0 16 0 16 3 L 16 13 C 16 16 16 16 13 16 L 3 16 C 0 16 0 16 0 13 L 0 3 C 0 0 0 0 3 0" isShadow="true" stroke="black" stroke-width="1" transform="translate(1, 1)" opacity="0.15"></path><path fill="rgba(249, 249, 249, .85)" d="M 3 0 L 13 0 C 16 0 16 0 16 3 L 16 13 C 16 16 16 16 13 16 L 3 16 C 0 16 0 16 0 13 L 0 3 C 0 0 0 0 3 0"></path><text x="8" zIndex="1" style="font-size:12px;color:#333333;fill:#333333;" y="21"></text></g></svg>