<?xml version="1.0" standalone="no"?><!DOCTYPE svg PUBLIC "-//W3C//DTD SVG 1.1//EN" "http://www.w3.org/Graphics/SVG/1.1/DTD/svg11.dtd"><svg xmlns:xlink="http://www.w3.org/1999/xlink" version="1.1" style="font-family:&quot;Lucida Grande&quot;, &quot;Lucida Sans Unicode&quot;, Arial, Helvetica, sans-serif;font-size:12px;" xmlns="http://www.w3.org/2000/svg" width="225" height="150"><desc>Created with Highstock 2.0.4-modified</desc><defs><clipPath id="highcharts-1"><rect x="0" y="0" width="205" height="91"></rect></clipPath></defs><rect x="0" y="0" width="225" height="150" strokeWidth="0" fill="#FFFFFF" class=" highcharts-background"></rect><g class="highcharts-scrollbar" transform="translate(10,122)"><rect x="0" y="-0.5" fill="#eeeeee" stroke="#eeeeee" stroke-width="1" rx="0" ry="0" height="14" width="205"></rect><rect y="-0.5" height="14" fill="#bfc8d1" stroke="#bfc8d1" stroke-width="1" rx="0" ry="0" x="171.5" width="19"></rect><path fill="none" stroke="#666" stroke-width="1" visibility="visible" d="M 177.5 3.5 L 177.5 9.333333333333334 M 180.5 3.5 L 180.5 9.333333333333334 M 183.5 3.5 L 183.5 9.333333333333334"></path><g><rect x="-0.5" y="-0.5" width="14" height="14" strokeWidth="1" stroke="#bbb" stroke-width="1" fill="#ebe7e8"></rect><path fill="#666" d="M 8 4 L 8 10 5 7"></path></g><g transform="translate(191,0)"><rect x="-0.5" y="-0.5" width="14" height="14" strokeWidth="1" stroke="#bbb" stroke-width="1" fill="#ebe7e8"></rect><path fill="#666" d="M 6 4 L 6 10 9 7"></path></g></g><g class="highcharts-grid" zIndex="1"></g><g class="highcharts-grid" zIndex="1"><path fill="none" d="M 68.5 101 L 68.5 121" stroke="#EEE" stroke-width="1" zIndex="1" opacity="1"></path></g><g class="highcharts-grid" zIndex="1"><path fill="none" d="M 10 9.5 L 215 9.5" stroke="#C0C0C0" stroke-width="1" zIndex="1" opacity="1"></path><path fill="none" d="M 10 56.5 L 215 56.5" stroke="#C0C0C0" stroke-width="1" zIndex="1" opacity="1"></path><path fill="none" d="M 10 101.5 L 215 101.5" stroke="#C0C0C0" stroke-width="1" zIndex="1" opacity="1"></path></g><g class="highcharts-grid" zIndex="1"></g><g class="highcharts-axis" zIndex="2"></g><g class="highcharts-axis" zIndex="2"></g><g class="highcharts-axis" zIndex="2"></g><g class="highcharts-axis" zIndex="2"></g><g class="highcharts-series-group" zIndex="3"><g class="highcharts-series highcharts-tracker" visibility="visible" zIndex="0.1" transform="translate(10,10) scale(1 1)" style="" clip-path="url(#highcharts-1)"><path fill="white" d="M 4.5 56.5 L 4.5 56.5 L 14.5 56.5 L 14.5 56.5 Z M 9.5 56.5 L 9.5 47 M 9.5 56.5 L 9.5 61" stroke="black" stroke-width="1"></path><path fill="#7cb5ec" d="M 25.5 57.5 L 25.5 54.5 L 35.5 54.5 L 35.5 57.5 Z M 30.5 54.5 L 30.5 51 M 30.5 57.5 L 30.5 66" stroke="black" stroke-width="1"></path><path fill="white" d="M 45.5 51.5 L 45.5 43.5 L 55.5 43.5 L 55.5 51.5 Z M 50.5 43.5 L 50.5 39 M 50.5 51.5 L 50.5 53" stroke="black" stroke-width="1"></path><path fill="#7cb5ec" d="M 66.5 49.5 L 66.5 43.5 L 76.5 43.5 L 76.5 49.5 Z M 71.5 43.5 L 71.5 36 M 71.5 49.5 L 71.5 54" stroke="black" stroke-width="1"></path><path fill="#7cb5ec" d="M 86.5 64.5 L 86.5 52.5 L 96.5 52.5 L 96.5 64.5 Z M 91.5 52.5 L 91.5 52.5 M 91.5 64.5 L 91.5 68" stroke="black" stroke-width="1"></path><path fill="white" d="M 107.5 56.5 L 107.5 39.5 L 117.5 39.5 L 117.5 56.5 Z M 112.5 39.5 L 112.5 38 M 112.5 56.5 L 112.5 57" stroke="black" stroke-width="1"></path><path fill="white" d="M 127.5 35.5 L 127.5 22.5 L 137.5 22.5 L 137.5 35.5 Z M 132.5 22.5 L 132.5 20 M 132.5 35.5 L 132.5 35" stroke="black" stroke-width="1"></path><path fill="#7cb5ec" d="M 148.5 33.5 L 148.5 26.5 L 158.5 26.5 L 158.5 33.5 Z M 153.5 26.5 L 153.5 23 M 153.5 33.5 L 153.5 38" stroke="black" stroke-width="1"></path><path fill="#7cb5ec" d="M 168.5 27.5 L 168.5 27.5 L 178.5 27.5 L 178.5 27.5 Z M 173.5 27.5 L 173.5 23 M 173.5 27.5 L 173.5 37" stroke="black" stroke-width="1"></path><path fill="#7cb5ec" d="M 189.5 27.5 L 189.5 26.5 L 199.5 26.5 L 199.5 27.5 Z M 194.5 26.5 L 194.5 23 M 194.5 27.5 L 194.5 30" stroke="black" stroke-width="1"></path></g><g class="highcharts-markers" visibility="visible" zIndex="0.1" transform="translate(10,10) scale(1 1)" clip-path="none"></g><g class="highcharts-series" visibility="visible" zIndex="0.1" transform="translate(24,101) scale(1 1)" clip-path="url(#highcharts-1)"><path fill="rgba(69,114,167,0.05)" d="M 1.667163990161723e-11 13.013626834381547 C 1.667163990161723e-11 13.013626834381547 1.264285714301076 11.323375262054503 2.1071428571573456 11.323375262054503 C 2.950000000015282 11.323375262054503 3.371428571444251 11.872379454926334 4.2142857143021875 12.161949685534587 C 5.057142857158458 12.451519916142267 5.4785714285865925 12.69261006289308 6.321428571442862 12.771226415094336 C 7.1642857143007985 12.849842767295593 7.585714285729767 12.771226415094336 8.428571428587704 12.849842767295593 C 9.271428571443973 12.92845911949685 9.692857142872109 13.937368972746329 10.535714285728378 13.937368972746329 C 11.378571428586316 13.937368972746329 11.800000000015284 12.142295597484274 12.64285714287322 12.142295597484274 C 13.48571428572949 12.142295597484274 13.907142857157623 12.84067085953878 14.750000000013895 13.308438155136265 C 15.592857142870162 13.776205450733748 16.014285714298296 14.481132075471695 16.857142857154567 14.481132075471695 C 17.700000000012505 14.481132075471695 18.121428571441477 14.042190775681338 18.96428571429941 14.042190775681338 C 19.80714285715568 14.042190775681338 20.228571428583813 14.684224318658279 21.071428571440084 14.684224318658279 C 21.914285714298025 14.684224318658279 22.335714285726986 13.596698113207543 23.178571428584927 13.596698113207543 C 24.0214285714412 13.596698113207543 24.442857142869332 14.192872117400416 25.2857142857256 14.337002096436056 C 26.128571428583534 14.481132075471695 26.550000000012506 14.481132075471695 27.392857142870444 14.481132075471695 C 28.235714285726715 14.481132075471695 28.65714285715485 14.473270440251566 29.500000000011116 14.395964360586998 C 30.342857142867388 14.318658280922428 30.76428571429552 14.354035639412736 31.60714285715179 14.094601677148841 C 32.45000000000972 13.835167714884433 32.87142857143869 13.098794549266245 33.71428571429663 13.098794549266245 C 34.5571428571529 13.098794549266245 34.97857142858104 13.406708595387837 35.82142857143731 13.45911949685534 C 36.66428571429525 13.511530398322844 37.085714285724215 13.45911949685534 37.928571428582146 13.511530398322844 C 38.77142857143842 13.563941299790347 39.19285714286655 14.385482180293799 40.035714285722825 14.690775681341716 C 40.878571428580756 14.996069182390233 41.30000000000973 15.037997903563937 42.14285714286766 15.037997903563937 C 42.98571428572394 15.037997903563937 43.40714285715207 14.49423480083857 44.25000000000834 14.49423480083857 C 45.09285714286461 14.49423480083857 45.51428571429274 14.49423480083857 46.357142857149015 14.540094339622636 C 47.200000000006945 14.585953878406702 47.621428571435914 14.743186582809225 48.46428571429385 14.78249475890985 C 49.30714285715012 14.821802935010476 49.72857142857826 14.78249475890985 50.57142857143453 14.821802935010476 C 51.41428571429246 14.861111111111102 51.83571428572143 15.876572327044023 52.67857142857937 15.876572327044023 C 53.521428571435635 15.876572327044023 53.94285714286377 15.73244234800838 54.78571428572005 15.73244234800838 C 55.628571428577985 15.73244234800838 56.050000000006946 16.118972746331234 56.892857142864884 16.118972746331234 C 57.73571428572116 16.118972746331234 58.15714285714929 16.0796645702306 59.00000000000556 16.0796645702306 C 59.84285714286183 16.0796645702306 60.26428571428996 18.136792452830182 61.107142857146236 18.136792452830182 C 61.950000000004174 18.136792452830182 62.37142857143315 17.82887840670859 63.21428571429108 17.82887840670859 C 64.05714285714734 17.82887840670859 64.47857142857549 18.333333333333332 65.32142857143175 18.333333333333332 C 66.16428571428969 18.333333333333332 66.58571428571865 17.396488469601675 67.42857142857659 17.396488469601675 C 68.27142857143285 17.396488469601675 68.692857142861 17.527515723270437 69.53571428571726 17.527515723270437 C 70.3785714285752 17.527515723270437 70.80000000000418 12.266771488469598 71.64285714286211 12.266771488469598 C 72.48571428571839 12.266771488469598 72.90714285714651 13.033280922431862 73.75000000000279 13.033280922431862 C 74.59285714285906 13.033280922431862 75.01428571428718 12.346698113207294 75.85714285714346 12.08988469601677 C 76.70000000000138 11.833071278825743 77.12142857143036 11.846174004192964 77.9642857142883 11.749213836477983 C 78.80714285714457 11.652253668763194 79.22857142857269 11.749213836477983 80.07142857142897 11.605083857442343 C 80.91428571428692 11.460953878406704 81.33571428571588 9.967243186582806 82.17857142857382 9.967243186582806 C 83.02142857143008 9.967243186582806 83.44285714285823 10.334119496855344 84.28571428571449 10.334119496855344 C 85.12857142857243 10.334119496855344 85.55000000000139 8.683176100628932 86.39285714285933 8.440775681341718 C 87.2357142857156 8.198375262054503 87.65714285714373 8.30581761006289 88.5 8.198375262054503 C 89.34285714285627 8.090932914046116 89.7642857142844 7.996593291404513 90.60714285714067 7.903563941299783 C 91.44999999999861 7.8105345911948705 91.87142857142757 7.733228511530397 92.71428571428552 7.733228511530397 C 93.55714285714178 7.733228511530397 93.97857142856994 8.296645702306078 94.8214285714262 8.296645702306078 C 95.66428571428415 8.296645702306078 96.0857142857131 7.85770440251572 96.92857142857103 7.85770440251572 C 97.77142857142731 7.85770440251572 98.19285714285543 7.978249475891266 99.0357142857117 8.270440251572321 C 99.87857142856964 8.562631027253952 100.29999999999862 8.802410901466995 101.14285714285656 9.318658280922431 C 101.98571428571283 9.83490566037685 102.40714285714095 10.851677148846957 103.24999999999723 10.851677148846957 C 104.09285714285349 10.851677148846957 104.51428571428164 10.851677148846957 105.3571428571379 10.792714884696013 C 106.19999999999584 10.733752620545069 106.6214285714248 10.537211740042194 107.46428571428274 10.262054507337524 C 108.30714285713903 9.98689727463339 108.72857142856715 9.816561844863328 109.57142857142341 9.416928721174 C 110.41428571428135 9.017295597483875 110.83571428571031 8.612421383648146 111.67857142856826 8.26388888888889 C 112.52142857142454 7.915356394130326 112.94285714285266 7.674266247379451 113.78571428570893 7.674266247379451 C 114.62857142856687 7.674266247379451 115.04999999999583 7.772536687630938 115.89285714285377 7.864255765199163 C 116.73571428571003 7.955974842767206 117.15714285713818 7.9979035639413 117.99999999999444 8.132861635220124 C 118.84285714285072 8.26781970649895 119.26428571427884 8.539046121593284 120.10714285713513 8.539046121593284 C 120.94999999999307 8.539046121593284 121.37142857142203 7.674266247379451 122.21428571427997 7.674266247379451 C 123.05714285713623 7.674266247379451 123.47857142856438 7.674266247379451 124.32142857142064 7.746331236897271 C 125.16428571427858 7.818396226415091 125.58571428570754 8.106656184486367 126.42857142856548 8.106656184486367 C 127.27142857142175 8.106656184486367 127.69285714284987 7.346698113207545 128.53571428570615 7.346698113207545 C 129.3785714285641 7.346698113207545 129.79999999999308 8.335953878406709 130.642857142851 8.335953878406709 C 131.48571428570727 8.335953878406709 131.9071428571354 8.106656184486367 132.74999999999167 8.106656184486367 C 133.59285714284792 8.106656184486367 134.0142857142761 8.145964360586998 134.85714285713235 8.145964360586998 C 135.6999999999903 8.145964360586998 136.12142857141924 7.581236897274846 136.9642857142772 7.359800838574417 C 137.80714285713347 7.138364779874428 138.2285714285616 7.359800838574417 139.07142857141787 7.038784067085951 C 139.9142857142758 6.7177672955974845 140.33571428570477 5.6564465408805 141.1785714285627 5.6564465408805 C 142.021428571419 5.6564465408805 142.44285714284712 5.970911949685535 143.2857142857034 5.970911949685535 C 144.12857142856132 5.970911949685535 144.54999999999026 4.15618448637316 145.39285714284821 4.15618448637316 C 146.2357142857045 4.15618448637316 146.6571428571326 4.772012578616344 147.4999999999889 4.772012578616344 C 148.34285714284516 4.772012578616344 148.76428571427329 4.549266247379446 149.60714285712956 4.523060796645698 C 150.44999999998748 4.49685534591195 150.8714285714165 4.523060796645698 151.7142857142744 4.49685534591195 C 152.55714285713069 4.470649895178202 152.97857142855884 4.156184486372931 153.82142857141508 3.9268867924528266 C 154.66428571427303 3.697589098532259 155.08571428570198 3.3503668763102716 155.92857142855993 3.3503668763102716 C 156.7714285714162 3.3503668763102716 157.19285714284433 3.874475890985323 158.0357142857006 3.874475890985323 C 158.87857142855856 3.874475890985323 159.2999999999875 3.753930817610137 160.14285714284543 3.67793501048218 C 160.9857142857017 3.6019392033543722 161.40714285712983 3.6451781970649924 162.24999999998613 3.4944968553459113 C 163.0928571428424 3.3438155136268355 163.51428571427056 2.924528301886788 164.3571428571268 2.924528301886788 C 165.19999999998473 2.924528301886788 165.6214285714137 3.3582285115302084 166.46428571427163 3.5469077568134146 C 167.30714285712787 3.7355870020962456 167.72857142855602 3.867924528301881 168.5714285714123 3.867924528301881 C 169.41428571427022 3.867924528301881 169.83571428569923 2.7555031446545093 170.67857142855715 2.3152515723270355 C 171.52142857141342 1.8750000000004228 171.94285714284155 1.6666666666666643 172.78571428569782 1.6666666666666643 C 173.62857142855574 1.6666666666666643 174.04999999998472 1.7649371069182394 174.89285714284267 1.7649371069182394 C 175.73571428569895 1.7649371069182394 176.99999999998334 1.7059748427672936 176.99999999998334 1.7059748427672936 L 176.99999999998334 20 L 1.667163990161723e-11 20" zIndex="0"></path><path fill="none" d="M 1.667163990161723e-11 13.013626834381547 C 1.667163990161723e-11 13.013626834381547 1.264285714301076 11.323375262054503 2.1071428571573456 11.323375262054503 C 2.950000000015282 11.323375262054503 3.371428571444251 11.872379454926334 4.2142857143021875 12.161949685534587 C 5.057142857158458 12.451519916142267 5.4785714285865925 12.69261006289308 6.321428571442862 12.771226415094336 C 7.1642857143007985 12.849842767295593 7.585714285729767 12.771226415094336 8.428571428587704 12.849842767295593 C 9.271428571443973 12.92845911949685 9.692857142872109 13.937368972746329 10.535714285728378 13.937368972746329 C 11.378571428586316 13.937368972746329 11.800000000015284 12.142295597484274 12.64285714287322 12.142295597484274 C 13.48571428572949 12.142295597484274 13.907142857157623 12.84067085953878 14.750000000013895 13.308438155136265 C 15.592857142870162 13.776205450733748 16.014285714298296 14.481132075471695 16.857142857154567 14.481132075471695 C 17.700000000012505 14.481132075471695 18.121428571441477 14.042190775681338 18.96428571429941 14.042190775681338 C 19.80714285715568 14.042190775681338 20.228571428583813 14.684224318658279 21.071428571440084 14.684224318658279 C 21.914285714298025 14.684224318658279 22.335714285726986 13.596698113207543 23.178571428584927 13.596698113207543 C 24.0214285714412 13.596698113207543 24.442857142869332 14.192872117400416 25.2857142857256 14.337002096436056 C 26.128571428583534 14.481132075471695 26.550000000012506 14.481132075471695 27.392857142870444 14.481132075471695 C 28.235714285726715 14.481132075471695 28.65714285715485 14.473270440251566 29.500000000011116 14.395964360586998 C 30.342857142867388 14.318658280922428 30.76428571429552 14.354035639412736 31.60714285715179 14.094601677148841 C 32.45000000000972 13.835167714884433 32.87142857143869 13.098794549266245 33.71428571429663 13.098794549266245 C 34.5571428571529 13.098794549266245 34.97857142858104 13.406708595387837 35.82142857143731 13.45911949685534 C 36.66428571429525 13.511530398322844 37.085714285724215 13.45911949685534 37.928571428582146 13.511530398322844 C 38.77142857143842 13.563941299790347 39.19285714286655 14.385482180293799 40.035714285722825 14.690775681341716 C 40.878571428580756 14.996069182390233 41.30000000000973 15.037997903563937 42.14285714286766 15.037997903563937 C 42.98571428572394 15.037997903563937 43.40714285715207 14.49423480083857 44.25000000000834 14.49423480083857 C 45.09285714286461 14.49423480083857 45.51428571429274 14.49423480083857 46.357142857149015 14.540094339622636 C 47.200000000006945 14.585953878406702 47.621428571435914 14.743186582809225 48.46428571429385 14.78249475890985 C 49.30714285715012 14.821802935010476 49.72857142857826 14.78249475890985 50.57142857143453 14.821802935010476 C 51.41428571429246 14.861111111111102 51.83571428572143 15.876572327044023 52.67857142857937 15.876572327044023 C 53.521428571435635 15.876572327044023 53.94285714286377 15.73244234800838 54.78571428572005 15.73244234800838 C 55.628571428577985 15.73244234800838 56.050000000006946 16.118972746331234 56.892857142864884 16.118972746331234 C 57.73571428572116 16.118972746331234 58.15714285714929 16.0796645702306 59.00000000000556 16.0796645702306 C 59.84285714286183 16.0796645702306 60.26428571428996 18.136792452830182 61.107142857146236 18.136792452830182 C 61.950000000004174 18.136792452830182 62.37142857143315 17.82887840670859 63.21428571429108 17.82887840670859 C 64.05714285714734 17.82887840670859 64.47857142857549 18.333333333333332 65.32142857143175 18.333333333333332 C 66.16428571428969 18.333333333333332 66.58571428571865 17.396488469601675 67.42857142857659 17.396488469601675 C 68.27142857143285 17.396488469601675 68.692857142861 17.527515723270437 69.53571428571726 17.527515723270437 C 70.3785714285752 17.527515723270437 70.80000000000418 12.266771488469598 71.64285714286211 12.266771488469598 C 72.48571428571839 12.266771488469598 72.90714285714651 13.033280922431862 73.75000000000279 13.033280922431862 C 74.59285714285906 13.033280922431862 75.01428571428718 12.346698113207294 75.85714285714346 12.08988469601677 C 76.70000000000138 11.833071278825743 77.12142857143036 11.846174004192964 77.9642857142883 11.749213836477983 C 78.80714285714457 11.652253668763194 79.22857142857269 11.749213836477983 80.07142857142897 11.605083857442343 C 80.91428571428692 11.460953878406704 81.33571428571588 9.967243186582806 82.17857142857382 9.967243186582806 C 83.02142857143008 9.967243186582806 83.44285714285823 10.334119496855344 84.28571428571449 10.334119496855344 C 85.12857142857243 10.334119496855344 85.55000000000139 8.683176100628932 86.39285714285933 8.440775681341718 C 87.2357142857156 8.198375262054503 87.65714285714373 8.30581761006289 88.5 8.198375262054503 C 89.34285714285627 8.090932914046116 89.7642857142844 7.996593291404513 90.60714285714067 7.903563941299783 C 91.44999999999861 7.8105345911948705 91.87142857142757 7.733228511530397 92.71428571428552 7.733228511530397 C 93.55714285714178 7.733228511530397 93.97857142856994 8.296645702306078 94.8214285714262 8.296645702306078 C 95.66428571428415 8.296645702306078 96.0857142857131 7.85770440251572 96.92857142857103 7.85770440251572 C 97.77142857142731 7.85770440251572 98.19285714285543 7.978249475891266 99.0357142857117 8.270440251572321 C 99.87857142856964 8.562631027253952 100.29999999999862 8.802410901466995 101.14285714285656 9.318658280922431 C 101.98571428571283 9.83490566037685 102.40714285714095 10.851677148846957 103.24999999999723 10.851677148846957 C 104.09285714285349 10.851677148846957 104.51428571428164 10.851677148846957 105.3571428571379 10.792714884696013 C 106.19999999999584 10.733752620545069 106.6214285714248 10.537211740042194 107.46428571428274 10.262054507337524 C 108.30714285713903 9.98689727463339 108.72857142856715 9.816561844863328 109.57142857142341 9.416928721174 C 110.41428571428135 9.017295597483875 110.83571428571031 8.612421383648146 111.67857142856826 8.26388888888889 C 112.52142857142454 7.915356394130326 112.94285714285266 7.674266247379451 113.78571428570893 7.674266247379451 C 114.62857142856687 7.674266247379451 115.04999999999583 7.772536687630938 115.89285714285377 7.864255765199163 C 116.73571428571003 7.955974842767206 117.15714285713818 7.9979035639413 117.99999999999444 8.132861635220124 C 118.84285714285072 8.26781970649895 119.26428571427884 8.539046121593284 120.10714285713513 8.539046121593284 C 120.94999999999307 8.539046121593284 121.37142857142203 7.674266247379451 122.21428571427997 7.674266247379451 C 123.05714285713623 7.674266247379451 123.47857142856438 7.674266247379451 124.32142857142064 7.746331236897271 C 125.16428571427858 7.818396226415091 125.58571428570754 8.106656184486367 126.42857142856548 8.106656184486367 C 127.27142857142175 8.106656184486367 127.69285714284987 7.346698113207545 128.53571428570615 7.346698113207545 C 129.3785714285641 7.346698113207545 129.79999999999308 8.335953878406709 130.642857142851 8.335953878406709 C 131.48571428570727 8.335953878406709 131.9071428571354 8.106656184486367 132.74999999999167 8.106656184486367 C 133.59285714284792 8.106656184486367 134.0142857142761 8.145964360586998 134.85714285713235 8.145964360586998 C 135.6999999999903 8.145964360586998 136.12142857141924 7.581236897274846 136.9642857142772 7.359800838574417 C 137.80714285713347 7.138364779874428 138.2285714285616 7.359800838574417 139.07142857141787 7.038784067085951 C 139.9142857142758 6.7177672955974845 140.33571428570477 5.6564465408805 141.1785714285627 5.6564465408805 C 142.021428571419 5.6564465408805 142.44285714284712 5.970911949685535 143.2857142857034 5.970911949685535 C 144.12857142856132 5.970911949685535 144.54999999999026 4.15618448637316 145.39285714284821 4.15618448637316 C 146.2357142857045 4.15618448637316 146.6571428571326 4.772012578616344 147.4999999999889 4.772012578616344 C 148.34285714284516 4.772012578616344 148.76428571427329 4.549266247379446 149.60714285712956 4.523060796645698 C 150.44999999998748 4.49685534591195 150.8714285714165 4.523060796645698 151.7142857142744 4.49685534591195 C 152.55714285713069 4.470649895178202 152.97857142855884 4.156184486372931 153.82142857141508 3.9268867924528266 C 154.66428571427303 3.697589098532259 155.08571428570198 3.3503668763102716 155.92857142855993 3.3503668763102716 C 156.7714285714162 3.3503668763102716 157.19285714284433 3.874475890985323 158.0357142857006 3.874475890985323 C 158.87857142855856 3.874475890985323 159.2999999999875 3.753930817610137 160.14285714284543 3.67793501048218 C 160.9857142857017 3.6019392033543722 161.40714285712983 3.6451781970649924 162.24999999998613 3.4944968553459113 C 163.0928571428424 3.3438155136268355 163.51428571427056 2.924528301886788 164.3571428571268 2.924528301886788 C 165.19999999998473 2.924528301886788 165.6214285714137 3.3582285115302084 166.46428571427163 3.5469077568134146 C 167.30714285712787 3.7355870020962456 167.72857142855602 3.867924528301881 168.5714285714123 3.867924528301881 C 169.41428571427022 3.867924528301881 169.83571428569923 2.7555031446545093 170.67857142855715 2.3152515723270355 C 171.52142857141342 1.8750000000004228 171.94285714284155 1.6666666666666643 172.78571428569782 1.6666666666666643 C 173.62857142855574 1.6666666666666643 174.04999999998472 1.7649371069182394 174.89285714284267 1.7649371069182394 C 175.73571428569895 1.7649371069182394 176.99999999998334 1.7059748427672936 176.99999999998334 1.7059748427672936" stroke="#4572A7" stroke-width="1" zIndex="1" stroke-linejoin="round" stroke-linecap="round"></path></g><g class="highcharts-markers" visibility="visible" zIndex="0.1" transform="translate(24,101) scale(1 1)" clip-path="none"></g></g><g class="highcharts-navigator" zIndex="3"><rect fill="rgba(128,179,236,0.3)" x="181" y="101" width="20" height="20"></rect><path fill="none" stroke="#b2b1b6" stroke-width="1" d="M 10 101.5 L 181.5 101.5 181.5 135.5 L 200.5 135.5 L 200.5 101.5 215 101.5 M 181.5 101.5 L 200.5 101.5"></path></g><g class="highcharts-navigator-handle-right" style="cursor:e-resize;" zIndex="3" transform="translate(201,103)"><rect x="-4.5" y="0.5" width="8" height="15" strokeWidth="1" fill="#ebe7e8" stroke="#b2b1b6" stroke-width="1"></rect><path fill="#ebe7e8" d="M -1.5 4 L -1.5 12 M 0.5 4 L 0.5 12" stroke="#b2b1b6" stroke-width="1"></path></g><g class="highcharts-navigator-handle-left" style="cursor:e-resize;" zIndex="4" transform="translate(181,103)"><rect x="-4.5" y="0.5" width="8" height="15" strokeWidth="1" fill="#ebe7e8" stroke="#b2b1b6" stroke-width="1"></rect><path fill="#ebe7e8" d="M -1.5 4 L -1.5 12 M 0.5 4 L 0.5 12" stroke="#b2b1b6" stroke-width="1"></path></g><g class="highcharts-axis-labels highcharts-xaxis-labels" zIndex="7"></g><g class="highcharts-axis-labels highcharts-xaxis-labels" zIndex="7"><text x="71.95238095238857" style="color:#888;cursor:default;font-size:11px;fill:#888;width:195px;text-overflow:clip;" text-anchor="start" transform="translate(0,0)" y="117" opacity="1"><tspan>Jul '06</tspan></text></g><g class="highcharts-axis-labels highcharts-yaxis-labels" zIndex="7"></g><g class="highcharts-axis-labels highcharts-yaxis-labels" zIndex="7"></g><g class="highcharts-tooltip" zIndex="8" style="cursor:default;padding:0;white-space:nowrap;" transform="translate(0,-9999)"><path fill="none" d="M 3 0 L 13 0 C 16 0 16 0 16 3 L 16 13 C 16 16 16 16 13 16 L 3 16 C 0 16 0 16 0 13 L 0 3 C 0 0 0 0 3 0" isShadow="true" stroke="black" stroke-width="5" transform="translate(1, 1)" opacity="0.049999999999999996"></path><path fill="none" d="M 3 0 L 13 0 C 16 0 16 0 16 3 L 16 13 C 16 16 16 16 13 16 L 3 16 C 0 16 0 16 0 13 L 0 3 C 0 0 0 0 3 0" isShadow="true" stroke="black" stroke-width="3" transform="translate(1, 1)" opacity="0.09999999999999999"></path><path fill="none" d="M 3 0 L 13 0 C 16 0 16 0 16 3 L 16 13 C 16 16 16 16 13 16 L 3 16 C 0 16 0 16 0 13 L 0 3 C 0 0 0 0 3 0" isShadow="true" stroke="black" stroke-width="1" transform="translate(1, 1)" opacity="0.15"></path><path fill="rgba(249, 249, 249, .85)" d="M 3 0 L 13 0 C 16 0 16 0 16 3 L 16 13 C 16 16 16 16 13 16 L 3 16 C 0 16 0 16 0 13 L 0 3 C 0 0 0 0 3 0"></path><text x="8" zIndex="1" style="font-size:12px;color:#333333;fill:#333333;" y="21"></text></g></svg>