<?xml version="1.0" standalone="no"?><!DOCTYPE svg PUBLIC "-//W3C//DTD SVG 1.1//EN" "http://www.w3.org/Graphics/SVG/1.1/DTD/svg11.dtd"><svg xmlns:xlink="http://www.w3.org/1999/xlink" version="1.1" style="font-family:&quot;Lucida Grande&quot;, &quot;Lucida Sans Unicode&quot;, Arial, Helvetica, sans-serif;font-size:12px;" xmlns="http://www.w3.org/2000/svg" width="150" height="100"><desc>Created with Highstock 2.0.4-modified</desc><defs><clipPath id="highcharts-1"><rect x="0" y="0" width="130" height="90"></rect></clipPath></defs><rect x="0" y="0" width="150" height="100" strokeWidth="0" fill="#FFFFFF" class=" highcharts-background"></rect><g class="highcharts-grid" zIndex="1"><path fill="none" d="M 75 50 L 111.37791174828962 61.81990003484174" stroke="#C0C0C0" stroke-width="1" zIndex="1" opacity="1"></path><path fill="none" d="M 75 50 L 75 88.25" stroke="#C0C0C0" stroke-width="1" zIndex="1" opacity="1"></path><path fill="none" d="M 75 50 L 38.62208825171038 61.819900034841744" stroke="#C0C0C0" stroke-width="1" zIndex="1" opacity="1"></path><path fill="none" d="M 75 50 L 52.5172140998129 19.055099965158263" stroke="#C0C0C0" stroke-width="1" zIndex="1" opacity="1"></path><path fill="none" d="M 75 50 L 97.48278590018708 19.055099965158256" stroke="#C0C0C0" stroke-width="1" zIndex="1" opacity="1"></path><path fill="none" d="M 75 50 L 97.4827859001871 19.05509996515826" stroke="#C0C0C0" stroke-width="1" zIndex="1" opacity="1"></path></g><g class="highcharts-grid" zIndex="1"><path fill="none" d="M 97.4827859001871 19.05509996515826 L 97.48278590018708 19.055099965158256 L 52.5172140998129 19.055099965158263 L 38.62208825171038 61.819900034841744 L 75 88.25 L 111.37791174828962 61.81990003484174 L 97.4827859001871 19.05509996515826" stroke="#C0C0C0" stroke-width="1" zIndex="1" opacity="1"></path><path fill="none" d="M 86.24139295009354 34.52754998257913 L 86.24139295009354 34.52754998257913 L 63.758607049906445 34.52754998257913 L 56.81104412585519 55.90995001742087 L 75 69.125 L 93.18895587414481 55.90995001742087 L 86.24139295009354 34.52754998257913" stroke="#C0C0C0" stroke-width="1" zIndex="1" opacity="1"></path><path fill="none" d="M 75 50 L 75 50 L 75 50 L 75 50 L 75 50 L 75 50 L 75 50" stroke="#C0C0C0" stroke-width="1" zIndex="1" opacity="1"></path></g><g class="highcharts-axis" zIndex="2"></g><g class="highcharts-axis" zIndex="2"></g><g class="highcharts-series-group" zIndex="3"><g class="highcharts-series" visibility="visible" zIndex="0.1" transform="translate(10,5) scale(1 1)" clip-path="url(#highcharts-1)"><path fill="rgba(124,181,236,0.75)" d="M 72.64414720606362 34.478733988153806 L 72.27558234965792 47.36398000696835 L 65 69.0975 L 50.44883530068415 49.727960013936695 L 51.51032845988774 26.43305997909496 L 72.64414720606362 34.478733988153806 L 65 45" zIndex="0"></path><path fill="none" d="M 72.64414720606362 34.478733988153806 L 72.27558234965792 47.36398000696835 L 65 69.0975 L 50.44883530068415 49.727960013936695 L 51.51032845988774 26.43305997909496 L 72.64414720606362 34.478733988153806" stroke="#7cb5ec" stroke-width="2" zIndex="1" stroke-linejoin="round" stroke-linecap="round"></path><path fill="none" d="M 62.64414720606362 34.478733988153806 L 72.64414720606362 34.478733988153806 L 72.27558234965792 47.36398000696835 L 65 69.0975 L 50.44883530068415 49.727960013936695 L 51.51032845988774 26.43305997909496 L 72.64414720606362 34.478733988153806 L 82.64414720606362 34.478733988153806" stroke-linejoin="round" visibility="visible" stroke="rgba(192,192,192,0.0001)" stroke-width="22" zIndex="2" class=" highcharts-tracker" style=""></path></g><g class="highcharts-markers highcharts-tracker" visibility="visible" zIndex="0.1" transform="translate(10,5) scale(1 1)" style="" clip-path="none"></g><g class="highcharts-series" visibility="visible" zIndex="0.1" transform="translate(10,5) scale(1 1)" clip-path="url(#highcharts-1)"><path fill="rgba(67,67,72,0.75)" d="M 69.04690146203367 39.42991799372849 L 77.73226911190137 49.13696501219461 L 65 60.3 L 44.9921485384407 51.500945019162955 L 59.37930352495323 37.263774991289566 L 69.04690146203367 39.42991799372849 L 65 45" zIndex="0"></path><path fill="none" d="M 69.04690146203367 39.42991799372849 L 77.73226911190137 49.13696501219461 L 65 60.3 L 44.9921485384407 51.500945019162955 L 59.37930352495323 37.263774991289566 L 69.04690146203367 39.42991799372849" stroke="#434348" stroke-width="2" zIndex="1" stroke-linejoin="round" stroke-linecap="round"></path><path fill="none" d="M 59.046901462033674 39.42991799372849 L 69.04690146203367 39.42991799372849 L 77.73226911190137 49.13696501219461 L 65 60.3 L 44.9921485384407 51.500945019162955 L 59.37930352495323 37.263774991289566 L 69.04690146203367 39.42991799372849 L 79.04690146203367 39.42991799372849" stroke-linejoin="round" visibility="visible" stroke="rgba(192,192,192,0.0001)" stroke-width="22" zIndex="2" class=" highcharts-tracker" style=""></path></g><g class="highcharts-markers highcharts-tracker" visibility="visible" zIndex="0.1" transform="translate(10,5) scale(1 1)" style="" clip-path="none"></g></g><g class="highcharts-axis-labels highcharts-xaxis-labels" zIndex="7"></g><g class="highcharts-axis-labels highcharts-yaxis-labels" zIndex="7"></g><g class="highcharts-tooltip" zIndex="8" style="cursor:default;padding:0;white-space:nowrap;" transform="translate(0,-9999)"><path fill="none" d="M 3 0 L 13 0 C 16 0 16 0 16 3 L 16 13 C 16 16 16 16 13 16 L 3 16 C 0 16 0 16 0 13 L 0 3 C 0 0 0 0 3 0" isShadow="true" stroke="black" stroke-width="5" transform="translate(1, 1)" opacity="0.049999999999999996"></path><path fill="none" d="M 3 0 L 13 0 C 16 0 16 0 16 3 L 16 13 C 16 16 16 16 13 16 L 3 16 C 0 16 0 16 0 13 L 0 3 C 0 0 0 0 3 0" isShadow="true" stroke="black" stroke-width="3" transform="translate(1, 1)" opacity="0.09999999999999999"></path><path fill="none" d="M 3 0 L 13 0 C 16 0 16 0 16 3 L 16 13 C 16 16 16 16 13 16 L 3 16 C 0 16 0 16 0 13 L 0 3 C 0 0 0 0 3 0" isShadow="true" stroke="black" stroke-width="1" transform="translate(1, 1)" opacity="0.15"></path><path fill="rgba(249, 249, 249, .85)" d="M 3 0 L 13 0 C 16 0 16 0 16 3 L 16 13 C 16 16 16 16 13 16 L 3 16 C 0 16 0 16 0 13 L 0 3 C 0 0 0 0 3 0"></path><text x="8" zIndex="1" style="font-size:12px;color:#333333;fill:#333333;" y="21"></text></g></svg>