<?xml version="1.0" standalone="no"?><!DOCTYPE svg PUBLIC "-//W3C//DTD SVG 1.1//EN" "http://www.w3.org/Graphics/SVG/1.1/DTD/svg11.dtd"><svg xmlns:xlink="http://www.w3.org/1999/xlink" version="1.1" style="font-family:&quot;Lucida Grande&quot;, &quot;Lucida Sans Unicode&quot;, Arial, Helvetica, sans-serif;font-size:12px;" xmlns="http://www.w3.org/2000/svg" width="150" height="100"><desc>Created with Highstock 2.0.4-modified</desc><defs><clipPath id="highcharts-1"><rect x="0" y="0" width="130" height="80"></rect></clipPath></defs><rect x="0" y="0" width="150" height="100" strokeWidth="0" fill="#FFFFFF" class=" highcharts-background"></rect><g class="highcharts-grid" zIndex="1"><path fill="none" d="M 9.5 10 L 9.5 90" stroke="#C0C0C0" stroke-width="1" zIndex="1" opacity="1"></path><path fill="none" d="M 41.5 10 L 41.5 90" stroke="#C0C0C0" stroke-width="1" zIndex="1" opacity="1"></path><path fill="none" d="M 74.5 10 L 74.5 90" stroke="#C0C0C0" stroke-width="1" zIndex="1" opacity="1"></path><path fill="none" d="M 106.5 10 L 106.5 90" stroke="#C0C0C0" stroke-width="1" zIndex="1" opacity="1"></path><path fill="none" d="M 138.5 10 L 138.5 90" stroke="#C0C0C0" stroke-width="1" zIndex="1" opacity="1"></path></g><g class="highcharts-grid" zIndex="1"><path fill="none" d="M 10 9.5 L 140 9.5" stroke="#C0C0C0" stroke-width="1" zIndex="1" opacity="1"></path><path fill="none" d="M 10 37.5 L 140 37.5" stroke="#C0C0C0" stroke-width="1" zIndex="1" opacity="1"></path><path fill="none" d="M 10 63.5 L 140 63.5" stroke="#C0C0C0" stroke-width="1" zIndex="1" opacity="1"></path><path fill="none" d="M 10 90.5 L 140 90.5" stroke="#C0C0C0" stroke-width="1" zIndex="1" opacity="1"></path></g><g class="highcharts-axis" zIndex="2"><path fill="none" d="M 10 90.5 L 140 90.5" stroke="#C0D0E0" stroke-width="1" zIndex="7" visibility="visible"></path></g><g class="highcharts-axis" zIndex="2"></g><g class="highcharts-series-group" zIndex="3"><g class="highcharts-series" visibility="visible" zIndex="0.1" transform="translate(10,10) scale(1 1)" clip-path="url(#highcharts-1)"></g><g class="highcharts-markers highcharts-tracker" visibility="visible" zIndex="0.1" transform="translate(10,10) scale(1 1)" style="" clip-path="none"><path fill="#7cb5ec" d="M 85 43.29333333333333 C 88.996 43.29333333333333 88.996 49.29333333333333 85 49.29333333333333 C 81.004 49.29333333333333 81.004 43.29333333333333 85 43.29333333333333 Z"></path><path fill="#7cb5ec" d="M 68 31.239999999999995 C 71.996 31.239999999999995 71.996 37.239999999999995 68 37.239999999999995 C 64.004 37.239999999999995 64.004 31.239999999999995 68 31.239999999999995 Z"></path><path fill="#7cb5ec" d="M 65 48.093333333333334 C 68.996 48.093333333333334 68.996 54.093333333333334 65 54.093333333333334 C 61.004 54.093333333333334 61.004 48.093333333333334 65 48.093333333333334 Z"></path><path fill="#7cb5ec" d="M 96 25.586666666666666 C 99.996 25.586666666666666 99.996 31.586666666666666 96 31.586666666666666 C 92.004 31.586666666666666 92.004 25.586666666666666 96 25.586666666666666 Z"></path><path fill="#7cb5ec" d="M 71 46.49333333333333 C 74.996 46.49333333333333 74.996 52.49333333333333 71 52.49333333333333 C 67.004 52.49333333333333 67.004 46.49333333333333 71 46.49333333333333 Z"></path><path fill="#7cb5ec" d="M 38 54.81333333333333 C 41.996 54.81333333333333 41.996 60.81333333333333 38 60.81333333333333 C 34.004 60.81333333333333 34.004 54.81333333333333 38 54.81333333333333 Z"></path><path fill="#7cb5ec" d="M 64 45.64 C 67.996 45.64 67.996 51.64 64 51.64 C 60.004 51.64 60.004 45.64 64 45.64 Z"></path><path fill="#7cb5ec" d="M 117 15.133333333333333 C 120.996 15.133333333333333 120.996 21.133333333333333 117 21.133333333333333 C 113.004 21.133333333333333 113.004 15.133333333333333 117 15.133333333333333 Z"></path><path fill="#7cb5ec" d="M 71 45 C 74.996 45 74.996 51 71 51 C 67.004 51 67.004 45 71 45 Z"></path><path fill="#7cb5ec" d="M 46 54.38666666666666 C 49.996 54.38666666666666 49.996 60.38666666666666 46 60.38666666666666 C 42.004 60.38666666666666 42.004 54.38666666666666 46 54.38666666666666 Z"></path><path fill="#7cb5ec" d="M 64 53.53333333333333 C 67.996 53.53333333333333 67.996 59.53333333333333 64 59.53333333333333 C 60.004 59.53333333333333 60.004 53.53333333333333 64 53.53333333333333 Z"></path><path fill="#7cb5ec" d="M 98 31.34666666666667 C 101.996 31.34666666666667 101.996 37.34666666666667 98 37.34666666666667 C 94.004 37.34666666666667 94.004 31.34666666666667 98 31.34666666666667 Z"></path><path fill="#7cb5ec" d="M 128 31.880000000000003 C 131.996 31.880000000000003 131.996 37.88 128 37.88 C 124.004 37.88 124.004 31.880000000000003 128 31.880000000000003 Z"></path><path fill="#7cb5ec" d="M 106 39.88 C 109.996 39.88 109.996 45.88 106 45.88 C 102.004 45.88 102.004 39.88 106 39.88 Z"></path><path fill="#7cb5ec" d="M 109 45.53333333333333 C 112.996 45.53333333333333 112.996 51.53333333333333 109 51.53333333333333 C 105.004 51.53333333333333 105.004 45.53333333333333 109 45.53333333333333 Z"></path><path fill="#7cb5ec" d="M 97 26.013333333333335 C 100.996 26.013333333333335 100.996 32.013333333333335 97 32.013333333333335 C 93.004 32.013333333333335 93.004 26.013333333333335 97 26.013333333333335 Z"></path><path fill="#7cb5ec" d="M 117 10.013333333333335 C 120.996 10.013333333333335 120.996 16.013333333333335 117 16.013333333333335 C 113.004 16.013333333333335 113.004 10.013333333333335 117 10.013333333333335 Z"></path><path fill="#7cb5ec" d="M 86 42.65333333333333 C 89.996 42.65333333333333 89.996 48.65333333333333 86 48.65333333333333 C 82.004 48.65333333333333 82.004 42.65333333333333 86 42.65333333333333 Z"></path><path fill="#7cb5ec" d="M 113 15.666666666666664 C 116.996 15.666666666666664 116.996 21.666666666666664 113 21.666666666666664 C 109.004 21.666666666666664 109.004 15.666666666666664 113 15.666666666666664 Z"></path><path fill="#7cb5ec" d="M 63 49.69333333333333 C 66.996 49.69333333333333 66.996 55.69333333333333 63 55.69333333333333 C 59.004 55.69333333333333 59.004 49.69333333333333 63 49.69333333333333 Z"></path><path fill="#7cb5ec" d="M 89 30.28 C 92.996 30.28 92.996 36.28 89 36.28 C 85.004 36.28 85.004 30.28 89 30.28 Z"></path><path fill="#7cb5ec" d="M 54 52.68000000000001 C 57.996 52.68000000000001 57.996 58.68000000000001 54 58.68000000000001 C 50.004 58.68000000000001 50.004 52.68000000000001 54 52.68000000000001 Z"></path><path fill="#7cb5ec" d="M 113 25.586666666666666 C 116.996 25.586666666666666 116.996 31.586666666666666 113 31.586666666666666 C 109.004 31.586666666666666 109.004 25.586666666666666 113 25.586666666666666 Z"></path><path fill="#7cb5ec" d="M 91 51.18666666666667 C 94.996 51.18666666666667 94.996 57.18666666666667 91 57.18666666666667 C 87.004 57.18666666666667 87.004 51.18666666666667 91 51.18666666666667 Z"></path><path fill="#7cb5ec" d="M 23 50.54666666666667 C 26.996 50.54666666666667 26.996 56.54666666666667 23 56.54666666666667 C 19.004 56.54666666666667 19.004 50.54666666666667 23 50.54666666666667 Z"></path><path fill="#7cb5ec" d="M 64 50.33333333333333 C 67.996 50.33333333333333 67.996 56.33333333333333 64 56.33333333333333 C 60.004 56.33333333333333 60.004 50.33333333333333 64 50.33333333333333 Z"></path><path fill="#7cb5ec" d="M 43 58.86666666666667 C 46.996 58.86666666666667 46.996 64.86666666666667 43 64.86666666666667 C 39.004 64.86666666666667 39.004 58.86666666666667 43 58.86666666666667 Z"></path><path fill="#7cb5ec" d="M 106 37 C 109.996 37 109.996 43 106 43 C 102.004 43 102.004 37 106 37 Z"></path><path fill="#7cb5ec" d="M 99 45.85333333333333 C 102.996 45.85333333333333 102.996 51.85333333333333 99 51.85333333333333 C 95.004 51.85333333333333 95.004 45.85333333333333 99 45.85333333333333 Z"></path><path fill="#7cb5ec" d="M 105 44.78666666666666 C 108.996 44.78666666666666 108.996 50.78666666666666 105 50.78666666666666 C 101.004 50.78666666666666 101.004 44.78666666666666 105 44.78666666666666 Z"></path><path fill="#7cb5ec" d="M 65 23.453333333333333 C 68.996 23.453333333333333 68.996 29.453333333333333 65 29.453333333333333 C 61.004 29.453333333333333 61.004 23.453333333333333 65 23.453333333333333 Z"></path><path fill="#7cb5ec" d="M 116 32.413333333333334 C 119.996 32.413333333333334 119.996 38.413333333333334 116 38.413333333333334 C 112.004 38.413333333333334 112.004 32.413333333333334 116 32.413333333333334 Z"></path><path fill="#7cb5ec" d="M 84 29.21333333333334 C 87.996 29.21333333333334 87.996 35.21333333333334 84 35.21333333333334 C 80.004 35.21333333333334 80.004 29.21333333333334 84 29.21333333333334 Z"></path><path fill="#7cb5ec" d="M 61 52.89333333333333 C 64.996 52.89333333333333 64.996 58.89333333333333 61 58.89333333333333 C 57.004 58.89333333333333 57.004 52.89333333333333 61 52.89333333333333 Z"></path><path fill="#7cb5ec" d="M 96 40.733333333333334 C 99.996 40.733333333333334 99.996 46.733333333333334 96 46.733333333333334 C 92.004 46.733333333333334 92.004 40.733333333333334 96 40.733333333333334 Z"></path><path fill="#7cb5ec" d="M 51 46.49333333333333 C 54.996 46.49333333333333 54.996 52.49333333333333 51 52.49333333333333 C 47.004 52.49333333333333 47.004 46.49333333333333 51 46.49333333333333 Z"></path><path fill="#7cb5ec" d="M 54 36.46666666666667 C 57.996 36.46666666666667 57.996 42.46666666666667 54 42.46666666666667 C 50.004 42.46666666666667 50.004 36.46666666666667 54 36.46666666666667 Z"></path><path fill="#7cb5ec" d="M 63 51.18666666666667 C 66.996 51.18666666666667 66.996 57.18666666666667 63 57.18666666666667 C 59.004 57.18666666666667 59.004 51.18666666666667 63 51.18666666666667 Z"></path><path fill="#7cb5ec" d="M 88 40.733333333333334 C 91.996 40.733333333333334 91.996 46.733333333333334 88 46.733333333333334 C 84.004 46.733333333333334 84.004 40.733333333333334 88 40.733333333333334 Z"></path><path fill="#7cb5ec" d="M 68 48.626666666666665 C 71.996 48.626666666666665 71.996 54.626666666666665 68 54.626666666666665 C 64.004 54.626666666666665 64.004 48.626666666666665 68 48.626666666666665 Z"></path></g><g class="highcharts-series" visibility="visible" zIndex="0.1" transform="translate(10,10) scale(1 1)" clip-path="url(#highcharts-1)"></g><g class="highcharts-markers highcharts-tracker" visibility="visible" zIndex="0.1" transform="translate(10,10) scale(1 1)" style="" clip-path="none"><path fill="#434348" d="M 85 18.226666666666674 L 88 21.226666666666674 85 24.226666666666674 82 21.226666666666674 Z"></path><path fill="#434348" d="M 68 30.49333333333334 L 71 33.49333333333334 68 36.49333333333334 65 33.49333333333334 Z"></path><path fill="#434348" d="M 65 38.28 L 68 41.28 65 44.28 62 41.28 Z"></path><path fill="#434348" d="M 96 31.986666666666665 L 99 34.986666666666665 96 37.986666666666665 93 34.986666666666665 Z"></path><path fill="#434348" d="M 71 40.2 L 74 43.2 71 46.2 68 43.2 Z"></path><path fill="#434348" d="M 38 29.960000000000008 L 41 32.96000000000001 38 35.96000000000001 35 32.96000000000001 Z"></path><path fill="#434348" d="M 64 13.960000000000008 L 67 16.960000000000008 64 19.960000000000008 61 16.960000000000008 Z"></path><path fill="#434348" d="M 117 26.439999999999998 L 120 29.439999999999998 117 32.44 114 29.439999999999998 Z"></path><path fill="#434348" d="M 71 29 L 74 32 71 35 68 32 Z"></path><path fill="#434348" d="M 46 23.880000000000003 L 49 26.880000000000003 46 29.880000000000003 43 26.880000000000003 Z"></path><path fill="#434348" d="M 64 38.70666666666667 L 67 41.70666666666667 64 44.70666666666667 61 41.70666666666667 Z"></path><path fill="#434348" d="M 98 36.25333333333333 L 101 39.25333333333333 98 42.25333333333333 95 39.25333333333333 Z"></path><path fill="#434348" d="M 128 22.173333333333325 L 131 25.173333333333325 128 28.173333333333325 125 25.173333333333325 Z"></path><path fill="#434348" d="M 106 15.346666666666671 L 109 18.34666666666667 106 21.34666666666667 103 18.34666666666667 Z"></path><path fill="#434348" d="M 109 8.093333333333334 L 112 11.093333333333334 109 14.093333333333334 106 11.093333333333334 Z"></path><path fill="#434348" d="M 97 16.413333333333334 L 100 19.413333333333334 97 22.413333333333334 94 19.413333333333334 Z"></path><path fill="#434348" d="M 117 11.50666666666666 L 120 14.50666666666666 117 17.50666666666666 114 14.50666666666666 Z"></path><path fill="#434348" d="M 86 33.05333333333333 L 89 36.05333333333333 86 39.05333333333333 83 36.05333333333333 Z"></path><path fill="#434348" d="M 113 20.680000000000007 L 116 23.680000000000007 113 26.680000000000007 110 23.680000000000007 Z"></path><path fill="#434348" d="M 63 19.613333333333337 L 66 22.613333333333337 63 25.613333333333337 60 22.613333333333337 Z"></path><path fill="#434348" d="M 89 12.039999999999992 L 92 15.039999999999992 89 18.039999999999992 86 15.039999999999992 Z"></path><path fill="#434348" d="M 54 26.439999999999998 L 57 29.439999999999998 54 32.44 51 29.439999999999998 Z"></path><path fill="#434348" d="M 113 29 L 116 32 113 35 110 32 Z"></path><path fill="#434348" d="M 91 3.613333333333344 L 94 6.613333333333344 91 9.613333333333344 88 6.613333333333344 Z"></path><path fill="#434348" d="M 23 18.760000000000005 L 26 21.760000000000005 23 24.760000000000005 20 21.760000000000005 Z"></path><path fill="#434348" d="M 64 27.933333333333337 L 67 30.933333333333337 64 33.93333333333334 61 30.933333333333337 Z"></path><path fill="#434348" d="M 43 24.09333333333334 L 46 27.09333333333334 43 30.09333333333334 40 27.09333333333334 Z"></path><path fill="#434348" d="M 106 7.666666666666671 L 109 10.666666666666671 106 13.666666666666671 103 10.666666666666671 Z"></path><path fill="#434348" d="M 99 14.49333333333334 L 102 17.49333333333334 99 20.49333333333334 96 17.49333333333334 Z"></path><path fill="#434348" d="M 105 21.960000000000008 L 108 24.960000000000008 105 27.960000000000008 102 24.960000000000008 Z"></path><path fill="#434348" d="M 65 16.626666666666672 L 68 19.626666666666672 65 22.626666666666672 62 19.626666666666672 Z"></path><path fill="#434348" d="M 116 37.53333333333333 L 119 40.53333333333333 116 43.53333333333333 113 40.53333333333333 Z"></path><path fill="#434348" d="M 84 20.039999999999992 L 87 23.039999999999992 84 26.039999999999992 81 23.039999999999992 Z"></path><path fill="#434348" d="M 61 11.50666666666666 L 64 14.50666666666666 61 17.50666666666666 58 14.50666666666666 Z"></path><path fill="#434348" d="M 96 23.880000000000003 L 99 26.880000000000003 96 29.880000000000003 93 26.880000000000003 Z"></path><path fill="#434348" d="M 51 19.613333333333337 L 54 22.613333333333337 51 25.613333333333337 48 22.613333333333337 Z"></path><path fill="#434348" d="M 54 26.226666666666674 L 57 29.226666666666674 54 32.226666666666674 51 29.226666666666674 Z"></path><path fill="#434348" d="M 63 17.586666666666666 L 66 20.586666666666666 63 23.586666666666666 60 20.586666666666666 Z"></path><path fill="#434348" d="M 88 27.080000000000005 L 91 30.080000000000005 88 33.080000000000005 85 30.080000000000005 Z"></path><path fill="#434348" d="M 68 33.69333333333334 L 71 36.69333333333334 68 39.69333333333334 65 36.69333333333334 Z"></path></g></g><g class="highcharts-axis-labels highcharts-xaxis-labels" zIndex="7"></g><g class="highcharts-axis-labels highcharts-yaxis-labels" zIndex="7"></g><g class="highcharts-tooltip" zIndex="8" style="cursor:default;padding:0;white-space:nowrap;" transform="translate(0,-9999)"><path fill="none" d="M 3 0 L 13 0 C 16 0 16 0 16 3 L 16 13 C 16 16 16 16 13 16 L 3 16 C 0 16 0 16 0 13 L 0 3 C 0 0 0 0 3 0" isShadow="true" stroke="black" stroke-width="5" transform="translate(1, 1)" opacity="0.049999999999999996"></path><path fill="none" d="M 3 0 L 13 0 C 16 0 16 0 16 3 L 16 13 C 16 16 16 16 13 16 L 3 16 C 0 16 0 16 0 13 L 0 3 C 0 0 0 0 3 0" isShadow="true" stroke="black" stroke-width="3" transform="translate(1, 1)" opacity="0.09999999999999999"></path><path fill="none" d="M 3 0 L 13 0 C 16 0 16 0 16 3 L 16 13 C 16 16 16 16 13 16 L 3 16 C 0 16 0 16 0 13 L 0 3 C 0 0 0 0 3 0" isShadow="true" stroke="black" stroke-width="1" transform="translate(1, 1)" opacity="0.15"></path><path fill="rgba(249, 249, 249, .85)" d="M 3 0 L 13 0 C 16 0 16 0 16 3 L 16 13 C 16 16 16 16 13 16 L 3 16 C 0 16 0 16 0 13 L 0 3 C 0 0 0 0 3 0"></path><text x="8" zIndex="1" style="font-size:12px;color:#333333;fill:#333333;" y="21"></text></g></svg>