<?xml version="1.0" standalone="no"?><!DOCTYPE svg PUBLIC "-//W3C//DTD SVG 1.1//EN" "http://www.w3.org/Graphics/SVG/1.1/DTD/svg11.dtd"><svg xmlns:xlink="http://www.w3.org/1999/xlink" version="1.1" style="font-family:&quot;Lucida Grande&quot;, &quot;Lucida Sans Unicode&quot;, Arial, Helvetica, sans-serif;font-size:12px;" xmlns="http://www.w3.org/2000/svg" width="150" height="100"><desc>Created with Highstock 2.0.4-modified</desc><defs><clipPath id="highcharts-1"><rect x="0" y="0" width="130" height="75"></rect></clipPath></defs><rect x="0" y="0" width="150" height="100" strokeWidth="0" fill="#FFFFFF" class=" highcharts-background"></rect><g class="highcharts-grid" zIndex="1"></g><g class="highcharts-grid" zIndex="1"><path fill="none" d="M 10 9.5 L 140 9.5" stroke="#C0C0C0" stroke-width="1" zIndex="1" opacity="1"></path><path fill="none" d="M 10 35.5 L 140 35.5" stroke="#C0C0C0" stroke-width="1" zIndex="1" opacity="1"></path><path fill="none" d="M 10 60.5 L 140 60.5" stroke="#C0C0C0" stroke-width="1" zIndex="1" opacity="1"></path><path fill="none" d="M 10 85.5 L 140 85.5" stroke="#C0C0C0" stroke-width="1" zIndex="1" opacity="1"></path></g><g class="highcharts-axis" zIndex="2"></g><g class="highcharts-axis" zIndex="2"></g><g class="highcharts-series-group" zIndex="3"><g class="highcharts-series highcharts-tracker" visibility="visible" zIndex="0.1" transform="translate(10,10) scale(1 1)" style="" clip-path="url(#highcharts-1)"><rect x="3.5" y="49.5" width="6" height="1" fill="#7cb5ec" rx="0" ry="0" stroke="#FFFFFF" stroke-width="1"></rect><rect x="15.5" y="47.5" width="6" height="3" fill="#7cb5ec" rx="0" ry="0" stroke="#FFFFFF" stroke-width="1"></rect><rect x="26.5" y="42.5" width="6" height="8" fill="#7cb5ec" rx="0" ry="0" stroke="#FFFFFF" stroke-width="1"></rect><rect x="38.5" y="37.5" width="6" height="13" fill="#7cb5ec" rx="0" ry="0" stroke="#FFFFFF" stroke-width="1"></rect><rect x="50.5" y="33.5" width="6" height="17" fill="#7cb5ec" rx="0" ry="0" stroke="#FFFFFF" stroke-width="1"></rect><rect x="61.5" y="31.5" width="6" height="19" fill="#7cb5ec" rx="0" ry="0" stroke="#FFFFFF" stroke-width="1"></rect><rect x="73.5" y="32.5" width="6" height="18" fill="#7cb5ec" rx="0" ry="0" stroke="#FFFFFF" stroke-width="1"></rect><rect x="84.5" y="36.5" width="6" height="14" fill="#7cb5ec" rx="0" ry="0" stroke="#FFFFFF" stroke-width="1"></rect><rect x="96.5" y="41.5" width="6" height="9" fill="#7cb5ec" rx="0" ry="0" stroke="#FFFFFF" stroke-width="1"></rect><rect x="108.5" y="46.5" width="6" height="4" fill="#7cb5ec" rx="0" ry="0" stroke="#FFFFFF" stroke-width="1"></rect><rect x="119.5" y="49.5" width="6" height="1" fill="#7cb5ec" rx="0" ry="0" stroke="#FFFFFF" stroke-width="1"></rect></g><g class="highcharts-markers" visibility="visible" zIndex="0.1" transform="translate(10,10) scale(1 1)" clip-path="none"></g><g class="highcharts-series highcharts-tracker" visibility="visible" zIndex="0.1" transform="translate(10,10) scale(1 1)" style="" clip-path="url(#highcharts-1)"><g><path fill="none" d="M 6.5 40 L 6.5 55 M 6.5 40 L 6.5 40" stroke="#352b2d" stroke-width="1"></path><path fill="none" d="M 5 55.5 L 8 55.5 M 5 40.5 L 8 40.5" stroke="#352b2d" stroke-width="1"></path><path fill="none" d="M 0 0" stroke="#352b2d" stroke-width="2" stroke-linecap="round"></path></g><g><path fill="none" d="M 18.5 40 L 18.5 50 M 18.5 40 L 18.5 40" stroke="#352b2d" stroke-width="1"></path><path fill="none" d="M 17 50.5 L 20 50.5 M 17 40.5 L 20 40.5" stroke="#352b2d" stroke-width="1"></path><path fill="none" d="M 0 0" stroke="#352b2d" stroke-width="2" stroke-linecap="round"></path></g><g><path fill="none" d="M 29.5 30 L 29.5 43 M 29.5 30 L 29.5 30" stroke="#352b2d" stroke-width="1"></path><path fill="none" d="M 28 43.5 L 31 43.5 M 28 30.5 L 31 30.5" stroke="#352b2d" stroke-width="1"></path><path fill="none" d="M 0 0" stroke="#352b2d" stroke-width="2" stroke-linecap="round"></path></g><g><path fill="none" d="M 41.5 31 L 41.5 45 M 41.5 31 L 41.5 31" stroke="#352b2d" stroke-width="1"></path><path fill="none" d="M 40 45.5 L 43 45.5 M 40 31.5 L 43 31.5" stroke="#352b2d" stroke-width="1"></path><path fill="none" d="M 0 0" stroke="#352b2d" stroke-width="2" stroke-linecap="round"></path></g><g><path fill="none" d="M 53.5 24 L 53.5 41 M 53.5 24 L 53.5 24" stroke="#352b2d" stroke-width="1"></path><path fill="none" d="M 52 41.5 L 55 41.5 M 52 24.5 L 55 24.5" stroke="#352b2d" stroke-width="1"></path><path fill="none" d="M 0 0" stroke="#352b2d" stroke-width="2" stroke-linecap="round"></path></g><g><path fill="none" d="M 64.5 28 L 64.5 34 M 64.5 28 L 64.5 28" stroke="#352b2d" stroke-width="1"></path><path fill="none" d="M 63 34.5 L 66 34.5 M 63 28.5 L 66 28.5" stroke="#352b2d" stroke-width="1"></path><path fill="none" d="M 0 0" stroke="#352b2d" stroke-width="2" stroke-linecap="round"></path></g><g><path fill="none" d="M 76.5 28 L 76.5 35 M 76.5 28 L 76.5 28" stroke="#352b2d" stroke-width="1"></path><path fill="none" d="M 75 35.5 L 78 35.5 M 75 28.5 L 78 28.5" stroke="#352b2d" stroke-width="1"></path><path fill="none" d="M 0 0" stroke="#352b2d" stroke-width="2" stroke-linecap="round"></path></g><g><path fill="none" d="M 87.5 33 L 87.5 40 M 87.5 33 L 87.5 33" stroke="#352b2d" stroke-width="1"></path><path fill="none" d="M 86 40.5 L 89 40.5 M 86 33.5 L 89 33.5" stroke="#352b2d" stroke-width="1"></path><path fill="none" d="M 0 0" stroke="#352b2d" stroke-width="2" stroke-linecap="round"></path></g><g><path fill="none" d="M 99.5 38 L 99.5 45 M 99.5 38 L 99.5 38" stroke="#352b2d" stroke-width="1"></path><path fill="none" d="M 98 45.5 L 101 45.5 M 98 38.5 L 101 38.5" stroke="#352b2d" stroke-width="1"></path><path fill="none" d="M 0 0" stroke="#352b2d" stroke-width="2" stroke-linecap="round"></path></g><g><path fill="none" d="M 111.5 40 L 111.5 50 M 111.5 40 L 111.5 40" stroke="#352b2d" stroke-width="1"></path><path fill="none" d="M 110 50.5 L 113 50.5 M 110 40.5 L 113 40.5" stroke="#352b2d" stroke-width="1"></path><path fill="none" d="M 0 0" stroke="#352b2d" stroke-width="2" stroke-linecap="round"></path></g><g><path fill="none" d="M 122.5 45 L 122.5 58 M 122.5 45 L 122.5 45" stroke="#352b2d" stroke-width="1"></path><path fill="none" d="M 121 58.5 L 124 58.5 M 121 45.5 L 124 45.5" stroke="#352b2d" stroke-width="1"></path><path fill="none" d="M 0 0" stroke="#352b2d" stroke-width="2" stroke-linecap="round"></path></g></g><g class="highcharts-markers" visibility="visible" zIndex="0.1" transform="translate(10,10) scale(1 1)" clip-path="none"></g></g><g class="highcharts-axis-labels highcharts-xaxis-labels" zIndex="7"></g><g class="highcharts-axis-labels highcharts-yaxis-labels" zIndex="7"></g><g class="highcharts-tooltip" zIndex="8" style="cursor:default;padding:0;white-space:nowrap;" transform="translate(0,-9999)"><path fill="none" d="M 3 0 L 13 0 C 16 0 16 0 16 3 L 16 13 C 16 16 16 16 13 16 L 3 16 C 0 16 0 16 0 13 L 0 3 C 0 0 0 0 3 0" isShadow="true" stroke="black" stroke-width="5" transform="translate(1, 1)" opacity="0.049999999999999996"></path><path fill="none" d="M 3 0 L 13 0 C 16 0 16 0 16 3 L 16 13 C 16 16 16 16 13 16 L 3 16 C 0 16 0 16 0 13 L 0 3 C 0 0 0 0 3 0" isShadow="true" stroke="black" stroke-width="3" transform="translate(1, 1)" opacity="0.09999999999999999"></path><path fill="none" d="M 3 0 L 13 0 C 16 0 16 0 16 3 L 16 13 C 16 16 16 16 13 16 L 3 16 C 0 16 0 16 0 13 L 0 3 C 0 0 0 0 3 0" isShadow="true" stroke="black" stroke-width="1" transform="translate(1, 1)" opacity="0.15"></path><path fill="rgba(249, 249, 249, .85)" d="M 3 0 L 13 0 C 16 0 16 0 16 3 L 16 13 C 16 16 16 16 13 16 L 3 16 C 0 16 0 16 0 13 L 0 3 C 0 0 0 0 3 0"></path><text x="8" zIndex="1" style="font-size:12px;color:#333333;fill:#333333;" y="21"></text></g></svg>