<?xml version="1.0" standalone="no"?><!DOCTYPE svg PUBLIC "-//W3C//DTD SVG 1.1//EN" "http://www.w3.org/Graphics/SVG/1.1/DTD/svg11.dtd"><svg xmlns:xlink="http://www.w3.org/1999/xlink" version="1.1" style="font-family:&quot;Lucida Grande&quot;, &quot;Lucida Sans Unicode&quot;, Arial, Helvetica, sans-serif;font-size:12px;" xmlns="http://www.w3.org/2000/svg" width="150" height="100"><desc>Created with Highstock 2.0.4-modified</desc><defs><clipPath id="highcharts-1"><rect x="0" y="0" width="130" height="75"></rect></clipPath></defs><rect x="0" y="0" width="150" height="100" strokeWidth="0" fill="#FFFFFF" class=" highcharts-background"></rect><g class="highcharts-grid" zIndex="1"></g><g class="highcharts-grid" zIndex="1"><path fill="none" d="M 10 9.5 L 140 9.5" stroke="#C0C0C0" stroke-width="1" zIndex="1" opacity="1"></path><path fill="none" d="M 10 85.5 L 140 85.5" stroke="#C0C0C0" stroke-width="1" zIndex="1" opacity="1"></path></g><g class="highcharts-axis" zIndex="2"><path fill="none" d="M 10 85.5 L 140 85.5" stroke="#C0D0E0" stroke-width="1" zIndex="7" visibility="visible"></path></g><g class="highcharts-axis" zIndex="2"></g><g class="highcharts-series-group" zIndex="3"><g class="highcharts-series highcharts-tracker" visibility="visible" zIndex="0.1" transform="translate(10,10) scale(1 1)" style="" clip-path="url(#highcharts-1)"><g><path fill="none" d="M 12.5 37 L 12.5 33 M 12.5 45 L 12.5 58" stroke="#7cb5ec" stroke-width="1"></path><path fill="none" d="M 9.5 33 L 15.5 33 M 9.5 58 L 15.5 58" stroke="#7cb5ec" stroke-width="2"></path><path fill="#FFFFFF" d="M 6.5 37.5 L 6.5 45.5 L 17.5 45.5 L 17.5 37.5 L 6.5 37.5 z" stroke="#7cb5ec" stroke-width="1"></path><path fill="none" d="M 6.5 43 L 17.5 43" stroke="#7cb5ec" stroke-width="2" stroke-linecap="round"></path></g><g><path fill="none" d="M 33.5 31 L 33.5 18 M 33.5 43 L 33.5 56" stroke="#7cb5ec" stroke-width="1"></path><path fill="none" d="M 30.5 18 L 36.5 18 M 30.5 56 L 36.5 56" stroke="#7cb5ec" stroke-width="2"></path><path fill="#FFFFFF" d="M 27.5 31.5 L 27.5 43.5 L 38.5 43.5 L 38.5 31.5 L 27.5 31.5 z" stroke="#7cb5ec" stroke-width="1"></path><path fill="none" d="M 27.5 41 L 38.5 41" stroke="#7cb5ec" stroke-width="2" stroke-linecap="round"></path></g><g><path fill="none" d="M 54.5 39 L 54.5 37 M 54.5 45 L 54.5 54" stroke="#7cb5ec" stroke-width="1"></path><path fill="none" d="M 51.5 37 L 57.5 37 M 51.5 54 L 57.5 54" stroke="#7cb5ec" stroke-width="2"></path><path fill="#FFFFFF" d="M 48.5 39.5 L 48.5 45.5 L 59.5 45.5 L 59.5 39.5 L 48.5 39.5 z" stroke="#7cb5ec" stroke-width="1"></path><path fill="none" d="M 48.5 43 L 59.5 43" stroke="#7cb5ec" stroke-width="2" stroke-linecap="round"></path></g><g><path fill="none" d="M 76.5 37 L 76.5 18 M 76.5 46 L 76.5 54" stroke="#7cb5ec" stroke-width="1"></path><path fill="none" d="M 73.5 18 L 79.5 18 M 73.5 54 L 79.5 54" stroke="#7cb5ec" stroke-width="2"></path><path fill="#FFFFFF" d="M 70.5 37.5 L 70.5 46.5 L 81.5 46.5 L 81.5 37.5 L 70.5 37.5 z" stroke="#7cb5ec" stroke-width="1"></path><path fill="none" d="M 70.5 41 L 81.5 41" stroke="#7cb5ec" stroke-width="2" stroke-linecap="round"></path></g><g><path fill="none" d="M 97.5 46 L 97.5 37 M 97.5 52 L 97.5 61" stroke="#7cb5ec" stroke-width="1"></path><path fill="none" d="M 94.5 37 L 100.5 37 M 94.5 61 L 100.5 61" stroke="#7cb5ec" stroke-width="2"></path><path fill="#FFFFFF" d="M 91.5 46.5 L 91.5 52.5 L 102.5 52.5 L 102.5 46.5 L 91.5 46.5 z" stroke="#7cb5ec" stroke-width="1"></path><path fill="none" d="M 91.5 49 L 102.5 49" stroke="#7cb5ec" stroke-width="2" stroke-linecap="round"></path></g><g><path fill="none" d="M 118.5 48 L 118.5 37 M 118.5 56 L 118.5 60" stroke="#7cb5ec" stroke-width="1"></path><path fill="none" d="M 115.5 37 L 121.5 37 M 115.5 60 L 121.5 60" stroke="#7cb5ec" stroke-width="2"></path><path fill="#FFFFFF" d="M 112.5 48.5 L 112.5 56.5 L 123.5 56.5 L 123.5 48.5 L 112.5 48.5 z" stroke="#7cb5ec" stroke-width="1"></path><path fill="none" d="M 112.5 53 L 123.5 53" stroke="#7cb5ec" stroke-width="2" stroke-linecap="round"></path></g></g><g class="highcharts-markers" visibility="visible" zIndex="0.1" transform="translate(10,10) scale(1 1)" clip-path="none"></g></g><g class="highcharts-axis-labels highcharts-xaxis-labels" zIndex="7"></g><g class="highcharts-axis-labels highcharts-yaxis-labels" zIndex="7"></g><g class="highcharts-tooltip" zIndex="8" style="cursor:default;padding:0;white-space:nowrap;" transform="translate(0,-9999)"><path fill="none" d="M 3 0 L 13 0 C 16 0 16 0 16 3 L 16 13 C 16 16 16 16 13 16 L 3 16 C 0 16 0 16 0 13 L 0 3 C 0 0 0 0 3 0" isShadow="true" stroke="black" stroke-width="5" transform="translate(1, 1)" opacity="0.049999999999999996"></path><path fill="none" d="M 3 0 L 13 0 C 16 0 16 0 16 3 L 16 13 C 16 16 16 16 13 16 L 3 16 C 0 16 0 16 0 13 L 0 3 C 0 0 0 0 3 0" isShadow="true" stroke="black" stroke-width="3" transform="translate(1, 1)" opacity="0.09999999999999999"></path><path fill="none" d="M 3 0 L 13 0 C 16 0 16 0 16 3 L 16 13 C 16 16 16 16 13 16 L 3 16 C 0 16 0 16 0 13 L 0 3 C 0 0 0 0 3 0" isShadow="true" stroke="black" stroke-width="1" transform="translate(1, 1)" opacity="0.15"></path><path fill="rgba(249, 249, 249, .85)" d="M 3 0 L 13 0 C 16 0 16 0 16 3 L 16 13 C 16 16 16 16 13 16 L 3 16 C 0 16 0 16 0 13 L 0 3 C 0 0 0 0 3 0"></path><text x="8" zIndex="1" style="font-size:12px;color:#333333;fill:#333333;" y="21"></text></g></svg>