<?xml version="1.0" standalone="no"?><!DOCTYPE svg PUBLIC "-//W3C//DTD SVG 1.1//EN" "http://www.w3.org/Graphics/SVG/1.1/DTD/svg11.dtd"><svg xmlns:xlink="http://www.w3.org/1999/xlink" version="1.1" style="font-family:&quot;Lucida Grande&quot;, &quot;Lucida Sans Unicode&quot;, Arial, Helvetica, sans-serif;font-size:12px;" xmlns="http://www.w3.org/2000/svg" width="200" height="150"><desc>Created with Highstock 2.0.4-modified</desc><defs><clipPath id="highcharts-1"><rect x="0" y="0" width="180" height="125"></rect></clipPath></defs><rect x="0" y="0" width="200" height="150" strokeWidth="0" fill="#FFFFFF" class=" highcharts-background"></rect><g class="highcharts-series-group" zIndex="3"><g class="highcharts-series highcharts-tracker" visibility="visible" zIndex="0.1" transform="translate(10,10) scale(1 1)" style="cursor:pointer;"><path fill="#7cb5ec" d="M 16.250006118709152 97.03004179692194 A 73.75 73.75 0 0 1 25.910304045909683 60.50927004687 L 71.53347743695703 86.4857218779117 A 21.25 21.25 0 0 0 68.75000176301789 97.00865611097751 Z" stroke="#FFFFFF" stroke-width="1" stroke-linejoin="round" transform="translate(0,0)"></path><path fill="#434348" d="M 25.94682681462632 60.44519860696099 A 73.75 73.75 0 0 1 30.827501939651967 52.98093625145909 L 72.95029716905226 84.31654095381025 A 21.25 21.25 0 0 0 71.54400094658725 86.46726061556504 Z" stroke="#FFFFFF" stroke-width="1" stroke-linejoin="round" transform="translate(0,0)"></path><path fill="#90ed7d" d="M 30.871550582310554 52.92178577279087 A 73.75 73.75 0 0 1 39.82615598652789 42.947730140985115 L 75.54312969103346 81.42561715926689 A 21.25 21.25 0 0 0 72.96298915083524 84.29949759554991 Z" stroke="#FFFFFF" stroke-width="1" stroke-linejoin="round" transform="translate(0,0)"></path><path fill="#f7a35c" d="M 39.880233334298104 42.89758333146664 A 73.75 73.75 0 0 1 75.40569992257822 24.708445131881646 L 85.79486268955644 76.17022995325404 A 21.25 21.25 0 0 0 75.55871129971301 81.41116807855818 Z" stroke="#FFFFFF" stroke-width="1" stroke-linejoin="round" transform="translate(0,0)"></path><path fill="#8085e9" d="M 75.47799876254717 24.69388698001103 A 73.75 73.75 0 0 1 163.7499631250031 96.92625001229166 L 111.2499893750009 96.97875000354166 A 21.25 21.25 0 0 0 85.81569455870003 76.1660352315286 Z" stroke="#FFFFFF" stroke-width="1" stroke-linejoin="round" transform="translate(0,0)"></path></g><g class="highcharts-markers" visibility="visible" zIndex="0.1" transform="translate(10,10) scale(1 1)"></g></g><g class="highcharts-legend" zIndex="7"><g zIndex="1"><g></g></g></g><g class="highcharts-tooltip" zIndex="8" style="cursor:default;padding:0;white-space:nowrap;" transform="translate(0,-9999)"><path fill="none" d="M 3 0 L 13 0 C 16 0 16 0 16 3 L 16 13 C 16 16 16 16 13 16 L 3 16 C 0 16 0 16 0 13 L 0 3 C 0 0 0 0 3 0" isShadow="true" stroke="black" stroke-width="5" transform="translate(1, 1)" opacity="0.049999999999999996"></path><path fill="none" d="M 3 0 L 13 0 C 16 0 16 0 16 3 L 16 13 C 16 16 16 16 13 16 L 3 16 C 0 16 0 16 0 13 L 0 3 C 0 0 0 0 3 0" isShadow="true" stroke="black" stroke-width="3" transform="translate(1, 1)" opacity="0.09999999999999999"></path><path fill="none" d="M 3 0 L 13 0 C 16 0 16 0 16 3 L 16 13 C 16 16 16 16 13 16 L 3 16 C 0 16 0 16 0 13 L 0 3 C 0 0 0 0 3 0" isShadow="true" stroke="black" stroke-width="1" transform="translate(1, 1)" opacity="0.15"></path><path fill="rgba(249, 249, 249, .85)" d="M 3 0 L 13 0 C 16 0 16 0 16 3 L 16 13 C 16 16 16 16 13 16 L 3 16 C 0 16 0 16 0 13 L 0 3 C 0 0 0 0 3 0"></path><text x="8" zIndex="1" style="font-size:12px;color:#333333;fill:#333333;" y="21"></text></g></svg>