<svg version="1.1" height="700pt" width="700pt" xmlns="http://www.w3.org/2000/svg" xmlns:xlink="http://www.w3.org/1999/xlink">
<desc>
Map version: 1.1.2
Copyright (c) 2015 Highsoft AS, Based on data from Natural Earth
</desc>
<title>Asia</title>
<g id="admin0">

<path fill="#CEE3F5" stroke="#6E6E6E" stroke-width="0.4" id="IR" d="M139.1,376.6 L136.4,377.4 L136.7,376.8 L140.4,375.0 Z M92.3,316.1 L93.4,315.7 L94.0,315.9 L95.5,314.3 L99.9,311.4 L102.3,313.0 L102.2,314.7 L100.9,316.0 L103.7,318.2 L104.9,317.9 L106.2,322.2 L110.9,323.2 L112.5,325.0 L115.3,326.5 L119.1,327.2 L126.3,325.3 L128.7,325.6 L128.2,322.9 L132.1,321.8 L132.4,320.5 L135.0,318.8 L139.0,318.6 L139.6,317.7 L143.2,317.5 L143.8,319.0 L150.5,320.2 L153.1,321.2 L153.2,322.1 L156.2,323.6 L157.8,325.6 L161.1,325.4 L162.2,330.7 L161.4,334.9 L159.8,336.5 L160.7,337.5 L158.9,338.7 L159.1,341.1 L160.8,341.5 L159.4,343.5 L160.8,348.1 L160.9,351.9 L164.8,352.3 L165.4,355.1 L161.3,360.1 L163.4,362.3 L166.3,366.5 L170.2,367.7 L170.7,372.8 L173.1,373.3 L172.4,375.7 L170.6,375.7 L166.5,377.8 L165.5,382.9 L164.7,383.6 L161.1,382.7 L160.7,381.9 L157.7,382.5 L152.7,381.6 L149.8,381.8 L145.9,380.8 L144.3,375.6 L143.3,374.2 L141.2,374.0 L138.1,375.1 L134.2,377.7 L131.9,376.7 L129.2,376.8 L127.7,375.5 L123.8,373.6 L123.1,372.4 L118.2,370.9 L116.6,367.3 L114.7,365.3 L114.7,363.8 L112.2,361.4 L111.9,360.1 L109.7,361.0 L106.7,359.3 L106.7,360.9 L104.8,361.6 L102.4,359.1 L102.3,356.6 L100.7,356.5 L101.3,352.6 L99.0,349.2 L97.9,349.2 L94.0,346.8 L92.1,343.4 L89.7,341.8 L89.8,339.3 L91.9,335.9 L93.1,335.2 L92.1,333.8 L93.5,332.0 L89.2,331.4 L88.6,329.2 L87.4,328.6 L86.3,325.4 L85.4,322.4 L83.6,321.1 L83.7,316.5 L82.6,313.5 L84.2,313.3 L84.9,311.5 L86.0,312.1 L89.0,315.4 Z">
  <desc xmlns="http://www.highcharts.com/svg/namespace">
    <name>Iran</name>
    <labelrank>2</labelrank>
    <country-abbrev>Iran</country-abbrev>
    <subregion>Southern Asia</subregion>
    <region-wb>Middle East &amp; North Africa</region-wb>
    <iso-a3>IRN</iso-a3>
    <iso-a2>IR</iso-a2>
    <woe-id>23424851</woe-id>
    <continent>Asia</continent>
    <hc-middle-x>0.56</hc-middle-x>
    <hc-middle-y>0.52</hc-middle-y>
    <hc-key>ir</hc-key>
    <hc-a2>IR</hc-a2>
  </desc>
</path>

<path fill="#CEE3F5" stroke="#6E6E6E" stroke-width="0.4" id="PH" d="M435.6,467.7 L435.5,467.5 L437.3,466.4 L437.0,467.0 Z M442.0,464.1 L440.6,463.8 L441.1,462.8 L442.8,463.3 Z M445.7,461.2 L444.5,460.4 L445.7,459.7 L446.9,460.3 Z M463.1,445.3 L462.9,445.4 L463.5,443.9 L464.0,445.1 Z M456.4,444.1 L455.4,446.2 L453.2,445.4 L454.8,443.8 Z M461.7,442.4 L461.9,444.7 L460.9,443.8 L460.9,442.8 Z M448.1,442.0 L447.7,442.6 L447.0,442.4 L447.8,441.2 Z M450.5,440.1 L451.9,440.7 L450.2,445.2 L451.0,447.6 L449.7,449.1 L447.7,447.3 L446.7,445.5 L448.9,444.1 L448.5,442.2 L449.3,440.4 Z M453.8,439.5 L453.8,443.0 L450.9,446.8 L451.4,444.4 Z M445.9,436.6 L450.0,437.8 L449.8,439.2 L447.4,441.5 L444.5,442.8 L445.1,437.1 Z M435.5,436.2 L434.8,434.4 L436.9,435.5 L436.6,436.7 Z M452.6,433.6 L454.0,436.5 L451.0,434.4 L449.9,435.7 L450.1,432.6 Z M445.1,432.6 L444.6,434.9 L444.1,434.2 L444.5,432.7 Z M440.4,434.6 L438.7,431.1 L436.7,428.8 L440.6,429.0 L442.3,430.6 L442.3,432.7 Z M443.8,428.4 L444.8,428.8 L444.3,430.0 L443.5,429.4 Z M454.4,425.6 L455.3,426.5 L455.0,427.9 L453.5,427.5 Z M443.9,421.4 L444.2,422.9 L443.8,423.3 L443.3,421.5 Z M459.4,441.5 L460.0,444.5 L458.6,442.5 L458.7,444.2 L457.6,443.6 L457.4,440.6 L455.7,440.1 L455.9,437.6 L458.3,438.0 L457.6,437.2 L457.8,436.2 L455.4,434.2 L454.9,432.7 L458.9,432.4 L460.5,433.9 L461.0,438.4 L459.5,439.2 L458.3,438.0 L458.5,440.6 Z M454.8,460.8 L454.6,457.7 L455.6,456.3 L453.0,454.6 L450.6,456.1 L450.3,455.0 L449.0,457.1 L448.9,455.0 L447.6,455.3 L445.9,459.0 L445.0,458.7 L445.8,454.8 L446.5,453.9 L449.4,453.1 L450.0,451.4 L453.1,450.9 L453.7,453.0 L455.4,452.6 L456.1,450.8 L457.7,451.2 L457.7,448.6 L459.3,449.7 L459.7,448.5 L461.2,448.7 L460.5,445.7 L463.0,446.5 L465.6,452.2 L465.4,454.0 L466.4,456.5 L464.9,458.9 L464.7,461.1 L464.0,458.6 L462.7,456.3 L462.7,458.4 L461.4,457.9 L461.0,459.8 L461.8,460.2 L462.3,462.8 L461.1,464.5 L459.6,463.3 L455.7,461.9 Z M428.9,448.5 L426.8,450.5 L423.2,453.1 L425.1,449.8 L426.7,449.0 L430.3,444.4 L432.3,442.9 L432.0,440.9 L433.2,438.6 L433.5,439.8 L434.1,442.6 L432.0,445.0 L430.0,445.8 Z M445.3,426.7 L446.3,424.6 L448.1,424.9 L449.2,426.3 L452.1,426.3 L453.3,427.3 L451.3,427.8 L453.9,429.4 L454.0,432.7 L450.4,430.7 L449.6,428.7 L446.7,426.4 L447.0,430.1 L445.7,428.2 L442.9,426.5 L441.6,428.0 L439.8,428.1 L439.2,426.9 L437.9,427.4 L437.6,425.7 L439.4,424.1 L437.4,422.7 L437.7,424.2 L435.3,422.9 L433.7,417.8 L434.6,416.2 L436.1,417.2 L436.0,413.6 L436.5,410.8 L436.0,410.0 L437.1,405.3 L439.3,404.7 L443.4,406.3 L444.5,405.1 L444.3,409.4 L446.1,411.8 L444.9,415.5 L442.0,417.4 L442.2,418.6 L441.1,420.3 L442.8,423.0 L442.9,425.5 Z">
  <desc xmlns="http://www.highcharts.com/svg/namespace">
    <name>Philippines</name>
    <labelrank>2</labelrank>
    <country-abbrev>Phil.</country-abbrev>
    <subregion>South-Eastern Asia</subregion>
    <region-wb>East Asia &amp; Pacific</region-wb>
    <iso-a3>PHL</iso-a3>
    <iso-a2>PH</iso-a2>
    <woe-id>23424934</woe-id>
    <continent>Asia</continent>
    <hc-middle-x>0.36</hc-middle-x>
    <hc-middle-y>0.10</hc-middle-y>
    <hc-key>ph</hc-key>
    <hc-a2>PH</hc-a2>
  </desc>
</path>

<path fill="#CEE3F5" stroke="#6E6E6E" stroke-width="0.4" id="SA" d="M77.2,426.3 L77.0,426.7 L76.0,425.6 L76.8,425.3 Z M118.1,387.4 L118.4,388.9 L119.7,389.1 L119.9,389.9 L124.6,395.3 L136.2,396.4 L136.6,396.0 L138.8,399.4 L136.1,408.9 L122.5,414.1 L109.5,416.4 L105.1,418.7 L102.6,422.1 L101.9,423.8 L99.9,424.5 L98.6,423.1 L92.8,423.1 L91.5,422.6 L85.1,423.2 L83.4,422.5 L82.4,423.4 L82.7,426.0 L80.8,427.9 L80.5,426.5 L78.6,424.3 L78.4,422.9 L75.7,420.9 L73.2,417.3 L71.8,413.5 L69.8,411.4 L65.7,409.2 L63.0,405.2 L62.3,402.3 L62.8,399.3 L59.7,393.5 L56.1,391.1 L55.4,391.3 L53.5,388.5 L53.9,386.8 L51.2,383.7 L49.0,380.0 L45.8,376.1 L44.1,373.2 L41.5,373.0 L42.7,366.8 L47.6,367.4 L49.7,365.8 L50.9,363.9 L54.1,363.2 L56.4,360.6 L51.5,355.7 L60.6,352.9 L61.4,352.2 L67.1,352.9 L75.1,357.0 L87.4,366.0 L95.8,366.2 L100.0,366.5 L101.1,368.8 L104.6,368.6 L106.8,372.0 L108.5,373.4 L108.9,375.1 L112.8,377.5 L113.0,382.1 L114.5,383.5 L116.2,386.8 L117.0,387.7 Z">
  <desc xmlns="http://www.highcharts.com/svg/namespace">
    <name>Saudi Arabia</name>
    <labelrank>2</labelrank>
    <country-abbrev>Saud.</country-abbrev>
    <subregion>Western Asia</subregion>
    <region-wb>Middle East &amp; North Africa</region-wb>
    <iso-a3>SAU</iso-a3>
    <iso-a2>SA</iso-a2>
    <woe-id>23424938</woe-id>
    <continent>Asia</continent>
    <hc-middle-x>0.41</hc-middle-x>
    <hc-middle-y>0.48</hc-middle-y>
    <hc-key>sa</hc-key>
    <hc-a2>SA</hc-a2>
  </desc>
</path>

<path fill="#CEE3F5" stroke="#6E6E6E" stroke-width="0.4" id="JP" d="M468.7,365.0 L470.7,365.3 L468.9,366.3 L469.3,365.8 Z M475.2,357.5 L474.6,357.1 L477.0,355.8 L475.8,357.1 Z M480.4,345.9 L481.2,346.3 L480.1,347.1 L479.8,346.3 Z M482.8,345.4 L482.5,346.3 L482.0,345.8 L482.9,343.9 Z M478.8,335.9 L478.7,336.2 L477.8,337.3 L477.9,335.6 Z M473.6,332.1 L473.5,334.1 L472.7,335.2 L472.7,334.3 Z M499.9,325.6 L499.1,326.3 L498.8,325.9 L500.2,324.2 Z M474.4,326.7 L473.7,327.7 L474.3,324.9 L475.0,325.1 Z M515.4,305.5 L515.7,306.4 L514.7,307.0 L514.8,305.0 Z M477.0,334.8 L475.4,330.9 L476.7,331.5 L479.7,328.7 L482.1,328.1 L482.4,329.7 L485.5,330.0 L484.5,331.6 L486.3,331.5 L487.0,333.3 L485.4,335.3 L484.1,341.2 L481.0,343.2 L479.0,342.0 L479.4,340.1 L478.8,337.9 L480.8,334.9 L478.7,332.2 Z M499.3,328.2 L497.6,329.2 L496.8,331.3 L495.6,330.0 L492.6,330.9 L491.2,333.7 L489.5,334.1 L488.5,330.4 L490.9,326.9 L491.6,327.8 L493.6,327.7 L494.1,326.6 L496.4,325.4 Z M528.7,291.1 L530.1,292.6 L531.8,297.1 L530.9,299.9 L529.2,301.9 L529.5,304.0 L527.5,303.5 L526.9,306.1 L527.5,308.8 L525.5,314.6 L527.0,317.5 L525.2,318.3 L524.9,320.2 L522.8,321.8 L522.1,319.7 L519.2,320.2 L519.2,322.1 L517.9,323.6 L517.6,320.9 L516.5,321.1 L515.0,323.1 L508.8,323.2 L507.8,321.9 L507.3,323.9 L509.0,325.5 L506.0,326.7 L504.9,329.2 L502.5,329.5 L500.7,327.9 L500.6,325.9 L501.8,323.6 L499.1,323.4 L494.3,324.8 L491.0,326.6 L488.3,325.8 L487.4,328.6 L485.4,327.5 L483.3,328.3 L481.4,327.4 L481.8,325.9 L483.9,325.7 L488.3,321.6 L489.3,320.2 L491.4,319.3 L492.9,320.0 L498.0,318.7 L503.8,319.3 L505.1,317.9 L504.4,316.9 L507.9,312.1 L507.8,309.5 L510.3,308.5 L508.6,310.6 L509.0,312.1 L514.7,310.2 L517.4,306.7 L519.9,304.8 L522.5,297.6 L522.4,295.9 L521.1,295.7 L522.2,293.0 L521.4,291.8 L523.4,290.2 L523.5,288.0 L525.1,290.0 L527.1,290.0 L527.3,287.8 L525.7,288.7 L526.1,286.4 L527.8,287.4 Z M525.1,284.9 L522.9,287.3 L521.8,286.5 L522.5,284.1 L520.8,282.7 L521.1,280.4 L524.0,278.4 L523.8,276.4 L527.0,277.6 L528.2,276.3 L527.6,274.4 L529.0,273.1 L529.5,269.3 L528.5,266.2 L530.1,264.2 L535.0,269.2 L539.5,271.6 L543.6,272.5 L545.8,270.2 L544.7,273.6 L546.1,276.0 L547.4,275.9 L543.4,278.2 L540.8,278.0 L538.4,279.8 L536.6,283.9 L529.6,280.4 L526.3,282.0 L525.1,280.8 L523.1,282.6 L525.1,283.2 L527.3,285.0 Z">
  <desc xmlns="http://www.highcharts.com/svg/namespace">
    <name>Japan</name>
    <labelrank>2</labelrank>
    <country-abbrev>Japan</country-abbrev>
    <subregion>Eastern Asia</subregion>
    <region-wb>East Asia &amp; Pacific</region-wb>
    <iso-a3>JPN</iso-a3>
    <iso-a2>JP</iso-a2>
    <woe-id>23424856</woe-id>
    <continent>Asia</continent>
    <hc-middle-x>0.59</hc-middle-x>
    <hc-middle-y>0.52</hc-middle-y>
    <hc-key>jp</hc-key>
    <hc-a2>JP</hc-a2>
  </desc>
</path>

<path fill="#CEE3F5" stroke="#6E6E6E" stroke-width="0.4" id="TH" d="M336.5,456.9 L337.2,457.4 L337.2,458.3 L336.6,458.8 Z M356.3,438.5 L356.3,438.5 L357.1,440.3 L356.3,438.5 L356.3,438.5 Z M354.1,465.1 L353.0,467.5 L351.7,466.8 L349.8,468.1 L349.6,465.3 L345.3,463.4 L345.2,464.6 L343.1,462.7 L343.3,461.5 L341.7,460.7 L339.3,457.4 L337.0,457.1 L336.0,455.3 L336.2,453.0 L338.2,446.9 L338.3,445.3 L340.2,443.3 L342.0,440.0 L340.8,436.5 L339.4,433.8 L339.5,431.3 L336.7,428.3 L334.8,424.9 L336.4,423.9 L337.0,419.5 L335.7,416.0 L332.1,412.3 L332.4,411.7 L330.6,409.1 L332.3,408.8 L331.8,407.2 L333.4,403.0 L335.7,403.5 L337.9,402.6 L342.1,399.6 L342.8,400.2 L344.9,400.9 L344.6,403.8 L348.2,403.5 L348.6,406.0 L347.4,409.0 L348.1,410.7 L346.9,412.9 L348.0,413.5 L352.2,409.8 L355.0,411.4 L358.2,408.5 L361.0,409.0 L362.4,411.1 L364.9,413.3 L364.8,417.3 L366.1,419.1 L367.8,419.6 L369.0,421.3 L368.2,423.9 L368.8,424.3 L368.1,427.0 L367.1,427.4 L365.2,427.0 L361.7,427.6 L360.1,427.3 L357.5,428.0 L355.0,431.4 L354.1,431.5 L355.0,435.6 L356.3,436.7 L356.1,438.0 L356.3,438.5 L356.3,438.5 L356.3,438.5 L354.4,437.8 L352.0,435.7 L347.4,435.7 L347.9,432.1 L343.7,432.6 L343.8,438.2 L343.0,439.3 L340.7,445.5 L340.2,447.9 L340.7,452.0 L343.5,451.6 L344.1,454.6 L345.5,456.0 L345.3,459.7 L349.1,462.6 L351.7,462.6 Z">
  <desc xmlns="http://www.highcharts.com/svg/namespace">
    <name>Thailand</name>
    <labelrank>3</labelrank>
    <country-abbrev>Thai.</country-abbrev>
    <subregion>South-Eastern Asia</subregion>
    <region-wb>East Asia &amp; Pacific</region-wb>
    <iso-a3>THA</iso-a3>
    <iso-a2>TH</iso-a2>
    <woe-id>23424960</woe-id>
    <continent>Asia</continent>
    <hc-middle-x>0.46</hc-middle-x>
    <hc-middle-y>0.29</hc-middle-y>
    <hc-key>th</hc-key>
    <hc-a2>TH</hc-a2>
  </desc>
</path>

<path fill="#CEE3F5" stroke="#6E6E6E" stroke-width="0.4" id="OM" d="M152.9,407.5 L152.8,406.6 L153.8,405.0 L154.2,405.8 Z M141.2,383.6 L141.0,383.7 L140.9,383.2 L141.5,383.3 Z M140.1,379.6 L141.3,378.0 L141.8,380.2 L141.1,381.7 L140.5,381.5 Z M136.6,396.0 L136.5,394.6 L138.0,390.8 L137.6,389.9 L140.1,389.2 L138.9,388.5 L139.0,385.5 L140.1,386.0 L141.7,384.8 L142.8,387.1 L145.4,389.7 L152.9,391.5 L156.5,395.9 L157.8,396.1 L157.8,397.7 L155.8,401.4 L153.9,402.8 L152.2,406.4 L150.3,405.7 L148.6,409.6 L149.3,413.1 L145.1,414.2 L144.0,415.3 L142.7,418.4 L138.6,419.0 L136.8,423.0 L132.2,423.3 L128.0,425.0 L126.2,422.0 L122.5,414.1 L136.1,408.9 L138.8,399.4 Z">
  <desc xmlns="http://www.highcharts.com/svg/namespace">
    <name>Oman</name>
    <labelrank>4</labelrank>
    <country-abbrev>Oman</country-abbrev>
    <subregion>Western Asia</subregion>
    <region-wb>Middle East &amp; North Africa</region-wb>
    <iso-a3>OMN</iso-a3>
    <iso-a2>OM</iso-a2>
    <woe-id>23424898</woe-id>
    <continent>Asia</continent>
    <hc-middle-x>0.75</hc-middle-x>
    <hc-middle-y>0.50</hc-middle-y>
    <hc-key>om</hc-key>
    <hc-a2>OM</hc-a2>
  </desc>
</path>

<path fill="#CEE3F5" stroke="#6E6E6E" stroke-width="0.4" id="YE" d="M130.8,443.3 L133.3,443.2 L135.0,443.9 L133.5,444.8 L130.9,445.0 L129.8,444.2 Z M128.0,425.0 L124.4,426.9 L124.2,430.0 L120.3,431.9 L116.6,432.9 L114.9,433.9 L112.2,434.5 L109.9,435.6 L108.2,437.8 L105.1,437.9 L102.4,439.9 L99.2,441.0 L94.5,441.6 L91.0,444.5 L89.4,444.3 L86.7,445.3 L84.5,444.2 L83.4,442.6 L83.5,440.2 L80.5,431.0 L80.8,427.9 L82.7,426.0 L82.4,423.4 L83.4,422.5 L85.1,423.2 L91.5,422.6 L92.8,423.1 L98.6,423.1 L99.9,424.5 L101.9,423.8 L102.6,422.1 L105.1,418.7 L109.5,416.4 L122.5,414.1 L126.2,422.0 Z">
  <desc xmlns="http://www.highcharts.com/svg/namespace">
    <name>Yemen</name>
    <labelrank>3</labelrank>
    <country-abbrev>Yem.</country-abbrev>
    <subregion>Western Asia</subregion>
    <region-wb>Middle East &amp; North Africa</region-wb>
    <iso-a3>YEM</iso-a3>
    <iso-a2>YE</iso-a2>
    <woe-id>23425002</woe-id>
    <continent>Asia</continent>
    <hc-middle-x>0.44</hc-middle-x>
    <hc-middle-y>0.48</hc-middle-y>
    <hc-key>ye</hc-key>
    <hc-a2>YE</hc-a2>
  </desc>
</path>

<path fill="#CEE3F5" stroke="#6E6E6E" stroke-width="0.4" id="IN" d="M315.3,461.9 L316.4,462.1 L316.3,464.2 L315.4,463.0 Z M309.9,445.9 L309.9,446.8 L309.0,447.0 L309.0,445.9 Z M311.4,432.6 L311.5,437.8 L309.9,441.6 L310.8,434.5 Z M286.6,365.6 L288.8,364.4 L290.0,365.6 L290.3,368.2 L289.5,369.0 L291.3,370.6 L294.6,371.1 L297.2,370.0 L298.1,370.6 L302.4,370.3 L305.0,369.6 L304.4,366.9 L303.3,367.3 L302.7,365.6 L304.3,365.7 L307.3,364.7 L307.4,363.7 L310.9,360.8 L315.0,358.9 L316.2,357.4 L319.2,358.6 L321.3,357.1 L323.1,356.9 L327.1,361.9 L328.7,362.4 L328.8,364.0 L326.8,365.4 L328.1,367.8 L326.3,366.8 L323.5,367.3 L318.6,371.3 L319.2,373.4 L316.8,376.7 L317.3,378.5 L314.7,384.3 L311.0,383.4 L311.7,385.3 L311.5,387.8 L310.4,388.5 L310.7,391.4 L309.9,393.3 L308.0,393.5 L306.8,387.2 L305.8,385.1 L303.3,389.0 L302.0,388.1 L301.2,385.9 L302.1,383.5 L305.5,381.9 L306.1,379.4 L304.9,378.1 L297.4,378.5 L294.7,377.5 L294.8,374.8 L293.5,374.7 L288.4,372.5 L286.8,375.2 L290.8,378.7 L288.5,378.7 L286.7,381.4 L290.1,383.3 L289.3,386.1 L291.2,388.3 L290.8,389.3 L291.9,393.3 L292.1,395.5 L289.8,396.1 L287.4,395.8 L287.8,393.3 L285.8,395.8 L283.5,396.4 L281.9,398.2 L282.7,400.6 L280.1,404.0 L275.8,405.6 L273.2,407.8 L269.7,412.4 L267.6,413.6 L266.0,415.7 L261.8,418.5 L261.9,420.6 L259.4,421.9 L257.1,422.0 L256.7,423.6 L255.1,424.9 L254.0,424.2 L252.7,425.2 L251.8,428.3 L252.5,430.4 L252.8,434.4 L253.4,436.0 L252.7,440.1 L251.4,442.2 L251.6,450.2 L249.6,450.1 L247.5,454.1 L248.1,454.8 L244.5,456.5 L243.8,459.3 L241.3,460.7 L238.9,459.5 L236.8,457.2 L235.2,452.2 L233.1,447.1 L231.6,444.4 L230.0,443.0 L228.2,439.1 L226.9,434.3 L225.3,430.7 L221.4,424.4 L220.4,419.8 L218.9,415.1 L217.1,406.8 L218.0,403.6 L217.9,401.8 L216.7,399.0 L218.0,398.0 L216.2,397.9 L216.2,395.8 L214.3,396.7 L215.2,398.3 L214.4,400.4 L209.3,403.0 L207.3,402.6 L205.0,401.0 L199.7,395.7 L202.8,395.3 L205.3,394.3 L206.2,392.4 L203.2,393.5 L200.9,393.1 L198.1,391.5 L195.9,388.4 L198.4,387.7 L198.4,386.2 L202.2,386.1 L204.1,386.6 L206.6,385.2 L207.7,386.1 L209.1,385.2 L209.0,383.9 L207.0,380.3 L206.9,379.0 L205.2,379.1 L204.2,377.8 L204.5,375.1 L201.3,373.8 L201.8,371.9 L205.1,367.7 L207.4,369.2 L212.1,367.8 L214.3,363.6 L216.7,362.3 L218.7,357.8 L221.3,356.4 L220.8,355.6 L222.9,352.7 L224.4,351.8 L223.5,348.6 L225.0,347.0 L227.4,345.7 L224.4,344.8 L224.2,342.9 L222.5,343.1 L221.0,341.3 L220.8,338.8 L222.1,337.2 L220.6,337.0 L219.7,335.2 L222.0,333.0 L228.9,334.2 L232.4,332.9 L234.6,330.8 L238.0,328.7 L240.3,333.0 L243.3,334.3 L242.5,335.9 L242.8,338.6 L245.6,340.5 L246.2,343.1 L243.6,344.7 L242.7,343.2 L241.2,343.9 L242.9,346.7 L243.0,349.8 L244.5,349.3 L246.9,351.7 L250.0,352.7 L249.8,353.5 L253.6,355.2 L251.3,357.2 L249.4,362.1 L254.6,364.2 L255.4,365.4 L258.8,366.4 L262.1,368.3 L270.5,368.8 L270.8,370.3 L273.8,371.6 L275.2,371.0 L276.3,372.3 L278.4,372.1 L280.4,373.0 L281.9,372.1 L283.2,373.2 L286.7,372.6 L287.0,371.1 L286.1,369.4 Z">
  <desc xmlns="http://www.highcharts.com/svg/namespace">
    <name>India</name>
    <labelrank>2</labelrank>
    <country-abbrev>India</country-abbrev>
    <subregion>Southern Asia</subregion>
    <region-wb>South Asia</region-wb>
    <iso-a3>IND</iso-a3>
    <iso-a2>IN</iso-a2>
    <woe-id>23424848</woe-id>
    <continent>Asia</continent>
    <hc-middle-x>0.32</hc-middle-x>
    <hc-middle-y>0.46</hc-middle-y>
    <hc-key>in</hc-key>
    <hc-a2>IN</hc-a2>
  </desc>
</path>

<path fill="#CEE3F5" stroke="#6E6E6E" stroke-width="0.4" id="KR" d="M463.0,330.8 L463.1,332.1 L460.6,332.8 L460.7,331.4 Z M461.5,308.7 L461.5,308.7 L463.7,306.1 L467.7,305.9 L469.1,304.2 L470.5,306.7 L473.8,311.1 L474.6,313.8 L474.2,316.8 L475.1,317.4 L474.7,320.4 L473.6,322.3 L470.3,322.7 L470.1,323.7 L468.4,323.1 L466.2,323.8 L467.2,324.9 L461.7,327.4 L460.3,324.8 L461.0,323.0 L461.0,320.2 L462.5,318.9 L461.0,317.5 L460.3,314.2 L461.0,312.8 L462.8,313.4 L461.0,309.7 Z">
  <desc xmlns="http://www.highcharts.com/svg/namespace">
    <name>South Korea</name>
    <labelrank>2</labelrank>
    <country-abbrev>S.K.</country-abbrev>
    <subregion>Eastern Asia</subregion>
    <region-wb>East Asia &amp; Pacific</region-wb>
    <iso-a3>KOR</iso-a3>
    <iso-a2>KR</iso-a2>
    <woe-id>23424868</woe-id>
    <continent>Asia</continent>
    <hc-middle-x>0.38</hc-middle-x>
    <hc-middle-y>0.39</hc-middle-y>
    <hc-key>kr</hc-key>
    <hc-a2>KR</hc-a2>
  </desc>
</path>

<path fill="#CEE3F5" stroke="#6E6E6E" stroke-width="0.4" id="BD" d="M301.3,391.8 L301.6,392.5 L301.1,393.2 L300.8,393.1 Z M308.0,393.5 L308.5,396.7 L307.0,396.0 L306.8,397.9 L307.0,399.3 L304.9,396.0 L304.7,393.0 L302.8,389.8 L300.5,390.9 L298.4,388.5 L298.8,392.7 L299.2,391.6 L299.1,389.9 L300.0,392.8 L298.5,393.3 L298.7,392.8 L297.1,394.7 L296.6,393.8 L292.8,395.6 L291.9,393.3 L290.8,389.3 L291.2,388.3 L289.3,386.1 L290.1,383.3 L286.7,381.4 L288.5,378.7 L290.8,378.7 L286.8,375.2 L288.4,372.5 L293.5,374.7 L294.8,374.8 L294.7,377.5 L297.4,378.5 L304.9,378.1 L306.1,379.4 L305.5,381.9 L302.1,383.5 L301.2,385.9 L302.0,388.1 L303.3,389.0 L305.8,385.1 L306.8,387.2 Z">
  <desc xmlns="http://www.highcharts.com/svg/namespace">
    <name>Bangladesh</name>
    <labelrank>3</labelrank>
    <country-abbrev>Bang.</country-abbrev>
    <subregion>Southern Asia</subregion>
    <region-wb>South Asia</region-wb>
    <iso-a3>BGD</iso-a3>
    <iso-a2>BD</iso-a2>
    <woe-id>23424759</woe-id>
    <continent>Asia</continent>
    <hc-middle-x>0.44</hc-middle-x>
    <hc-middle-y>0.68</hc-middle-y>
    <hc-key>bd</hc-key>
    <hc-a2>BD</hc-a2>
  </desc>
</path>

<path fill="#CEE3F5" stroke="#6E6E6E" stroke-width="0.4" id="SP" d="M416.4,442.4 L416.4,442.5 L416.4,442.4 L416.4,442.4 Z">
  <desc xmlns="http://www.highcharts.com/svg/namespace">
    <name>Spratly Islands</name>
    <labelrank>6</labelrank>
    <country-abbrev>Spratly Is.</country-abbrev>
    <subregion>South-Eastern Asia</subregion>
    <region-wb>East Asia &amp; Pacific</region-wb>
    <iso-a3>-99</iso-a3>
    <iso-a2>SP</iso-a2>
    <woe-id>23424921</woe-id>
    <continent>Asia</continent>
    <hc-middle-x>0.58</hc-middle-x>
    <hc-middle-y>0.51</hc-middle-y>
    <hc-key>sp</hc-key>
    <hc-a2>SP</hc-a2>
  </desc>
</path>

<path fill="#CEE3F5" stroke="#6E6E6E" stroke-width="0.4" id="CN" d="M443.0,349.8 L441.6,349.6 L441.4,348.9 L442.8,349.2 Z M440.9,342.3 L438.1,341.4 L437.8,340.5 L441.2,341.9 Z M290.3,368.2 L290.0,365.6 L288.8,364.4 L286.6,365.6 L282.2,366.0 L279.4,364.8 L276.8,365.9 L275.4,363.7 L272.6,363.9 L273.0,362.5 L270.7,362.5 L268.6,361.1 L268.0,359.4 L265.3,359.8 L263.6,357.7 L262.1,357.6 L258.9,355.6 L258.6,354.3 L255.3,354.2 L254.1,356.1 L253.6,355.2 L249.8,353.5 L250.0,352.7 L246.9,351.7 L244.5,349.3 L243.0,349.8 L242.9,346.7 L241.2,343.9 L242.7,343.2 L243.6,344.7 L246.2,343.1 L245.6,340.5 L242.8,338.6 L242.5,335.9 L243.3,334.3 L240.3,333.0 L238.0,328.7 L236.2,328.9 L233.3,328.1 L232.1,326.8 L230.4,327.4 L229.1,325.9 L229.5,324.0 L226.5,321.7 L222.8,321.3 L222.0,320.7 L224.3,320.1 L225.6,319.2 L224.3,318.2 L223.6,313.4 L221.5,312.6 L219.1,313.0 L218.2,308.5 L219.5,307.7 L219.7,305.2 L221.4,304.9 L223.5,302.6 L225.1,302.9 L226.9,301.9 L227.4,303.7 L231.6,301.7 L232.2,300.0 L238.2,299.2 L239.5,297.3 L243.7,294.9 L247.7,293.5 L247.8,292.6 L247.4,290.2 L250.2,287.3 L248.0,282.0 L248.0,278.9 L246.3,278.1 L246.6,276.8 L254.2,274.8 L255.2,275.8 L258.1,275.6 L258.2,274.1 L256.7,273.6 L257.8,269.7 L260.3,263.8 L263.8,265.1 L267.2,264.9 L267.8,265.8 L271.1,264.4 L271.8,262.4 L271.0,259.3 L272.1,256.4 L275.6,255.6 L277.0,252.1 L279.0,252.2 L279.9,251.9 L281.3,251.6 L281.9,254.9 L284.9,256.4 L287.1,258.3 L289.4,258.0 L293.1,260.1 L293.8,262.1 L296.6,266.3 L296.5,269.4 L295.0,272.5 L296.1,274.2 L299.7,274.8 L308.3,275.1 L310.2,276.6 L315.3,278.8 L316.9,278.5 L319.5,284.4 L321.6,287.0 L325.5,286.6 L336.0,287.5 L338.5,286.7 L345.9,287.4 L347.8,289.1 L352.6,290.0 L355.6,291.2 L359.2,290.5 L359.2,291.6 L361.6,291.9 L362.4,291.0 L369.5,287.8 L375.9,286.7 L381.9,286.5 L386.1,284.6 L388.4,281.6 L392.9,279.2 L390.3,275.6 L391.7,272.1 L393.0,271.3 L400.5,273.0 L402.4,271.9 L404.5,269.3 L409.5,268.7 L411.9,267.2 L413.8,263.7 L417.0,263.3 L421.2,261.1 L423.8,260.7 L427.8,261.5 L428.8,260.8 L427.8,258.3 L422.3,253.8 L418.6,253.8 L418.4,254.0 L417.6,255.0 L416.8,255.8 L414.6,254.6 L411.8,254.7 L410.0,255.7 L408.4,253.3 L413.4,243.1 L418.4,244.8 L422.4,242.0 L425.4,241.1 L424.6,239.4 L426.1,237.2 L428.7,231.4 L431.7,228.6 L431.3,226.0 L428.3,225.7 L428.1,224.7 L431.9,221.4 L438.5,219.8 L444.4,219.2 L448.1,221.1 L451.4,221.2 L454.2,222.5 L458.0,227.4 L457.7,228.5 L459.9,232.0 L460.1,234.0 L461.8,235.8 L462.1,238.4 L463.3,239.0 L463.0,241.4 L465.8,243.0 L469.0,242.7 L470.4,243.9 L472.2,243.5 L475.8,246.6 L477.7,246.5 L477.1,247.9 L478.5,249.6 L477.9,251.3 L479.6,253.4 L486.4,253.0 L489.0,250.6 L494.8,248.8 L496.7,252.7 L494.0,255.4 L493.0,261.2 L492.1,261.9 L489.7,267.8 L488.4,268.2 L487.8,267.1 L484.5,267.3 L483.7,266.8 L481.9,269.0 L479.7,269.7 L481.4,274.1 L481.6,277.8 L480.9,280.5 L477.7,281.6 L478.3,282.7 L476.4,280.2 L475.1,280.4 L474.6,283.3 L472.9,283.3 L471.0,285.7 L467.0,286.0 L468.3,288.2 L467.6,289.4 L463.6,288.8 L462.0,287.3 L460.6,288.0 L457.9,292.3 L452.9,294.8 L450.6,296.9 L449.5,298.4 L446.1,298.7 L441.6,300.9 L439.3,303.5 L436.1,304.8 L435.9,303.6 L438.4,302.8 L438.8,301.2 L436.6,301.2 L437.6,298.6 L439.1,297.9 L441.0,295.1 L438.9,293.3 L435.8,293.0 L432.5,297.0 L428.4,298.8 L426.2,302.7 L422.6,303.5 L420.4,303.3 L419.5,305.9 L422.1,308.4 L425.6,308.2 L426.6,310.5 L426.3,312.8 L428.5,313.6 L434.3,309.6 L438.3,311.6 L440.7,310.8 L443.3,311.5 L441.8,314.7 L440.5,313.9 L434.6,316.8 L434.5,318.5 L429.8,321.6 L427.8,324.4 L429.9,326.9 L432.8,328.0 L433.9,331.4 L435.9,334.6 L435.8,336.3 L438.3,337.7 L440.4,339.8 L440.4,341.1 L437.9,340.2 L435.5,340.8 L440.0,343.2 L441.3,345.0 L436.7,347.1 L435.7,348.7 L438.6,348.1 L440.0,349.7 L442.0,350.1 L441.2,351.4 L441.4,354.3 L439.8,353.2 L440.2,357.9 L438.0,359.5 L438.1,357.8 L435.5,361.9 L435.2,363.7 L431.5,366.3 L432.4,368.2 L430.8,372.8 L430.1,372.0 L428.5,373.3 L428.6,374.9 L424.4,377.8 L422.4,381.0 L419.3,381.5 L417.5,385.0 L414.5,386.1 L409.7,385.9 L408.5,387.7 L405.7,388.0 L404.9,386.3 L404.1,389.2 L399.8,391.3 L397.1,391.2 L395.4,392.6 L391.2,393.6 L390.5,395.5 L389.3,395.4 L390.0,398.6 L387.8,398.9 L386.5,395.8 L386.8,393.1 L384.0,393.6 L384.0,392.6 L380.8,391.5 L378.8,393.4 L375.8,392.9 L372.5,391.1 L371.9,389.1 L372.9,387.5 L371.6,386.7 L368.7,386.9 L366.2,384.8 L364.2,385.8 L364.0,387.0 L360.2,389.0 L358.6,387.8 L357.1,387.9 L355.7,389.6 L353.1,388.1 L351.7,389.9 L349.6,389.8 L349.0,390.8 L350.1,392.8 L350.1,396.0 L348.0,395.9 L347.4,394.1 L347.2,393.1 L343.0,394.9 L341.8,392.0 L338.1,391.6 L339.6,387.2 L336.6,386.7 L336.6,384.7 L335.2,382.4 L333.4,382.3 L330.9,383.6 L330.3,379.4 L331.5,376.8 L335.4,373.7 L334.7,372.6 L335.6,370.0 L335.1,365.4 L333.3,365.6 L332.4,362.7 L329.7,360.8 L328.7,362.4 L327.1,361.9 L323.1,356.9 L321.3,357.1 L319.2,358.6 L316.2,357.4 L315.0,358.9 L310.9,360.8 L307.4,363.7 L307.3,364.7 L304.3,365.7 L302.7,365.6 L301.1,364.0 L300.2,364.6 L297.4,364.2 L296.2,362.9 L293.2,364.1 Z M386.9,400.1 L392.5,400.0 L392.8,401.4 L391.4,402.9 L390.2,406.2 L387.3,407.7 L386.5,408.8 L382.5,407.4 L382.1,403.8 Z">
  <desc xmlns="http://www.highcharts.com/svg/namespace">
    <name>China</name>
    <labelrank>2</labelrank>
    <country-abbrev>China</country-abbrev>
    <subregion>Eastern Asia</subregion>
    <region-wb>East Asia &amp; Pacific</region-wb>
    <iso-a3>CHN</iso-a3>
    <iso-a2>CN</iso-a2>
    <woe-id>23424781</woe-id>
    <continent>Asia</continent>
    <hc-middle-x>0.42</hc-middle-x>
    <hc-middle-y>0.56</hc-middle-y>
    <hc-key>cn</hc-key>
    <hc-a2>CN</hc-a2>
  </desc>
</path>

<path fill="#CEE3F5" stroke="#6E6E6E" stroke-width="0.4" id="BH" d="M114.4,379.6 L115.1,379.9 L114.9,381.8 L114.4,380.9 Z">
  <desc xmlns="http://www.highcharts.com/svg/namespace">
    <name>Bahrain</name>
    <labelrank>4</labelrank>
    <country-abbrev>Bahr.</country-abbrev>
    <subregion>Western Asia</subregion>
    <region-wb>Middle East &amp; North Africa</region-wb>
    <iso-a3>BHR</iso-a3>
    <iso-a2>BH</iso-a2>
    <woe-id>23424753</woe-id>
    <continent>Asia</continent>
    <hc-middle-x>0.46</hc-middle-x>
    <hc-middle-y>0.50</hc-middle-y>
    <hc-key>bh</hc-key>
    <hc-a2>BH</hc-a2>
  </desc>
</path>

<path fill="#CEE3F5" stroke="#6E6E6E" stroke-width="0.4" id="MM" d="M335.8,437.0 L335.9,436.2 L336.7,437.1 L336.1,437.9 Z M306.8,397.9 L307.0,396.0 L308.5,396.7 L308.0,393.5 L309.9,393.3 L310.7,391.4 L310.4,388.5 L311.5,387.8 L311.7,385.3 L311.0,383.4 L314.7,384.3 L317.3,378.5 L316.8,376.7 L319.2,373.4 L318.6,371.3 L323.5,367.3 L326.3,366.8 L328.1,367.8 L326.8,365.4 L328.8,364.0 L328.7,362.4 L329.7,360.8 L332.4,362.7 L333.3,365.6 L335.1,365.4 L335.6,370.0 L334.7,372.6 L335.4,373.7 L331.5,376.8 L330.3,379.4 L330.9,383.6 L333.4,382.3 L335.2,382.4 L336.6,384.7 L336.6,386.7 L339.6,387.2 L338.1,391.6 L341.8,392.0 L343.0,394.9 L347.2,393.1 L347.4,394.1 L345.5,395.4 L344.7,397.8 L343.2,398.4 L342.8,400.2 L342.1,399.6 L337.9,402.6 L335.7,403.5 L333.4,403.0 L331.8,407.2 L332.3,408.8 L330.6,409.1 L332.4,411.7 L332.1,412.3 L335.7,416.0 L337.0,419.5 L336.4,423.9 L334.8,424.9 L336.7,428.3 L339.5,431.3 L339.4,433.8 L340.8,436.5 L342.0,440.0 L340.2,443.3 L338.3,445.3 L338.2,446.9 L337.3,448.6 L336.8,445.3 L338.0,444.3 L338.1,440.4 L336.3,440.6 L337.6,435.9 L337.0,433.8 L335.0,431.6 L333.1,426.1 L332.2,419.6 L331.4,419.5 L329.4,415.1 L328.6,414.6 L328.3,417.6 L327.5,418.6 L324.2,420.0 L322.2,422.5 L320.1,422.4 L316.5,421.4 L316.7,418.9 L318.1,414.1 L317.1,410.6 L315.8,408.2 L313.6,407.4 L312.7,406.0 L313.8,405.8 L313.3,405.1 L314.1,405.1 L314.8,405.4 L312.0,402.3 L310.5,402.8 L307.4,399.6 Z M314.6,405.6 L314.9,405.6 L314.8,405.5 Z">
  <desc xmlns="http://www.highcharts.com/svg/namespace">
    <name>Myanmar</name>
    <labelrank>3</labelrank>
    <country-abbrev>Myan.</country-abbrev>
    <subregion>South-Eastern Asia</subregion>
    <region-wb>East Asia &amp; Pacific</region-wb>
    <iso-a3>MMR</iso-a3>
    <iso-a2>MM</iso-a2>
    <woe-id>23424763</woe-id>
    <continent>Asia</continent>
    <hc-middle-x>0.45</hc-middle-x>
    <hc-middle-y>0.36</hc-middle-y>
    <hc-key>mm</hc-key>
    <hc-a2>MM</hc-a2>
  </desc>
</path>

<path fill="#CEE3F5" stroke="#6E6E6E" stroke-width="0.4" id="ID" d="M454.4,538.6 L453.7,539.7 L452.0,540.2 L454.5,537.9 Z M438.8,533.5 L441.0,534.7 L442.7,536.7 L441.0,537.8 L438.8,536.4 L434.0,534.7 L435.0,533.8 Z M453.0,528.7 L451.9,529.5 L452.5,528.3 L453.9,527.9 Z M423.7,529.6 L423.0,531.9 L420.4,532.0 L420.4,530.0 L422.0,528.8 Z M456.7,527.8 L454.9,529.3 L453.4,529.2 L454.0,528.2 Z M458.0,528.4 L457.7,529.0 L457.0,528.6 L458.1,527.4 Z M459.5,527.2 L461.9,527.2 L462.1,528.1 L458.9,528.7 Z M474.2,526.9 L474.5,526.5 L475.8,526.7 L476.2,527.3 Z M418.0,528.8 L419.0,529.7 L416.8,531.8 L413.1,528.6 Z M483.3,524.9 L483.7,525.4 L483.4,526.0 L482.5,525.4 Z M469.3,524.7 L468.2,526.1 L466.4,525.8 L465.8,524.9 Z M492.2,521.5 L491.8,523.6 L490.4,525.6 L489.4,523.8 Z M410.8,523.1 L411.5,523.6 L408.9,524.8 L405.1,524.6 L405.6,523.4 Z M440.6,520.2 L440.3,517.3 L440.4,517.0 L440.8,517.9 Z M496.6,514.7 L496.9,515.2 L496.6,515.9 L496.3,515.6 Z M503.4,514.8 L505.0,513.2 L505.8,514.3 L505.7,517.2 L504.0,517.4 L503.0,516.0 Z M498.0,514.4 L497.8,514.4 L498.2,512.9 L498.5,512.9 Z M446.9,513.7 L447.6,514.1 L447.2,515.4 L446.4,514.5 Z M450.8,512.9 L449.8,515.1 L448.6,514.9 L449.1,512.0 L450.6,511.5 Z M452.7,511.6 L451.6,513.9 L452.8,514.4 L449.9,515.5 L450.6,514.3 L451.3,510.7 Z M452.0,508.5 L452.8,508.9 L452.1,509.6 L451.4,508.7 Z M476.3,505.9 L474.5,506.7 L474.7,505.8 L475.8,505.4 Z M421.0,507.4 L420.0,509.9 L419.6,508.0 L420.7,506.0 Z M469.3,503.8 L471.1,505.0 L471.0,506.0 L468.8,507.3 L466.1,506.2 L465.3,504.6 L467.2,503.7 Z M348.4,508.1 L347.9,508.3 L347.0,507.5 L347.1,506.6 Z M380.4,505.9 L381.2,504.4 L383.9,505.2 L383.7,507.0 L382.2,506.6 L381.1,507.5 Z M347.0,506.5 L346.1,506.9 L345.9,505.3 L347.0,506.1 Z M344.6,503.7 L345.3,504.7 L344.2,504.4 L344.1,503.2 Z M465.5,501.0 L465.0,500.8 L464.5,499.3 L465.0,498.9 Z M462.4,498.1 L465.0,498.0 L466.3,498.3 L462.5,498.8 Z M485.0,496.8 L485.4,497.5 L484.6,498.5 L482.1,497.8 Z M457.6,499.2 L457.6,497.7 L458.8,497.5 L462.0,498.4 Z M508.5,495.5 L514.1,496.0 L514.9,496.4 L512.2,496.9 Z M376.9,506.4 L373.5,505.9 L372.5,502.9 L370.3,502.9 L369.5,502.0 L371.5,500.0 L373.6,500.3 L375.1,504.2 L377.3,504.6 Z M472.5,495.3 L474.8,496.6 L474.4,497.3 L471.3,497.0 Z M453.7,497.0 L450.7,497.5 L450.7,495.7 L453.1,495.8 Z M340.8,498.4 L342.5,502.2 L340.8,501.8 L339.4,499.7 Z M487.0,493.0 L488.2,493.4 L487.8,495.2 L486.2,493.6 Z M508.1,491.3 L510.0,491.4 L511.7,493.0 L510.4,493.7 L509.5,492.0 Z M366.1,494.7 L366.7,495.3 L365.7,496.3 L365.2,495.5 Z M470.6,491.7 L471.8,491.0 L472.2,492.4 L472.9,493.6 Z M447.1,491.5 L447.2,492.1 L445.3,492.7 L446.2,491.9 Z M485.8,491.1 L484.4,489.6 L486.9,489.1 L489.1,489.7 L488.8,490.8 Z M338.8,495.9 L338.5,496.9 L338.0,496.7 L338.6,495.4 Z M366.7,492.8 L367.5,494.1 L367.4,494.2 L366.0,494.3 Z M361.3,489.2 L361.5,490.6 L360.8,490.0 L361.3,489.2 Z M359.4,488.7 L359.6,489.7 L358.2,488.8 L358.3,488.2 Z M363.6,488.9 L364.2,488.7 L365.0,489.4 L364.9,490.1 Z M366.7,489.6 L365.9,488.5 L364.8,488.3 L366.4,487.7 Z M333.3,487.5 L336.0,489.8 L335.0,491.7 L331.9,488.0 Z M355.6,486.5 L356.8,486.8 L356.9,487.8 L355.2,487.0 Z M353.2,484.3 L353.2,485.6 L352.6,486.0 L351.9,484.4 Z M474.3,479.1 L476.1,477.4 L476.7,478.1 L475.9,480.1 Z M326.4,481.4 L329.1,483.8 L325.5,482.0 L325.9,481.3 Z M383.0,474.0 L383.2,475.9 L381.6,474.4 L382.6,473.3 Z M467.1,471.6 L467.8,470.5 L467.4,469.0 L468.3,470.2 Z M504.1,517.6 L504.5,517.9 L503.4,520.1 L502.8,519.4 L503.0,516.7 L504.1,517.6 L505.4,518.0 L506.1,517.8 L505.6,518.3 Z M430.8,529.2 L434.1,528.5 L434.3,530.3 L431.7,531.5 L425.0,532.8 L423.9,532.5 L424.1,530.1 L426.9,529.9 L427.1,528.5 L429.9,528.1 Z M457.2,532.8 L458.3,533.5 L459.1,532.0 L459.6,531.9 L461.2,530.9 L462.3,531.9 L462.0,533.3 L459.1,536.5 L454.8,537.5 L455.7,534.1 Z M427.0,472.2 L425.9,473.0 L426.1,472.2 L426.2,472.2 Z M363.4,498.1 L365.8,498.0 L366.7,501.7 L368.4,503.6 L371.8,504.0 L374.0,507.8 L372.9,509.8 L373.5,510.5 L373.0,519.6 L370.8,518.0 L370.0,519.5 L367.7,518.3 L368.2,520.2 L366.2,519.0 L363.3,516.0 L359.7,514.0 L356.9,511.8 L356.4,510.2 L353.6,508.5 L351.1,505.6 L350.0,503.1 L347.7,499.7 L347.1,497.7 L344.8,495.4 L343.8,493.6 L341.6,492.9 L341.3,491.3 L338.6,485.4 L334.5,483.4 L334.2,481.3 L330.2,477.4 L328.7,477.1 L323.9,472.7 L322.5,469.3 L325.9,469.5 L327.0,470.5 L333.3,470.5 L335.3,472.0 L335.7,473.6 L337.0,474.1 L337.2,475.7 L344.0,479.5 L347.8,484.1 L349.2,484.7 L350.1,483.4 L351.7,485.7 L355.1,487.3 L355.6,488.2 L355.6,487.2 L356.8,487.9 L356.8,488.7 L356.8,488.4 L359.6,490.0 L357.2,490.0 L356.5,489.6 L356.8,490.1 L358.7,490.2 L359.7,491.4 L361.2,491.1 L363.0,493.4 L361.3,494.4 L362.9,495.0 L361.1,496.6 Z M356.0,488.8 L356.5,489.6 L356.6,489.1 Z M522.9,517.0 L521.0,512.6 L517.0,510.9 L515.2,510.5 L511.2,508.8 L507.8,508.7 L503.6,506.1 L503.5,506.8 L500.1,504.9 L498.6,507.2 L497.4,507.4 L496.2,505.5 L497.1,504.9 L494.2,502.2 L492.6,502.1 L493.6,501.0 L496.1,501.5 L497.4,500.0 L501.0,500.6 L501.8,499.5 L498.6,498.7 L495.8,499.2 L492.9,498.4 L491.6,495.8 L487.7,495.6 L488.9,492.7 L491.8,492.0 L492.8,491.0 L495.6,490.4 L498.8,491.9 L501.4,491.8 L502.9,494.6 L502.5,497.4 L502.5,499.0 L504.0,501.5 L504.5,499.6 L505.1,501.9 L506.5,503.6 L508.7,503.6 L512.2,499.8 L512.8,498.3 L516.6,497.5 L516.1,496.2 L519.1,494.7 L528.7,498.4 L530.1,498.1 L533.8,499.3 L534.9,529.0 L529.9,524.6 L524.9,524.9 L525.1,524.5 L524.3,525.1 L524.9,525.1 L525.2,525.9 L523.7,526.0 L524.1,525.3 L523.1,526.1 L519.5,526.4 L521.1,522.6 L524.6,521.4 L525.9,522.3 L525.5,523.3 L526.0,522.2 L524.1,520.6 L524.1,518.0 Z M425.5,472.2 L426.4,474.6 L423.4,474.6 L426.1,475.6 L424.6,476.5 L425.9,477.1 L428.2,480.8 L427.2,482.5 L432.6,486.6 L431.6,487.3 L428.3,486.9 L427.1,487.4 L425.7,490.7 L425.6,493.6 L426.5,494.7 L424.9,494.9 L423.8,496.7 L421.7,498.1 L421.0,499.4 L422.1,501.5 L419.4,507.9 L413.3,510.6 L412.6,507.6 L410.5,507.0 L408.6,507.5 L405.8,505.2 L405.8,506.3 L404.0,507.6 L402.5,507.1 L400.4,508.2 L399.9,504.9 L395.0,506.3 L393.1,506.0 L391.3,497.4 L389.9,496.9 L390.6,497.6 L389.3,498.4 L389.1,497.0 L389.7,496.9 L388.3,496.4 L388.5,495.1 L387.1,493.7 L388.2,492.5 L386.4,491.0 L386.1,488.8 L387.1,485.4 L389.5,483.0 L389.0,483.9 L390.5,486.0 L393.9,488.4 L396.8,487.3 L399.6,487.5 L401.2,485.4 L405.1,484.9 L408.0,486.2 L409.1,485.2 L411.8,485.1 L413.3,483.0 L413.0,481.4 L414.9,480.1 L414.2,478.7 L416.0,477.7 L416.6,475.8 L416.2,473.7 L417.5,471.5 L420.1,471.8 L423.8,471.4 Z M449.1,529.8 L452.1,527.7 L451.5,529.6 L446.9,531.0 L445.1,530.7 L442.9,531.4 L441.4,530.8 L438.3,531.3 L436.7,530.0 L439.6,528.6 L443.1,528.7 L445.6,529.8 L447.8,528.9 Z M407.8,527.4 L411.1,526.5 L413.2,527.4 L412.8,530.1 L413.9,531.7 L411.1,531.1 L407.4,529.6 L405.0,530.5 L401.0,529.8 L400.4,530.3 L394.9,529.3 L392.9,528.3 L387.5,527.3 L385.0,528.3 L380.8,527.0 L376.7,526.7 L376.7,524.8 L374.0,524.1 L370.8,524.3 L370.5,523.6 L371.7,524.2 L373.3,522.4 L374.3,519.8 L378.6,520.6 L378.8,519.8 L383.7,521.5 L384.9,521.1 L386.1,523.4 L394.7,524.0 L395.6,521.9 L396.7,521.4 L397.8,522.7 L399.3,522.3 L402.0,523.5 L404.5,523.4 L405.3,526.3 Z M486.3,503.3 L487.7,505.3 L487.6,506.7 L481.5,504.3 L481.3,505.0 L478.5,503.9 L476.7,505.2 L475.0,503.5 L474.2,505.7 L474.2,503.3 L475.2,502.5 L479.5,502.8 L481.0,502.0 Z M453.2,493.7 L452.6,495.0 L450.3,494.5 L448.4,497.2 L445.8,498.3 L445.3,499.2 L443.6,498.7 L448.3,503.7 L448.2,507.1 L451.3,509.4 L451.0,510.5 L447.7,511.0 L447.2,512.6 L444.8,511.8 L445.4,509.1 L441.9,506.8 L442.7,503.2 L441.2,502.6 L438.7,504.2 L439.6,505.4 L439.5,508.6 L440.0,511.8 L439.3,514.2 L439.6,515.8 L436.2,516.6 L435.2,515.3 L436.3,510.5 L434.6,506.5 L432.9,507.2 L432.1,504.0 L433.7,502.0 L434.5,499.9 L434.4,496.4 L436.2,493.7 L436.3,489.7 L437.4,487.4 L439.8,487.1 L441.2,484.5 L443.9,485.4 L454.7,486.4 L458.1,484.6 L457.9,483.9 L460.6,482.0 L459.6,485.6 L457.0,488.3 L452.1,488.8 L451.3,487.9 L445.5,488.6 L444.9,488.1 L441.3,488.7 L438.9,488.6 L437.3,491.7 L437.8,493.8 L439.3,494.8 L440.6,497.0 L442.4,497.1 L444.3,494.5 L447.1,494.7 L447.5,493.9 L451.0,493.6 L452.2,492.9 Z M475.6,493.7 L472.5,490.6 L472.1,485.8 L471.0,484.0 L471.7,481.6 L473.2,479.6 L473.9,482.5 L472.1,485.0 L472.9,485.9 L475.8,482.4 L477.0,482.2 L477.0,484.5 L475.2,485.4 L475.3,486.4 L477.0,486.9 L477.8,488.3 L473.7,487.3 L473.4,489.6 Z">
  <desc xmlns="http://www.highcharts.com/svg/namespace">
    <name>Indonesia</name>
    <labelrank>2</labelrank>
    <country-abbrev>Indo.</country-abbrev>
    <subregion>South-Eastern Asia</subregion>
    <region-wb>East Asia &amp; Pacific</region-wb>
    <iso-a3>IDN</iso-a3>
    <iso-a2>ID</iso-a2>
    <woe-id>23424846</woe-id>
    <continent>Asia</continent>
    <hc-middle-x>0.39</hc-middle-x>
    <hc-middle-y>0.39</hc-middle-y>
    <hc-key>id</hc-key>
    <hc-a2>ID</hc-a2>
  </desc>
</path>

<path fill="#CEE3F5" stroke="#6E6E6E" stroke-width="0.4" id="SG" d="M363.1,486.8 L363.7,487.1 L363.0,487.6 L362.1,487.4 Z">
  <desc xmlns="http://www.highcharts.com/svg/namespace">
    <name>Singapore</name>
    <labelrank>6</labelrank>
    <country-abbrev>Sing.</country-abbrev>
    <subregion>South-Eastern Asia</subregion>
    <region-wb>East Asia &amp; Pacific</region-wb>
    <iso-a3>SGP</iso-a3>
    <iso-a2>SG</iso-a2>
    <woe-id>23424948</woe-id>
    <continent>Asia</continent>
    <hc-middle-x>0.51</hc-middle-x>
    <hc-middle-y>0.59</hc-middle-y>
    <hc-key>sg</hc-key>
    <hc-a2>SG</hc-a2>
  </desc>
</path>

<path fill="#CEE3F5" stroke="#6E6E6E" stroke-width="0.4" id="RU" d="M550.4,269.6 L548.0,272.3 L547.7,271.8 L549.4,269.2 Z M561.6,264.1 L556.5,266.1 L553.2,269.5 L552.8,269.1 L557.3,264.9 L560.7,263.2 Z M569.4,258.7 L567.8,260.4 L564.4,262.5 L567.8,259.0 Z M576.7,253.2 L577.2,253.1 L575.0,255.4 L575.1,254.9 Z M588.4,238.1 L588.3,239.8 L587.8,240.3 L587.3,239.7 Z M594.0,232.8 L593.0,234.3 L590.0,235.6 L589.8,234.1 L592.2,233.3 L593.7,231.1 Z M595.3,231.8 L594.2,231.6 L595.2,230.5 L595.7,231.1 Z M506.2,207.3 L505.5,208.5 L503.9,208.6 L505.6,207.3 Z M509.0,207.0 L510.5,207.7 L508.7,210.2 L507.7,208.7 Z M638.0,201.0 L639.4,202.3 L641.3,204.2 L640.0,204.3 Z M630.8,176.1 L631.1,178.2 L626.4,180.5 L628.1,177.2 Z M40.2,154.4 L40.2,155.2 L39.1,155.7 L37.8,154.8 Z M192.2,136.5 L195.9,137.1 L195.8,138.6 L193.4,138.0 Z M103.7,122.5 L96.8,124.6 L95.1,123.2 L95.4,120.2 L99.7,118.2 L103.9,120.0 Z M613.5,99.9 L614.3,104.5 L612.5,103.7 L612.1,100.8 Z M182.3,115.9 L181.5,116.5 L180.8,116.1 L182.4,114.7 Z M613.7,101.0 L613.5,99.6 L614.7,99.7 L614.6,100.7 Z M650.2,96.8 L647.8,98.6 L642.6,96.6 L644.9,94.9 L650.3,96.0 Z M178.0,104.8 L178.9,107.6 L178.1,106.7 L177.8,105.5 Z M115.1,101.9 L117.3,104.0 L116.4,105.5 L112.9,103.1 Z M698.4,85.0 L693.1,86.7 L692.1,84.8 L693.3,83.1 L698.2,80.4 Z M505.2,86.8 L504.7,88.1 L501.3,87.3 L502.2,86.9 Z M229.5,90.2 L225.6,90.4 L228.7,87.4 L232.3,88.5 Z M465.7,77.9 L461.0,77.7 L464.1,76.5 L466.0,77.0 Z M237.4,84.5 L237.6,86.1 L233.1,85.2 L235.6,83.1 Z M215.9,83.8 L214.2,85.5 L212.4,84.5 L213.0,83.7 Z M421.9,77.1 L421.2,76.5 L422.9,75.9 L423.9,77.0 Z M199.2,82.7 L199.9,83.6 L193.1,85.1 L193.4,81.9 L197.9,80.7 Z M221.8,79.4 L220.2,80.5 L218.7,80.5 L219.3,79.6 Z M251.6,73.7 L253.7,73.0 L255.5,73.3 L254.8,74.0 Z M494.6,64.5 L497.1,66.0 L496.5,67.0 L493.2,64.6 Z M516.7,66.0 L515.1,63.3 L518.2,62.7 L518.9,65.1 Z M392.0,66.4 L389.4,68.9 L383.3,66.8 L385.7,64.9 L391.7,65.2 Z M264.2,69.5 L263.4,69.9 L262.6,69.2 L264.4,68.8 Z M266.5,68.7 L267.5,69.1 L265.7,70.0 L265.0,69.7 Z M271.6,65.1 L270.8,66.2 L267.8,66.1 L268.8,64.9 Z M248.3,64.1 L247.4,62.6 L245.8,62.1 L248.7,60.7 Z M494.7,53.3 L492.9,53.5 L493.8,48.9 L496.1,51.0 Z M315.2,51.3 L313.7,52.4 L308.7,52.2 L310.9,51.1 Z M387.4,45.5 L387.9,46.9 L387.2,47.0 L384.9,45.4 Z M311.2,47.8 L312.7,47.1 L313.8,47.1 L312.9,48.0 Z M555.8,39.4 L552.1,39.6 L553.9,38.5 L556.4,38.1 Z M279.4,45.6 L278.6,45.7 L277.9,44.8 L280.1,44.3 Z M313.7,43.5 L311.2,44.1 L308.2,44.6 L313.9,42.3 Z M282.9,43.8 L280.8,44.0 L280.0,43.4 L282.1,42.4 Z M364.5,31.1 L363.7,32.2 L358.8,31.6 L361.1,31.1 Z M360.4,29.9 L357.9,31.0 L356.9,30.8 L359.1,29.5 Z M220.3,21.0 L226.3,22.0 L222.2,22.7 L219.8,21.8 Z M105.3,21.4 L106.2,22.2 L102.2,21.6 L104.2,20.3 Z M140.0,21.0 L137.5,20.9 L143.3,18.7 L145.2,20.0 Z M99.9,20.9 L97.5,19.9 L99.1,19.1 L100.7,19.1 Z M132.1,16.8 L131.6,19.7 L125.8,19.5 L127.0,17.0 Z M114.9,16.8 L117.3,18.0 L115.6,19.2 L109.6,18.3 Z M123.9,17.2 L124.8,17.7 L122.9,18.4 L122.4,16.4 Z M121.6,16.1 L119.7,16.8 L120.7,15.4 L122.7,15.4 Z M119.0,14.6 L119.0,16.4 L116.9,15.9 L117.3,14.4 Z M140.6,11.6 L138.0,12.2 L135.3,11.5 L139.4,10.5 Z M124.0,11.5 L126.8,12.0 L121.8,13.1 L117.7,12.1 Z M237.4,6.5 L238.4,7.5 L232.9,8.3 L233.3,6.7 Z M138.6,10.0 L135.4,9.3 L136.3,8.4 L139.0,9.0 Z M151.1,9.3 L145.4,9.2 L147.9,8.2 L152.8,7.8 Z M127.6,8.6 L130.0,8.6 L137.3,10.3 L132.4,10.7 Z M102.9,10.2 L101.0,10.6 L101.7,9.0 L103.8,9.6 Z M288.7,3.4 L282.6,3.3 L282.9,2.1 L289.2,2.2 Z M134.6,8.2 L131.3,8.0 L135.4,7.0 L136.3,7.3 Z M130.3,5.6 L135.0,6.6 L125.9,7.9 L124.3,6.5 L129.2,7.1 Z M142.4,7.2 L138.1,6.0 L140.5,5.0 L141.8,5.4 Z M134.9,3.8 L138.4,5.0 L134.9,5.5 L130.1,4.9 Z M140.3,1.3 L135.7,2.1 L135.6,0.7 L141.2,0.0 Z M249.9,56.5 L250.3,56.1 L253.5,56.3 L249.9,56.5 Z M155.8,1.7 L157.0,1.0 L161.7,1.1 L160.8,2.3 L155.8,1.7 Z M138.3,15.2 L142.0,16.4 L136.6,17.5 L138.2,18.4 L133.7,19.0 L131.4,15.3 Z M288.0,16.5 L288.7,15.5 L291.2,14.2 L300.1,15.3 L295.2,18.1 L292.7,16.8 Z M249.8,56.5 L249.0,57.3 L249.0,56.6 L249.8,56.5 Z M155.8,1.7 L154.4,2.5 L154.6,1.6 L155.8,1.7 Z M96.5,250.4 L93.6,254.3 L93.1,257.2 L94.3,257.9 L92.0,262.7 L94.7,263.4 L95.0,266.0 L99.3,266.2 L101.5,268.2 L103.9,271.8 L101.4,272.5 L105.0,274.3 L100.3,277.9 L97.8,278.1 L96.0,282.4 L93.8,285.4 L96.3,286.6 L98.0,289.1 L97.5,293.3 L102.9,299.5 L99.8,303.1 L97.0,302.7 L94.5,299.8 L93.0,299.6 L89.3,297.9 L89.6,296.4 L85.7,295.1 L81.5,296.4 L80.8,295.4 L74.4,292.9 L70.4,293.1 L66.2,291.5 L63.2,292.4 L63.2,292.4 L58.4,288.3 L54.7,287.0 L53.3,285.5 L47.3,282.8 L48.4,281.4 L49.7,282.5 L52.5,282.0 L51.9,280.0 L53.5,277.8 L56.1,277.3 L53.4,275.9 L52.3,274.2 L59.2,272.0 L59.1,270.5 L54.4,271.6 L54.9,268.7 L57.0,267.2 L61.3,267.1 L62.3,264.5 L60.7,260.2 L62.8,258.8 L58.2,255.3 L53.6,254.3 L52.8,255.2 L50.1,252.2 L46.3,253.6 L44.0,252.4 L42.2,252.9 L39.2,248.0 L35.0,247.7 L34.5,243.5 L33.1,241.0 L29.1,241.8 L26.4,241.5 L24.4,243.3 L22.8,241.7 L21.9,236.2 L25.0,236.8 L27.8,234.5 L26.6,232.9 L23.3,232.4 L23.6,230.8 L21.3,229.8 L20.5,227.3 L18.6,226.3 L19.6,224.8 L19.0,221.1 L14.3,219.8 L12.4,220.8 L12.0,219.1 L7.0,218.6 L6.1,215.5 L3.8,213.6 L4.6,210.6 L2.3,209.1 L3.1,207.2 L5.9,205.8 L2.9,204.4 L4.1,202.8 L3.7,199.1 L5.2,193.7 L9.2,193.4 L10.0,192.2 L14.8,192.9 L13.2,190.9 L7.4,190.0 L7.7,187.2 L3.7,188.6 L9.9,183.6 L16.3,176.7 L19.0,174.4 L20.4,171.4 L18.7,169.4 L12.9,165.6 L15.4,162.0 L12.9,160.8 L13.0,157.9 L10.8,156.5 L11.8,154.8 L11.1,151.7 L12.9,151.4 L11.9,148.0 L8.0,142.6 L8.0,141.4 L12.0,135.8 L8.6,132.8 L5.7,131.9 L4.6,129.3 L6.1,126.9 L4.5,126.4 L11.0,122.5 L12.7,120.3 L15.3,121.0 L15.2,118.7 L19.7,119.5 L20.7,117.2 L25.7,119.5 L21.3,119.7 L23.0,120.8 L38.9,123.0 L46.8,126.4 L50.4,129.2 L57.7,131.6 L62.4,134.0 L64.2,139.2 L60.1,144.1 L55.2,146.3 L48.7,146.9 L43.9,145.6 L36.9,144.8 L34.2,143.4 L28.1,142.7 L22.4,139.8 L25.7,144.3 L33.0,147.2 L34.9,150.3 L32.9,152.9 L35.3,156.6 L34.6,158.9 L37.6,160.8 L39.4,160.3 L41.7,162.7 L46.4,163.9 L49.6,162.8 L49.5,160.1 L45.4,159.7 L42.2,155.9 L44.7,153.9 L49.6,156.2 L56.6,158.2 L57.9,157.2 L58.6,157.4 L57.9,157.0 L59.7,156.9 L60.7,157.8 L60.2,157.9 L61.0,158.1 L60.2,155.3 L57.0,151.8 L57.5,150.2 L61.9,147.2 L64.3,146.5 L68.1,142.8 L69.8,143.9 L73.0,143.4 L77.3,147.4 L77.0,144.2 L78.6,141.3 L77.6,138.2 L75.4,137.6 L77.0,129.0 L72.7,126.3 L81.8,126.6 L84.8,127.3 L88.5,131.9 L82.3,133.0 L80.5,136.3 L83.5,137.4 L84.8,139.5 L88.2,139.9 L93.3,138.3 L93.6,133.9 L98.0,132.5 L108.7,126.0 L113.5,125.2 L113.2,126.8 L115.9,126.0 L113.8,124.9 L119.0,122.3 L121.7,122.8 L120.4,124.3 L121.7,126.8 L125.7,127.9 L126.0,126.2 L130.6,124.0 L136.9,124.5 L139.8,122.1 L143.9,120.7 L146.4,122.5 L145.1,125.5 L147.7,125.9 L148.1,123.3 L151.3,122.7 L153.2,121.0 L149.5,115.9 L151.0,114.6 L146.8,114.8 L146.2,113.4 L142.2,112.0 L141.9,110.0 L144.1,108.6 L145.7,109.6 L151.0,113.0 L151.0,114.6 L152.3,113.6 L160.9,114.1 L167.8,115.5 L175.2,119.0 L181.8,121.1 L187.1,124.6 L190.0,122.1 L190.8,119.6 L187.9,119.5 L185.8,115.3 L181.4,113.8 L180.0,114.6 L180.3,111.4 L182.1,105.3 L179.2,105.0 L180.1,100.5 L184.7,98.4 L187.1,95.7 L189.2,88.1 L191.8,86.5 L200.9,85.9 L206.8,87.5 L207.0,91.3 L204.2,97.0 L202.6,97.8 L206.5,101.2 L207.2,106.9 L205.7,108.3 L207.0,111.8 L206.2,113.3 L206.7,119.0 L211.7,122.4 L209.3,124.8 L209.7,128.6 L207.2,129.5 L205.6,133.1 L202.4,135.5 L202.7,137.1 L198.7,138.4 L194.7,136.2 L190.7,136.4 L191.5,137.8 L197.3,139.8 L200.8,139.5 L204.7,140.4 L207.0,137.3 L211.5,135.6 L213.2,131.8 L216.9,128.7 L216.6,124.8 L214.9,123.2 L215.4,120.7 L218.7,119.2 L224.1,118.0 L228.5,121.6 L227.8,127.6 L232.2,129.2 L236.4,128.6 L229.6,127.7 L229.7,124.7 L232.5,123.5 L230.1,118.7 L225.8,116.9 L220.0,116.0 L218.2,117.3 L212.0,116.9 L212.6,115.0 L210.8,112.4 L211.6,108.8 L214.2,105.9 L210.5,99.8 L208.1,98.3 L210.2,95.0 L216.6,92.4 L216.8,87.6 L218.1,86.1 L220.1,91.0 L218.2,93.6 L219.5,97.1 L218.1,98.3 L221.8,99.6 L229.9,100.1 L233.1,102.1 L232.2,99.0 L229.4,98.9 L223.1,96.8 L221.5,93.9 L225.8,92.6 L228.8,94.3 L231.2,93.8 L230.3,91.8 L228.2,92.3 L231.1,89.4 L236.9,89.2 L247.9,94.7 L253.0,93.8 L255.1,94.6 L254.0,97.0 L250.6,98.2 L251.2,102.3 L254.5,101.4 L254.1,105.2 L254.9,105.1 L254.6,103.4 L255.1,102.1 L255.4,103.4 L255.0,105.1 L257.6,104.7 L254.5,98.4 L256.6,95.2 L255.3,93.3 L249.8,91.3 L249.7,89.6 L245.3,89.2 L242.9,87.6 L243.4,84.3 L240.7,81.0 L243.2,78.6 L248.3,77.6 L255.3,77.4 L270.3,74.7 L272.2,77.2 L272.4,75.0 L267.7,70.1 L268.8,68.7 L265.3,68.2 L267.5,66.6 L270.9,68.3 L271.5,65.9 L280.6,60.2 L284.3,58.9 L300.7,55.7 L298.2,53.7 L305.4,53.6 L304.9,51.9 L311.3,52.7 L314.1,55.1 L320.3,53.7 L324.3,51.6 L329.1,52.9 L324.9,48.5 L327.8,48.9 L334.0,48.0 L335.6,45.8 L334.1,43.8 L339.6,39.5 L344.6,36.8 L351.4,36.1 L356.6,37.3 L356.8,41.9 L363.1,42.5 L364.2,43.5 L359.6,47.5 L366.0,47.0 L366.4,45.0 L377.5,44.5 L383.0,44.9 L388.2,47.8 L389.1,49.9 L391.9,49.7 L393.9,52.5 L393.1,54.9 L387.8,52.7 L389.0,55.1 L392.9,55.6 L392.8,57.8 L389.6,60.6 L386.3,61.8 L376.4,67.1 L376.1,68.3 L372.1,70.1 L368.0,73.7 L363.7,74.0 L361.6,76.8 L359.6,76.7 L356.4,81.7 L359.7,79.8 L360.3,77.9 L366.5,77.9 L380.9,72.8 L374.6,72.2 L376.8,70.0 L387.7,72.4 L391.0,70.6 L392.9,73.9 L401.6,71.8 L415.6,72.4 L415.7,75.8 L421.8,77.3 L436.4,77.9 L439.1,74.9 L437.6,73.4 L439.1,70.5 L442.5,69.5 L452.0,72.7 L455.0,71.4 L459.6,71.8 L459.2,73.0 L466.1,75.6 L460.9,76.9 L459.4,79.1 L460.8,79.4 L460.2,79.2 L462.6,78.8 L463.8,79.1 L462.8,79.9 L464.8,80.4 L466.7,82.4 L464.1,84.0 L459.0,81.1 L468.1,91.7 L473.4,94.7 L476.4,93.6 L480.6,85.0 L485.9,88.7 L489.7,89.0 L496.5,86.6 L506.2,89.8 L505.9,86.9 L509.2,86.1 L511.3,88.0 L515.1,87.4 L512.9,83.5 L514.2,81.3 L511.0,81.6 L512.5,78.6 L519.7,77.6 L517.3,75.0 L521.7,75.9 L539.4,77.2 L545.8,78.9 L539.3,79.0 L537.3,78.3 L535.0,80.6 L537.9,79.8 L546.5,79.1 L542.2,83.1 L538.7,83.4 L539.4,84.9 L543.1,83.4 L547.7,78.9 L553.2,78.8 L558.8,80.0 L561.0,81.9 L557.8,82.2 L556.2,84.0 L560.5,84.1 L560.2,85.9 L563.7,85.3 L568.3,87.0 L571.1,90.4 L577.8,90.3 L588.1,88.0 L595.7,87.9 L600.0,88.6 L605.4,90.9 L607.5,94.3 L605.6,97.4 L608.6,99.2 L611.4,99.2 L611.7,103.6 L614.6,104.9 L613.8,101.3 L617.8,98.8 L625.6,97.7 L629.3,99.2 L633.2,98.8 L639.0,99.4 L642.9,97.0 L644.9,98.7 L645.2,101.3 L649.9,102.3 L651.5,104.8 L657.3,102.9 L655.7,98.0 L655.6,93.8 L671.4,95.1 L678.3,95.1 L691.4,97.7 L698.9,101.5 L700.0,131.9 L697.7,133.7 L692.0,135.2 L687.7,134.0 L681.9,133.6 L685.2,136.0 L688.6,134.5 L688.5,137.1 L691.1,138.5 L692.4,137.4 L694.2,140.3 L694.0,144.3 L697.3,145.6 L698.9,149.2 L695.9,151.7 L688.3,150.4 L679.3,154.1 L675.6,156.3 L673.4,156.4 L664.5,163.4 L659.1,166.0 L657.3,169.8 L655.3,169.3 L654.0,167.0 L651.9,165.9 L646.6,166.0 L641.9,167.9 L637.7,171.5 L638.8,166.9 L633.1,169.9 L631.7,171.9 L630.2,169.8 L626.3,170.4 L624.3,174.1 L624.8,177.0 L621.0,180.0 L619.2,183.9 L621.7,186.0 L622.6,184.6 L625.5,186.2 L623.3,188.4 L623.2,192.5 L625.2,192.5 L626.0,196.2 L624.6,197.3 L622.4,195.7 L620.4,196.7 L618.8,200.1 L619.4,203.5 L620.7,204.9 L618.8,207.1 L614.3,207.1 L611.2,209.5 L610.3,213.5 L611.5,216.2 L609.5,215.3 L605.1,217.7 L603.6,223.5 L596.7,230.3 L595.7,227.9 L595.1,222.3 L593.4,217.9 L590.4,203.2 L590.7,199.1 L592.3,193.5 L595.1,191.6 L596.5,189.0 L595.5,186.8 L598.6,186.5 L605.6,182.2 L608.7,178.9 L609.2,177.1 L618.3,169.6 L618.4,168.1 L622.7,165.6 L626.7,164.3 L625.4,163.8 L627.8,161.3 L628.0,154.8 L629.9,153.4 L633.0,153.7 L630.1,151.8 L624.0,153.1 L624.5,154.5 L622.9,158.4 L623.2,160.3 L620.3,159.2 L618.4,161.4 L610.2,167.3 L611.4,164.0 L608.6,164.9 L608.3,162.7 L610.6,160.4 L610.8,157.7 L607.0,159.7 L606.3,158.2 L597.6,159.3 L594.1,161.2 L594.1,163.4 L590.4,166.9 L586.4,169.5 L583.2,173.1 L582.6,175.6 L586.7,175.5 L587.8,177.6 L584.6,177.5 L582.6,178.7 L579.4,177.5 L577.4,179.8 L574.8,178.9 L570.3,180.4 L569.0,178.8 L574.6,177.8 L572.1,177.4 L570.5,175.4 L566.4,176.3 L562.0,174.6 L558.5,176.2 L559.1,178.3 L554.4,177.4 L552.8,178.5 L547.1,177.5 L536.0,177.8 L528.6,180.1 L525.6,183.6 L522.5,185.3 L520.8,188.9 L512.6,194.9 L509.3,199.1 L504.2,203.8 L497.3,208.9 L499.8,210.9 L505.0,210.6 L504.2,215.5 L506.2,215.5 L505.9,213.4 L509.8,211.2 L507.1,213.9 L509.2,214.5 L507.3,217.2 L509.9,216.7 L512.9,214.0 L511.4,216.8 L512.6,216.9 L513.5,212.0 L516.4,212.7 L518.4,212.0 L520.5,214.5 L526.1,218.9 L524.8,220.0 L526.4,226.3 L524.0,228.4 L522.1,235.0 L523.2,237.9 L521.3,247.5 L517.9,250.8 L514.1,256.2 L512.3,260.7 L506.7,266.7 L503.6,270.9 L502.5,271.4 L499.3,276.5 L493.8,280.2 L490.3,281.4 L486.3,280.4 L486.3,278.0 L483.7,278.9 L479.1,283.9 L478.9,283.5 L478.3,282.7 L477.7,281.6 L480.9,280.5 L481.6,277.8 L481.4,274.1 L479.7,269.7 L481.9,269.0 L483.7,266.8 L484.5,267.3 L484.8,269.7 L486.3,271.2 L488.4,268.2 L489.7,267.8 L492.1,261.9 L493.0,261.2 L494.0,255.4 L496.7,252.7 L494.8,248.8 L489.0,250.6 L486.4,253.0 L479.6,253.4 L477.9,251.3 L478.5,249.6 L477.1,247.9 L477.7,246.5 L475.8,246.6 L472.2,243.5 L470.4,243.9 L469.0,242.7 L465.8,243.0 L463.0,241.4 L463.3,239.0 L462.1,238.4 L461.8,235.8 L460.1,234.0 L459.9,232.0 L457.7,228.5 L458.0,227.4 L454.2,222.5 L451.4,221.2 L448.1,221.1 L444.4,219.2 L438.5,219.8 L431.9,221.4 L428.1,224.7 L428.3,225.7 L431.3,226.0 L431.7,228.6 L428.7,231.4 L426.1,237.2 L424.6,239.4 L425.4,241.1 L422.4,242.0 L418.4,244.8 L413.4,243.1 L411.2,242.0 L407.4,242.9 L404.5,240.9 L402.3,240.8 L397.5,243.7 L396.8,245.1 L389.0,246.7 L386.3,248.1 L379.0,247.1 L376.2,247.4 L373.4,245.5 L373.3,243.8 L370.0,243.6 L367.4,241.7 L365.5,242.0 L361.2,241.0 L353.7,243.3 L347.5,241.1 L346.6,236.4 L343.0,235.7 L338.9,234.2 L336.6,234.3 L331.4,232.0 L330.6,233.8 L327.7,236.2 L326.7,239.0 L329.0,241.9 L328.2,244.6 L324.6,246.8 L323.0,245.9 L318.0,245.3 L316.4,246.1 L312.3,245.5 L310.4,242.2 L303.1,241.8 L301.5,240.9 L297.5,243.3 L295.6,243.6 L289.4,247.0 L289.7,248.1 L286.0,249.9 L282.8,249.9 L281.3,251.6 L279.9,251.9 L279.0,252.2 L275.6,249.3 L273.7,250.1 L269.5,249.6 L268.0,246.7 L264.7,245.7 L262.6,242.1 L260.8,241.4 L256.5,243.2 L251.8,243.3 L251.5,241.9 L248.1,240.0 L245.0,243.2 L242.5,239.0 L234.8,228.3 L228.5,224.2 L229.9,221.0 L223.5,224.1 L219.1,226.3 L217.3,226.9 L214.4,228.0 L213.4,226.6 L214.7,224.7 L210.6,223.7 L209.8,225.2 L208.1,223.7 L204.0,224.2 L203.8,220.2 L202.0,216.7 L199.2,217.8 L193.4,216.1 L190.3,217.7 L190.0,219.3 L180.0,221.8 L177.6,221.8 L176.6,223.6 L170.9,224.1 L166.9,225.6 L160.1,226.7 L158.2,226.3 L157.4,228.7 L158.4,230.9 L162.6,232.6 L157.8,233.2 L156.1,234.8 L157.9,236.8 L153.8,239.7 L156.8,241.2 L161.0,243.3 L159.7,246.2 L156.8,247.1 L153.5,246.0 L152.5,248.0 L148.5,247.2 L145.6,244.5 L143.1,244.7 L142.8,246.1 L140.4,245.0 L137.4,245.3 L133.6,248.6 L128.8,245.8 L128.1,246.9 L122.8,243.1 L118.9,243.4 L118.1,241.7 L115.6,243.4 L110.1,242.8 L109.1,244.7 L104.9,246.2 L104.9,247.7 L101.6,249.5 L102.7,252.8 L100.6,254.1 Z M120.6,8.8 L124.6,9.9 L126.9,9.4 L134.6,11.6 L131.8,13.1 L130.1,12.5 L131.2,13.4 L126.2,13.9 L124.3,13.1 L130.0,12.5 L123.7,10.3 L119.6,10.1 Z M126.3,74.8 L130.3,74.4 L126.9,72.9 L130.8,72.2 L128.4,71.1 L132.0,70.1 L130.9,69.0 L133.6,65.8 L136.8,66.4 L135.9,64.6 L138.7,63.9 L142.1,60.6 L151.9,58.7 L151.8,56.9 L157.8,57.5 L165.3,56.1 L172.4,53.3 L178.4,49.5 L185.4,49.1 L187.6,50.8 L187.7,52.9 L185.0,55.1 L179.6,57.6 L153.5,65.7 L148.2,70.3 L146.8,72.4 L144.1,72.4 L143.5,74.2 L139.1,73.1 L141.7,76.2 L139.5,76.7 L137.3,80.9 L132.9,85.3 L128.7,84.9 L131.5,85.5 L130.2,89.5 L128.4,89.6 L126.9,93.8 L127.6,97.2 L130.5,102.6 L136.9,107.8 L130.4,108.3 L127.6,107.0 L126.4,108.6 L123.3,106.8 L117.8,106.3 L118.6,104.6 L122.0,104.1 L118.1,102.8 L117.4,101.4 L111.0,101.6 L108.8,98.1 L110.8,95.6 L113.4,96.1 L114.9,91.2 L114.1,89.4 L117.2,89.1 L116.5,86.8 L124.5,84.0 L125.9,84.3 L124.9,83.9 L120.4,84.6 L122.7,82.5 L118.4,81.3 L123.7,79.1 Z M156.8,10.6 L159.6,9.1 L163.7,8.8 L166.6,6.3 L169.1,7.0 L170.1,9.3 L165.5,11.4 L159.6,12.2 Z M534.6,254.0 L536.5,258.1 L532.2,257.7 L530.7,261.9 L529.3,257.9 L530.3,255.3 L529.7,252.1 L530.7,250.0 L529.0,245.3 L530.2,239.9 L529.5,234.8 L530.4,231.5 L529.4,229.1 L527.6,227.5 L527.3,223.6 L528.4,219.6 L527.6,217.5 L530.1,217.4 L532.3,215.3 L530.1,211.7 L530.9,211.5 L533.1,212.5 L532.7,214.5 L534.6,218.6 L535.0,221.4 L534.3,226.5 L536.2,230.3 L537.5,235.9 L540.0,242.1 L535.3,241.4 L532.3,249.6 L532.4,251.1 Z M523.6,65.7 L529.9,68.8 L530.8,71.6 L529.0,72.1 L518.0,70.4 L514.2,71.3 L513.9,70.0 L517.5,68.7 L519.4,66.2 Z M544.9,51.7 L552.3,51.0 L553.3,52.9 L555.6,52.3 L563.6,53.3 L562.5,55.5 L556.1,57.0 L551.4,56.7 L541.6,53.0 L543.0,49.8 Z M536.2,52.7 L533.7,55.1 L527.1,54.4 L525.2,52.3 L527.4,49.2 L524.3,49.1 L523.2,51.0 L525.9,54.9 L530.9,56.1 L524.7,57.4 L522.3,55.9 L514.2,57.8 L511.6,56.8 L509.5,59.5 L504.3,58.0 L499.4,53.4 L501.7,53.4 L500.5,50.6 L503.1,49.3 L501.8,47.8 L508.4,45.0 L512.6,47.9 L518.2,50.3 L518.3,46.2 L519.7,45.0 L525.3,47.8 L531.7,47.8 L538.4,50.6 L535.4,51.5 Z M335.0,31.8 L329.7,34.3 L326.2,33.7 L333.3,24.0 L337.4,19.8 L339.6,19.1 L342.5,20.6 L340.2,25.3 L342.4,23.0 L346.6,21.7 L349.9,24.6 L353.0,25.0 L353.9,28.0 L351.4,29.8 L346.5,30.8 Z M298.2,19.3 L304.6,16.3 L302.8,14.8 L305.9,13.3 L317.7,12.1 L321.4,15.1 L322.2,13.2 L328.0,14.6 L329.0,16.7 L327.1,21.2 L324.8,21.2 L329.0,24.2 L326.5,25.8 L319.0,26.2 L314.5,24.5 L306.4,24.3 L303.3,22.4 L303.0,19.9 Z M85.3,14.1 L86.3,13.0 L91.5,13.0 L93.6,15.3 L89.2,13.8 L83.4,17.2 L79.0,16.8 L77.0,15.4 Z M150.2,15.5 L141.9,14.5 L143.0,11.5 L150.0,10.8 L154.7,10.2 L154.8,13.1 Z M90.1,19.3 L86.4,20.2 L84.2,18.8 L90.5,18.6 L90.0,17.5 L92.2,15.8 L95.6,16.2 L97.8,14.8 L94.8,13.5 L100.4,11.6 L107.2,14.1 L103.9,15.7 L94.2,17.6 L95.5,19.7 L89.0,21.2 Z M314.6,4.4 L319.2,6.4 L315.7,7.1 L315.9,11.5 L303.7,13.0 L301.9,14.3 L301.3,14.9 L289.9,11.8 L291.6,9.9 L295.4,9.3 L297.7,6.1 L294.2,6.5 L296.6,4.0 L305.0,2.1 L309.0,0.4 Z">
  <desc xmlns="http://www.highcharts.com/svg/namespace">
    <name>Russia</name>
    <labelrank>2</labelrank>
    <country-abbrev>Rus.</country-abbrev>
    <subregion>Eastern Europe</subregion>
    <region-wb>Europe &amp; Central Asia</region-wb>
    <iso-a3>RUS</iso-a3>
    <iso-a2>RU</iso-a2>
    <woe-id>23424936</woe-id>
    <continent>Europe</continent>
    <hc-middle-x>0.55</hc-middle-x>
    <hc-middle-y>0.51</hc-middle-y>
    <hc-key>ru</hc-key>
    <hc-a2>RU</hc-a2>
  </desc>
</path>

<path fill="#CEE3F5" stroke="#6E6E6E" stroke-width="0.4" id="SH" d="M424.6,421.6 L424.6,421.6 L424.5,421.6 L424.6,421.6 Z">
  <desc xmlns="http://www.highcharts.com/svg/namespace">
    <name>Scarborough Reef</name>
    <labelrank>6</labelrank>
    <country-abbrev>S.R.</country-abbrev>
    <subregion>South-Eastern Asia</subregion>
    <region-wb>East Asia &amp; Pacific</region-wb>
    <iso-a3>-99</iso-a3>
    <iso-a2>SH</iso-a2>
    <woe-id>-99</woe-id>
    <continent>Asia</continent>
    <hc-middle-x>0.54</hc-middle-x>
    <hc-middle-y>0.51</hc-middle-y>
    <hc-key>sh</hc-key>
    <hc-a2>SH</hc-a2>
  </desc>
</path>

<path fill="#CEE3F5" stroke="#6E6E6E" stroke-width="0.4" id="MY" d="M422.4,458.1 L423.5,457.7 L423.5,458.5 L422.7,458.9 Z M427.0,472.2 L426.2,472.2 L426.1,472.2 L426.1,472.1 L425.5,472.2 L423.8,471.4 L420.1,471.8 L417.5,471.5 L416.2,473.7 L416.6,475.8 L416.0,477.7 L414.2,478.7 L414.9,480.1 L413.0,481.4 L413.3,483.0 L411.8,485.1 L409.1,485.2 L408.0,486.2 L405.1,484.9 L401.2,485.4 L399.6,487.5 L396.8,487.3 L393.9,488.4 L390.5,486.0 L389.0,483.9 L389.5,483.0 L390.8,484.7 L395.8,485.1 L397.1,481.0 L398.6,479.2 L404.7,477.5 L408.9,472.3 L409.0,470.8 L411.8,473.3 L413.0,471.5 L412.5,470.0 L413.5,469.3 L413.7,469.2 L413.7,469.6 L414.2,471.6 L415.3,471.8 L414.3,469.2 L416.3,467.7 L415.2,467.3 L416.1,465.9 L417.4,466.1 L418.5,463.5 L420.2,461.7 L421.4,459.3 L421.7,461.3 L423.1,459.3 L423.8,461.0 L425.9,462.0 L426.1,464.2 L427.2,463.5 L427.8,465.2 L429.1,464.6 L433.1,467.2 L430.4,468.5 L428.0,468.8 L430.9,470.7 L426.5,471.9 Z M345.2,464.6 L345.3,463.4 L349.6,465.3 L349.8,468.1 L351.7,466.8 L353.0,467.5 L354.1,465.1 L359.1,469.0 L360.7,471.6 L360.9,473.7 L360.3,476.3 L361.0,477.4 L360.9,480.0 L362.5,481.4 L365.1,486.7 L360.8,486.4 L351.1,480.8 L351.4,479.8 L349.8,477.3 L348.3,476.3 L347.5,474.2 L347.5,471.8 L346.5,470.8 L346.3,466.5 Z">
  <desc xmlns="http://www.highcharts.com/svg/namespace">
    <name>Malaysia</name>
    <labelrank>3</labelrank>
    <country-abbrev>Malay.</country-abbrev>
    <subregion>South-Eastern Asia</subregion>
    <region-wb>East Asia &amp; Pacific</region-wb>
    <iso-a3>MYS</iso-a3>
    <iso-a2>MY</iso-a2>
    <woe-id>23424901</woe-id>
    <continent>Asia</continent>
    <hc-middle-x>0.86</hc-middle-x>
    <hc-middle-y>0.17</hc-middle-y>
    <hc-key>my</hc-key>
    <hc-a2>MY</hc-a2>
  </desc>
</path>

<path fill="#CEE3F5" stroke="#6E6E6E" stroke-width="0.4" id="AZ" d="M86.8,304.5 L86.7,304.6 L86.5,304.4 L86.7,304.3 Z M87.7,304.8 L87.5,304.9 L87.5,304.7 L87.5,304.7 Z M85.9,311.8 L90.5,312.4 L92.3,316.1 L89.0,315.4 L86.0,312.1 L86.0,312.1 Z M103.7,318.2 L100.9,316.0 L102.2,314.7 L102.3,313.0 L99.9,311.4 L95.5,314.3 L94.0,315.9 L93.3,313.3 L89.8,309.9 L91.3,308.8 L88.4,306.4 L89.4,305.4 L86.6,303.2 L88.7,302.3 L93.5,304.3 L94.4,303.0 L91.9,301.0 L93.0,299.6 L94.5,299.8 L97.0,302.7 L99.8,303.1 L102.9,299.6 L105.1,301.8 L107.8,306.0 L109.9,306.2 L111.3,307.3 L109.2,307.4 L107.2,309.0 L106.2,314.8 L105.2,313.9 L104.9,317.9 Z M88.9,306.8 L89.1,306.8 L89.3,306.6 L88.9,306.6 Z">
  <desc xmlns="http://www.highcharts.com/svg/namespace">
    <name>Azerbaijan</name>
    <labelrank>5</labelrank>
    <country-abbrev>Aze.</country-abbrev>
    <subregion>Western Asia</subregion>
    <region-wb>Europe &amp; Central Asia</region-wb>
    <iso-a3>AZE</iso-a3>
    <iso-a2>AZ</iso-a2>
    <woe-id>23424741</woe-id>
    <continent>Asia</continent>
    <hc-middle-x>0.77</hc-middle-x>
    <hc-middle-y>0.42</hc-middle-y>
    <hc-key>az</hc-key>
    <hc-a2>AZ</hc-a2>
  </desc>
</path>

<path fill="#CEE3F5" stroke="#6E6E6E" stroke-width="0.4" id="AM" d="M88.9,306.8 L88.9,306.6 L89.3,306.6 L89.1,306.8 Z M94.0,315.9 L93.4,315.7 L92.3,316.1 L90.5,312.4 L85.9,311.8 L84.4,310.4 L80.7,309.8 L80.9,306.7 L79.5,304.4 L82.9,303.6 L86.6,303.2 L89.4,305.4 L88.4,306.4 L91.3,308.8 L89.8,309.9 L93.3,313.3 Z M86.8,304.5 L86.7,304.3 L86.5,304.4 L86.7,304.6 Z M87.7,304.8 L87.5,304.7 L87.5,304.7 L87.5,304.9 Z">
  <desc xmlns="http://www.highcharts.com/svg/namespace">
    <name>Armenia</name>
    <labelrank>6</labelrank>
    <country-abbrev>Arm.</country-abbrev>
    <subregion>Western Asia</subregion>
    <region-wb>Europe &amp; Central Asia</region-wb>
    <iso-a3>ARM</iso-a3>
    <iso-a2>AM</iso-a2>
    <woe-id>23424743</woe-id>
    <continent>Asia</continent>
    <hc-middle-x>0.56</hc-middle-x>
    <hc-middle-y>0.42</hc-middle-y>
    <hc-key>am</hc-key>
    <hc-a2>AM</hc-a2>
  </desc>
</path>

<path fill="#CEE3F5" stroke="#6E6E6E" stroke-width="0.4" id="VN" d="M362.3,445.6 L362.7,446.5 L362.4,447.5 L361.6,446.0 Z M378.8,393.4 L375.0,396.1 L374.6,397.2 L372.2,398.1 L372.5,399.6 L370.0,400.7 L368.3,405.5 L370.6,408.8 L372.2,409.5 L373.2,412.6 L379.2,418.0 L380.6,418.2 L383.4,422.0 L384.9,425.0 L386.1,428.9 L385.8,431.2 L387.0,434.5 L385.8,434.6 L386.1,438.8 L385.1,440.6 L381.0,442.8 L377.3,445.4 L375.5,444.8 L373.8,449.4 L369.5,451.4 L367.6,453.8 L366.1,453.0 L366.5,448.2 L367.3,447.5 L365.1,446.9 L364.4,445.7 L366.2,445.1 L366.9,443.3 L370.2,442.7 L372.2,443.8 L370.6,441.4 L371.3,439.2 L373.2,439.6 L373.0,438.2 L374.4,438.2 L378.1,436.3 L377.7,433.2 L378.3,430.8 L376.9,428.1 L377.7,425.4 L378.3,422.6 L375.9,420.5 L376.5,419.1 L372.9,416.3 L372.8,414.9 L369.1,411.8 L367.7,409.4 L365.9,408.2 L366.0,407.0 L364.2,406.7 L360.1,404.4 L361.8,402.4 L363.1,402.9 L365.1,400.5 L362.3,398.9 L363.4,397.8 L360.8,396.5 L359.1,398.0 L356.5,397.1 L355.4,395.0 L355.8,393.7 L351.7,389.9 L353.1,388.1 L355.7,389.6 L357.1,387.9 L358.6,387.8 L360.2,389.0 L364.0,387.0 L364.2,385.8 L366.2,384.8 L368.7,386.9 L371.6,386.7 L372.9,387.5 L371.9,389.1 L372.5,391.1 L375.8,392.9 Z">
  <desc xmlns="http://www.highcharts.com/svg/namespace">
    <name>Vietnam</name>
    <labelrank>2</labelrank>
    <country-abbrev>Viet.</country-abbrev>
    <subregion>South-Eastern Asia</subregion>
    <region-wb>East Asia &amp; Pacific</region-wb>
    <iso-a3>VNM</iso-a3>
    <iso-a2>VN</iso-a2>
    <woe-id>23424984</woe-id>
    <continent>Asia</continent>
    <hc-middle-x>0.58</hc-middle-x>
    <hc-middle-y>0.91</hc-middle-y>
    <hc-key>vn</hc-key>
    <hc-a2>VN</hc-a2>
  </desc>
</path>

<path fill="#CEE3F5" stroke="#6E6E6E" stroke-width="0.4" id="TJ" d="M204.2,300.9 L204.1,301.0 L203.8,300.7 L204.0,300.7 Z M204.3,306.9 L204.7,307.0 L204.1,307.3 L203.6,306.8 Z M218.2,308.5 L219.1,313.0 L221.5,312.6 L223.6,313.4 L224.3,318.2 L225.6,319.2 L224.3,320.1 L223.2,319.3 L218.5,320.3 L219.1,319.3 L216.9,319.2 L214.1,321.5 L209.4,323.4 L208.5,321.5 L209.1,317.1 L207.6,317.0 L207.8,315.1 L205.2,314.4 L202.6,317.1 L202.6,319.2 L199.7,319.1 L198.5,321.7 L197.2,320.5 L192.9,322.8 L191.8,321.5 L191.9,319.7 L194.2,316.2 L192.8,314.3 L192.8,311.9 L191.0,311.9 L189.4,310.8 L191.2,308.5 L194.7,308.8 L196.9,305.1 L198.1,305.2 L197.6,303.3 L198.7,301.9 L199.7,302.8 L203.3,300.5 L204.7,302.3 L202.9,303.6 L204.0,304.9 L205.8,304.7 L203.8,305.9 L201.2,305.0 L198.3,306.3 L198.3,308.9 L202.4,308.7 L204.7,309.2 L208.2,308.0 L209.5,309.7 L210.9,309.2 L215.9,309.1 Z">
  <desc xmlns="http://www.highcharts.com/svg/namespace">
    <name>Tajikistan</name>
    <labelrank>4</labelrank>
    <country-abbrev>Tjk.</country-abbrev>
    <subregion>Central Asia</subregion>
    <region-wb>Europe &amp; Central Asia</region-wb>
    <iso-a3>TJK</iso-a3>
    <iso-a2>TJ</iso-a2>
    <woe-id>23424961</woe-id>
    <continent>Asia</continent>
    <hc-middle-x>0.34</hc-middle-x>
    <hc-middle-y>0.54</hc-middle-y>
    <hc-key>tj</hc-key>
    <hc-a2>TJ</hc-a2>
  </desc>
</path>

<path fill="#CEE3F5" stroke="#6E6E6E" stroke-width="0.4" id="UZ" d="M209.5,306.4 L209.1,306.2 L209.5,306.0 L209.6,306.0 Z M206.8,305.7 L207.0,306.6 L206.2,306.2 L205.9,305.2 Z M152.0,279.5 L151.0,281.8 L154.4,284.5 L154.9,281.0 L159.5,283.5 L160.1,284.7 L164.2,288.4 L169.6,287.4 L175.2,287.6 L177.6,286.7 L180.2,288.8 L181.6,291.1 L183.0,290.4 L182.8,295.9 L185.0,295.9 L186.0,300.2 L191.7,300.0 L192.0,302.1 L194.8,303.1 L194.7,301.4 L196.7,298.9 L200.7,296.9 L203.1,294.7 L205.3,293.8 L206.7,294.0 L201.9,297.6 L206.6,300.0 L209.2,298.0 L211.1,300.4 L215.5,301.4 L213.2,303.0 L212.1,302.5 L209.0,305.1 L207.0,304.2 L205.8,304.7 L204.0,304.9 L202.9,303.6 L204.7,302.3 L203.3,300.5 L199.7,302.8 L198.7,301.9 L197.6,303.3 L198.1,305.2 L196.9,305.1 L194.7,308.8 L191.2,308.5 L189.4,310.8 L191.0,311.9 L192.8,311.9 L192.8,314.3 L194.2,316.2 L191.9,319.7 L191.8,321.5 L189.3,321.5 L188.2,320.6 L185.9,320.7 L186.0,317.2 L182.8,316.0 L181.6,316.3 L175.6,312.6 L174.7,312.7 L166.8,307.3 L164.0,301.4 L162.1,300.5 L161.2,301.3 L157.2,301.0 L155.7,300.2 L154.9,297.2 L155.3,295.8 L152.8,295.4 L148.7,292.8 L146.5,293.7 L148.2,295.4 L145.9,294.5 L144.4,296.4 L142.4,295.7 L141.8,297.7 L141.6,301.4 L136.9,301.2 L136.2,280.8 L148.1,277.3 L146.6,280.8 L147.0,283.7 L148.9,281.9 L148.8,277.7 L150.5,278.6 Z M204.2,300.9 L204.0,300.7 L203.8,300.7 L204.1,301.0 Z">
  <desc xmlns="http://www.highcharts.com/svg/namespace">
    <name>Uzbekistan</name>
    <labelrank>3</labelrank>
    <country-abbrev>Uzb.</country-abbrev>
    <subregion>Central Asia</subregion>
    <region-wb>Europe &amp; Central Asia</region-wb>
    <iso-a3>UZB</iso-a3>
    <iso-a2>UZ</iso-a2>
    <woe-id>23424980</woe-id>
    <continent>Asia</continent>
    <hc-middle-x>0.40</hc-middle-x>
    <hc-middle-y>0.38</hc-middle-y>
    <hc-key>uz</hc-key>
    <hc-a2>UZ</hc-a2>
  </desc>
</path>

<path fill="#CEE3F5" stroke="#6E6E6E" stroke-width="0.4" id="TL" d="M461.2,530.9 L462.2,529.4 L470.5,527.6 L472.1,528.0 L468.2,530.6 L464.4,531.8 L462.0,533.3 L462.3,531.9 Z M457.2,532.8 L458.0,532.4 L459.1,532.0 L458.3,533.5 Z">
  <desc xmlns="http://www.highcharts.com/svg/namespace">
    <name>East Timor</name>
    <labelrank>5</labelrank>
    <country-abbrev>T.L.</country-abbrev>
    <subregion>South-Eastern Asia</subregion>
    <region-wb>East Asia &amp; Pacific</region-wb>
    <iso-a3>TLS</iso-a3>
    <iso-a2>TL</iso-a2>
    <woe-id>23424968</woe-id>
    <continent>Asia</continent>
    <hc-middle-x>0.62</hc-middle-x>
    <hc-middle-y>0.31</hc-middle-y>
    <hc-key>tl</hc-key>
    <hc-a2>TL</hc-a2>
  </desc>
</path>

<path fill="#CEE3F5" stroke="#6E6E6E" stroke-width="0.4" id="KH" d="M356.3,438.5 L356.3,438.5 L356.3,438.5 L356.1,438.0 L356.3,436.7 L355.0,435.6 L354.1,431.5 L355.0,431.4 L357.5,428.0 L360.1,427.3 L361.7,427.6 L365.2,427.0 L367.1,427.4 L370.5,429.3 L371.5,428.5 L370.7,427.2 L373.1,426.0 L375.2,427.2 L377.7,425.4 L376.9,428.1 L378.3,430.8 L377.7,433.2 L378.1,436.3 L374.4,438.2 L373.0,438.2 L373.2,439.6 L371.3,439.2 L370.6,441.4 L372.2,443.8 L370.2,442.7 L366.9,443.3 L366.2,445.1 L364.4,445.7 L363.4,445.0 L360.6,445.4 L360.7,442.8 L358.1,443.5 L358.2,441.8 L357.1,440.3 L356.3,438.5 L356.3,438.5 Z">
  <desc xmlns="http://www.highcharts.com/svg/namespace">
    <name>Cambodia</name>
    <labelrank>3</labelrank>
    <country-abbrev>Camb.</country-abbrev>
    <subregion>South-Eastern Asia</subregion>
    <region-wb>East Asia &amp; Pacific</region-wb>
    <iso-a3>KHM</iso-a3>
    <iso-a2>KH</iso-a2>
    <woe-id>23424776</woe-id>
    <continent>Asia</continent>
    <hc-middle-x>0.52</hc-middle-x>
    <hc-middle-y>0.52</hc-middle-y>
    <hc-key>kh</hc-key>
    <hc-a2>KH</hc-a2>
  </desc>
</path>

<path fill="#CEE3F5" stroke="#6E6E6E" stroke-width="0.4" id="BT" d="M290.3,368.2 L293.2,364.1 L296.2,362.9 L297.4,364.2 L300.2,364.6 L301.1,364.0 L302.7,365.6 L303.3,367.3 L304.4,366.9 L305.0,369.6 L302.4,370.3 L298.1,370.6 L297.2,370.0 L294.6,371.1 L291.3,370.6 L289.5,369.0 Z">
  <desc xmlns="http://www.highcharts.com/svg/namespace">
    <name>Bhutan</name>
    <labelrank>5</labelrank>
    <country-abbrev>Bhutan</country-abbrev>
    <subregion>Southern Asia</subregion>
    <region-wb>South Asia</region-wb>
    <iso-a3>BTN</iso-a3>
    <iso-a2>BT</iso-a2>
    <woe-id>23424770</woe-id>
    <continent>Asia</continent>
    <hc-middle-x>0.16</hc-middle-x>
    <hc-middle-y>0.55</hc-middle-y>
    <hc-key>bt</hc-key>
    <hc-a2>BT</hc-a2>
  </desc>
</path>

<path fill="#CEE3F5" stroke="#6E6E6E" stroke-width="0.4" id="GE" d="M80.8,295.4 L81.5,296.4 L85.7,295.1 L89.6,296.4 L89.3,297.9 L93.0,299.6 L91.9,301.0 L94.4,303.0 L93.5,304.3 L88.7,302.3 L86.6,303.2 L82.9,303.6 L79.5,304.4 L76.5,302.0 L74.8,302.8 L70.6,302.5 L71.7,300.8 L70.3,296.3 L67.3,294.1 L64.9,293.7 L63.2,292.4 L63.2,292.4 L63.2,292.4 L64.3,291.3 L66.2,291.5 L70.4,293.1 L74.4,292.9 L77.1,293.5 Z">
  <desc xmlns="http://www.highcharts.com/svg/namespace">
    <name>Georgia</name>
    <labelrank>5</labelrank>
    <country-abbrev>Geo.</country-abbrev>
    <subregion>Western Asia</subregion>
    <region-wb>Europe &amp; Central Asia</region-wb>
    <iso-a3>GEO</iso-a3>
    <iso-a2>GE</iso-a2>
    <woe-id>23424823</woe-id>
    <continent>Asia</continent>
    <hc-middle-x>0.33</hc-middle-x>
    <hc-middle-y>0.51</hc-middle-y>
    <hc-key>ge</hc-key>
    <hc-a2>GE</hc-a2>
  </desc>
</path>

<path fill="#CEE3F5" stroke="#6E6E6E" stroke-width="0.4" id="KZ" d="M260.8,241.4 L262.6,242.1 L264.7,245.7 L268.0,246.7 L269.5,249.6 L273.7,250.1 L275.6,249.3 L279.0,252.2 L277.0,252.1 L275.6,255.6 L272.1,256.4 L271.0,259.3 L271.8,262.4 L271.1,264.4 L267.8,265.8 L267.2,264.9 L263.8,265.1 L260.3,263.8 L257.8,269.7 L256.7,273.6 L258.2,274.1 L258.1,275.6 L255.2,275.8 L254.2,274.8 L246.6,276.8 L246.3,278.1 L248.0,278.9 L248.0,282.0 L250.2,287.3 L247.4,290.2 L247.8,292.6 L246.4,291.4 L244.1,291.2 L242.8,289.5 L239.8,289.1 L227.3,289.2 L224.6,289.8 L219.9,287.6 L217.5,288.8 L216.5,291.5 L217.0,292.4 L209.3,290.4 L207.3,290.7 L205.5,292.0 L205.3,293.8 L203.1,294.7 L200.7,296.9 L196.7,298.9 L194.7,301.4 L194.8,303.1 L192.0,302.1 L191.7,300.0 L186.0,300.2 L185.0,295.9 L182.8,295.9 L183.0,290.4 L181.6,291.1 L180.2,288.8 L177.6,286.7 L175.2,287.6 L169.6,287.4 L164.2,288.4 L160.1,284.7 L159.5,283.5 L154.9,281.0 L154.6,276.9 L153.5,276.9 L154.8,274.4 L156.7,274.9 L159.9,273.0 L160.2,271.7 L157.8,270.5 L154.3,271.3 L158.1,272.9 L157.3,274.0 L152.1,272.7 L153.2,274.1 L151.8,276.3 L151.1,274.5 L148.7,275.4 L148.1,277.3 L136.2,280.8 L136.9,301.2 L134.4,301.5 L131.9,298.1 L128.5,296.1 L123.0,297.3 L120.6,299.5 L120.4,297.6 L121.7,294.0 L118.1,293.6 L116.7,291.6 L115.0,291.9 L115.1,290.3 L112.8,286.2 L110.0,285.2 L110.2,283.7 L114.9,283.8 L113.3,282.5 L115.1,279.7 L120.3,279.0 L123.7,279.3 L121.2,278.3 L122.7,275.5 L123.1,271.5 L121.8,270.1 L119.6,269.9 L118.7,271.1 L113.9,269.4 L110.3,271.0 L107.6,273.0 L105.3,273.0 L105.0,274.3 L105.0,274.3 L101.4,272.5 L103.9,271.8 L101.5,268.2 L99.3,266.2 L95.0,266.0 L94.7,263.4 L92.0,262.7 L94.3,257.9 L93.1,257.2 L93.6,254.3 L95.4,252.9 L96.5,250.4 L100.6,254.1 L102.7,252.8 L101.6,249.5 L104.9,247.7 L104.9,246.2 L109.1,244.7 L110.1,242.8 L113.7,242.7 L115.6,243.4 L118.1,241.7 L118.9,243.4 L122.8,243.1 L128.1,246.9 L128.8,245.8 L133.6,248.6 L137.4,245.3 L140.4,245.0 L142.8,246.1 L143.1,244.7 L145.6,244.5 L148.5,247.2 L152.5,248.0 L153.5,246.0 L156.8,247.1 L159.7,246.2 L161.0,243.3 L157.6,241.2 L156.8,241.2 L154.9,241.0 L153.8,239.7 L157.9,236.8 L156.1,234.8 L157.8,233.2 L162.6,232.6 L162.3,231.8 L158.4,230.9 L158.9,229.3 L157.4,228.7 L158.2,226.3 L160.1,226.7 L166.9,225.6 L170.9,224.1 L176.6,223.6 L177.6,221.8 L180.0,221.8 L190.0,219.3 L190.3,217.7 L193.4,216.1 L196.8,216.6 L199.2,217.8 L202.0,216.7 L203.8,220.2 L204.0,224.2 L208.1,223.7 L208.7,222.6 L209.8,225.2 L210.6,223.7 L214.7,224.7 L213.4,226.6 L214.4,228.0 L216.7,226.6 L217.3,226.9 L218.9,227.6 L219.1,226.3 L221.7,225.4 L223.5,224.1 L224.4,223.5 L229.9,221.0 L228.5,224.2 L234.8,228.3 L242.5,239.0 L245.0,243.2 L247.1,242.1 L248.1,240.0 L251.5,241.9 L251.8,243.3 L256.5,243.2 L257.7,242.0 Z M148.8,277.7 L150.3,275.7 L151.8,277.2 L152.0,279.5 L150.5,278.6 Z">
  <desc xmlns="http://www.highcharts.com/svg/namespace">
    <name>Kazakhstan</name>
    <labelrank>3</labelrank>
    <country-abbrev>Kaz.</country-abbrev>
    <subregion>Central Asia</subregion>
    <region-wb>Europe &amp; Central Asia</region-wb>
    <iso-a3>KAZ</iso-a3>
    <iso-a2>KZ</iso-a2>
    <woe-id>-90</woe-id>
    <continent>Asia</continent>
    <hc-middle-x>0.56</hc-middle-x>
    <hc-middle-y>0.46</hc-middle-y>
    <hc-key>kz</hc-key>
    <hc-a2>KZ</hc-a2>
  </desc>
</path>

<path fill="#CEE3F5" stroke="#6E6E6E" stroke-width="0.4" id="IL" d="M42.7,365.7 L42.1,364.8 L38.9,357.1 L41.2,353.8 L42.8,347.9 L44.5,347.9 L46.0,346.2 L46.4,348.5 L45.8,349.6 L45.8,349.6 L44.9,350.1 L45.1,354.6 L44.4,355.9 L44.5,356.8 L44.4,357.2 L44.4,357.3 L44.3,357.6 L44.6,358.0 L43.4,361.4 Z">
  <desc xmlns="http://www.highcharts.com/svg/namespace">
    <name>Israel</name>
    <labelrank>4</labelrank>
    <country-abbrev>Isr.</country-abbrev>
    <subregion>Western Asia</subregion>
    <region-wb>Middle East &amp; North Africa</region-wb>
    <iso-a3>ISR</iso-a3>
    <iso-a2>IL</iso-a2>
    <woe-id>23424852</woe-id>
    <continent>Asia</continent>
    <hc-middle-x>0.60</hc-middle-x>
    <hc-middle-y>0.22</hc-middle-y>
    <hc-key>il</hc-key>
    <hc-a2>IL</hc-a2>
  </desc>
</path>

<path fill="#CEE3F5" stroke="#6E6E6E" stroke-width="0.4" id="SY" d="M46.4,348.5 L46.0,346.2 L46.4,345.0 L49.4,342.0 L48.4,339.9 L46.4,339.8 L46.1,335.8 L45.2,335.1 L45.9,333.2 L47.0,333.7 L48.0,331.5 L49.3,331.5 L49.2,328.3 L52.8,329.2 L56.2,327.7 L58.4,328.6 L63.5,328.3 L67.7,326.3 L71.2,326.3 L74.6,324.8 L75.3,326.0 L73.0,328.6 L71.1,329.2 L70.3,331.7 L71.0,333.7 L70.4,338.3 L68.1,340.7 L59.5,345.9 L50.7,351.6 L48.7,351.3 L45.8,349.6 L45.8,349.6 Z">
  <desc xmlns="http://www.highcharts.com/svg/namespace">
    <name>Syria</name>
    <labelrank>3</labelrank>
    <country-abbrev>Syria</country-abbrev>
    <subregion>Western Asia</subregion>
    <region-wb>Middle East &amp; North Africa</region-wb>
    <iso-a3>SYR</iso-a3>
    <iso-a2>SY</iso-a2>
    <woe-id>23424956</woe-id>
    <continent>Asia</continent>
    <hc-middle-x>0.32</hc-middle-x>
    <hc-middle-y>0.35</hc-middle-y>
    <hc-key>sy</hc-key>
    <hc-a2>SY</hc-a2>
  </desc>
</path>

<path fill="#CEE3F5" stroke="#6E6E6E" stroke-width="0.4" id="JO" d="M44.6,358.0 L45.0,357.5 L44.4,357.3 L44.4,357.2 L44.5,356.8 L45.1,356.8 L45.1,354.6 L44.9,350.1 L45.8,349.6 L45.8,349.6 L48.7,351.3 L50.7,351.6 L59.5,345.9 L61.0,350.3 L61.4,352.2 L60.6,352.9 L51.5,355.7 L56.4,360.6 L54.1,363.2 L50.9,363.9 L49.7,365.8 L47.6,367.4 L42.7,366.8 L42.9,365.9 L42.7,365.7 L43.4,361.4 Z">
  <desc xmlns="http://www.highcharts.com/svg/namespace">
    <name>Jordan</name>
    <labelrank>4</labelrank>
    <country-abbrev>Jord.</country-abbrev>
    <subregion>Western Asia</subregion>
    <region-wb>Middle East &amp; North Africa</region-wb>
    <iso-a3>JOR</iso-a3>
    <iso-a2>JO</iso-a2>
    <woe-id>23424860</woe-id>
    <continent>Asia</continent>
    <hc-middle-x>0.21</hc-middle-x>
    <hc-middle-y>0.69</hc-middle-y>
    <hc-key>jo</hc-key>
    <hc-a2>JO</hc-a2>
  </desc>
</path>

<path fill="#CEE3F5" stroke="#6E6E6E" stroke-width="0.4" id="TM" d="M141.8,297.7 L143.1,299.8 L145.4,299.0 L144.4,296.4 L145.9,294.5 L148.2,295.4 L146.5,293.7 L148.7,292.8 L152.8,295.4 L155.3,295.8 L154.9,297.2 L155.7,300.2 L157.2,301.0 L161.2,301.3 L162.1,300.5 L164.0,301.4 L166.8,307.3 L174.7,312.7 L175.6,312.6 L181.6,316.3 L182.8,316.0 L186.0,317.2 L185.9,320.7 L182.4,319.7 L181.3,321.6 L179.3,321.7 L178.0,323.3 L176.6,326.9 L171.7,329.2 L170.5,331.4 L167.0,333.0 L165.7,331.6 L162.2,330.7 L161.1,325.4 L157.8,325.6 L156.2,323.6 L153.2,322.1 L153.1,321.2 L150.5,320.2 L143.8,319.0 L143.2,317.5 L139.6,317.7 L139.0,318.6 L135.0,318.8 L132.4,320.5 L132.1,321.8 L128.2,322.9 L127.6,316.6 L128.2,314.6 L126.3,312.4 L124.0,312.0 L126.8,311.2 L125.4,310.0 L126.1,309.1 L122.3,308.6 L122.2,306.3 L123.0,303.6 L123.8,304.7 L126.7,305.4 L129.5,304.8 L131.2,302.6 L128.2,300.7 L127.2,297.4 L123.9,297.4 L122.3,299.3 L122.4,301.4 L120.6,299.5 L123.0,297.3 L128.5,296.1 L131.9,298.1 L134.4,301.5 L136.9,301.2 L141.6,301.4 Z">
  <desc xmlns="http://www.highcharts.com/svg/namespace">
    <name>Turkmenistan</name>
    <labelrank>4</labelrank>
    <country-abbrev>Turkm.</country-abbrev>
    <subregion>Central Asia</subregion>
    <region-wb>Europe &amp; Central Asia</region-wb>
    <iso-a3>TKM</iso-a3>
    <iso-a2>TM</iso-a2>
    <woe-id>23424972</woe-id>
    <continent>Asia</continent>
    <hc-middle-x>0.57</hc-middle-x>
    <hc-middle-y>0.50</hc-middle-y>
    <hc-key>tm</hc-key>
    <hc-a2>TM</hc-a2>
  </desc>
</path>

<path fill="#CEE3F5" stroke="#6E6E6E" stroke-width="0.4" id="CNM" d="M37.4,338.0 L37.4,338.0 L37.0,338.0 L36.9,338.0 L36.9,337.9 L37.2,337.9 Z M30.8,337.6 L30.9,337.6 L31.0,337.7 L31.1,337.5 L31.1,337.5 L31.2,337.5 L31.0,337.7 Z M31.3,337.6 L31.3,337.6 L31.4,337.6 L34.6,337.4 L35.9,338.2 L36.0,338.2 L36.0,338.4 L34.6,337.6 L31.9,338.2 Z">
  <desc xmlns="http://www.highcharts.com/svg/namespace">
    <name>Cyprus No Mans Area</name>
    <labelrank>9</labelrank>
    <country-abbrev>NULL</country-abbrev>
    <subregion>Western Asia</subregion>
    <region-wb>Europe &amp; Central Asia</region-wb>
    <iso-a3>-99</iso-a3>
    <iso-a2>NULL</iso-a2>
    <woe-id>-99</woe-id>
    <continent>Asia</continent>
    <hc-middle-x>0.24</hc-middle-x>
    <hc-middle-y>0.35</hc-middle-y>
    <hc-key>cnm</hc-key>
    <hc-a2>CN</hc-a2>
  </desc>
</path>

<path fill="#CEE3F5" stroke="#6E6E6E" stroke-width="0.4" id="MN" d="M417.6,255.0 L419.3,254.6 L418.6,253.8 L422.3,253.8 L427.8,258.3 L428.8,260.8 L427.8,261.5 L423.8,260.7 L421.2,261.1 L417.0,263.3 L413.8,263.7 L411.9,267.2 L409.5,268.7 L404.5,269.3 L402.4,271.9 L400.5,273.0 L393.0,271.3 L391.7,272.1 L390.3,275.6 L392.9,279.2 L388.4,281.6 L386.1,284.6 L381.9,286.5 L375.9,286.7 L369.5,287.8 L362.4,291.0 L361.6,291.9 L359.2,291.6 L359.2,290.5 L355.6,291.2 L352.6,290.0 L347.8,289.1 L345.9,287.4 L338.5,286.7 L336.0,287.5 L325.5,286.6 L321.6,287.0 L319.5,284.4 L316.9,278.5 L315.3,278.8 L310.2,276.6 L308.3,275.1 L299.7,274.8 L296.1,274.2 L295.0,272.5 L296.5,269.4 L296.6,266.3 L293.8,262.1 L293.1,260.1 L289.4,258.0 L287.1,258.3 L284.9,256.4 L281.9,254.9 L281.3,251.6 L282.8,249.9 L286.0,249.9 L289.7,248.1 L289.4,247.0 L295.6,243.6 L297.5,243.3 L301.5,240.9 L303.1,241.8 L310.4,242.2 L312.3,245.5 L316.4,246.1 L318.0,245.3 L323.0,245.9 L324.6,246.8 L328.2,244.6 L329.0,241.9 L326.7,239.0 L327.7,236.2 L330.6,233.8 L331.4,232.0 L336.6,234.3 L338.9,234.2 L343.0,235.7 L346.6,236.4 L347.5,241.1 L353.7,243.3 L361.2,241.0 L365.5,242.0 L367.4,241.7 L370.0,243.6 L373.3,243.8 L373.4,245.5 L376.2,247.4 L379.0,247.1 L386.3,248.1 L389.0,246.7 L396.8,245.1 L397.5,243.7 L402.3,240.8 L404.5,240.9 L407.4,242.9 L411.2,242.0 L413.4,243.1 L408.4,253.3 L410.0,255.7 L411.8,254.7 L414.6,254.6 L416.8,255.8 Z">
  <desc xmlns="http://www.highcharts.com/svg/namespace">
    <name>Mongolia</name>
    <labelrank>3</labelrank>
    <country-abbrev>Mong.</country-abbrev>
    <subregion>Eastern Asia</subregion>
    <region-wb>East Asia &amp; Pacific</region-wb>
    <iso-a3>MNG</iso-a3>
    <iso-a2>MN</iso-a2>
    <woe-id>23424887</woe-id>
    <continent>Asia</continent>
    <hc-middle-x>0.48</hc-middle-x>
    <hc-middle-y>0.51</hc-middle-y>
    <hc-key>mn</hc-key>
    <hc-a2>MN</hc-a2>
  </desc>
</path>

<path fill="#CEE3F5" stroke="#6E6E6E" stroke-width="0.4" id="KW" d="M101.1,368.8 L100.0,366.5 L95.8,366.2 L98.3,361.8 L99.4,361.1 L102.2,361.5 L102.6,362.4 L102.9,361.4 L102.9,361.3 L102.9,361.4 L104.0,362.4 L103.5,363.4 L102.7,362.5 L103.3,363.6 L101.2,364.7 L103.0,364.7 L104.6,368.6 Z">
  <desc xmlns="http://www.highcharts.com/svg/namespace">
    <name>Kuwait</name>
    <labelrank>6</labelrank>
    <country-abbrev>Kwt.</country-abbrev>
    <subregion>Western Asia</subregion>
    <region-wb>Middle East &amp; North Africa</region-wb>
    <iso-a3>KWT</iso-a3>
    <iso-a2>KW</iso-a2>
    <woe-id>23424870</woe-id>
    <continent>Asia</continent>
    <hc-middle-x>0.64</hc-middle-x>
    <hc-middle-y>0.48</hc-middle-y>
    <hc-key>kw</hc-key>
    <hc-a2>KW</hc-a2>
  </desc>
</path>

<path fill="#CEE3F5" stroke="#6E6E6E" stroke-width="0.4" id="IQ" d="M102.9,361.4 L102.2,361.5 L99.4,361.1 L98.3,361.8 L95.8,366.2 L87.4,366.0 L75.1,357.0 L67.1,352.9 L61.4,352.2 L61.0,350.3 L59.5,345.9 L68.1,340.7 L70.4,338.3 L71.0,333.7 L70.3,331.7 L71.1,329.2 L73.0,328.6 L75.3,326.0 L76.9,324.6 L80.4,325.1 L83.8,324.9 L84.2,326.3 L86.3,325.4 L87.4,328.6 L88.6,329.2 L89.2,331.4 L93.5,332.0 L92.1,333.8 L93.1,335.2 L91.9,335.9 L89.8,339.3 L89.7,341.8 L92.1,343.4 L94.0,346.8 L97.9,349.2 L99.0,349.2 L101.3,352.6 L100.7,356.5 L102.3,356.6 L102.4,359.1 L104.8,361.6 L103.3,361.3 L102.9,361.4 Z">
  <desc xmlns="http://www.highcharts.com/svg/namespace">
    <name>Iraq</name>
    <labelrank>3</labelrank>
    <country-abbrev>Iraq</country-abbrev>
    <subregion>Western Asia</subregion>
    <region-wb>Middle East &amp; North Africa</region-wb>
    <iso-a3>IRQ</iso-a3>
    <iso-a2>IQ</iso-a2>
    <woe-id>23424855</woe-id>
    <continent>Asia</continent>
    <hc-middle-x>0.53</hc-middle-x>
    <hc-middle-y>0.65</hc-middle-y>
    <hc-key>iq</hc-key>
    <hc-a2>IQ</hc-a2>
  </desc>
</path>

<path fill="#CEE3F5" stroke="#6E6E6E" stroke-width="0.4" id="AE" d="M140.1,379.6 L140.5,381.5 L141.1,381.7 L141.5,382.2 L141.7,384.8 L140.1,386.0 L139.0,385.5 L138.9,388.5 L140.1,389.2 L137.6,389.9 L138.0,390.8 L136.5,394.6 L136.6,396.0 L136.2,396.4 L124.6,395.3 L119.9,389.9 L119.7,389.1 L120.9,390.3 L124.4,389.4 L129.0,389.8 L131.5,389.2 L133.1,388.0 L134.0,385.9 L135.7,384.8 Z M141.2,383.6 L141.5,383.3 L140.9,383.2 L141.0,383.7 Z">
  <desc xmlns="http://www.highcharts.com/svg/namespace">
    <name>United Arab Emirates</name>
    <labelrank>4</labelrank>
    <country-abbrev>U.A.E.</country-abbrev>
    <subregion>Western Asia</subregion>
    <region-wb>Middle East &amp; North Africa</region-wb>
    <iso-a3>ARE</iso-a3>
    <iso-a2>AE</iso-a2>
    <woe-id>23424738</woe-id>
    <continent>Asia</continent>
    <hc-middle-x>0.80</hc-middle-x>
    <hc-middle-y>0.52</hc-middle-y>
    <hc-key>ae</hc-key>
    <hc-a2>AE</hc-a2>
  </desc>
</path>

<path fill="#CEE3F5" stroke="#6E6E6E" stroke-width="0.4" id="LA" d="M342.8,400.2 L343.2,398.4 L344.7,397.8 L345.5,395.4 L347.4,394.1 L348.0,395.9 L350.1,396.0 L350.1,392.8 L349.0,390.8 L349.6,389.8 L351.7,389.9 L355.8,393.7 L355.4,395.0 L356.5,397.1 L359.1,398.0 L360.8,396.5 L363.4,397.8 L362.3,398.9 L365.1,400.5 L363.1,402.9 L361.8,402.4 L360.1,404.4 L364.2,406.7 L366.0,407.0 L365.9,408.2 L367.7,409.4 L369.1,411.8 L372.8,414.9 L372.9,416.3 L376.5,419.1 L375.9,420.5 L378.3,422.6 L377.7,425.4 L375.2,427.2 L373.1,426.0 L370.7,427.2 L371.5,428.5 L370.5,429.3 L367.1,427.4 L368.1,427.0 L368.8,424.3 L368.2,423.9 L369.0,421.3 L367.8,419.6 L366.1,419.1 L364.8,417.3 L364.9,413.3 L362.4,411.1 L361.0,409.0 L358.2,408.5 L355.0,411.4 L352.2,409.8 L348.0,413.5 L346.9,412.9 L348.1,410.7 L347.4,409.0 L348.6,406.0 L348.2,403.5 L344.6,403.8 L344.9,400.9 Z">
  <desc xmlns="http://www.highcharts.com/svg/namespace">
    <name>Laos</name>
    <labelrank>4</labelrank>
    <country-abbrev>Laos</country-abbrev>
    <subregion>South-Eastern Asia</subregion>
    <region-wb>East Asia &amp; Pacific</region-wb>
    <iso-a3>LAO</iso-a3>
    <iso-a2>LA</iso-a2>
    <woe-id>23424872</woe-id>
    <continent>Asia</continent>
    <hc-middle-x>0.65</hc-middle-x>
    <hc-middle-y>0.59</hc-middle-y>
    <hc-key>la</hc-key>
    <hc-a2>LA</hc-a2>
  </desc>
</path>

<path fill="#CEE3F5" stroke="#6E6E6E" stroke-width="0.4" id="PK" d="M233.3,328.1 L234.6,330.8 L232.4,332.9 L228.9,334.2 L222.0,333.0 L219.7,335.2 L220.6,337.0 L222.1,337.2 L220.8,338.8 L221.0,341.3 L222.5,343.1 L224.2,342.9 L224.4,344.8 L227.4,345.7 L225.0,347.0 L223.5,348.6 L224.4,351.8 L222.9,352.7 L220.8,355.6 L221.3,356.4 L218.7,357.8 L216.7,362.3 L214.3,363.6 L212.1,367.8 L207.4,369.2 L205.1,367.7 L201.8,371.9 L201.3,373.8 L204.5,375.1 L204.2,377.8 L205.2,379.1 L206.9,379.0 L207.0,380.3 L209.0,383.9 L209.1,385.2 L207.7,386.1 L206.6,385.2 L204.1,386.6 L202.2,386.1 L198.4,386.2 L198.4,387.7 L195.9,388.4 L193.4,388.7 L192.1,387.5 L191.1,384.6 L188.9,383.9 L189.0,381.9 L187.6,380.2 L184.2,381.5 L178.9,382.1 L174.6,381.8 L174.3,382.6 L169.6,382.5 L166.1,383.7 L165.5,382.9 L166.5,377.8 L170.6,375.7 L172.4,375.7 L173.1,373.3 L170.7,372.8 L170.2,367.7 L166.3,366.5 L163.4,362.3 L161.3,360.1 L168.8,362.1 L173.8,361.5 L176.2,361.9 L178.0,361.0 L180.5,361.0 L185.8,359.4 L186.4,353.9 L189.0,351.8 L190.8,352.3 L192.7,351.6 L191.8,350.6 L194.5,349.1 L197.3,350.0 L199.7,348.3 L199.3,345.9 L200.6,342.5 L204.0,341.1 L202.5,337.5 L204.9,337.9 L207.4,337.2 L207.3,334.0 L209.8,331.2 L209.5,329.4 L207.5,326.9 L209.5,324.7 L213.8,322.6 L218.7,322.1 L220.8,322.3 L222.8,321.3 L226.5,321.7 L229.5,324.0 L229.1,325.9 L230.4,327.4 L232.1,326.8 Z">
  <desc xmlns="http://www.highcharts.com/svg/namespace">
    <name>Pakistan</name>
    <labelrank>2</labelrank>
    <country-abbrev>Pak.</country-abbrev>
    <subregion>Southern Asia</subregion>
    <region-wb>South Asia</region-wb>
    <iso-a3>PAK</iso-a3>
    <iso-a2>PK</iso-a2>
    <woe-id>23424922</woe-id>
    <continent>Asia</continent>
    <hc-middle-x>0.53</hc-middle-x>
    <hc-middle-y>0.59</hc-middle-y>
    <hc-key>pk</hc-key>
    <hc-a2>PK</hc-a2>
  </desc>
</path>

<path fill="#CEE3F5" stroke="#6E6E6E" stroke-width="0.4" id="JK" d="M234.6,330.8 L233.3,328.1 L236.2,328.9 L238.0,328.7 Z">
  <desc xmlns="http://www.highcharts.com/svg/namespace">
    <name>Siachen Glacier</name>
    <labelrank>5</labelrank>
    <country-abbrev>Siachen</country-abbrev>
    <subregion>Southern Asia</subregion>
    <region-wb>South Asia</region-wb>
    <iso-a3>-99</iso-a3>
    <iso-a2>JK</iso-a2>
    <woe-id>23424928</woe-id>
    <continent>Asia</continent>
    <hc-middle-x>0.24</hc-middle-x>
    <hc-middle-y>0.39</hc-middle-y>
    <hc-key>jk</hc-key>
    <hc-a2>JK</hc-a2>
  </desc>
</path>

<path fill="#CEE3F5" stroke="#6E6E6E" stroke-width="0.4" id="QA" d="M116.2,386.8 L115.8,383.2 L117.0,380.4 L118.0,379.9 L119.5,381.2 L119.1,383.0 L119.7,385.7 L118.1,387.4 L117.0,387.7 Z">
  <desc xmlns="http://www.highcharts.com/svg/namespace">
    <name>Qatar</name>
    <labelrank>5</labelrank>
    <country-abbrev>Qatar</country-abbrev>
    <subregion>Western Asia</subregion>
    <region-wb>Middle East &amp; North Africa</region-wb>
    <iso-a3>QAT</iso-a3>
    <iso-a2>QA</iso-a2>
    <woe-id>23424930</woe-id>
    <continent>Asia</continent>
    <hc-middle-x>0.50</hc-middle-x>
    <hc-middle-y>0.50</hc-middle-y>
    <hc-key>qa</hc-key>
    <hc-a2>QA</hc-a2>
  </desc>
</path>

<path fill="#CEE3F5" stroke="#6E6E6E" stroke-width="0.4" id="TR" d="M85.9,311.8 L86.0,312.1 L86.0,312.1 L84.9,311.5 L84.2,313.3 L82.6,313.5 L83.7,316.5 L83.6,321.1 L85.4,322.4 L86.3,325.4 L84.2,326.3 L83.8,324.9 L80.4,325.1 L76.9,324.6 L75.3,326.0 L74.6,324.8 L71.2,326.3 L67.7,326.3 L63.5,328.3 L58.4,328.6 L56.2,327.7 L52.8,329.2 L49.2,328.3 L49.3,331.5 L48.0,331.5 L47.0,333.7 L45.9,333.2 L45.3,331.1 L47.1,329.6 L46.3,327.9 L43.2,330.0 L40.5,328.7 L39.6,329.0 L35.7,332.4 L31.7,333.2 L29.6,332.4 L28.0,330.6 L24.8,329.3 L21.8,329.0 L20.6,332.4 L17.3,333.2 L14.9,332.1 L13.8,330.0 L10.8,329.6 L10.9,328.5 L6.1,329.1 L7.7,327.4 L5.8,327.1 L5.8,323.7 L1.2,322.4 L4.3,321.4 L3.3,319.9 L4.7,318.7 L2.7,317.0 L3.9,315.3 L0.2,316.0 L0.7,313.1 L3.1,310.9 L14.1,310.3 L13.3,309.2 L15.0,308.5 L13.5,307.4 L14.3,306.0 L19.1,305.9 L23.5,306.4 L24.3,305.2 L28.1,302.8 L32.9,301.0 L39.2,301.2 L40.4,300.3 L43.1,302.8 L45.1,302.2 L47.4,304.8 L48.2,304.0 L52.6,305.7 L56.1,306.3 L61.1,305.0 L64.3,305.9 L70.0,303.2 L70.6,302.5 L74.8,302.8 L76.5,302.0 L79.5,304.4 L80.9,306.7 L80.7,309.8 L84.4,310.4 Z M1.9,302.6 L5.2,301.6 L6.5,302.6 L8.6,302.1 L9.0,303.9 L13.8,306.0 L13.2,307.3 L9.8,307.0 L6.6,307.6 L5.0,309.6 L2.8,310.6 L0.5,312.9 L0.7,311.4 L3.4,309.8 L0.0,309.9 L1.2,307.9 L1.0,306.3 L2.4,305.6 L1.0,303.8 Z">
  <desc xmlns="http://www.highcharts.com/svg/namespace">
    <name>Turkey</name>
    <labelrank>2</labelrank>
    <country-abbrev>Tur.</country-abbrev>
    <subregion>Western Asia</subregion>
    <region-wb>Europe &amp; Central Asia</region-wb>
    <iso-a3>TUR</iso-a3>
    <iso-a2>TR</iso-a2>
    <woe-id>23424969</woe-id>
    <continent>Asia</continent>
    <hc-middle-x>0.38</hc-middle-x>
    <hc-middle-y>0.49</hc-middle-y>
    <hc-key>tr</hc-key>
    <hc-a2>TR</hc-a2>
  </desc>
</path>

<path fill="#CEE3F5" stroke="#6E6E6E" stroke-width="0.4" id="BN" d="M409.0,470.8 L411.5,470.3 L413.5,469.3 L412.5,470.0 L413.0,471.5 L411.8,473.3 Z M414.3,469.2 L415.3,471.8 L414.2,471.6 L413.7,469.6 L414.2,469.5 Z">
  <desc xmlns="http://www.highcharts.com/svg/namespace">
    <name>Brunei</name>
    <labelrank>6</labelrank>
    <country-abbrev>Brunei</country-abbrev>
    <subregion>South-Eastern Asia</subregion>
    <region-wb>East Asia &amp; Pacific</region-wb>
    <iso-a3>BRN</iso-a3>
    <iso-a2>BN</iso-a2>
    <woe-id>23424773</woe-id>
    <continent>Asia</continent>
    <hc-middle-x>0.44</hc-middle-x>
    <hc-middle-y>0.33</hc-middle-y>
    <hc-key>bn</hc-key>
    <hc-a2>BN</hc-a2>
  </desc>
</path>

<path fill="#CEE3F5" stroke="#6E6E6E" stroke-width="0.4" id="AF" d="M224.3,320.1 L222.0,320.7 L222.8,321.3 L220.8,322.3 L218.7,322.1 L213.8,322.6 L209.5,324.7 L207.5,326.9 L209.5,329.4 L209.8,331.2 L207.3,334.0 L207.4,337.2 L204.9,337.9 L202.5,337.5 L204.0,341.1 L200.6,342.5 L199.3,345.9 L199.7,348.3 L197.3,350.0 L194.5,349.1 L191.8,350.6 L192.7,351.6 L190.8,352.3 L189.0,351.8 L186.4,353.9 L185.8,359.4 L180.5,361.0 L178.0,361.0 L176.2,361.9 L173.8,361.5 L168.8,362.1 L161.3,360.1 L165.4,355.1 L164.8,352.3 L160.9,351.9 L160.8,348.1 L159.4,343.5 L160.8,341.5 L159.1,341.1 L158.9,338.7 L160.7,337.5 L159.8,336.5 L161.4,334.9 L162.2,330.7 L165.7,331.6 L167.0,333.0 L170.5,331.4 L171.7,329.2 L176.6,326.9 L178.0,323.3 L179.3,321.7 L181.3,321.6 L182.4,319.7 L185.9,320.7 L188.2,320.6 L189.3,321.5 L191.8,321.5 L192.9,322.8 L197.2,320.5 L198.5,321.7 L199.7,319.1 L202.6,319.2 L202.6,317.1 L205.2,314.4 L207.8,315.1 L207.6,317.0 L209.1,317.1 L208.5,321.5 L209.4,323.4 L214.1,321.5 L216.9,319.2 L219.1,319.3 L218.5,320.3 L223.2,319.3 Z">
  <desc xmlns="http://www.highcharts.com/svg/namespace">
    <name>Afghanistan</name>
    <labelrank>3</labelrank>
    <country-abbrev>Afg.</country-abbrev>
    <subregion>Southern Asia</subregion>
    <region-wb>South Asia</region-wb>
    <iso-a3>AFG</iso-a3>
    <iso-a2>AF</iso-a2>
    <woe-id>23424739</woe-id>
    <continent>Asia</continent>
    <hc-middle-x>0.35</hc-middle-x>
    <hc-middle-y>0.55</hc-middle-y>
    <hc-key>af</hc-key>
    <hc-a2>AF</hc-a2>
  </desc>
</path>

<path fill="#CEE3F5" stroke="#6E6E6E" stroke-width="0.4" id="KP" d="M467.7,305.9 L463.7,306.1 L461.5,308.7 L459.1,308.8 L456.6,307.8 L456.7,309.2 L452.3,307.5 L455.6,301.0 L454.9,299.9 L450.4,297.9 L450.6,296.9 L452.9,294.8 L457.9,292.3 L460.6,288.0 L462.0,287.3 L463.6,288.8 L467.6,289.4 L468.3,288.2 L467.0,286.0 L471.0,285.7 L472.9,283.3 L474.6,283.3 L475.1,280.4 L476.4,280.2 L478.3,282.7 L478.9,283.5 L479.1,283.9 L477.8,283.8 L474.5,288.2 L475.2,289.1 L474.9,292.1 L472.7,292.9 L470.2,295.7 L465.1,298.3 L464.9,301.4 L466.3,301.7 L469.1,304.2 Z">
  <desc xmlns="http://www.highcharts.com/svg/namespace">
    <name>North Korea</name>
    <labelrank>3</labelrank>
    <country-abbrev>N.K.</country-abbrev>
    <subregion>Eastern Asia</subregion>
    <region-wb>East Asia &amp; Pacific</region-wb>
    <iso-a3>PRK</iso-a3>
    <iso-a2>KP</iso-a2>
    <woe-id>23424865</woe-id>
    <continent>Asia</continent>
    <hc-middle-x>0.40</hc-middle-x>
    <hc-middle-y>0.64</hc-middle-y>
    <hc-key>kp</hc-key>
    <hc-a2>KP</hc-a2>
  </desc>
</path>

<path fill="#CEE3F5" stroke="#6E6E6E" stroke-width="0.4" id="LB" d="M42.8,347.9 L44.8,343.6 L46.4,339.8 L48.4,339.9 L49.4,342.0 L46.4,345.0 L46.0,346.2 L44.5,347.9 Z">
  <desc xmlns="http://www.highcharts.com/svg/namespace">
    <name>Lebanon</name>
    <labelrank>5</labelrank>
    <country-abbrev>Leb.</country-abbrev>
    <subregion>Western Asia</subregion>
    <region-wb>Middle East &amp; North Africa</region-wb>
    <iso-a3>LBN</iso-a3>
    <iso-a2>LB</iso-a2>
    <woe-id>23424873</woe-id>
    <continent>Asia</continent>
    <hc-middle-x>0.54</hc-middle-x>
    <hc-middle-y>0.55</hc-middle-y>
    <hc-key>lb</hc-key>
    <hc-a2>LB</hc-a2>
  </desc>
</path>

<path fill="#CEE3F5" stroke="#6E6E6E" stroke-width="0.4" id="NC" d="M30.9,337.6 L31.0,337.6 L31.1,337.5 L31.0,337.7 Z M36.9,337.9 L36.3,338.2 L35.9,338.2 L34.6,337.4 L31.4,337.6 L32.3,336.4 L34.7,336.7 L39.9,334.9 L36.9,336.9 L37.4,338.0 L37.2,337.9 Z">
  <desc xmlns="http://www.highcharts.com/svg/namespace">
    <name>Northern Cyprus</name>
    <labelrank>6</labelrank>
    <country-abbrev>N. Cy.</country-abbrev>
    <subregion>Western Asia</subregion>
    <region-wb>Europe &amp; Central Asia</region-wb>
    <iso-a3>-99</iso-a3>
    <iso-a2>NC</iso-a2>
    <woe-id>-90</woe-id>
    <continent>Asia</continent>
    <hc-middle-x>0.54</hc-middle-x>
    <hc-middle-y>0.64</hc-middle-y>
    <hc-key>nc</hc-key>
    <hc-a2>NC</hc-a2>
  </desc>
</path>

<path fill="#CEE3F5" stroke="#6E6E6E" stroke-width="0.4" id="CY" d="M37.4,338.0 L36.9,338.5 L36.9,338.0 L37.0,338.0 Z M30.8,337.6 L31.0,337.7 L31.2,337.5 L31.3,337.6 L31.9,338.2 L34.6,337.6 L36.0,338.4 L33.9,340.0 L30.1,339.8 L29.5,338.1 Z">
  <desc xmlns="http://www.highcharts.com/svg/namespace">
    <name>Cyprus</name>
    <labelrank>5</labelrank>
    <country-abbrev>Cyp.</country-abbrev>
    <subregion>Western Asia</subregion>
    <region-wb>Europe &amp; Central Asia</region-wb>
    <iso-a3>CYP</iso-a3>
    <iso-a2>CY</iso-a2>
    <woe-id>-90</woe-id>
    <continent>Asia</continent>
    <hc-middle-x>0.41</hc-middle-x>
    <hc-middle-y>0.49</hc-middle-y>
    <hc-key>cy</hc-key>
    <hc-a2>CY</hc-a2>
  </desc>
</path>

<path fill="#CEE3F5" stroke="#6E6E6E" stroke-width="0.4" id="TW" d="M440.5,373.0 L442.4,374.2 L441.5,375.2 L439.9,383.3 L438.0,386.3 L437.6,389.3 L435.2,386.4 L433.8,383.5 L433.9,381.8 L436.5,376.3 L438.1,374.1 Z">
  <desc xmlns="http://www.highcharts.com/svg/namespace">
    <name>Taiwan</name>
    <labelrank>3</labelrank>
    <country-abbrev>Taiwan</country-abbrev>
    <subregion>Eastern Asia</subregion>
    <region-wb>East Asia &amp; Pacific</region-wb>
    <iso-a3>TWN</iso-a3>
    <iso-a2>TW</iso-a2>
    <woe-id>23424971</woe-id>
    <continent>Asia</continent>
    <hc-middle-x>0.24</hc-middle-x>
    <hc-middle-y>0.76</hc-middle-y>
    <hc-key>tw</hc-key>
    <hc-a2>TW</hc-a2>
  </desc>
</path>

<path fill="#CEE3F5" stroke="#6E6E6E" stroke-width="0.4" id="NP" d="M286.6,365.6 L286.1,369.4 L287.0,371.1 L286.7,372.6 L283.2,373.2 L281.9,372.1 L280.4,373.0 L278.4,372.1 L276.3,372.3 L275.2,371.0 L273.8,371.6 L270.8,370.3 L270.5,368.8 L262.1,368.3 L258.8,366.4 L255.4,365.4 L254.6,364.2 L249.4,362.1 L251.3,357.2 L253.6,355.2 L254.1,356.1 L255.3,354.2 L258.6,354.3 L258.9,355.6 L262.1,357.6 L263.6,357.7 L265.3,359.8 L268.0,359.4 L268.6,361.1 L270.7,362.5 L273.0,362.5 L272.6,363.9 L275.4,363.7 L276.8,365.9 L279.4,364.8 L282.2,366.0 Z">
  <desc xmlns="http://www.highcharts.com/svg/namespace">
    <name>Nepal</name>
    <labelrank>3</labelrank>
    <country-abbrev>Nepal</country-abbrev>
    <subregion>Southern Asia</subregion>
    <region-wb>South Asia</region-wb>
    <iso-a3>NPL</iso-a3>
    <iso-a2>NP</iso-a2>
    <woe-id>23424911</woe-id>
    <continent>Asia</continent>
    <hc-middle-x>0.40</hc-middle-x>
    <hc-middle-y>0.46</hc-middle-y>
    <hc-key>np</hc-key>
    <hc-a2>NP</hc-a2>
  </desc>
</path>

<path fill="#CEE3F5" stroke="#6E6E6E" stroke-width="0.4" id="LK" d="M253.0,452.3 L255.9,454.3 L258.9,458.3 L259.3,459.9 L261.0,462.2 L261.5,464.9 L260.6,467.5 L259.2,468.6 L255.7,470.1 L253.8,469.6 L252.3,466.2 L251.5,460.7 L253.3,453.4 L251.9,452.7 Z">
  <desc xmlns="http://www.highcharts.com/svg/namespace">
    <name>Sri Lanka</name>
    <labelrank>3</labelrank>
    <country-abbrev>Sri L.</country-abbrev>
    <subregion>Southern Asia</subregion>
    <region-wb>South Asia</region-wb>
    <iso-a3>LKA</iso-a3>
    <iso-a2>LK</iso-a2>
    <woe-id>23424778</woe-id>
    <continent>Asia</continent>
    <hc-middle-x>0.46</hc-middle-x>
    <hc-middle-y>0.48</hc-middle-y>
    <hc-key>lk</hc-key>
    <hc-a2>LK</hc-a2>
  </desc>
</path>

<path fill="#CEE3F5" stroke="#6E6E6E" stroke-width="0.4" id="KG" d="M205.3,293.8 L205.5,292.0 L207.3,290.7 L209.3,290.4 L217.0,292.4 L216.5,291.5 L217.5,288.8 L219.9,287.6 L224.6,289.8 L227.3,289.2 L239.8,289.1 L242.8,289.5 L244.1,291.2 L246.4,291.4 L247.8,292.6 L247.7,293.5 L243.7,294.9 L239.5,297.3 L238.2,299.2 L232.2,300.0 L231.6,301.7 L227.4,303.7 L226.9,301.9 L225.1,302.9 L223.5,302.6 L221.4,304.9 L219.7,305.2 L219.5,307.7 L218.2,308.5 L215.9,309.1 L210.9,309.2 L209.5,309.7 L208.2,308.0 L204.7,309.2 L202.4,308.7 L198.3,308.9 L198.3,306.3 L201.2,305.0 L203.8,305.9 L205.8,304.7 L207.0,304.2 L209.0,305.1 L212.1,302.5 L213.2,303.0 L215.5,301.4 L211.1,300.4 L209.2,298.0 L206.6,300.0 L201.9,297.6 L206.7,294.0 Z M204.3,306.9 L203.6,306.8 L204.1,307.3 L204.7,307.0 Z M209.5,306.4 L209.6,306.0 L209.5,306.0 L209.1,306.2 Z M206.8,305.7 L205.9,305.2 L206.2,306.2 L207.0,306.6 Z">
  <desc xmlns="http://www.highcharts.com/svg/namespace">
    <name>Kyrgyzstan</name>
    <labelrank>4</labelrank>
    <country-abbrev>Kgz.</country-abbrev>
    <subregion>Central Asia</subregion>
    <region-wb>Europe &amp; Central Asia</region-wb>
    <iso-a3>KGZ</iso-a3>
    <iso-a2>KG</iso-a2>
    <woe-id>23424864</woe-id>
    <continent>Asia</continent>
    <hc-middle-x>0.58</hc-middle-x>
    <hc-middle-y>0.38</hc-middle-y>
    <hc-key>kg</hc-key>
    <hc-a2>KG</hc-a2>
  </desc>
</path>
</g>

</svg>