<svg version="1.1" height="700pt" width="700pt" xmlns="http://www.w3.org/2000/svg" xmlns:xlink="http://www.w3.org/1999/xlink">
<desc>
Map version: 1.1.2
Copyright (c) 2015 Highsoft AS, Based on data from Natural Earth
</desc>
<title>Africa</title>
<g id="admin0">

<path fill="#CEE3F5" stroke="#6E6E6E" stroke-width="0.4" id="UG" d="M489.1,343.2 L488.2,343.5 L487.4,342.8 L488.5,342.7 Z M496.1,338.9 L496.5,337.7 L497.6,337.7 L497.3,339.5 Z M484.6,348.5 L484.6,348.4 L484.7,348.5 Z M466.2,344.1 L468.4,341.3 L466.6,340.9 L468.7,335.9 L468.7,333.5 L473.3,329.8 L474.1,331.5 L477.2,327.4 L481.0,324.5 L480.0,322.0 L475.3,319.5 L476.5,315.9 L475.6,314.7 L476.4,310.9 L478.9,308.4 L482.0,309.5 L484.3,308.2 L487.7,310.7 L489.3,308.9 L494.8,307.7 L499.1,308.6 L502.9,304.9 L504.5,308.6 L506.8,309.5 L506.3,311.8 L507.9,315.6 L510.8,319.5 L511.2,326.2 L509.7,329.9 L507.2,331.0 L502.9,338.2 L499.3,338.7 L496.8,337.0 L494.6,339.2 L491.1,339.0 L485.4,341.3 L486.2,342.7 L483.5,346.8 L484.2,348.5 L476.2,348.5 L473.2,349.0 L468.4,352.4 L465.7,351.7 L465.5,347.8 Z">
  <desc xmlns="http://www.highcharts.com/svg/namespace">
    <name>Uganda</name>
    <labelrank>3</labelrank>
    <country-abbrev>Uga.</country-abbrev>
    <subregion>Eastern Africa</subregion>
    <region-wb>Sub-Saharan Africa</region-wb>
    <iso-a3>UGA</iso-a3>
    <iso-a2>UG</iso-a2>
    <woe-id>23424974</woe-id>
    <continent>Africa</continent>
    <hc-middle-x>0.59</hc-middle-x>
    <hc-middle-y>0.45</hc-middle-y>
    <hc-key>ug</hc-key>
    <hc-a2>UG</hc-a2>
  </desc>
</path>

<path fill="#CEE3F5" stroke="#6E6E6E" stroke-width="0.4" id="NG" d="M278.2,303.1 L280.0,303.3 L276.4,303.8 L277.1,302.9 Z M238.8,287.6 L238.8,287.6 L239.4,282.0 L238.4,274.7 L239.1,264.8 L241.8,264.2 L242.1,261.6 L245.4,258.0 L245.8,254.2 L248.0,251.5 L247.0,247.2 L245.0,244.8 L245.9,242.2 L246.2,235.0 L250.0,230.9 L250.2,226.8 L253.4,224.8 L259.9,224.3 L262.3,223.2 L269.2,225.3 L273.8,230.6 L277.9,229.7 L281.0,227.8 L283.7,227.9 L288.9,231.2 L297.0,232.0 L299.4,229.2 L305.7,227.2 L312.2,227.2 L317.5,229.3 L321.0,229.8 L321.7,228.2 L328.5,224.1 L330.6,224.2 L334.5,229.6 L335.5,235.6 L339.6,237.4 L339.0,243.2 L335.4,245.4 L333.9,245.1 L330.4,250.2 L329.3,254.7 L327.7,255.4 L327.3,260.0 L324.5,261.3 L324.0,266.0 L319.1,269.8 L318.9,273.3 L315.1,279.4 L316.3,280.7 L313.6,282.7 L311.6,286.4 L305.5,281.2 L304.6,282.7 L301.4,281.7 L290.8,291.5 L290.4,297.3 L288.7,300.2 L288.7,300.2 L285.6,299.2 L286.0,302.5 L281.3,302.8 L277.9,302.0 L275.4,303.8 L268.4,304.9 L263.4,301.9 L261.2,296.0 L257.3,290.5 L253.2,287.5 L248.7,286.9 Z">
  <desc xmlns="http://www.highcharts.com/svg/namespace">
    <name>Nigeria</name>
    <labelrank>2</labelrank>
    <country-abbrev>Nigeria</country-abbrev>
    <subregion>Western Africa</subregion>
    <region-wb>Sub-Saharan Africa</region-wb>
    <iso-a3>NGA</iso-a3>
    <iso-a2>NG</iso-a2>
    <woe-id>23424908</woe-id>
    <continent>Africa</continent>
    <hc-middle-x>0.50</hc-middle-x>
    <hc-middle-y>0.45</hc-middle-y>
    <hc-key>ng</hc-key>
    <hc-a2>NG</hc-a2>
  </desc>
</path>

<path fill="#CEE3F5" stroke="#6E6E6E" stroke-width="0.4" id="ST" d="M272.3,340.1 L271.0,338.9 L272.5,337.3 L273.5,338.3 Z">
  <desc xmlns="http://www.highcharts.com/svg/namespace">
    <name>Sao Tome and Principe</name>
    <labelrank>6</labelrank>
    <country-abbrev>S.T.P.</country-abbrev>
    <subregion>Middle Africa</subregion>
    <region-wb>Sub-Saharan Africa</region-wb>
    <iso-a3>STP</iso-a3>
    <iso-a2>ST</iso-a2>
    <woe-id>23424966</woe-id>
    <continent>Africa</continent>
    <hc-middle-x>0.55</hc-middle-x>
    <hc-middle-y>0.50</hc-middle-y>
    <hc-key>st</hc-key>
    <hc-a2>ST</hc-a2>
  </desc>
</path>

<path fill="#CEE3F5" stroke="#6E6E6E" stroke-width="0.4" id="TZ" d="M550.8,407.5 L549.8,407.0 L550.6,405.9 L552.1,405.4 Z M546.6,389.5 L547.4,388.3 L548.9,394.6 L546.2,392.0 Z M550.2,386.1 L550.5,381.4 L551.6,382.1 L551.9,384.4 Z M493.9,356.4 L495.3,356.6 L495.9,358.3 L493.2,357.3 Z M510.6,437.5 L510.6,436.8 L510.2,436.2 L510.0,436.0 L510.0,436.0 L509.2,435.4 L508.7,434.9 L508.6,434.8 L508.6,434.6 L506.6,423.7 L505.0,421.7 L504.2,420.8 L504.2,420.8 L503.9,420.7 L503.3,420.1 L503.3,420.0 L503.2,420.0 L502.1,420.3 L501.8,421.7 L497.6,420.7 L493.5,419.1 L489.0,416.7 L485.7,416.2 L482.0,413.1 L478.9,412.1 L474.0,403.0 L473.8,398.4 L470.1,394.1 L466.7,392.4 L468.7,389.6 L467.0,385.5 L467.6,382.9 L465.7,381.1 L466.2,377.3 L469.2,375.8 L473.1,369.5 L475.9,367.5 L476.1,365.0 L472.7,364.0 L473.9,360.2 L476.2,359.7 L476.2,353.5 L473.2,349.0 L476.2,348.5 L484.2,348.5 L484.2,349.0 L484.6,348.5 L484.7,348.5 L485.0,349.8 L482.8,357.2 L485.3,360.4 L484.6,362.7 L487.9,359.0 L489.1,360.5 L496.3,361.3 L501.5,358.8 L499.3,356.8 L499.9,352.6 L503.5,349.0 L533.5,365.8 L533.1,369.8 L546.4,379.6 L545.9,383.1 L542.8,390.9 L543.4,393.6 L548.6,397.9 L549.2,400.1 L546.9,404.1 L548.4,407.6 L546.9,410.1 L547.5,413.5 L549.9,417.5 L551.3,423.1 L550.5,424.0 L556.6,427.3 L556.5,428.4 L552.9,431.3 L546.8,434.1 L543.5,434.2 L540.2,436.3 L538.2,435.1 L535.0,435.4 L534.2,437.5 L531.2,438.9 L526.1,437.6 L524.0,438.9 L520.9,438.6 L517.8,436.2 L515.7,437.8 Z">
  <desc xmlns="http://www.highcharts.com/svg/namespace">
    <name>United Republic of Tanzania</name>
    <labelrank>3</labelrank>
    <country-abbrev>Tanz.</country-abbrev>
    <subregion>Eastern Africa</subregion>
    <region-wb>Sub-Saharan Africa</region-wb>
    <iso-a3>TZA</iso-a3>
    <iso-a2>TZ</iso-a2>
    <woe-id>23424973</woe-id>
    <continent>Africa</continent>
    <hc-middle-x>0.47</hc-middle-x>
    <hc-middle-y>0.49</hc-middle-y>
    <hc-key>tz</hc-key>
    <hc-a2>TZ</hc-a2>
  </desc>
</path>

<path fill="#CEE3F5" stroke="#6E6E6E" stroke-width="0.4" id="SL" d="M109.4,278.9 L110.1,280.6 L109.4,280.0 L106.4,279.3 Z M128.8,271.1 L128.2,274.0 L126.1,275.2 L126.1,277.3 L119.8,282.7 L119.0,284.6 L115.9,282.7 L110.2,280.7 L111.1,279.4 L106.3,276.4 L106.1,273.5 L104.6,274.2 L103.2,266.9 L105.5,266.3 L108.3,263.5 L109.8,259.8 L114.9,258.5 L120.3,258.4 L125.4,264.2 L127.1,269.6 L125.1,272.6 Z">
  <desc xmlns="http://www.highcharts.com/svg/namespace">
    <name>Sierra Leone</name>
    <labelrank>4</labelrank>
    <country-abbrev>S.L.</country-abbrev>
    <subregion>Western Africa</subregion>
    <region-wb>Sub-Saharan Africa</region-wb>
    <iso-a3>SLE</iso-a3>
    <iso-a2>SL</iso-a2>
    <woe-id>23424946</woe-id>
    <continent>Africa</continent>
    <hc-middle-x>0.33</hc-middle-x>
    <hc-middle-y>0.62</hc-middle-y>
    <hc-key>sl</hc-key>
    <hc-a2>SL</hc-a2>
  </desc>
</path>

<path fill="#CEE3F5" stroke="#6E6E6E" stroke-width="0.4" id="GW" d="M78.6,248.7 L80.7,249.0 L81.1,249.9 L78.3,250.1 Z M88.4,250.7 L85.1,248.8 L84.5,246.2 L87.9,245.3 L86.5,244.0 L82.9,246.2 L85.4,242.2 L80.3,244.2 L73.7,239.2 L77.9,238.1 L82.6,238.1 L86.6,236.0 L99.1,235.8 L99.3,239.3 L97.1,240.4 L99.2,241.6 L99.2,244.1 L94.6,244.6 L91.1,246.0 Z">
  <desc xmlns="http://www.highcharts.com/svg/namespace">
    <name>Guinea Bissau</name>
    <labelrank>6</labelrank>
    <country-abbrev>GnB.</country-abbrev>
    <subregion>Western Africa</subregion>
    <region-wb>Sub-Saharan Africa</region-wb>
    <iso-a3>GNB</iso-a3>
    <iso-a2>GW</iso-a2>
    <woe-id>23424929</woe-id>
    <continent>Africa</continent>
    <hc-middle-x>0.55</hc-middle-x>
    <hc-middle-y>0.50</hc-middle-y>
    <hc-key>gw</hc-key>
    <hc-a2>GW</hc-a2>
  </desc>
</path>

<path fill="#CEE3F5" stroke="#6E6E6E" stroke-width="0.4" id="CV" d="M8.8,219.0 L7.2,218.2 L8.2,217.2 L9.1,218.1 Z M13.7,214.6 L16.3,217.2 L15.9,218.0 L13.5,217.1 Z M18.5,214.5 L19.1,215.8 L18.5,216.2 L17.9,215.8 Z M21.1,206.6 L22.5,206.9 L21.5,208.6 L20.3,208.3 Z M8.8,203.1 L9.3,203.4 L8.5,204.5 L7.7,202.9 Z M1.9,198.4 L2.9,199.1 L0.2,200.9 L0.0,199.2 Z">
  <desc xmlns="http://www.highcharts.com/svg/namespace">
    <name>Cape Verde</name>
    <labelrank>4</labelrank>
    <country-abbrev>C.Vd.</country-abbrev>
    <subregion>Western Africa</subregion>
    <region-wb>Sub-Saharan Africa</region-wb>
    <iso-a3>CPV</iso-a3>
    <iso-a2>CV</iso-a2>
    <woe-id>23424794</woe-id>
    <continent>Africa</continent>
    <hc-middle-x>0.64</hc-middle-x>
    <hc-middle-y>0.89</hc-middle-y>
    <hc-key>cv</hc-key>
    <hc-a2>CV</hc-a2>
  </desc>
</path>

<path fill="#CEE3F5" stroke="#6E6E6E" stroke-width="0.4" id="SC" d="M683.1,380.6 L683.7,381.0 L683.4,382.0 L683.0,381.0 Z">
  <desc xmlns="http://www.highcharts.com/svg/namespace">
    <name>Seychelles</name>
    <labelrank>6</labelrank>
    <country-abbrev>Syc.</country-abbrev>
    <subregion>Eastern Africa</subregion>
    <region-wb>Sub-Saharan Africa</region-wb>
    <iso-a3>SYC</iso-a3>
    <iso-a2>SC</iso-a2>
    <woe-id>23424941</woe-id>
    <continent>Seven seas (open ocean)</continent>
    <hc-middle-x>0.63</hc-middle-x>
    <hc-middle-y>0.45</hc-middle-y>
    <hc-key>sc</hc-key>
    <hc-a2>SC</hc-a2>
  </desc>
</path>

<path fill="#CEE3F5" stroke="#6E6E6E" stroke-width="0.4" id="TN" d="M306.6,36.0 L307.8,37.0 L306.3,38.4 L305.0,36.1 Z M311.6,43.3 L311.2,48.8 L312.2,50.5 L306.3,53.9 L299.8,61.2 L301.2,66.1 L297.8,71.7 L294.8,72.9 L290.6,54.6 L284.4,49.7 L282.4,44.4 L279.5,43.2 L277.1,36.2 L280.1,30.8 L283.5,28.4 L284.2,17.9 L283.5,16.1 L284.8,7.4 L286.5,4.3 L291.7,1.1 L297.2,0.0 L300.8,1.6 L299.9,2.7 L302.2,6.4 L307.5,2.6 L308.2,4.8 L305.3,9.3 L302.9,10.5 L303.8,15.6 L307.6,18.1 L308.5,22.1 L303.7,29.3 L299.7,31.6 L299.1,35.1 L301.5,38.0 L304.8,37.9 L304.8,40.2 L307.1,38.6 L308.8,43.0 L311.6,43.3 L311.6,43.3 Z">
  <desc xmlns="http://www.highcharts.com/svg/namespace">
    <name>Tunisia</name>
    <labelrank>3</labelrank>
    <country-abbrev>Tun.</country-abbrev>
    <subregion>Northern Africa</subregion>
    <region-wb>Middle East &amp; North Africa</region-wb>
    <iso-a3>TUN</iso-a3>
    <iso-a2>TN</iso-a2>
    <woe-id>23424967</woe-id>
    <continent>Africa</continent>
    <hc-middle-x>0.50</hc-middle-x>
    <hc-middle-y>0.59</hc-middle-y>
    <hc-key>tn</hc-key>
    <hc-a2>TN</hc-a2>
  </desc>
</path>

<path fill="#CEE3F5" stroke="#6E6E6E" stroke-width="0.4" id="MG" d="M622.3,452.6 L622.4,454.0 L621.3,453.8 L621.3,452.6 Z M597.6,561.0 L594.6,561.1 L592.1,558.9 L588.3,558.0 L585.5,555.6 L582.8,550.2 L582.4,543.3 L583.3,541.6 L580.0,535.9 L579.0,530.6 L581.4,522.4 L584.0,521.6 L584.7,518.6 L589.6,510.1 L589.7,506.6 L587.6,502.5 L587.9,500.3 L586.2,497.0 L585.3,488.5 L589.5,482.0 L589.7,477.5 L593.1,477.9 L596.5,475.3 L599.4,475.9 L600.1,474.2 L604.5,473.5 L610.8,469.2 L610.7,472.0 L613.0,471.3 L611.6,469.4 L615.0,464.6 L615.1,468.2 L617.4,464.1 L617.1,462.2 L619.9,459.7 L618.5,457.2 L619.3,454.9 L622.3,457.2 L623.2,455.0 L625.9,454.0 L627.7,448.9 L627.1,446.8 L630.3,441.6 L632.8,447.3 L635.9,450.9 L637.5,457.4 L638.2,465.6 L640.2,471.7 L638.0,476.2 L636.4,475.2 L635.3,471.4 L633.1,472.4 L634.8,481.2 L631.2,487.5 L631.8,490.8 L630.5,497.4 L628.1,503.0 L623.6,516.3 L620.5,527.1 L617.5,535.6 L615.0,545.5 L611.2,555.3 L607.3,557.5 L603.8,557.6 Z">
  <desc xmlns="http://www.highcharts.com/svg/namespace">
    <name>Madagascar</name>
    <labelrank>3</labelrank>
    <country-abbrev>Mad.</country-abbrev>
    <subregion>Eastern Africa</subregion>
    <region-wb>Sub-Saharan Africa</region-wb>
    <iso-a3>MDG</iso-a3>
    <iso-a2>MG</iso-a2>
    <woe-id>23424883</woe-id>
    <continent>Africa</continent>
    <hc-middle-x>0.43</hc-middle-x>
    <hc-middle-y>0.51</hc-middle-y>
    <hc-key>mg</hc-key>
    <hc-a2>MG</hc-a2>
  </desc>
</path>

<path fill="#CEE3F5" stroke="#6E6E6E" stroke-width="0.4" id="KE" d="M503.5,349.0 L504.3,343.3 L510.0,342.8 L509.1,341.0 L505.0,342.4 L502.9,340.6 L502.9,338.2 L507.2,331.0 L509.7,329.9 L511.2,326.2 L510.8,319.5 L507.9,315.6 L506.3,311.8 L506.8,309.5 L504.5,308.6 L502.9,304.9 L506.3,301.5 L515.0,298.1 L516.7,301.6 L519.3,301.6 L520.3,303.1 L527.1,303.2 L537.7,310.1 L541.0,310.1 L549.7,312.0 L552.4,308.1 L560.2,304.6 L563.1,307.4 L569.6,307.3 L565.0,313.8 L561.9,316.8 L561.7,347.8 L566.2,353.7 L566.3,354.8 L564.1,357.0 L560.8,357.4 L561.1,359.1 L558.5,361.9 L554.8,363.6 L555.2,365.6 L553.0,368.7 L551.4,373.3 L548.2,379.1 L546.4,379.6 L533.1,369.8 L533.5,365.8 Z">
  <desc xmlns="http://www.highcharts.com/svg/namespace">
    <name>Kenya</name>
    <labelrank>2</labelrank>
    <country-abbrev>Ken.</country-abbrev>
    <subregion>Eastern Africa</subregion>
    <region-wb>Sub-Saharan Africa</region-wb>
    <iso-a3>KEN</iso-a3>
    <iso-a2>KE</iso-a2>
    <woe-id>23424863</woe-id>
    <continent>Africa</continent>
    <hc-middle-x>0.47</hc-middle-x>
    <hc-middle-y>0.43</hc-middle-y>
    <hc-key>ke</hc-key>
    <hc-a2>KE</hc-a2>
  </desc>
</path>

<path fill="#CEE3F5" stroke="#6E6E6E" stroke-width="0.4" id="CD" d="M461.5,356.2 L461.6,358.7 L460.9,359.0 L460.9,358.1 Z M480.0,322.0 L473.4,327.6 L473.3,329.8 L468.7,333.5 L468.7,335.9 L466.6,340.9 L463.4,344.3 L463.9,345.9 L466.2,344.1 L465.5,347.8 L465.7,351.7 L463.8,352.7 L462.7,354.2 L461.3,353.4 L459.6,358.0 L459.7,360.8 L459.9,362.3 L460.9,362.8 L462.7,365.6 L462.5,368.0 L461.5,373.9 L462.4,377.9 L461.5,382.5 L463.9,387.0 L462.2,389.6 L464.9,396.2 L470.6,401.8 L471.3,405.6 L473.9,409.0 L460.0,411.1 L459.8,411.2 L455.2,416.2 L455.1,420.0 L456.6,418.7 L458.0,422.3 L457.6,428.4 L455.3,436.2 L456.5,439.8 L460.9,444.1 L464.8,444.8 L464.6,443.0 L467.3,442.3 L467.3,453.1 L465.4,451.4 L462.0,453.2 L455.1,444.8 L449.2,443.4 L445.4,437.3 L441.3,441.1 L435.5,440.1 L430.1,437.9 L429.5,434.1 L421.1,435.6 L422.0,433.4 L418.5,431.3 L417.4,432.7 L414.5,432.1 L410.5,433.3 L406.5,432.7 L404.0,434.5 L403.4,431.2 L404.6,427.1 L403.3,423.4 L400.8,420.7 L401.4,410.6 L399.9,407.2 L400.2,401.1 L389.5,401.1 L390.3,398.0 L387.6,398.7 L381.2,398.7 L381.1,402.8 L379.8,403.6 L379.8,407.2 L369.9,407.2 L364.6,407.9 L358.0,396.3 L356.6,389.8 L354.2,389.2 L340.7,389.5 L327.9,389.3 L321.7,391.0 L319.7,388.6 L322.2,388.3 L321.6,382.7 L326.9,379.1 L329.3,380.4 L332.3,379.5 L337.8,376.1 L338.1,381.2 L341.7,380.5 L344.8,376.5 L347.8,374.0 L350.5,373.2 L353.4,367.7 L352.9,364.3 L353.4,358.0 L355.8,355.8 L358.5,350.7 L362.3,348.7 L366.1,344.5 L365.8,341.8 L367.8,336.2 L367.0,331.7 L368.7,327.2 L368.7,322.1 L373.3,313.9 L373.4,311.0 L373.5,306.8 L372.6,304.1 L374.1,303.4 L377.2,299.0 L379.9,297.1 L382.6,297.0 L387.8,300.1 L390.0,303.1 L392.3,302.8 L395.2,304.1 L399.5,304.1 L405.4,305.4 L409.4,299.6 L413.5,301.6 L422.8,297.3 L425.4,298.8 L429.7,297.9 L430.2,295.5 L434.1,296.5 L436.7,296.0 L439.5,297.6 L442.9,297.8 L445.0,296.5 L447.7,297.5 L450.5,301.5 L455.9,304.2 L458.8,301.9 L462.4,303.6 L464.7,301.1 L471.1,307.0 L473.7,307.7 L473.9,309.9 L476.4,310.9 L475.6,314.7 L476.5,315.9 L475.3,319.5 Z">
  <desc xmlns="http://www.highcharts.com/svg/namespace">
    <name>Democratic Republic of the Congo</name>
    <labelrank>2</labelrank>
    <country-abbrev>D.R.C.</country-abbrev>
    <subregion>Middle Africa</subregion>
    <region-wb>Sub-Saharan Africa</region-wb>
    <iso-a3>COD</iso-a3>
    <iso-a2>CD</iso-a2>
    <woe-id>23424780</woe-id>
    <continent>Africa</continent>
    <hc-middle-x>0.67</hc-middle-x>
    <hc-middle-y>0.67</hc-middle-y>
    <hc-key>cd</hc-key>
    <hc-a2>CD</hc-a2>
  </desc>
</path>

<path fill="#CEE3F5" stroke="#6E6E6E" stroke-width="0.4" id="FR" d="M681.4,519.6 L684.4,522.2 L684.1,523.7 L680.2,523.2 L679.1,521.2 Z M596.9,448.1 L596.1,448.7 L595.9,449.7 L594.9,447.6 Z">
  <desc xmlns="http://www.highcharts.com/svg/namespace">
    <name>France</name>
    <labelrank>2</labelrank>
    <country-abbrev>Fr.</country-abbrev>
    <subregion>Western Europe</subregion>
    <region-wb>Europe &amp; Central Asia</region-wb>
    <iso-a3>FRA</iso-a3>
    <iso-a2>FR</iso-a2>
    <woe-id>-90</woe-id>
    <continent>Europe</continent>
    <hc-middle-x>0.97</hc-middle-x>
    <hc-middle-y>0.98</hc-middle-y>
    <hc-key>fr</hc-key>
    <hc-a2>FR</hc-a2>
  </desc>
</path>

<path fill="#CEE3F5" stroke="#6E6E6E" stroke-width="0.4" id="MR" d="M139.7,103.2 L167.0,120.5 L173.0,124.4 L173.0,124.4 L157.9,124.6 L164.1,174.8 L167.2,201.1 L169.6,203.0 L168.3,210.2 L135.8,210.7 L131.7,211.8 L124.0,211.5 L122.5,214.3 L118.3,210.0 L115.6,210.6 L114.9,216.2 L111.1,217.4 L106.7,214.2 L105.1,211.1 L102.8,210.1 L100.6,205.5 L97.8,205.8 L93.2,201.4 L88.2,201.4 L82.0,203.0 L76.4,203.1 L74.7,209.0 L75.3,201.7 L77.6,196.2 L78.7,190.0 L77.0,180.9 L74.3,177.2 L76.8,169.8 L74.0,165.2 L72.8,165.8 L70.6,161.4 L69.5,165.0 L70.2,159.9 L103.7,159.2 L102.9,148.6 L102.2,146.3 L103.5,143.8 L106.8,141.4 L111.9,139.3 L111.5,116.0 L139.7,115.5 Z M173.0,124.4 L173.0,124.4 L173.0,124.4 Z M173.0,124.4 L173.0,124.4 L173.0,124.4 L173.0,124.4 L173.0,124.4 L173.0,124.4 Z">
  <desc xmlns="http://www.highcharts.com/svg/namespace">
    <name>Mauritania</name>
    <labelrank>3</labelrank>
    <country-abbrev>Mrt.</country-abbrev>
    <subregion>Western Africa</subregion>
    <region-wb>Sub-Saharan Africa</region-wb>
    <iso-a3>MRT</iso-a3>
    <iso-a2>MR</iso-a2>
    <woe-id>23424896</woe-id>
    <continent>Africa</continent>
    <hc-middle-x>0.51</hc-middle-x>
    <hc-middle-y>0.56</hc-middle-y>
    <hc-key>mr</hc-key>
    <hc-a2>MR</hc-a2>
  </desc>
</path>

<path fill="#CEE3F5" stroke="#6E6E6E" stroke-width="0.4" id="DZ" d="M167.0,120.5 L139.7,103.2 L139.7,99.6 L139.5,90.0 L148.5,82.8 L152.5,81.6 L164.4,80.4 L166.2,81.2 L168.4,77.6 L176.1,71.4 L182.3,69.3 L183.0,66.9 L180.7,63.3 L182.0,60.0 L189.1,58.4 L188.1,55.9 L191.7,55.0 L202.6,55.4 L204.2,51.0 L201.0,48.8 L198.8,43.7 L198.7,34.9 L196.9,29.8 L197.8,28.3 L193.8,24.7 L197.8,24.3 L202.0,21.5 L202.6,19.6 L209.8,16.0 L211.7,17.2 L213.9,14.4 L221.7,9.7 L235.3,8.3 L237.8,6.1 L242.4,6.4 L245.5,4.9 L253.7,5.0 L257.6,7.6 L265.8,4.8 L267.0,3.0 L271.9,4.9 L276.0,2.8 L280.5,5.3 L286.5,4.3 L284.8,7.4 L283.5,16.1 L284.2,17.9 L283.5,28.4 L280.1,30.8 L277.1,36.2 L279.5,43.2 L282.4,44.4 L284.4,49.7 L290.6,54.6 L294.8,72.9 L292.8,74.0 L296.1,79.0 L297.5,83.7 L297.2,92.0 L298.5,95.9 L296.8,101.4 L298.4,105.6 L297.8,108.9 L294.8,110.3 L294.1,112.6 L299.0,119.3 L299.6,124.4 L302.7,127.8 L305.5,127.2 L312.7,129.8 L316.2,136.7 L278.1,161.1 L264.3,173.8 L250.6,176.9 L242.8,178.5 L241.0,176.9 L242.3,175.0 L242.0,171.2 L235.0,168.9 L233.1,166.9 L230.7,167.4 L228.5,164.8 L224.5,162.9 L224.2,159.6 L173.0,124.4 L173.0,124.4 L173.0,124.4 L173.0,124.4 L173.0,124.4 L173.0,124.4 L173.0,124.4 L173.0,124.4 Z">
  <desc xmlns="http://www.highcharts.com/svg/namespace">
    <name>Algeria</name>
    <labelrank>3</labelrank>
    <country-abbrev>Alg.</country-abbrev>
    <subregion>Northern Africa</subregion>
    <region-wb>Middle East &amp; North Africa</region-wb>
    <iso-a3>DZA</iso-a3>
    <iso-a2>DZ</iso-a2>
    <woe-id>23424740</woe-id>
    <continent>Africa</continent>
    <hc-middle-x>0.60</hc-middle-x>
    <hc-middle-y>0.50</hc-middle-y>
    <hc-key>dz</hc-key>
    <hc-a2>DZ</hc-a2>
  </desc>
</path>

<path fill="#CEE3F5" stroke="#6E6E6E" stroke-width="0.4" id="ER" d="M554.6,205.4 L557.7,208.1 L555.4,207.7 L553.8,206.6 Z M580.6,233.2 L576.9,236.2 L574.3,235.2 L570.7,231.7 L568.7,228.4 L564.4,225.2 L561.4,220.9 L555.2,217.8 L550.2,216.8 L547.6,217.9 L546.5,216.2 L541.0,218.1 L536.5,214.0 L533.7,220.7 L531.4,217.7 L529.5,219.2 L524.9,219.3 L524.0,211.9 L528.5,202.0 L527.9,199.6 L529.0,194.8 L532.4,195.2 L533.3,192.6 L539.3,190.8 L542.7,186.6 L545.4,192.0 L547.3,198.8 L547.9,203.4 L549.8,208.5 L552.0,210.8 L553.3,208.7 L556.8,213.9 L558.8,213.2 L560.8,215.8 L564.1,216.3 L568.5,222.4 L573.7,225.6 L577.7,231.8 Z">
  <desc xmlns="http://www.highcharts.com/svg/namespace">
    <name>Eritrea</name>
    <labelrank>4</labelrank>
    <country-abbrev>Erit.</country-abbrev>
    <subregion>Eastern Africa</subregion>
    <region-wb>Sub-Saharan Africa</region-wb>
    <iso-a3>ERI</iso-a3>
    <iso-a2>ER</iso-a2>
    <woe-id>23424806</woe-id>
    <continent>Africa</continent>
    <hc-middle-x>0.32</hc-middle-x>
    <hc-middle-y>0.39</hc-middle-y>
    <hc-key>er</hc-key>
    <hc-a2>ER</hc-a2>
  </desc>
</path>

<path fill="#CEE3F5" stroke="#6E6E6E" stroke-width="0.4" id="GQ" d="M290.2,309.1 L291.8,310.0 L289.5,313.8 L287.7,313.3 Z M311.8,322.3 L312.0,332.1 L299.1,332.2 L295.2,330.7 L299.0,324.6 L299.0,320.9 L300.6,322.4 Z">
  <desc xmlns="http://www.highcharts.com/svg/namespace">
    <name>Equatorial Guinea</name>
    <labelrank>4</labelrank>
    <country-abbrev>Eq. G.</country-abbrev>
    <subregion>Middle Africa</subregion>
    <region-wb>Sub-Saharan Africa</region-wb>
    <iso-a3>GNQ</iso-a3>
    <iso-a2>GQ</iso-a2>
    <woe-id>23424804</woe-id>
    <continent>Africa</continent>
    <hc-middle-x>0.42</hc-middle-x>
    <hc-middle-y>0.75</hc-middle-y>
    <hc-key>gq</hc-key>
    <hc-a2>GQ</hc-a2>
  </desc>
</path>

<path fill="#CEE3F5" stroke="#6E6E6E" stroke-width="0.4" id="MU" d="M700.0,513.0 L699.6,516.4 L697.1,516.6 L698.5,512.4 Z">
  <desc xmlns="http://www.highcharts.com/svg/namespace">
    <name>Mauritius</name>
    <labelrank>5</labelrank>
    <country-abbrev>Mus.</country-abbrev>
    <subregion>Eastern Africa</subregion>
    <region-wb>Sub-Saharan Africa</region-wb>
    <iso-a3>MUS</iso-a3>
    <iso-a2>MU</iso-a2>
    <woe-id>23424894</woe-id>
    <continent>Seven seas (open ocean)</continent>
    <hc-middle-x>0.61</hc-middle-x>
    <hc-middle-y>0.58</hc-middle-y>
    <hc-key>mu</hc-key>
    <hc-a2>MU</hc-a2>
  </desc>
</path>

<path fill="#CEE3F5" stroke="#6E6E6E" stroke-width="0.4" id="SN" d="M74.9,228.4 L71.6,221.8 L69.5,219.2 L66.5,218.4 L69.8,216.8 L74.7,209.0 L76.4,203.1 L82.0,203.0 L88.2,201.4 L93.2,201.4 L97.8,205.8 L100.6,205.5 L102.8,210.1 L105.1,211.1 L106.7,214.2 L111.1,217.4 L111.6,220.7 L113.8,224.9 L112.7,226.7 L116.9,229.6 L118.9,233.2 L118.9,237.8 L113.1,237.9 L110.7,238.8 L104.6,237.1 L104.6,236.0 L99.1,235.8 L86.6,236.0 L82.6,238.1 L77.9,238.1 L73.7,239.2 L73.3,237.1 L73.4,232.9 L74.0,232.0 L81.2,232.0 L81.2,230.6 L86.2,229.6 L87.0,228.1 L93.3,231.0 L97.9,230.1 L96.7,228.0 L93.7,229.2 L91.6,227.4 L87.3,226.1 L83.8,228.2 Z">
  <desc xmlns="http://www.highcharts.com/svg/namespace">
    <name>Senegal</name>
    <labelrank>3</labelrank>
    <country-abbrev>Sen.</country-abbrev>
    <subregion>Western Africa</subregion>
    <region-wb>Sub-Saharan Africa</region-wb>
    <iso-a3>SEN</iso-a3>
    <iso-a2>SN</iso-a2>
    <woe-id>23424943</woe-id>
    <continent>Africa</continent>
    <hc-middle-x>0.45</hc-middle-x>
    <hc-middle-y>0.41</hc-middle-y>
    <hc-key>sn</hc-key>
    <hc-a2>SN</hc-a2>
  </desc>
</path>

<path fill="#CEE3F5" stroke="#6E6E6E" stroke-width="0.4" id="KM" d="M590.3,442.4 L590.5,444.9 L588.0,443.0 L589.4,443.2 Z M581.8,441.0 L580.1,440.0 L580.2,436.3 L581.3,436.6 Z">
  <desc xmlns="http://www.highcharts.com/svg/namespace">
    <name>Comoros</name>
    <labelrank>6</labelrank>
    <country-abbrev>Com.</country-abbrev>
    <subregion>Eastern Africa</subregion>
    <region-wb>Sub-Saharan Africa</region-wb>
    <iso-a3>COM</iso-a3>
    <iso-a2>KM</iso-a2>
    <woe-id>23424786</woe-id>
    <continent>Africa</continent>
    <hc-middle-x>0.06</hc-middle-x>
    <hc-middle-y>0.28</hc-middle-y>
    <hc-key>km</hc-key>
    <hc-a2>KM</hc-a2>
  </desc>
</path>

<path fill="#CEE3F5" stroke="#6E6E6E" stroke-width="0.4" id="ET" d="M569.2,245.4 L568.3,246.2 L569.2,247.0 L570.6,248.3 L576.3,247.1 L578.9,247.9 L576.5,251.0 L578.1,254.6 L582.9,261.5 L588.0,265.1 L612.9,273.8 L621.4,273.9 L608.1,286.4 L595.5,299.7 L587.2,299.2 L580.1,301.7 L577.2,304.8 L571.7,305.4 L569.6,307.3 L563.1,307.4 L560.2,304.6 L552.4,308.1 L549.7,312.0 L541.0,310.1 L537.7,310.1 L527.1,303.2 L520.3,303.1 L519.3,301.6 L518.2,300.3 L518.4,295.8 L514.3,295.4 L511.4,291.2 L509.4,284.5 L505.7,281.7 L500.8,275.8 L495.2,274.6 L496.2,269.5 L503.0,269.2 L504.2,267.6 L503.9,260.6 L506.0,253.7 L505.7,251.1 L508.3,248.4 L511.4,248.5 L512.2,240.8 L513.6,239.7 L517.1,233.9 L521.2,232.9 L522.3,227.1 L523.6,225.3 L524.9,219.3 L529.5,219.2 L531.4,217.7 L533.7,220.7 L536.5,214.0 L541.0,218.1 L546.5,216.2 L547.6,217.9 L550.2,216.8 L555.2,217.8 L561.4,220.9 L564.4,225.2 L568.7,228.4 L570.7,231.7 L574.3,235.2 L568.9,243.2 Z">
  <desc xmlns="http://www.highcharts.com/svg/namespace">
    <name>Ethiopia</name>
    <labelrank>2</labelrank>
    <country-abbrev>Eth.</country-abbrev>
    <subregion>Eastern Africa</subregion>
    <region-wb>Sub-Saharan Africa</region-wb>
    <iso-a3>ETH</iso-a3>
    <iso-a2>ET</iso-a2>
    <woe-id>23424808</woe-id>
    <continent>Africa</continent>
    <hc-middle-x>0.46</hc-middle-x>
    <hc-middle-y>0.60</hc-middle-y>
    <hc-key>et</hc-key>
    <hc-a2>ET</hc-a2>
  </desc>
</path>

<path fill="#CEE3F5" stroke="#6E6E6E" stroke-width="0.4" id="CI" d="M189.8,298.9 L188.6,298.8 L189.8,298.8 L189.8,298.8 Z M152.1,299.8 L153.7,295.4 L153.2,293.1 L150.2,292.0 L149.2,289.6 L143.2,287.8 L145.4,285.5 L145.8,282.3 L144.2,278.8 L146.3,278.8 L148.0,274.0 L146.0,271.1 L150.7,269.8 L148.4,268.3 L149.2,262.9 L147.4,263.1 L146.5,258.5 L148.0,256.6 L150.7,254.2 L156.7,256.2 L158.9,254.9 L159.1,252.2 L161.2,253.0 L162.7,251.6 L162.8,255.2 L164.7,256.1 L166.4,254.1 L168.8,254.0 L171.4,254.9 L173.6,258.4 L176.1,260.2 L184.6,257.8 L188.5,258.1 L192.3,262.5 L192.9,261.7 L192.2,265.4 L193.6,266.5 L194.6,272.5 L191.8,275.8 L190.2,282.2 L188.4,286.1 L191.0,294.4 L192.6,294.8 L192.1,298.4 L188.1,298.7 L182.4,297.8 L166.7,299.8 L157.8,303.0 L152.6,305.7 Z">
  <desc xmlns="http://www.highcharts.com/svg/namespace">
    <name>Ivory Coast</name>
    <labelrank>3</labelrank>
    <country-abbrev>I.C.</country-abbrev>
    <subregion>Western Africa</subregion>
    <region-wb>Sub-Saharan Africa</region-wb>
    <iso-a3>CIV</iso-a3>
    <iso-a2>CI</iso-a2>
    <woe-id>23424854</woe-id>
    <continent>Africa</continent>
    <hc-middle-x>0.50</hc-middle-x>
    <hc-middle-y>0.52</hc-middle-y>
    <hc-key>ci</hc-key>
    <hc-a2>CI</hc-a2>
  </desc>
</path>

<path fill="#CEE3F5" stroke="#6E6E6E" stroke-width="0.4" id="GH" d="M189.8,298.9 L189.8,298.8 L189.8,298.8 L190.8,298.8 L192.1,298.4 L192.6,294.8 L191.0,294.4 L188.4,286.1 L190.2,282.2 L191.8,275.8 L194.6,272.5 L193.6,266.5 L192.2,265.4 L192.9,261.7 L190.8,251.2 L192.2,248.9 L209.6,248.6 L214.1,247.3 L215.6,247.9 L214.8,251.6 L218.9,254.6 L217.6,260.6 L220.2,262.1 L218.9,267.8 L221.8,271.6 L220.6,272.2 L221.3,279.7 L220.3,283.9 L222.5,287.3 L226.0,290.0 L224.4,292.2 L218.8,292.8 L212.9,295.3 L209.3,297.6 L202.9,299.4 L198.5,301.8 L196.2,300.3 Z">
  <desc xmlns="http://www.highcharts.com/svg/namespace">
    <name>Ghana</name>
    <labelrank>3</labelrank>
    <country-abbrev>Ghana</country-abbrev>
    <subregion>Western Africa</subregion>
    <region-wb>Sub-Saharan Africa</region-wb>
    <iso-a3>GHA</iso-a3>
    <iso-a2>GH</iso-a2>
    <woe-id>23424824</woe-id>
    <continent>Africa</continent>
    <hc-middle-x>0.44</hc-middle-x>
    <hc-middle-y>0.38</hc-middle-y>
    <hc-key>gh</hc-key>
    <hc-a2>GH</hc-a2>
  </desc>
</path>

<path fill="#CEE3F5" stroke="#6E6E6E" stroke-width="0.4" id="ZM" d="M458.6,479.8 L455.9,479.9 L452.3,482.6 L450.3,482.5 L446.5,487.6 L444.0,492.2 L441.4,493.1 L437.2,491.6 L435.3,492.5 L432.8,490.9 L429.3,490.8 L426.8,488.6 L420.6,488.0 L413.6,489.4 L408.4,485.2 L403.0,479.9 L401.9,476.6 L401.9,449.5 L418.8,449.4 L417.6,447.6 L419.0,444.2 L418.4,437.7 L419.3,435.8 L418.5,431.3 L422.0,433.4 L421.1,435.6 L429.5,434.1 L430.1,437.9 L435.5,440.1 L441.3,441.1 L445.4,437.3 L449.2,443.4 L455.1,444.8 L462.0,453.2 L465.4,451.4 L467.3,453.1 L467.3,442.3 L464.6,443.0 L464.8,444.8 L460.9,444.1 L456.5,439.8 L455.3,436.2 L457.6,428.4 L458.0,422.3 L456.6,418.7 L460.7,415.4 L461.9,412.8 L459.8,411.2 L460.0,411.1 L473.9,409.0 L473.0,411.4 L475.7,411.9 L477.7,413.9 L478.9,412.1 L482.0,413.1 L485.7,416.2 L489.0,416.7 L493.5,419.1 L497.3,423.2 L499.8,429.0 L496.8,431.0 L497.4,433.9 L496.1,436.1 L496.2,442.2 L497.2,445.5 L493.8,447.2 L494.0,451.2 L492.5,455.5 L494.1,458.5 L495.8,458.2 L470.7,466.5 L472.2,472.1 L467.6,471.9 L464.0,472.8 L459.4,475.6 Z">
  <desc xmlns="http://www.highcharts.com/svg/namespace">
    <name>Zambia</name>
    <labelrank>3</labelrank>
    <country-abbrev>Zambia</country-abbrev>
    <subregion>Eastern Africa</subregion>
    <region-wb>Sub-Saharan Africa</region-wb>
    <iso-a3>ZMB</iso-a3>
    <iso-a2>ZM</iso-a2>
    <woe-id>23425003</woe-id>
    <continent>Africa</continent>
    <hc-middle-x>0.36</hc-middle-x>
    <hc-middle-y>0.65</hc-middle-y>
    <hc-key>zm</hc-key>
    <hc-a2>ZM</hc-a2>
  </desc>
</path>

<path fill="#CEE3F5" stroke="#6E6E6E" stroke-width="0.4" id="NA" d="M413.6,489.4 L420.6,488.0 L426.8,488.6 L429.3,490.8 L426.7,490.7 L423.0,493.1 L420.3,492.8 L415.4,496.7 L413.0,492.6 L410.3,492.7 L397.7,495.2 L393.5,495.4 L393.7,527.6 L385.3,527.9 L385.4,552.7 L385.5,586.4 L382.0,587.7 L378.0,591.8 L375.2,590.6 L370.4,591.2 L364.1,589.4 L363.6,584.9 L359.8,583.6 L359.1,586.2 L356.4,588.2 L355.3,588.0 L349.7,582.4 L346.5,576.5 L343.7,567.4 L342.7,562.1 L342.1,553.4 L339.5,547.5 L340.0,535.7 L338.7,530.6 L335.1,526.2 L334.0,523.3 L330.3,517.6 L328.3,511.7 L321.0,499.0 L317.3,494.1 L316.2,488.9 L316.6,486.4 L318.8,485.5 L323.2,486.2 L328.3,483.7 L334.8,487.6 L337.0,487.4 L372.4,487.3 L375.0,490.4 L385.7,491.7 L388.2,491.3 L392.1,492.9 L397.1,492.7 Z">
  <desc xmlns="http://www.highcharts.com/svg/namespace">
    <name>Namibia</name>
    <labelrank>3</labelrank>
    <country-abbrev>Nam.</country-abbrev>
    <subregion>Southern Africa</subregion>
    <region-wb>Sub-Saharan Africa</region-wb>
    <iso-a3>NAM</iso-a3>
    <iso-a2>NA</iso-a2>
    <woe-id>23424987</woe-id>
    <continent>Africa</continent>
    <hc-middle-x>0.43</hc-middle-x>
    <hc-middle-y>0.40</hc-middle-y>
    <hc-key>na</hc-key>
    <hc-a2>NA</hc-a2>
  </desc>
</path>

<path fill="#CEE3F5" stroke="#6E6E6E" stroke-width="0.4" id="RW" d="M473.2,349.0 L476.2,353.5 L476.2,359.7 L473.9,360.2 L468.6,359.5 L468.4,362.3 L466.6,363.6 L460.9,362.8 L459.9,362.3 L459.7,360.8 L463.8,357.1 L462.7,354.2 L463.8,352.7 L465.7,351.7 L468.4,352.4 Z">
  <desc xmlns="http://www.highcharts.com/svg/namespace">
    <name>Rwanda</name>
    <labelrank>3</labelrank>
    <country-abbrev>Rwa.</country-abbrev>
    <subregion>Eastern Africa</subregion>
    <region-wb>Sub-Saharan Africa</region-wb>
    <iso-a3>RWA</iso-a3>
    <iso-a2>RW</iso-a2>
    <woe-id>23424937</woe-id>
    <continent>Africa</continent>
    <hc-middle-x>0.83</hc-middle-x>
    <hc-middle-y>0.39</hc-middle-y>
    <hc-key>rw</hc-key>
    <hc-a2>RW</hc-a2>
  </desc>
</path>

<path fill="#CEE3F5" stroke="#6E6E6E" stroke-width="0.4" id="SX" d="M629.8,246.2 L629.6,261.6 L621.4,273.9 L612.9,273.8 L588.0,265.1 L582.9,261.5 L578.1,254.6 L576.5,251.0 L578.9,247.9 L581.6,243.7 L586.5,249.6 L590.2,252.6 L596.1,253.0 L603.2,249.2 L608.7,250.8 L616.5,246.7 L623.2,247.0 L627.4,245.5 Z">
  <desc xmlns="http://www.highcharts.com/svg/namespace">
    <name>Somaliland</name>
    <labelrank>5</labelrank>
    <country-abbrev>Solnd.</country-abbrev>
    <subregion>Eastern Africa</subregion>
    <region-wb>Sub-Saharan Africa</region-wb>
    <iso-a3>-99</iso-a3>
    <iso-a2>SX</iso-a2>
    <woe-id>-99</woe-id>
    <continent>Africa</continent>
    <hc-middle-x>0.72</hc-middle-x>
    <hc-middle-y>0.52</hc-middle-y>
    <hc-key>sx</hc-key>
    <hc-a2>SX</hc-a2>
  </desc>
</path>

<path fill="#CEE3F5" stroke="#6E6E6E" stroke-width="0.4" id="SO" d="M621.4,273.9 L629.6,261.6 L629.8,246.2 L635.2,244.5 L641.1,243.4 L645.6,240.1 L649.8,241.4 L648.0,247.0 L648.7,252.3 L650.5,253.1 L646.5,254.3 L645.7,261.7 L642.1,266.8 L641.0,269.9 L637.1,274.3 L636.9,276.2 L633.0,282.2 L630.1,289.6 L626.8,295.2 L620.8,303.7 L609.5,315.7 L604.4,320.5 L591.9,327.8 L582.7,335.5 L570.9,347.9 L566.3,354.8 L566.2,353.7 L561.7,347.8 L561.9,316.8 L565.0,313.8 L569.6,307.3 L571.7,305.4 L577.2,304.8 L580.1,301.7 L587.2,299.2 L595.5,299.7 L608.1,286.4 Z">
  <desc xmlns="http://www.highcharts.com/svg/namespace">
    <name>Somalia</name>
    <labelrank>6</labelrank>
    <country-abbrev>Som.</country-abbrev>
    <subregion>Eastern Africa</subregion>
    <region-wb>Sub-Saharan Africa</region-wb>
    <iso-a3>SOM</iso-a3>
    <iso-a2>SO</iso-a2>
    <woe-id>-90</woe-id>
    <continent>Africa</continent>
    <hc-middle-x>0.29</hc-middle-x>
    <hc-middle-y>0.64</hc-middle-y>
    <hc-key>so</hc-key>
    <hc-a2>SO</hc-a2>
  </desc>
</path>

<path fill="#CEE3F5" stroke="#6E6E6E" stroke-width="0.4" id="CM" d="M336.6,229.6 L336.2,231.2 L338.2,230.5 L340.9,233.3 L341.6,237.6 L342.9,238.1 L343.6,242.9 L342.7,245.9 L343.1,249.2 L345.1,253.3 L348.3,256.0 L340.3,256.6 L335.6,256.2 L333.6,259.1 L337.1,263.1 L344.1,268.9 L346.7,277.0 L344.5,279.4 L340.3,287.7 L337.6,289.8 L339.2,290.6 L340.4,301.5 L342.8,303.3 L344.2,308.8 L352.0,316.2 L352.9,321.5 L352.6,325.7 L344.8,323.2 L341.9,323.5 L339.1,321.8 L336.7,322.3 L328.5,322.2 L328.0,321.3 L312.1,321.2 L311.8,322.3 L300.6,322.4 L299.0,320.9 L300.3,314.7 L297.6,310.9 L297.4,307.3 L294.8,307.6 L291.9,306.2 L291.6,302.4 L288.0,302.6 L288.7,300.2 L288.7,300.2 L290.4,297.3 L290.8,291.5 L301.4,281.7 L304.6,282.7 L305.5,281.2 L311.6,286.4 L313.6,282.7 L316.3,280.7 L315.1,279.4 L318.9,273.3 L319.1,269.8 L324.0,266.0 L324.5,261.3 L327.3,260.0 L327.7,255.4 L329.3,254.7 L330.4,250.2 L333.9,245.1 L335.4,245.4 L339.0,243.2 L339.6,237.4 L335.5,235.6 L334.5,229.6 Z M337.1,229.5 L337.2,229.7 L336.9,229.5 Z">
  <desc xmlns="http://www.highcharts.com/svg/namespace">
    <name>Cameroon</name>
    <labelrank>3</labelrank>
    <country-abbrev>Cam.</country-abbrev>
    <subregion>Middle Africa</subregion>
    <region-wb>Sub-Saharan Africa</region-wb>
    <iso-a3>CMR</iso-a3>
    <iso-a2>CM</iso-a2>
    <woe-id>23424785</woe-id>
    <continent>Africa</continent>
    <hc-middle-x>0.51</hc-middle-x>
    <hc-middle-y>0.76</hc-middle-y>
    <hc-key>cm</hc-key>
    <hc-a2>CM</hc-a2>
  </desc>
</path>

<path fill="#CEE3F5" stroke="#6E6E6E" stroke-width="0.4" id="CG" d="M328.5,322.2 L336.7,322.3 L339.1,321.8 L341.9,323.5 L344.8,323.2 L352.6,325.7 L352.9,321.5 L355.3,316.5 L356.0,311.2 L363.5,309.1 L366.8,310.5 L372.1,309.7 L373.4,311.0 L373.3,313.9 L368.7,322.1 L368.7,327.2 L367.0,331.7 L367.8,336.2 L365.8,341.8 L366.1,344.5 L362.3,348.7 L358.5,350.7 L355.8,355.8 L353.4,358.0 L352.9,364.3 L353.4,367.7 L350.5,373.2 L347.8,374.0 L344.8,376.5 L341.7,380.5 L338.1,381.2 L337.8,376.1 L332.3,379.5 L329.3,380.4 L326.9,379.1 L325.1,377.2 L321.1,378.9 L318.0,382.4 L316.4,379.0 L310.4,373.4 L313.5,369.8 L314.9,371.1 L317.4,368.0 L315.2,366.9 L314.1,360.1 L318.3,360.6 L321.6,359.9 L321.3,356.2 L324.5,356.4 L325.9,360.1 L330.1,360.7 L332.4,357.8 L335.3,361.2 L338.5,353.2 L337.8,348.8 L338.7,345.6 L335.5,342.8 L333.1,342.0 L333.4,338.7 L338.4,332.6 L336.0,328.7 L332.7,328.3 L328.1,330.1 L327.2,326.8 Z">
  <desc xmlns="http://www.highcharts.com/svg/namespace">
    <name>Republic of Congo</name>
    <labelrank>4</labelrank>
    <country-abbrev>Rep. Congo</country-abbrev>
    <subregion>Middle Africa</subregion>
    <region-wb>Sub-Saharan Africa</region-wb>
    <iso-a3>COG</iso-a3>
    <iso-a2>CG</iso-a2>
    <woe-id>23424779</woe-id>
    <continent>Africa</continent>
    <hc-middle-x>0.64</hc-middle-x>
    <hc-middle-y>0.37</hc-middle-y>
    <hc-key>cg</hc-key>
    <hc-a2>CG</hc-a2>
  </desc>
</path>

<path fill="#CEE3F5" stroke="#6E6E6E" stroke-width="0.4" id="EH" d="M69.5,165.0 L69.1,164.4 L69.7,159.1 L80.5,158.2 L88.2,158.4 L89.9,154.7 L93.3,150.5 L94.8,140.4 L96.9,136.8 L100.8,135.0 L102.9,131.1 L108.2,127.0 L111.4,115.6 L114.0,114.9 L117.2,109.8 L116.7,107.5 L120.7,106.2 L126.4,107.5 L130.8,107.4 L133.5,105.2 L138.8,104.8 L138.5,99.7 L139.7,99.6 L139.7,103.2 L139.7,115.5 L111.5,116.0 L111.9,139.3 L106.8,141.4 L103.5,143.8 L102.2,146.3 L102.9,148.6 L103.7,159.2 L70.2,159.9 Z">
  <desc xmlns="http://www.highcharts.com/svg/namespace">
    <name>Western Sahara</name>
    <labelrank>7</labelrank>
    <country-abbrev>W. Sah.</country-abbrev>
    <subregion>Northern Africa</subregion>
    <region-wb>Middle East &amp; North Africa</region-wb>
    <iso-a3>ESH</iso-a3>
    <iso-a2>EH</iso-a2>
    <woe-id>23424990</woe-id>
    <continent>Africa</continent>
    <hc-middle-x>0.80</hc-middle-x>
    <hc-middle-y>0.22</hc-middle-y>
    <hc-key>eh</hc-key>
    <hc-a2>EH</hc-a2>
  </desc>
</path>

<path fill="#CEE3F5" stroke="#6E6E6E" stroke-width="0.4" id="BJ" d="M238.8,287.6 L231.9,288.4 L229.7,289.0 L231.0,288.4 L229.2,285.1 L229.7,282.4 L229.3,265.0 L227.7,263.0 L226.9,256.9 L222.1,253.8 L223.1,248.4 L225.0,247.9 L227.7,244.3 L232.5,244.6 L235.7,240.5 L235.4,237.8 L239.5,236.2 L245.9,242.2 L245.0,244.8 L247.0,247.2 L248.0,251.5 L245.8,254.2 L245.4,258.0 L242.1,261.6 L241.8,264.2 L239.1,264.8 L238.4,274.7 L239.4,282.0 Z">
  <desc xmlns="http://www.highcharts.com/svg/namespace">
    <name>Benin</name>
    <labelrank>5</labelrank>
    <country-abbrev>Benin</country-abbrev>
    <subregion>Western Africa</subregion>
    <region-wb>Sub-Saharan Africa</region-wb>
    <iso-a3>BEN</iso-a3>
    <iso-a2>BJ</iso-a2>
    <woe-id>23424764</woe-id>
    <continent>Africa</continent>
    <hc-middle-x>0.48</hc-middle-x>
    <hc-middle-y>0.27</hc-middle-y>
    <hc-key>bj</hc-key>
    <hc-a2>BJ</hc-a2>
  </desc>
</path>

<path fill="#CEE3F5" stroke="#6E6E6E" stroke-width="0.4" id="BF" d="M235.7,240.5 L232.5,244.6 L227.7,244.3 L225.0,247.9 L223.1,248.4 L219.6,248.4 L214.1,247.3 L209.6,248.6 L192.2,248.9 L190.8,251.2 L192.9,261.7 L192.3,262.5 L188.5,258.1 L184.6,257.8 L176.1,260.2 L173.6,258.4 L171.4,254.9 L168.8,254.0 L168.9,248.6 L171.3,245.4 L170.7,241.9 L176.8,239.1 L178.2,235.8 L177.4,234.2 L179.7,233.3 L178.4,230.7 L181.6,227.6 L186.0,230.2 L187.8,229.1 L187.6,225.4 L190.7,225.9 L191.1,222.5 L194.3,220.4 L198.0,221.1 L198.5,218.6 L200.8,218.5 L206.3,215.6 L208.7,213.4 L213.1,213.3 L217.0,214.7 L216.5,217.8 L220.5,225.3 L223.3,226.1 L223.5,230.6 L228.4,234.2 L233.2,233.6 L234.4,236.0 L232.9,237.0 Z">
  <desc xmlns="http://www.highcharts.com/svg/namespace">
    <name>Burkina Faso</name>
    <labelrank>3</labelrank>
    <country-abbrev>B.F.</country-abbrev>
    <subregion>Western Africa</subregion>
    <region-wb>Sub-Saharan Africa</region-wb>
    <iso-a3>BFA</iso-a3>
    <iso-a2>BF</iso-a2>
    <woe-id>23424978</woe-id>
    <continent>Africa</continent>
    <hc-middle-x>0.54</hc-middle-x>
    <hc-middle-y>0.41</hc-middle-y>
    <hc-key>bf</hc-key>
    <hc-a2>BF</hc-a2>
  </desc>
</path>

<path fill="#CEE3F5" stroke="#6E6E6E" stroke-width="0.4" id="TG" d="M229.7,289.0 L228.1,289.3 L226.0,290.0 L222.5,287.3 L220.3,283.9 L221.3,279.7 L220.6,272.2 L221.8,271.6 L218.9,267.8 L220.2,262.1 L217.6,260.6 L218.9,254.6 L214.8,251.6 L215.6,247.9 L214.1,247.3 L219.6,248.4 L223.1,248.4 L222.1,253.8 L226.9,256.9 L227.7,263.0 L229.3,265.0 L229.7,282.4 L229.2,285.1 L231.0,288.4 Z">
  <desc xmlns="http://www.highcharts.com/svg/namespace">
    <name>Togo</name>
    <labelrank>6</labelrank>
    <country-abbrev>Togo</country-abbrev>
    <subregion>Western Africa</subregion>
    <region-wb>Sub-Saharan Africa</region-wb>
    <iso-a3>TGO</iso-a3>
    <iso-a2>TG</iso-a2>
    <woe-id>23424965</woe-id>
    <continent>Africa</continent>
    <hc-middle-x>0.75</hc-middle-x>
    <hc-middle-y>0.91</hc-middle-y>
    <hc-key>tg</hc-key>
    <hc-a2>TG</hc-a2>
  </desc>
</path>

<path fill="#CEE3F5" stroke="#6E6E6E" stroke-width="0.4" id="NE" d="M245.9,242.2 L239.5,236.2 L235.4,237.8 L235.7,240.5 L232.9,237.0 L234.4,236.0 L233.2,233.6 L228.4,234.2 L223.5,230.6 L223.3,226.1 L220.5,225.3 L216.5,217.8 L217.0,214.7 L223.4,213.9 L226.4,211.3 L244.8,210.5 L247.9,207.3 L250.5,201.1 L250.9,196.0 L250.6,176.9 L264.3,173.8 L278.1,161.1 L316.2,136.7 L329.1,139.7 L335.5,144.9 L341.8,141.4 L343.5,150.5 L343.6,155.0 L347.3,160.0 L346.7,161.4 L350.2,165.2 L348.4,169.4 L346.3,196.0 L336.9,206.3 L332.4,212.7 L331.9,215.4 L329.2,218.3 L330.6,224.2 L328.5,224.1 L321.7,228.2 L321.0,229.8 L317.5,229.3 L312.2,227.2 L305.7,227.2 L299.4,229.2 L297.0,232.0 L288.9,231.2 L283.7,227.9 L281.0,227.8 L277.9,229.7 L273.8,230.6 L269.2,225.3 L262.3,223.2 L259.9,224.3 L253.4,224.8 L250.2,226.8 L250.0,230.9 L246.2,235.0 Z">
  <desc xmlns="http://www.highcharts.com/svg/namespace">
    <name>Niger</name>
    <labelrank>3</labelrank>
    <country-abbrev>Niger</country-abbrev>
    <subregion>Western Africa</subregion>
    <region-wb>Sub-Saharan Africa</region-wb>
    <iso-a3>NER</iso-a3>
    <iso-a2>NE</iso-a2>
    <woe-id>23424906</woe-id>
    <continent>Africa</continent>
    <hc-middle-x>0.63</hc-middle-x>
    <hc-middle-y>0.47</hc-middle-y>
    <hc-key>ne</hc-key>
    <hc-a2>NE</hc-a2>
  </desc>
</path>

<path fill="#CEE3F5" stroke="#6E6E6E" stroke-width="0.4" id="LY" d="M341.8,141.4 L335.5,144.9 L329.1,139.7 L316.2,136.7 L312.7,129.8 L305.5,127.2 L302.7,127.8 L299.6,124.4 L299.0,119.3 L294.1,112.6 L294.8,110.3 L297.8,108.9 L298.4,105.6 L296.8,101.4 L298.5,95.9 L297.2,92.0 L297.5,83.7 L296.1,79.0 L292.8,74.0 L294.8,72.9 L297.8,71.7 L301.2,66.1 L299.8,61.2 L306.3,53.9 L312.2,50.5 L311.2,48.8 L311.6,43.3 L311.6,43.3 L311.6,43.3 L318.9,46.8 L322.1,47.1 L327.4,46.0 L334.5,47.8 L337.0,49.8 L343.2,51.1 L345.8,58.4 L350.6,62.2 L356.4,62.7 L361.9,64.1 L368.8,67.0 L375.6,72.0 L378.7,71.8 L382.2,69.7 L384.7,66.7 L385.6,62.7 L383.7,57.7 L385.0,53.1 L389.2,49.3 L398.1,45.5 L402.7,45.3 L410.8,48.3 L410.8,51.6 L419.4,54.8 L427.0,55.2 L428.4,58.3 L425.9,61.0 L427.1,66.9 L424.5,73.3 L427.0,82.7 L427.0,150.3 L427.0,168.4 L418.5,168.4 L418.5,172.9 L350.4,137.2 Z">
  <desc xmlns="http://www.highcharts.com/svg/namespace">
    <name>Libya</name>
    <labelrank>3</labelrank>
    <country-abbrev>Libya</country-abbrev>
    <subregion>Northern Africa</subregion>
    <region-wb>Middle East &amp; North Africa</region-wb>
    <iso-a3>LBY</iso-a3>
    <iso-a2>LY</iso-a2>
    <woe-id>23424882</woe-id>
    <continent>Africa</continent>
    <hc-middle-x>0.51</hc-middle-x>
    <hc-middle-y>0.47</hc-middle-y>
    <hc-key>ly</hc-key>
    <hc-a2>LY</hc-a2>
  </desc>
</path>

<path fill="#CEE3F5" stroke="#6E6E6E" stroke-width="0.4" id="LR" d="M144.2,278.8 L145.8,282.3 L145.4,285.5 L143.2,287.8 L149.2,289.6 L150.2,292.0 L153.2,293.1 L153.7,295.4 L152.1,299.8 L152.5,305.7 L146.5,303.9 L137.8,299.2 L128.2,290.7 L120.0,286.4 L119.0,284.6 L119.8,282.7 L126.1,277.3 L126.1,275.2 L128.2,274.0 L128.8,271.1 L132.9,270.9 L135.5,272.2 L136.8,278.3 L135.9,279.9 L138.8,282.0 L141.0,281.2 L142.4,277.6 Z">
  <desc xmlns="http://www.highcharts.com/svg/namespace">
    <name>Liberia</name>
    <labelrank>4</labelrank>
    <country-abbrev>Liberia</country-abbrev>
    <subregion>Western Africa</subregion>
    <region-wb>Sub-Saharan Africa</region-wb>
    <iso-a3>LBR</iso-a3>
    <iso-a2>LR</iso-a2>
    <woe-id>23424876</woe-id>
    <continent>Africa</continent>
    <hc-middle-x>0.37</hc-middle-x>
    <hc-middle-y>0.54</hc-middle-y>
    <hc-key>lr</hc-key>
    <hc-a2>LR</hc-a2>
  </desc>
</path>

<path fill="#CEE3F5" stroke="#6E6E6E" stroke-width="0.4" id="MW" d="M510.2,436.2 L510.0,436.0 L510.0,436.0 L510.0,436.0 Z M508.7,434.9 L508.6,434.8 L508.6,434.6 L508.6,434.8 Z M505.0,421.7 L504.2,420.8 L504.2,420.8 Z M503.3,420.1 L503.2,420.0 L503.3,420.0 Z M493.5,419.1 L497.6,420.7 L501.8,421.7 L502.3,424.1 L504.8,427.8 L504.3,429.4 L505.2,438.5 L502.7,442.7 L505.3,449.7 L505.2,453.0 L507.8,455.6 L506.9,458.0 L508.4,460.5 L509.7,458.2 L512.8,461.6 L511.3,455.9 L509.6,454.0 L511.5,455.6 L517.9,463.9 L517.3,468.5 L517.4,475.5 L513.8,476.6 L511.8,480.0 L513.0,481.5 L513.1,485.2 L511.3,485.1 L510.7,482.4 L505.6,477.0 L504.3,474.4 L507.1,469.1 L506.6,463.1 L505.3,461.5 L500.1,462.3 L499.4,463.3 L495.8,458.2 L494.1,458.5 L492.5,455.5 L494.0,451.2 L493.8,447.2 L497.2,445.5 L496.2,442.2 L496.1,436.1 L497.4,433.9 L496.8,431.0 L499.8,429.0 L497.3,423.2 Z">
  <desc xmlns="http://www.highcharts.com/svg/namespace">
    <name>Malawi</name>
    <labelrank>6</labelrank>
    <country-abbrev>Mal.</country-abbrev>
    <subregion>Eastern Africa</subregion>
    <region-wb>Sub-Saharan Africa</region-wb>
    <iso-a3>MWI</iso-a3>
    <iso-a2>MW</iso-a2>
    <woe-id>23424889</woe-id>
    <continent>Africa</continent>
    <hc-middle-x>0.23</hc-middle-x>
    <hc-middle-y>0.33</hc-middle-y>
    <hc-key>mw</hc-key>
    <hc-a2>MW</hc-a2>
  </desc>
</path>

<path fill="#CEE3F5" stroke="#6E6E6E" stroke-width="0.4" id="GM" d="M73.4,232.9 L72.7,230.6 L74.9,228.4 L74.9,228.4 L83.8,228.2 L87.3,226.1 L91.6,227.4 L93.7,229.2 L96.7,228.0 L97.9,230.1 L93.3,231.0 L87.0,228.1 L86.2,229.6 L81.2,230.6 L81.2,232.0 L74.0,232.0 Z">
  <desc xmlns="http://www.highcharts.com/svg/namespace">
    <name>Gambia</name>
    <labelrank>6</labelrank>
    <country-abbrev>Gambia</country-abbrev>
    <subregion>Western Africa</subregion>
    <region-wb>Sub-Saharan Africa</region-wb>
    <iso-a3>GMB</iso-a3>
    <iso-a2>GM</iso-a2>
    <woe-id>23424821</woe-id>
    <continent>Africa</continent>
    <hc-middle-x>0.26</hc-middle-x>
    <hc-middle-y>0.53</hc-middle-y>
    <hc-key>gm</hc-key>
    <hc-a2>GM</hc-a2>
  </desc>
</path>

<path fill="#CEE3F5" stroke="#6E6E6E" stroke-width="0.4" id="TD" d="M338.2,230.5 L340.4,229.6 L338.5,228.0 L337.1,229.5 L336.9,229.5 L336.3,229.1 L336.6,229.6 L334.5,229.6 L330.6,224.2 L329.2,218.3 L331.9,215.4 L332.4,212.7 L336.9,206.3 L346.3,196.0 L348.4,169.4 L350.2,165.2 L346.7,161.4 L347.3,160.0 L343.6,155.0 L343.5,150.5 L341.8,141.4 L350.4,137.2 L418.5,172.9 L418.5,206.4 L411.0,206.5 L409.5,207.7 L409.9,210.7 L407.3,215.4 L404.8,216.6 L406.2,220.3 L402.3,223.4 L404.0,227.1 L401.2,229.5 L401.2,233.2 L403.5,232.3 L406.9,238.0 L406.3,241.4 L409.5,243.8 L409.0,247.9 L405.6,247.2 L399.4,250.4 L399.6,252.3 L393.4,258.0 L391.8,260.8 L388.5,263.2 L377.2,264.2 L375.3,265.5 L377.5,267.1 L372.9,272.5 L365.3,273.0 L357.6,276.7 L355.7,274.0 L354.2,275.7 L349.3,277.6 L346.7,277.0 L344.1,268.9 L337.1,263.1 L333.6,259.1 L335.6,256.2 L340.3,256.6 L348.3,256.0 L345.1,253.3 L343.1,249.2 L342.7,245.9 L343.6,242.9 L342.9,238.1 L341.6,237.6 L340.9,233.3 Z">
  <desc xmlns="http://www.highcharts.com/svg/namespace">
    <name>Chad</name>
    <labelrank>3</labelrank>
    <country-abbrev>Chad</country-abbrev>
    <subregion>Middle Africa</subregion>
    <region-wb>Sub-Saharan Africa</region-wb>
    <iso-a3>TCD</iso-a3>
    <iso-a2>TD</iso-a2>
    <woe-id>23424777</woe-id>
    <continent>Africa</continent>
    <hc-middle-x>0.50</hc-middle-x>
    <hc-middle-y>0.50</hc-middle-y>
    <hc-key>td</hc-key>
    <hc-a2>TD</hc-a2>
  </desc>
</path>

<path fill="#CEE3F5" stroke="#6E6E6E" stroke-width="0.4" id="GA" d="M299.1,332.2 L312.0,332.1 L311.8,322.3 L312.1,321.2 L328.0,321.3 L328.5,322.2 L327.2,326.8 L328.1,330.1 L332.7,328.3 L336.0,328.7 L338.4,332.6 L333.4,338.7 L333.1,342.0 L335.5,342.8 L338.7,345.6 L337.8,348.8 L338.5,353.2 L335.3,361.2 L332.4,357.8 L330.1,360.7 L325.9,360.1 L324.5,356.4 L321.3,356.2 L321.6,359.9 L318.3,360.6 L314.1,360.1 L315.2,366.9 L317.4,368.0 L314.9,371.1 L313.5,369.8 L310.4,373.4 L306.5,369.3 L306.4,368.2 L300.2,363.1 L294.8,356.2 L295.5,351.8 L292.7,351.4 L289.9,345.5 L292.8,346.5 L294.7,344.0 L295.0,337.9 L296.6,339.6 L299.3,339.5 L296.6,338.1 L295.0,335.3 L297.8,335.5 L297.1,332.5 Z">
  <desc xmlns="http://www.highcharts.com/svg/namespace">
    <name>Gabon</name>
    <labelrank>4</labelrank>
    <country-abbrev>Gabon</country-abbrev>
    <subregion>Middle Africa</subregion>
    <region-wb>Sub-Saharan Africa</region-wb>
    <iso-a3>GAB</iso-a3>
    <iso-a2>GA</iso-a2>
    <woe-id>23424822</woe-id>
    <continent>Africa</continent>
    <hc-middle-x>0.57</hc-middle-x>
    <hc-middle-y>0.47</hc-middle-y>
    <hc-key>ga</hc-key>
    <hc-a2>GA</hc-a2>
  </desc>
</path>

<path fill="#CEE3F5" stroke="#6E6E6E" stroke-width="0.4" id="DJ" d="M578.9,247.9 L576.3,247.1 L570.6,248.3 L569.2,247.0 L570.0,246.3 L569.2,245.4 L568.9,243.2 L574.3,235.2 L576.9,236.2 L580.6,233.2 L582.4,235.1 L582.8,239.3 L577.5,241.8 L577.3,243.0 L581.6,243.7 Z">
  <desc xmlns="http://www.highcharts.com/svg/namespace">
    <name>Djibouti</name>
    <labelrank>5</labelrank>
    <country-abbrev>Dji.</country-abbrev>
    <subregion>Eastern Africa</subregion>
    <region-wb>Middle East &amp; North Africa</region-wb>
    <iso-a3>DJI</iso-a3>
    <iso-a2>DJ</iso-a2>
    <woe-id>23424797</woe-id>
    <continent>Africa</continent>
    <hc-middle-x>0.80</hc-middle-x>
    <hc-middle-y>0.21</hc-middle-y>
    <hc-key>dj</hc-key>
    <hc-a2>DJ</hc-a2>
  </desc>
</path>

<path fill="#CEE3F5" stroke="#6E6E6E" stroke-width="0.4" id="BI" d="M466.2,377.3 L463.6,371.6 L462.5,368.0 L462.7,365.6 L460.9,362.8 L466.6,363.6 L468.4,362.3 L468.6,359.5 L473.9,360.2 L472.7,364.0 L476.1,365.0 L475.9,367.5 L473.1,369.5 L469.2,375.8 Z">
  <desc xmlns="http://www.highcharts.com/svg/namespace">
    <name>Burundi</name>
    <labelrank>6</labelrank>
    <country-abbrev>Bur.</country-abbrev>
    <subregion>Eastern Africa</subregion>
    <region-wb>Sub-Saharan Africa</region-wb>
    <iso-a3>BDI</iso-a3>
    <iso-a2>BI</iso-a2>
    <woe-id>23424774</woe-id>
    <continent>Africa</continent>
    <hc-middle-x>0.20</hc-middle-x>
    <hc-middle-y>0.59</hc-middle-y>
    <hc-key>bi</hc-key>
    <hc-a2>BI</hc-a2>
  </desc>
</path>

<path fill="#CEE3F5" stroke="#6E6E6E" stroke-width="0.4" id="AO" d="M319.7,388.6 L319.9,386.2 L318.0,382.4 L321.1,378.9 L325.1,377.2 L326.9,379.1 L321.6,382.7 L322.2,388.3 Z M358.0,396.3 L360.7,401.7 L364.6,407.9 L369.9,407.2 L379.8,407.2 L379.8,403.6 L381.1,402.8 L381.2,398.7 L387.6,398.7 L390.3,398.0 L389.5,401.1 L400.2,401.1 L399.9,407.2 L401.4,410.6 L400.8,420.7 L403.3,423.4 L404.6,427.1 L403.4,431.2 L404.0,434.5 L406.5,432.7 L410.5,433.3 L414.5,432.1 L417.4,432.7 L418.5,431.3 L419.3,435.8 L418.4,437.7 L419.0,444.2 L417.6,447.6 L418.8,449.4 L401.9,449.5 L401.9,476.6 L403.0,479.9 L408.4,485.2 L413.6,489.4 L397.1,492.7 L392.1,492.9 L388.2,491.3 L385.7,491.7 L375.0,490.4 L372.4,487.3 L337.0,487.4 L334.8,487.6 L328.3,483.7 L323.2,486.2 L318.8,485.5 L316.6,486.4 L317.0,479.7 L316.4,473.8 L318.4,472.2 L320.7,464.7 L321.1,459.1 L322.6,457.0 L322.6,453.5 L326.2,449.6 L326.2,448.1 L329.7,446.2 L332.0,443.3 L333.3,439.2 L333.7,433.6 L332.9,429.7 L328.2,421.8 L326.5,416.6 L329.7,413.7 L329.6,410.1 L325.2,401.2 L325.0,398.2 L323.2,396.7 L320.3,391.6 L324.2,391.0 L327.9,389.3 L340.7,389.5 L354.2,389.2 L356.6,389.8 Z">
  <desc xmlns="http://www.highcharts.com/svg/namespace">
    <name>Angola</name>
    <labelrank>3</labelrank>
    <country-abbrev>Ang.</country-abbrev>
    <subregion>Middle Africa</subregion>
    <region-wb>Sub-Saharan Africa</region-wb>
    <iso-a3>AGO</iso-a3>
    <iso-a2>AO</iso-a2>
    <woe-id>23424745</woe-id>
    <continent>Africa</continent>
    <hc-middle-x>0.50</hc-middle-x>
    <hc-middle-y>0.63</hc-middle-y>
    <hc-key>ao</hc-key>
    <hc-a2>AO</hc-a2>
  </desc>
</path>

<path fill="#CEE3F5" stroke="#6E6E6E" stroke-width="0.4" id="GN" d="M103.2,266.9 L100.6,260.7 L93.2,256.9 L91.9,253.0 L88.4,250.7 L91.1,246.0 L94.6,244.6 L99.2,244.1 L99.2,241.6 L97.1,240.4 L99.3,239.3 L99.1,235.8 L104.6,236.0 L104.6,237.1 L110.7,238.8 L113.1,237.9 L118.9,237.8 L117.9,239.6 L120.6,241.1 L123.0,239.5 L124.7,242.1 L128.4,239.2 L133.1,240.8 L136.5,238.0 L139.2,237.6 L140.9,241.7 L140.5,243.9 L144.6,246.3 L142.6,248.3 L145.2,249.4 L145.4,253.4 L148.0,256.6 L146.5,258.5 L147.4,263.1 L149.2,262.9 L148.4,268.3 L150.7,269.8 L146.0,271.1 L148.0,274.0 L146.3,278.8 L144.2,278.8 L142.4,277.6 L141.0,281.2 L138.8,282.0 L135.9,279.9 L136.8,278.3 L135.5,272.2 L132.9,270.9 L128.8,271.1 L125.1,272.6 L127.1,269.6 L125.4,264.2 L120.3,258.4 L114.9,258.5 L109.8,259.8 L108.3,263.5 L105.5,266.3 Z">
  <desc xmlns="http://www.highcharts.com/svg/namespace">
    <name>Guinea</name>
    <labelrank>3</labelrank>
    <country-abbrev>Gin.</country-abbrev>
    <subregion>Western Africa</subregion>
    <region-wb>Sub-Saharan Africa</region-wb>
    <iso-a3>GIN</iso-a3>
    <iso-a2>GN</iso-a2>
    <woe-id>23424835</woe-id>
    <continent>Africa</continent>
    <hc-middle-x>0.38</hc-middle-x>
    <hc-middle-y>0.28</hc-middle-y>
    <hc-key>gn</hc-key>
    <hc-a2>GN</hc-a2>
  </desc>
</path>

<path fill="#CEE3F5" stroke="#6E6E6E" stroke-width="0.4" id="ZW" d="M429.3,490.8 L432.8,490.9 L435.3,492.5 L437.2,491.6 L441.4,493.1 L444.0,492.2 L449.6,485.6 L452.6,484.6 L453.2,482.5 L458.2,482.2 L460.6,480.5 L458.6,479.8 L459.4,475.6 L464.0,472.8 L467.6,471.9 L472.2,472.1 L472.3,475.3 L479.5,475.5 L484.9,479.0 L488.1,479.2 L493.7,481.2 L492.5,483.4 L494.1,487.1 L493.4,491.6 L494.2,495.6 L492.9,499.6 L491.3,500.0 L492.7,502.5 L491.9,505.5 L494.1,508.3 L493.9,510.5 L490.9,515.1 L489.8,515.2 L488.9,521.6 L479.5,531.5 L475.8,530.4 L471.3,530.9 L466.8,529.1 L463.4,529.6 L461.1,528.3 L460.8,526.1 L452.4,524.1 L449.4,519.8 L449.6,514.6 L446.1,514.5 L445.6,511.1 L441.6,509.5 L436.6,505.7 L435.0,500.6 L429.0,492.0 Z">
  <desc xmlns="http://www.highcharts.com/svg/namespace">
    <name>Zimbabwe</name>
    <labelrank>3</labelrank>
    <country-abbrev>Zimb.</country-abbrev>
    <subregion>Eastern Africa</subregion>
    <region-wb>Sub-Saharan Africa</region-wb>
    <iso-a3>ZWE</iso-a3>
    <iso-a2>ZW</iso-a2>
    <woe-id>23425004</woe-id>
    <continent>Africa</continent>
    <hc-middle-x>0.63</hc-middle-x>
    <hc-middle-y>0.52</hc-middle-y>
    <hc-key>zw</hc-key>
    <hc-a2>ZW</hc-a2>
  </desc>
</path>

<path fill="#CEE3F5" stroke="#6E6E6E" stroke-width="0.4" id="ZA" d="M486.3,572.0 L488.3,572.2 L492.7,572.0 L489.8,584.6 L488.4,588.0 L483.2,591.8 L478.5,597.5 L471.9,609.7 L468.7,614.0 L463.5,618.3 L459.2,623.7 L451.1,631.0 L444.9,635.3 L439.7,638.1 L435.0,637.6 L432.8,638.5 L433.0,640.7 L426.7,640.3 L426.0,642.4 L415.8,640.3 L414.0,641.6 L407.0,640.5 L399.8,644.4 L393.3,644.1 L390.1,645.1 L385.4,648.6 L382.8,648.3 L379.8,644.6 L375.9,644.2 L376.3,642.1 L371.8,642.1 L373.2,639.2 L367.8,628.9 L371.4,627.2 L372.0,623.4 L370.5,617.6 L368.2,614.6 L363.1,605.0 L359.1,592.9 L356.4,588.2 L359.1,586.2 L359.8,583.6 L363.6,584.9 L364.1,589.4 L370.4,591.2 L375.2,590.6 L378.0,591.8 L382.0,587.7 L385.5,586.4 L385.4,552.7 L388.6,555.3 L390.6,558.9 L392.6,565.4 L390.7,568.1 L391.3,572.4 L399.6,572.0 L408.2,564.0 L409.2,559.4 L410.6,557.8 L414.3,557.5 L418.2,560.7 L425.5,562.5 L432.0,560.6 L434.4,552.7 L438.8,551.6 L442.5,548.1 L443.8,542.7 L450.1,538.8 L454.9,533.1 L459.7,531.9 L460.9,529.9 L463.4,529.6 L466.8,529.1 L471.3,530.9 L475.8,530.4 L479.5,531.5 L481.6,538.3 L481.4,540.7 L484.2,545.5 L485.3,549.8 L484.9,563.8 L480.6,561.8 L478.0,563.4 L475.2,568.5 L475.4,571.6 L478.3,575.3 L485.0,576.4 L485.2,571.7 Z M453.8,604.1 L461.6,600.8 L461.7,598.4 L464.0,595.4 L457.3,588.1 L455.2,588.6 L449.9,591.2 L447.2,595.8 L443.9,598.0 L446.3,602.8 L449.9,607.3 L452.7,607.9 Z">
  <desc xmlns="http://www.highcharts.com/svg/namespace">
    <name>South Africa</name>
    <labelrank>2</labelrank>
    <country-abbrev>S.Af.</country-abbrev>
    <subregion>Southern Africa</subregion>
    <region-wb>Sub-Saharan Africa</region-wb>
    <iso-a3>ZAF</iso-a3>
    <iso-a2>ZA</iso-a2>
    <woe-id>23424942</woe-id>
    <continent>Africa</continent>
    <hc-middle-x>0.44</hc-middle-x>
    <hc-middle-y>0.59</hc-middle-y>
    <hc-key>za</hc-key>
    <hc-a2>ZA</hc-a2>
  </desc>
</path>

<path fill="#CEE3F5" stroke="#6E6E6E" stroke-width="0.4" id="MZ" d="M492.7,572.0 L488.3,572.2 L486.3,572.0 L485.7,566.8 L484.9,563.8 L485.3,549.8 L484.2,545.5 L481.4,540.7 L481.6,538.3 L479.5,531.5 L488.9,521.6 L489.8,515.2 L490.9,515.1 L493.9,510.5 L494.1,508.3 L491.9,505.5 L492.7,502.5 L491.3,500.0 L492.9,499.6 L494.2,495.6 L493.4,491.6 L494.1,487.1 L492.5,483.4 L493.7,481.2 L488.1,479.2 L484.9,479.0 L479.5,475.5 L472.3,475.3 L472.2,472.1 L470.7,466.5 L495.8,458.2 L499.4,463.3 L500.1,462.3 L505.3,461.5 L506.6,463.1 L507.1,469.1 L504.3,474.4 L505.6,477.0 L510.7,482.4 L511.3,485.1 L513.1,485.2 L513.0,481.5 L511.8,480.0 L513.8,476.6 L517.4,475.5 L517.3,468.5 L517.9,463.9 L511.5,455.6 L509.6,454.0 L508.8,449.1 L509.4,447.2 L508.3,442.7 L509.8,441.5 L510.6,437.5 L515.7,437.8 L517.8,436.2 L520.9,438.6 L524.0,438.9 L526.1,437.6 L531.2,438.9 L534.2,437.5 L535.0,435.4 L538.2,435.1 L540.2,436.3 L543.5,434.2 L546.8,434.1 L552.9,431.3 L556.5,428.4 L558.0,431.5 L556.4,438.3 L557.6,449.5 L557.2,455.3 L559.6,462.5 L559.6,465.4 L557.7,468.4 L557.5,471.2 L553.9,474.9 L551.7,479.2 L545.2,483.1 L535.0,487.3 L528.1,491.7 L523.0,497.8 L516.1,502.7 L511.6,507.7 L508.4,509.3 L507.7,514.1 L510.5,516.8 L510.7,519.9 L512.7,524.9 L513.0,531.8 L514.4,528.9 L514.8,536.2 L513.7,544.6 L514.5,547.1 L511.2,551.5 L507.4,553.4 L499.8,556.1 L492.6,560.0 L489.6,563.8 L492.3,566.9 L493.5,564.0 Z">
  <desc xmlns="http://www.highcharts.com/svg/namespace">
    <name>Mozambique</name>
    <labelrank>3</labelrank>
    <country-abbrev>Moz.</country-abbrev>
    <subregion>Eastern Africa</subregion>
    <region-wb>Sub-Saharan Africa</region-wb>
    <iso-a3>MOZ</iso-a3>
    <iso-a2>MZ</iso-a2>
    <woe-id>23424902</woe-id>
    <continent>Africa</continent>
    <hc-middle-x>0.73</hc-middle-x>
    <hc-middle-y>0.24</hc-middle-y>
    <hc-key>mz</hc-key>
    <hc-a2>MZ</hc-a2>
  </desc>
</path>

<path fill="#CEE3F5" stroke="#6E6E6E" stroke-width="0.4" id="SZ" d="M484.9,563.8 L485.7,566.8 L486.3,572.0 L485.2,571.7 L485.0,576.4 L478.3,575.3 L475.4,571.6 L475.2,568.5 L478.0,563.4 L480.6,561.8 Z">
  <desc xmlns="http://www.highcharts.com/svg/namespace">
    <name>Swaziland</name>
    <labelrank>4</labelrank>
    <country-abbrev>Swz.</country-abbrev>
    <subregion>Southern Africa</subregion>
    <region-wb>Sub-Saharan Africa</region-wb>
    <iso-a3>SWZ</iso-a3>
    <iso-a2>SZ</iso-a2>
    <woe-id>23424993</woe-id>
    <continent>Africa</continent>
    <hc-middle-x>0.52</hc-middle-x>
    <hc-middle-y>0.48</hc-middle-y>
    <hc-key>sz</hc-key>
    <hc-a2>SZ</hc-a2>
  </desc>
</path>

<path fill="#CEE3F5" stroke="#6E6E6E" stroke-width="0.4" id="ML" d="M173.0,124.4 L173.0,124.4 L173.0,124.4 L173.0,124.4 L173.0,124.4 L173.0,124.4 L173.0,124.4 L224.2,159.6 L224.5,162.9 L228.5,164.8 L230.7,167.4 L233.1,166.9 L235.0,168.9 L242.0,171.2 L242.3,175.0 L241.0,176.9 L242.8,178.5 L250.6,176.9 L250.9,196.0 L250.5,201.1 L247.9,207.3 L244.8,210.5 L226.4,211.3 L223.4,213.9 L217.0,214.7 L213.1,213.3 L208.7,213.4 L206.3,215.6 L200.8,218.5 L198.5,218.6 L198.0,221.1 L194.3,220.4 L191.1,222.5 L190.7,225.9 L187.6,225.4 L187.8,229.1 L186.0,230.2 L181.6,227.6 L178.4,230.7 L179.7,233.3 L177.4,234.2 L178.2,235.8 L176.8,239.1 L170.7,241.9 L171.3,245.4 L168.9,248.6 L168.8,254.0 L166.4,254.1 L164.7,256.1 L162.8,255.2 L162.7,251.6 L161.2,253.0 L159.1,252.2 L158.9,254.9 L156.7,256.2 L150.7,254.2 L148.0,256.6 L145.4,253.4 L145.2,249.4 L142.6,248.3 L144.6,246.3 L140.5,243.9 L140.9,241.7 L139.2,237.6 L136.5,238.0 L133.1,240.8 L128.4,239.2 L124.7,242.1 L123.0,239.5 L120.6,241.1 L117.9,239.6 L118.9,237.8 L118.9,233.2 L116.9,229.6 L112.7,226.7 L113.8,224.9 L111.6,220.7 L111.1,217.4 L114.9,216.2 L115.6,210.6 L118.3,210.0 L122.5,214.3 L124.0,211.5 L131.7,211.8 L135.8,210.7 L168.3,210.2 L169.6,203.0 L167.2,201.1 L164.1,174.8 L157.9,124.6 L173.0,124.4 L173.0,124.4 L173.0,124.4 L173.0,124.4 Z">
  <desc xmlns="http://www.highcharts.com/svg/namespace">
    <name>Mali</name>
    <labelrank>3</labelrank>
    <country-abbrev>Mali</country-abbrev>
    <subregion>Western Africa</subregion>
    <region-wb>Sub-Saharan Africa</region-wb>
    <iso-a3>MLI</iso-a3>
    <iso-a2>ML</iso-a2>
    <woe-id>23424891</woe-id>
    <continent>Africa</continent>
    <hc-middle-x>0.60</hc-middle-x>
    <hc-middle-y>0.42</hc-middle-y>
    <hc-key>ml</hc-key>
    <hc-a2>ML</hc-a2>
  </desc>
</path>

<path fill="#CEE3F5" stroke="#6E6E6E" stroke-width="0.4" id="BW" d="M385.4,552.7 L385.3,527.9 L393.7,527.6 L393.5,495.4 L397.7,495.2 L410.3,492.7 L413.0,492.6 L415.4,496.7 L420.3,492.8 L423.0,493.1 L426.7,490.7 L429.3,490.8 L429.0,492.0 L435.0,500.6 L436.6,505.7 L441.6,509.5 L445.6,511.1 L446.1,514.5 L449.6,514.6 L449.4,519.8 L452.4,524.1 L460.8,526.1 L461.1,528.3 L463.4,529.6 L460.9,529.9 L459.7,531.9 L454.9,533.1 L450.1,538.8 L443.8,542.7 L442.5,548.1 L438.8,551.6 L434.4,552.7 L432.0,560.6 L425.5,562.5 L418.2,560.7 L414.3,557.5 L410.6,557.8 L409.2,559.4 L408.2,564.0 L399.6,572.0 L391.3,572.4 L390.7,568.1 L392.6,565.4 L390.6,558.9 L388.6,555.3 Z">
  <desc xmlns="http://www.highcharts.com/svg/namespace">
    <name>Botswana</name>
    <labelrank>4</labelrank>
    <country-abbrev>Bwa.</country-abbrev>
    <subregion>Southern Africa</subregion>
    <region-wb>Sub-Saharan Africa</region-wb>
    <iso-a3>BWA</iso-a3>
    <iso-a2>BW</iso-a2>
    <woe-id>23424755</woe-id>
    <continent>Africa</continent>
    <hc-middle-x>0.45</hc-middle-x>
    <hc-middle-y>0.50</hc-middle-y>
    <hc-key>bw</hc-key>
    <hc-a2>BW</hc-a2>
  </desc>
</path>

<path fill="#CEE3F5" stroke="#6E6E6E" stroke-width="0.4" id="SD" d="M528.3,150.6 L528.3,153.7 L530.2,157.1 L531.1,163.6 L530.7,165.5 L531.9,176.2 L533.8,180.3 L534.8,180.0 L538.2,183.5 L542.7,186.6 L539.3,190.8 L533.3,192.6 L532.4,195.2 L529.0,194.8 L527.9,199.6 L528.5,202.0 L524.0,211.9 L524.9,219.3 L523.6,225.3 L522.3,227.1 L521.2,232.9 L517.1,233.9 L513.6,239.7 L512.2,240.8 L511.4,248.5 L508.3,248.4 L505.7,251.1 L506.0,253.7 L503.9,260.6 L502.4,260.6 L502.5,254.3 L496.4,248.7 L495.6,242.3 L496.7,237.0 L492.6,236.9 L492.7,238.7 L487.1,238.7 L489.3,241.2 L489.9,246.9 L485.9,250.3 L483.5,254.0 L479.9,257.6 L475.8,258.1 L469.6,253.5 L466.2,255.3 L465.1,257.9 L461.1,259.2 L459.6,261.6 L452.9,261.5 L451.6,259.2 L444.7,259.1 L440.3,259.9 L434.8,254.1 L434.3,252.2 L427.8,253.3 L425.4,257.5 L423.4,265.3 L420.1,266.9 L414.3,266.1 L414.2,262.9 L415.6,261.9 L415.5,256.6 L412.7,252.0 L409.0,247.9 L409.5,243.8 L406.3,241.4 L406.9,238.0 L403.5,232.3 L401.2,233.2 L401.2,229.5 L404.0,227.1 L402.3,223.4 L406.2,220.3 L404.8,216.6 L407.3,215.4 L409.9,210.7 L409.5,207.7 L411.0,206.5 L418.5,206.4 L418.5,172.9 L418.5,168.4 L427.0,168.4 L427.0,150.3 L480.3,150.4 Z">
  <desc xmlns="http://www.highcharts.com/svg/namespace">
    <name>Sudan</name>
    <labelrank>3</labelrank>
    <country-abbrev>Sudan</country-abbrev>
    <subregion>Northern Africa</subregion>
    <region-wb>Sub-Saharan Africa</region-wb>
    <iso-a3>SDN</iso-a3>
    <iso-a2>SD</iso-a2>
    <woe-id>-90</woe-id>
    <continent>Africa</continent>
    <hc-middle-x>0.48</hc-middle-x>
    <hc-middle-y>0.45</hc-middle-y>
    <hc-key>sd</hc-key>
    <hc-a2>SD</hc-a2>
  </desc>
</path>

<path fill="#CEE3F5" stroke="#6E6E6E" stroke-width="0.4" id="MA" d="M69.7,159.1 L70.0,155.8 L72.2,151.2 L73.7,150.8 L75.6,145.4 L79.9,136.5 L87.1,128.7 L88.0,121.5 L91.0,113.8 L97.7,109.6 L101.4,100.1 L103.0,97.8 L110.8,96.0 L115.6,93.6 L119.3,89.4 L123.3,87.1 L126.9,82.8 L131.0,75.8 L131.3,73.1 L128.9,70.4 L129.1,63.2 L133.1,56.9 L134.0,51.4 L140.1,44.3 L148.9,40.2 L154.6,36.1 L159.0,27.4 L162.2,17.7 L166.5,16.3 L167.8,19.9 L172.0,23.4 L175.4,24.3 L181.4,22.8 L183.6,23.7 L187.4,22.5 L188.2,24.2 L193.8,24.7 L197.8,28.3 L196.9,29.8 L198.7,34.9 L198.8,43.7 L201.0,48.8 L204.2,51.0 L202.6,55.4 L191.7,55.0 L188.1,55.9 L189.1,58.4 L182.0,60.0 L180.7,63.3 L183.0,66.9 L182.3,69.3 L176.1,71.4 L168.4,77.6 L166.2,81.2 L164.4,80.4 L152.5,81.6 L148.5,82.8 L139.5,90.0 L139.7,99.6 L138.5,99.7 L138.8,104.8 L133.5,105.2 L130.8,107.4 L126.4,107.5 L120.7,106.2 L116.7,107.5 L117.2,109.8 L114.0,114.9 L111.4,115.6 L108.2,127.0 L102.9,131.1 L100.8,135.0 L96.9,136.8 L94.8,140.4 L93.3,150.5 L89.9,154.7 L88.2,158.4 L80.5,158.2 Z">
  <desc xmlns="http://www.highcharts.com/svg/namespace">
    <name>Morocco</name>
    <labelrank>3</labelrank>
    <country-abbrev>Mor.</country-abbrev>
    <subregion>Northern Africa</subregion>
    <region-wb>Middle East &amp; North Africa</region-wb>
    <iso-a3>MAR</iso-a3>
    <iso-a2>MA</iso-a2>
    <woe-id>23424893</woe-id>
    <continent>Africa</continent>
    <hc-middle-x>0.73</hc-middle-x>
    <hc-middle-y>0.27</hc-middle-y>
    <hc-key>ma</hc-key>
    <hc-a2>MA</hc-a2>
  </desc>
</path>

<path fill="#CEE3F5" stroke="#6E6E6E" stroke-width="0.4" id="EG" d="M528.3,150.6 L480.3,150.4 L427.0,150.3 L427.0,82.7 L424.5,73.3 L427.1,66.9 L425.9,61.0 L428.4,58.3 L430.6,59.8 L434.2,58.7 L447.2,61.2 L451.9,63.7 L456.2,64.0 L461.6,66.6 L465.6,65.3 L473.0,59.8 L474.5,61.0 L480.3,59.1 L482.9,60.4 L486.3,59.7 L485.0,61.9 L487.8,64.1 L489.8,62.2 L492.1,64.3 L496.4,62.6 L501.1,63.8 L505.8,61.9 L511.1,77.4 L509.4,86.9 L507.5,91.3 L507.6,94.5 L504.6,96.2 L497.5,88.8 L496.6,84.3 L493.1,80.0 L491.8,75.2 L489.8,78.7 L492.0,81.2 L492.3,84.8 L494.3,88.7 L499.8,94.7 L499.7,97.7 L503.9,105.3 L504.0,107.5 L508.5,115.9 L514.3,128.4 L518.4,132.2 L516.7,132.3 L516.5,136.8 L518.2,142.0 L522.5,144.6 Z">
  <desc xmlns="http://www.highcharts.com/svg/namespace">
    <name>Egypt</name>
    <labelrank>2</labelrank>
    <country-abbrev>Egypt</country-abbrev>
    <subregion>Northern Africa</subregion>
    <region-wb>Middle East &amp; North Africa</region-wb>
    <iso-a3>EGY</iso-a3>
    <iso-a2>EG</iso-a2>
    <woe-id>23424802</woe-id>
    <continent>Africa</continent>
    <hc-middle-x>0.38</hc-middle-x>
    <hc-middle-y>0.57</hc-middle-y>
    <hc-key>eg</hc-key>
    <hc-a2>EG</hc-a2>
  </desc>
</path>

<path fill="#CEE3F5" stroke="#6E6E6E" stroke-width="0.4" id="LS" d="M453.8,604.1 L452.7,607.9 L449.9,607.3 L446.3,602.8 L443.9,598.0 L447.2,595.8 L449.9,591.2 L455.2,588.6 L457.3,588.1 L464.0,595.4 L461.7,598.4 L461.6,600.8 Z">
  <desc xmlns="http://www.highcharts.com/svg/namespace">
    <name>Lesotho</name>
    <labelrank>6</labelrank>
    <country-abbrev>Les.</country-abbrev>
    <subregion>Southern Africa</subregion>
    <region-wb>Sub-Saharan Africa</region-wb>
    <iso-a3>LSO</iso-a3>
    <iso-a2>LS</iso-a2>
    <woe-id>23424880</woe-id>
    <continent>Africa</continent>
    <hc-middle-x>0.50</hc-middle-x>
    <hc-middle-y>0.48</hc-middle-y>
    <hc-key>ls</hc-key>
    <hc-a2>LS</hc-a2>
  </desc>
</path>

<path fill="#CEE3F5" stroke="#6E6E6E" stroke-width="0.4" id="SS" d="M502.9,304.9 L499.1,308.6 L494.8,307.7 L489.3,308.9 L487.7,310.7 L484.3,308.2 L482.0,309.5 L478.9,308.4 L476.4,310.9 L473.9,309.9 L473.7,307.7 L471.1,307.0 L464.7,301.1 L462.4,303.6 L458.8,301.9 L455.9,304.2 L450.5,301.5 L447.7,297.5 L445.1,291.7 L439.6,288.8 L438.0,286.4 L438.8,284.2 L435.8,281.3 L430.2,278.4 L429.5,275.7 L425.7,271.4 L419.8,269.9 L420.1,266.9 L423.4,265.3 L425.4,257.5 L427.8,253.3 L434.3,252.2 L434.8,254.1 L440.3,259.9 L444.7,259.1 L451.6,259.2 L452.9,261.5 L459.6,261.6 L461.1,259.2 L465.1,257.9 L466.2,255.3 L469.6,253.5 L475.8,258.1 L479.9,257.6 L483.5,254.0 L485.9,250.3 L489.9,246.9 L489.3,241.2 L487.1,238.7 L492.7,238.7 L492.6,236.9 L496.7,237.0 L495.6,242.3 L496.4,248.7 L502.5,254.3 L502.4,260.6 L503.9,260.6 L504.2,267.6 L503.0,269.2 L496.2,269.5 L495.2,274.6 L500.8,275.8 L505.7,281.7 L509.4,284.5 L511.4,291.2 L514.3,295.4 L518.4,295.8 L518.2,300.3 L519.3,301.6 L516.7,301.6 L515.0,298.1 L506.3,301.5 Z">
  <desc xmlns="http://www.highcharts.com/svg/namespace">
    <name>South Sudan</name>
    <labelrank>3</labelrank>
    <country-abbrev>S. Sud.</country-abbrev>
    <subregion>Eastern Africa</subregion>
    <region-wb>Sub-Saharan Africa</region-wb>
    <iso-a3>SSD</iso-a3>
    <iso-a2>SS</iso-a2>
    <woe-id>-99</woe-id>
    <continent>Africa</continent>
    <hc-middle-x>0.51</hc-middle-x>
    <hc-middle-y>0.49</hc-middle-y>
    <hc-key>ss</hc-key>
    <hc-a2>SS</hc-a2>
  </desc>
</path>

<path fill="#CEE3F5" stroke="#6E6E6E" stroke-width="0.4" id="CF" d="M420.1,266.9 L419.8,269.9 L425.7,271.4 L429.5,275.7 L430.2,278.4 L435.8,281.3 L438.8,284.2 L438.0,286.4 L439.6,288.8 L445.1,291.7 L447.7,297.5 L445.0,296.5 L442.9,297.8 L439.5,297.6 L436.7,296.0 L434.1,296.5 L430.2,295.5 L429.7,297.9 L425.4,298.8 L422.8,297.3 L413.5,301.6 L409.4,299.6 L405.4,305.4 L399.5,304.1 L395.2,304.1 L392.3,302.8 L390.0,303.1 L387.8,300.1 L382.6,297.0 L379.9,297.1 L377.2,299.0 L374.1,303.4 L372.6,304.1 L373.5,306.8 L373.4,311.0 L372.1,309.7 L366.8,310.5 L363.5,309.1 L356.0,311.2 L355.3,316.5 L352.9,321.5 L352.0,316.2 L344.2,308.8 L342.8,303.3 L340.4,301.5 L339.2,290.6 L337.6,289.8 L340.3,287.7 L344.5,279.4 L346.7,277.0 L349.3,277.6 L354.2,275.7 L355.7,274.0 L357.6,276.7 L365.3,273.0 L372.9,272.5 L377.5,267.1 L375.3,265.5 L377.2,264.2 L388.5,263.2 L391.8,260.8 L393.4,258.0 L399.6,252.3 L399.4,250.4 L405.6,247.2 L409.0,247.9 L412.7,252.0 L415.5,256.6 L415.6,261.9 L414.2,262.9 L414.3,266.1 Z">
  <desc xmlns="http://www.highcharts.com/svg/namespace">
    <name>Central African Republic</name>
    <labelrank>4</labelrank>
    <country-abbrev>C.A.R.</country-abbrev>
    <subregion>Middle Africa</subregion>
    <region-wb>Sub-Saharan Africa</region-wb>
    <iso-a3>CAF</iso-a3>
    <iso-a2>CF</iso-a2>
    <woe-id>23424792</woe-id>
    <continent>Africa</continent>
    <hc-middle-x>0.51</hc-middle-x>
    <hc-middle-y>0.45</hc-middle-y>
    <hc-key>cf</hc-key>
    <hc-a2>CF</hc-a2>
  </desc>
</path>
</g>

</svg>