<svg version="1.1" height="700pt" width="700pt" xmlns="http://www.w3.org/2000/svg" xmlns:xlink="http://www.w3.org/1999/xlink">
<desc>
Map version: 1.1.2
Copyright (c) 2015 Highsoft AS, Based on data from Natural Earth
</desc>
<title>European Union</title>
<g id="admin0">

<path fill="#CEE3F5" stroke="#6E6E6E" stroke-width="0.4" id="DK" d="M306.4,317.1 L308.3,318.0 L306.8,318.4 L304.9,316.3 Z M330.9,314.6 L330.6,315.7 L328.4,315.7 L327.5,316.8 L326.4,315.7 L328.6,314.1 Z M300.2,313.6 L302.8,315.9 L302.1,317.9 L300.4,317.1 L300.3,314.8 L298.3,314.0 Z M311.9,316.3 L310.7,320.2 L309.7,318.2 L310.3,316.4 L313.2,312.1 Z M356.9,308.7 L359.9,310.5 L359.3,313.3 L355.9,312.4 L354.8,311.5 L355.4,307.4 Z M284.9,306.4 L285.5,306.6 L285.3,308.3 L284.4,306.6 Z M331.0,303.8 L330.3,302.6 L331.2,301.0 L332.0,302.8 Z M309.3,298.0 L309.4,299.6 L308.2,299.7 L308.9,297.7 Z M319.5,282.2 L318.7,281.9 L318.8,281.5 L320.2,281.2 Z M290.9,276.9 L290.5,279.8 L289.3,281.9 L288.0,282.2 L286.9,280.1 L288.1,278.1 Z M315.1,269.7 L313.8,270.4 L313.4,272.1 L311.5,270.9 L313.4,269.8 Z M293.8,318.9 L293.4,318.0 L289.3,316.9 L287.5,317.0 L287.8,312.4 L286.6,312.2 L285.6,313.6 L285.4,311.5 L287.9,312.2 L287.2,306.5 L285.2,305.9 L283.8,304.0 L283.1,304.8 L281.5,303.9 L282.7,299.1 L284.8,297.5 L283.8,293.9 L281.9,293.0 L282.2,291.4 L282.3,284.6 L282.9,282.3 L284.3,284.1 L287.1,284.2 L287.8,286.2 L288.8,286.1 L289.0,283.1 L291.3,279.9 L292.9,280.0 L293.7,281.8 L292.3,283.5 L294.7,283.3 L294.9,281.9 L293.6,278.2 L294.9,276.2 L296.5,275.6 L298.4,276.6 L299.2,275.4 L301.6,275.0 L300.2,274.1 L294.7,276.0 L293.1,274.9 L290.8,276.3 L288.4,276.9 L286.3,280.2 L287.5,283.2 L286.8,283.9 L283.7,280.3 L284.0,279.0 L287.8,273.6 L289.6,274.0 L291.7,272.9 L294.3,273.3 L296.3,272.9 L298.0,271.4 L300.3,267.2 L302.2,264.6 L304.6,264.4 L308.7,261.4 L307.0,265.0 L308.3,267.6 L308.2,271.5 L307.2,272.5 L305.3,277.9 L306.4,284.7 L308.4,285.6 L311.0,285.1 L312.9,286.8 L312.4,289.1 L310.6,291.4 L309.3,291.0 L308.3,293.7 L307.6,292.2 L308.0,290.2 L306.9,289.8 L304.9,292.8 L305.5,295.2 L305.2,297.3 L301.3,298.8 L303.0,299.3 L303.2,300.5 L300.2,302.0 L300.9,302.9 L299.3,304.7 L296.9,305.6 L298.7,305.8 L297.9,306.8 L299.3,310.3 L299.0,311.3 L296.9,312.0 L297.8,314.1 L299.6,315.5 L299.6,318.3 L297.9,316.5 L296.2,318.8 Z M313.7,319.2 L315.0,318.3 L313.9,317.3 L314.7,316.1 L316.6,315.9 L317.9,317.3 L320.4,318.6 L321.9,317.4 L323.4,319.9 L322.4,321.8 L320.7,321.4 L319.2,322.2 Z M308.5,314.5 L304.8,313.3 L302.4,311.8 L301.2,310.2 L301.2,308.3 L298.9,305.5 L299.8,304.5 L301.3,305.2 L306.2,303.2 L307.9,304.5 L307.7,306.5 L309.2,305.6 L309.2,303.2 L310.7,305.2 L309.8,306.1 L311.3,308.1 L311.6,310.9 L310.7,313.7 Z M320.9,311.4 L318.3,310.7 L316.5,311.1 L316.3,309.6 L314.6,307.9 L315.9,307.4 L315.2,304.2 L313.1,300.9 L316.3,300.8 L318.7,298.6 L318.7,296.6 L321.8,296.0 L320.7,297.2 L322.4,301.7 L323.0,299.2 L324.4,297.2 L325.2,302.1 L325.5,300.6 L324.7,296.5 L322.9,295.9 L326.9,292.8 L329.6,293.2 L331.1,294.3 L330.0,296.7 L331.1,300.8 L329.7,302.9 L327.3,304.1 L327.1,306.3 L329.6,307.9 L329.1,309.7 L326.8,310.3 L325.7,311.9 L326.7,312.3 L326.6,314.9 L325.5,315.4 L324.4,315.8 L326.9,317.9 L324.6,320.8 L324.8,323.2 L323.6,321.5 L324.0,320.3 L322.1,317.4 L322.1,315.6 L323.6,315.3 Z">
  <desc xmlns="http://www.highcharts.com/svg/namespace">
    <name>Denmark</name>
    <labelrank>4</labelrank>
    <country-abbrev>Den.</country-abbrev>
    <subregion>Northern Europe</subregion>
    <region-wb>Europe &amp; Central Asia</region-wb>
    <iso-a3>DNK</iso-a3>
    <iso-a2>DK</iso-a2>
    <woe-id>23424796</woe-id>
    <continent>Europe</continent>
    <hc-middle-x>0.20</hc-middle-x>
    <hc-middle-y>0.46</hc-middle-y>
    <hc-key>dk</hc-key>
    <hc-a2>DK</hc-a2>
  </desc>
</path>

<path fill="#CEE3F5" stroke="#6E6E6E" stroke-width="0.4" id="DE" d="M287.5,317.0 L289.3,316.9 L293.4,318.0 L293.8,318.9 L296.2,318.8 L297.8,317.7 L300.5,319.9 L301.5,319.2 L302.9,321.5 L302.7,324.0 L301.2,325.6 L303.9,325.0 L305.0,326.7 L306.0,326.0 L311.3,328.4 L313.1,327.1 L314.8,327.9 L314.7,330.9 L311.1,333.7 L312.7,335.2 L316.0,334.1 L316.8,335.5 L319.3,336.3 L319.6,334.4 L321.4,331.6 L325.9,330.8 L329.2,328.3 L330.9,324.9 L333.1,325.6 L329.4,328.1 L332.9,326.4 L335.2,326.8 L336.9,325.4 L338.0,328.4 L340.0,329.2 L342.1,331.7 L344.7,330.5 L345.9,331.3 L346.1,330.1 L350.8,334.4 L350.5,335.0 L350.8,335.6 L347.1,336.4 L347.2,334.7 L346.4,335.8 L348.4,337.7 L351.2,337.9 L351.7,339.0 L352.4,342.7 L353.9,347.2 L353.4,351.6 L351.2,353.4 L351.1,355.6 L354.2,357.6 L357.5,360.5 L356.5,363.6 L357.4,366.4 L358.5,366.8 L358.6,369.3 L359.5,370.1 L357.8,375.6 L359.6,378.0 L359.9,381.1 L362.6,382.2 L363.8,386.2 L363.2,389.6 L361.7,393.8 L359.3,394.2 L359.5,392.9 L357.6,390.9 L355.1,390.7 L354.5,391.8 L356.0,393.7 L350.5,396.0 L349.9,397.1 L347.0,397.5 L345.2,399.8 L342.5,400.2 L341.7,401.9 L339.9,402.1 L338.8,403.8 L337.6,403.2 L333.7,404.3 L331.7,406.9 L331.1,408.8 L330.4,407.0 L328.4,405.9 L330.7,411.1 L333.5,412.5 L334.2,413.7 L332.6,417.0 L335.8,421.4 L336.1,422.9 L338.1,424.8 L340.7,425.4 L343.1,428.7 L344.7,429.1 L347.2,432.1 L348.8,431.8 L351.6,435.2 L351.6,438.2 L350.6,440.0 L348.0,438.9 L346.7,443.0 L345.1,444.5 L342.0,445.5 L338.3,448.4 L338.6,449.5 L341.8,453.6 L340.6,456.1 L342.3,456.2 L343.0,457.9 L342.7,460.5 L341.4,461.0 L339.2,459.4 L338.9,457.2 L335.4,458.1 L334.4,456.9 L331.2,456.7 L331.1,458.7 L328.0,458.7 L326.5,459.4 L323.9,459.2 L323.0,460.7 L321.2,460.9 L319.2,463.0 L315.5,463.2 L313.0,460.8 L308.0,459.7 L308.5,462.4 L306.6,465.0 L304.6,465.7 L305.0,463.5 L303.5,463.8 L303.5,462.4 L301.8,460.7 L298.8,460.3 L296.0,458.4 L293.6,457.6 L290.3,454.9 L291.7,457.8 L288.1,458.1 L284.1,455.3 L282.3,455.8 L281.3,457.7 L283.6,457.8 L282.0,459.3 L278.5,458.6 L277.2,459.5 L273.7,458.9 L271.9,459.8 L270.6,459.0 L270.0,455.1 L271.3,450.9 L270.8,449.0 L273.3,444.0 L274.2,439.0 L278.1,435.1 L279.4,432.4 L276.0,430.9 L272.4,430.7 L269.2,428.0 L267.6,429.2 L262.1,427.0 L260.4,427.6 L258.0,422.4 L256.1,421.9 L256.3,419.7 L258.2,417.2 L258.4,415.4 L255.0,413.4 L253.6,410.2 L253.9,408.8 L254.4,407.0 L257.3,405.2 L257.0,401.9 L255.3,401.7 L255.2,399.2 L253.1,396.5 L254.1,393.5 L252.4,391.0 L255.4,388.8 L254.4,387.2 L256.3,384.2 L256.3,381.8 L255.3,379.2 L253.5,377.4 L253.4,375.9 L255.9,374.3 L258.9,375.8 L264.2,373.4 L262.6,371.9 L267.0,368.3 L267.4,365.7 L266.5,364.0 L263.2,363.4 L264.3,360.2 L267.4,360.2 L268.1,356.2 L269.4,354.1 L269.8,348.7 L271.1,347.0 L267.9,346.0 L268.8,342.0 L270.4,340.5 L278.9,339.7 L281.3,343.0 L280.0,344.0 L281.6,345.8 L283.0,343.9 L282.3,342.1 L285.9,343.3 L285.0,340.6 L286.1,337.2 L287.4,336.6 L289.4,337.8 L294.2,337.2 L297.5,342.4 L297.1,340.2 L295.5,337.9 L293.5,336.7 L291.1,336.6 L289.1,333.8 L291.0,333.9 L290.8,331.7 L289.5,332.1 L289.3,329.5 L290.7,328.3 L287.1,329.1 L286.9,326.9 L289.6,326.4 L291.3,324.7 L289.0,321.1 L287.7,320.2 Z M347.2,334.4 L347.3,333.5 L349.0,334.4 L347.7,332.1 L345.7,333.0 L345.9,331.8 L345.4,332.8 Z M264.8,342.0 L264.2,342.1 L263.8,341.5 L265.3,341.2 Z M271.9,339.4 L269.9,339.8 L269.4,339.6 L270.6,339.3 Z M275.1,339.0 L273.8,339.1 L273.5,338.7 L274.9,338.8 Z M277.1,338.6 L276.5,338.9 L275.9,338.7 L276.3,338.3 Z M319.7,334.0 L319.3,335.0 L318.3,334.8 L319.3,333.8 Z M289.9,325.4 L289.0,324.7 L289.4,324.4 L290.8,324.3 Z M316.7,325.2 L317.4,326.4 L315.1,326.4 L313.9,325.4 L315.2,324.1 Z M287.4,324.7 L286.8,324.9 L286.7,324.1 L287.8,323.6 Z M338.2,322.2 L337.8,322.4 L337.2,324.0 L337.6,322.1 Z M284.0,320.6 L284.2,322.0 L283.9,322.3 L283.2,321.4 Z M286.4,320.9 L284.4,320.5 L285.2,319.7 L286.2,319.8 Z M284.4,317.0 L283.3,317.0 L284.3,314.2 L284.0,315.6 Z M338.3,323.1 L340.6,322.3 L341.4,324.1 L342.1,322.8 L339.6,321.2 L340.8,321.0 L341.7,322.4 L343.7,322.2 L343.0,324.4 L345.3,326.8 L342.3,326.9 L339.7,328.8 L337.9,327.3 L339.4,326.2 Z">
  <desc xmlns="http://www.highcharts.com/svg/namespace">
    <name>Germany</name>
    <labelrank>2</labelrank>
    <country-abbrev>Ger.</country-abbrev>
    <subregion>Western Europe</subregion>
    <region-wb>Europe &amp; Central Asia</region-wb>
    <iso-a3>DEU</iso-a3>
    <iso-a2>DE</iso-a2>
    <woe-id>23424829</woe-id>
    <continent>Europe</continent>
    <hc-middle-x>0.46</hc-middle-x>
    <hc-middle-y>0.52</hc-middle-y>
    <hc-key>de</hc-key>
    <hc-a2>DE</hc-a2>
  </desc>
</path>

<path fill="#CEE3F5" stroke="#6E6E6E" stroke-width="0.4" id="FR" d="M149.2,478.4 L150.4,480.6 L149.7,482.2 L147.9,478.7 Z M147.5,473.2 L149.6,474.4 L150.1,475.4 L146.4,473.0 Z M138.2,462.5 L137.0,462.4 L137.0,461.9 L137.5,462.0 Z M140.3,457.6 L139.5,457.7 L139.1,456.3 L140.3,456.7 Z M129.4,448.6 L129.9,449.3 L127.7,448.5 L127.8,447.1 Z M108.8,421.8 L108.2,422.2 L107.7,421.8 L108.6,421.6 Z M181.7,552.2 L182.2,550.1 L178.6,549.1 L177.9,549.9 L176.6,547.4 L174.0,547.0 L173.2,545.7 L167.4,543.8 L166.8,546.8 L161.5,546.4 L160.1,545.0 L157.0,545.4 L155.5,543.0 L153.3,541.8 L149.5,542.1 L147.4,538.8 L144.2,538.1 L137.4,534.6 L139.1,531.6 L134.4,529.9 L134.0,527.9 L135.9,528.0 L139.1,524.9 L142.3,516.7 L145.2,507.5 L146.5,504.5 L148.5,504.7 L147.1,502.3 L145.4,505.1 L149.6,488.6 L150.6,487.2 L154.3,492.6 L154.7,497.6 L155.3,497.7 L154.7,490.7 L153.8,488.8 L149.6,484.2 L149.3,482.6 L150.8,482.5 L151.8,480.7 L152.1,476.9 L150.9,475.5 L152.4,473.8 L147.6,469.9 L143.8,467.6 L143.6,464.9 L140.7,460.8 L141.3,458.7 L143.1,456.6 L141.2,454.0 L141.9,451.2 L140.0,452.2 L136.8,449.0 L139.1,448.6 L138.0,446.3 L133.8,446.1 L132.8,444.8 L135.0,445.3 L134.8,443.7 L130.8,444.0 L125.6,439.0 L121.5,437.8 L120.8,435.9 L118.5,435.7 L116.7,436.8 L114.8,436.4 L114.7,433.0 L111.8,430.6 L117.0,430.8 L117.2,429.1 L115.4,427.7 L114.2,428.8 L114.6,426.4 L119.1,427.4 L115.9,425.9 L117.3,424.9 L112.0,425.1 L112.4,422.2 L113.3,420.9 L115.6,420.1 L118.9,420.6 L123.4,419.7 L124.6,422.0 L125.5,420.1 L128.4,421.5 L129.6,418.7 L131.4,419.4 L135.1,419.2 L135.5,420.7 L137.7,423.9 L139.0,427.0 L144.4,424.5 L145.3,426.7 L146.3,425.8 L150.4,425.0 L150.2,426.7 L156.2,427.0 L154.2,424.9 L155.2,419.5 L155.1,415.6 L152.9,411.9 L153.1,408.5 L152.5,405.3 L156.5,407.4 L159.2,406.7 L161.0,408.7 L159.8,409.8 L161.0,412.5 L165.3,414.5 L170.4,415.7 L172.7,417.2 L175.1,416.8 L177.9,415.3 L181.1,415.0 L177.3,413.7 L177.2,412.7 L179.6,409.4 L185.5,407.3 L191.9,406.4 L194.9,404.5 L196.3,402.6 L198.6,402.1 L197.2,400.8 L198.4,395.2 L199.0,389.5 L204.1,387.3 L211.0,386.5 L211.0,386.5 L211.8,389.1 L211.3,391.4 L213.5,393.9 L218.0,393.5 L219.1,398.3 L221.5,398.7 L223.6,400.3 L223.6,402.8 L228.1,402.8 L230.2,404.6 L229.1,407.0 L230.0,408.4 L229.0,409.9 L232.6,411.1 L235.5,410.2 L235.9,408.4 L238.4,407.4 L237.1,410.6 L237.7,414.3 L238.9,414.2 L243.0,418.0 L244.3,418.3 L245.2,420.5 L249.2,419.9 L251.2,421.9 L253.5,421.0 L256.1,421.9 L258.0,422.4 L260.4,427.6 L262.1,427.0 L267.6,429.2 L269.2,428.0 L272.4,430.7 L276.0,430.9 L279.4,432.4 L278.1,435.1 L274.2,439.0 L273.3,444.0 L270.8,449.0 L271.3,450.9 L270.0,455.1 L270.6,459.0 L267.8,461.9 L266.0,462.1 L265.2,460.7 L263.0,460.4 L260.9,463.1 L263.3,463.5 L262.0,465.3 L257.0,470.1 L254.9,470.9 L254.6,474.4 L250.4,477.5 L249.2,480.8 L250.2,482.1 L249.5,484.2 L247.6,484.8 L247.6,486.4 L249.6,486.4 L252.1,484.5 L252.4,481.9 L255.2,481.3 L259.1,481.5 L259.5,484.3 L258.6,486.9 L259.7,487.2 L261.8,491.1 L258.7,492.9 L258.6,495.0 L260.8,496.7 L261.0,499.2 L263.3,501.3 L262.5,504.2 L258.7,506.6 L257.3,506.0 L255.4,506.9 L257.0,508.8 L256.9,510.4 L259.7,511.9 L261.3,515.4 L260.3,515.2 L258.3,518.0 L259.2,520.2 L258.4,521.4 L260.6,524.1 L265.4,526.6 L269.4,525.7 L269.8,527.5 L266.6,531.7 L266.9,533.2 L264.4,535.2 L261.8,535.7 L261.6,537.7 L259.2,537.7 L258.4,539.6 L255.6,540.3 L253.6,542.6 L254.7,544.3 L245.2,546.3 L244.0,545.1 L242.7,546.8 L239.6,543.8 L235.6,543.0 L235.0,540.2 L231.7,540.5 L230.9,539.4 L233.3,538.6 L231.5,535.9 L231.8,538.1 L229.9,538.2 L228.2,539.9 L224.6,539.1 L223.9,537.4 L219.6,537.0 L218.3,535.1 L215.9,535.2 L211.1,537.9 L209.4,539.6 L207.5,539.4 L203.3,542.5 L201.9,545.6 L201.4,553.3 L203.0,555.9 L199.5,554.8 L192.4,556.6 L189.9,554.6 L186.4,555.7 L184.8,553.9 Z M185.3,553.8 L185.9,553.8 L185.5,553.0 L185.1,553.4 Z M290.9,581.4 L284.6,577.6 L284.7,576.1 L286.5,575.0 L283.2,574.3 L284.5,572.4 L284.0,570.3 L282.0,570.9 L281.7,569.5 L284.0,568.1 L281.7,566.3 L281.2,564.1 L283.3,563.4 L281.4,562.1 L283.8,557.8 L288.2,556.2 L289.5,554.7 L292.2,555.7 L293.0,549.5 L294.2,549.0 L295.0,552.7 L294.6,556.3 L295.7,558.3 L295.9,566.9 L293.7,570.0 L293.6,574.9 L291.6,578.3 Z">
  <desc xmlns="http://www.highcharts.com/svg/namespace">
    <name>France</name>
    <labelrank>2</labelrank>
    <country-abbrev>Fr.</country-abbrev>
    <subregion>Western Europe</subregion>
    <region-wb>Europe &amp; Central Asia</region-wb>
    <iso-a3>FRA</iso-a3>
    <iso-a2>FR</iso-a2>
    <woe-id>-90</woe-id>
    <continent>Europe</continent>
    <hc-middle-x>0.48</hc-middle-x>
    <hc-middle-y>0.50</hc-middle-y>
    <hc-key>fr</hc-key>
    <hc-a2>FR</hc-a2>
  </desc>
</path>

<path fill="#CEE3F5" stroke="#6E6E6E" stroke-width="0.4" id="IE" d="M65.5,347.7 L65.6,347.9 L64.6,348.0 L64.6,347.4 Z M61.2,340.6 L61.4,341.0 L59.8,341.1 L60.1,340.7 Z M74.2,319.9 L75.1,320.2 L75.0,321.0 L73.6,319.6 Z M75.8,318.3 L75.4,318.4 L75.3,317.5 L75.9,317.4 Z M76.6,302.7 L75.9,305.3 L75.2,303.5 L73.1,302.4 Z M97.7,289.1 L96.8,288.9 L97.3,288.2 L97.7,288.6 Z M117.9,311.7 L119.3,314.0 L116.6,313.3 L115.9,314.9 L117.2,316.2 L116.5,320.4 L117.7,322.1 L116.5,325.5 L115.3,325.9 L116.3,327.6 L116.1,333.9 L112.3,339.0 L111.9,341.3 L108.9,344.4 L107.7,344.0 L109.3,346.8 L108.4,347.8 L105.7,347.2 L103.3,345.4 L102.1,346.9 L101.7,344.9 L100.7,346.8 L95.7,345.9 L94.0,346.2 L93.3,348.0 L90.3,348.0 L87.7,349.8 L84.7,349.6 L85.9,348.2 L84.1,348.2 L83.9,350.2 L78.4,352.4 L76.6,351.6 L71.3,351.9 L69.9,350.8 L64.5,351.3 L64.6,350.5 L68.6,349.1 L65.5,349.4 L66.4,348.7 L70.0,348.0 L69.4,347.0 L65.0,347.2 L62.9,347.8 L62.6,346.2 L67.6,344.2 L63.1,344.6 L61.9,342.3 L60.3,343.1 L60.3,341.3 L62.0,341.1 L62.3,339.7 L66.6,339.2 L67.1,338.2 L60.6,336.9 L61.1,335.4 L65.0,334.4 L68.1,336.4 L69.3,333.8 L68.2,332.8 L71.7,332.3 L72.8,330.8 L76.8,331.9 L80.7,331.4 L80.8,329.3 L78.5,331.4 L76.2,331.3 L73.9,329.8 L71.8,330.4 L70.6,329.8 L74.1,327.8 L75.1,327.9 L77.7,324.9 L76.3,324.4 L79.7,321.2 L80.8,322.2 L82.4,321.4 L83.5,322.2 L84.1,319.9 L76.4,318.4 L77.2,316.0 L73.7,316.0 L75.2,314.9 L72.5,314.3 L71.7,310.6 L74.1,311.2 L73.4,310.3 L75.7,310.5 L75.8,307.6 L79.8,308.1 L80.3,306.1 L76.3,305.8 L76.8,304.0 L77.8,304.6 L77.7,301.0 L77.1,298.8 L77.8,297.3 L80.0,298.8 L79.5,297.2 L86.1,300.0 L86.4,302.8 L88.0,300.4 L92.6,302.3 L94.4,302.3 L92.6,300.2 L97.8,298.3 L100.0,296.4 L97.9,296.6 L96.7,295.6 L93.9,295.3 L92.9,293.4 L95.0,292.6 L96.9,293.2 L96.2,291.7 L98.7,292.2 L97.7,289.8 L100.8,286.2 L102.6,286.8 L106.3,286.7 L108.2,285.9 L108.6,289.4 L107.1,290.2 L109.0,290.7 L109.0,287.5 L109.6,285.8 L111.8,286.0 L111.5,284.4 L113.3,285.8 L115.5,288.7 L112.9,289.5 L111.5,290.8 L109.5,291.6 L106.8,296.2 L104.5,296.3 L103.4,295.5 L102.4,296.7 L103.9,298.0 L102.5,299.1 L100.8,298.6 L98.5,299.7 L100.8,303.7 L101.0,305.5 L103.2,307.4 L106.4,308.6 L108.9,306.5 L108.4,305.5 L110.7,303.7 L112.2,305.5 L112.6,308.4 L114.1,309.4 L113.8,312.0 Z">
  <desc xmlns="http://www.highcharts.com/svg/namespace">
    <name>Ireland</name>
    <labelrank>3</labelrank>
    <country-abbrev>Ire.</country-abbrev>
    <subregion>Northern Europe</subregion>
    <region-wb>Europe &amp; Central Asia</region-wb>
    <iso-a3>IRL</iso-a3>
    <iso-a2>IE</iso-a2>
    <woe-id>23424803</woe-id>
    <continent>Europe</continent>
    <hc-middle-x>0.59</hc-middle-x>
    <hc-middle-y>0.58</hc-middle-y>
    <hc-key>ie</hc-key>
    <hc-a2>IE</hc-a2>
  </desc>
</path>

<path fill="#CEE3F5" stroke="#6E6E6E" stroke-width="0.4" id="HR" d="M403.0,549.0 L402.9,549.6 L401.7,550.0 L401.2,549.1 Z M409.4,547.9 L414.6,549.0 L415.0,549.3 L409.5,548.4 Z M400.3,545.3 L404.0,544.8 L406.6,545.7 L401.6,546.6 L398.4,546.2 Z M391.8,544.1 L392.1,544.9 L390.9,545.4 L389.7,544.4 Z M396.8,540.6 L399.7,541.6 L406.1,541.7 L398.9,542.4 L394.1,541.5 Z M400.1,538.0 L400.3,539.5 L397.7,539.8 L394.7,539.0 L394.6,537.5 Z M392.7,537.5 L394.2,538.5 L393.6,538.7 L391.5,537.9 Z M393.1,535.5 L393.7,535.7 L391.9,536.0 L392.1,535.4 Z M378.9,531.0 L378.0,530.7 L376.9,529.7 L377.3,529.8 Z M379.8,528.8 L378.5,528.5 L377.0,526.8 L378.8,527.4 Z M376.5,525.7 L376.0,526.1 L375.0,525.3 L374.0,524.0 Z M371.3,524.6 L376.5,528.7 L375.4,529.0 L373.3,526.2 Z M370.2,520.6 L369.4,520.3 L369.5,519.3 L369.9,519.3 Z M370.4,515.6 L371.2,515.4 L376.5,520.3 L371.2,517.7 Z M364.3,516.0 L364.2,516.4 L363.1,513.8 L364.0,514.4 Z M368.8,510.9 L369.8,512.3 L370.3,513.6 L367.8,511.0 Z M364.7,509.1 L364.6,512.1 L365.8,515.5 L364.5,514.9 L362.4,509.4 L363.6,509.0 L361.8,505.8 L363.0,505.2 Z M365.6,503.2 L367.2,506.3 L369.5,508.3 L368.0,509.0 L366.8,507.3 L363.9,506.5 L365.3,505.5 Z M406.9,543.7 L410.4,545.3 L413.5,545.9 L415.4,545.0 L416.3,546.8 L422.0,549.9 L425.2,550.9 L426.4,553.6 L415.5,546.9 L414.7,547.4 L410.1,546.3 L406.5,544.5 Z M423.7,484.3 L423.3,486.8 L425.3,489.3 L425.2,491.9 L426.2,491.2 L426.5,495.1 L428.9,496.4 L431.7,496.8 L432.3,498.3 L428.6,498.2 L427.8,499.3 L428.7,503.9 L426.2,505.2 L424.4,503.8 L422.9,501.2 L420.9,502.0 L416.5,500.5 L416.0,501.5 L413.5,501.0 L411.1,502.9 L408.8,501.2 L407.4,502.2 L403.1,501.3 L402.0,502.2 L398.1,499.9 L396.4,502.1 L393.6,501.6 L392.2,502.1 L390.6,506.1 L388.8,505.7 L385.5,502.3 L383.1,502.7 L382.6,503.7 L383.0,509.9 L382.3,511.1 L383.6,512.8 L384.9,512.2 L388.3,515.8 L389.8,518.9 L390.2,521.8 L397.4,528.4 L398.0,529.7 L403.8,534.3 L406.0,534.7 L406.7,537.2 L409.6,540.8 L411.8,542.0 L413.1,544.2 L411.0,544.5 L407.8,541.5 L404.1,539.7 L401.1,536.7 L397.3,536.2 L393.0,534.5 L387.9,535.9 L387.0,532.6 L380.1,528.3 L375.1,523.3 L374.5,522.0 L377.3,520.9 L380.4,521.6 L377.2,520.0 L371.0,513.8 L370.6,510.5 L371.0,508.5 L369.4,505.6 L367.0,504.1 L365.8,502.5 L362.3,501.3 L360.2,507.0 L360.4,508.5 L358.7,509.5 L357.8,512.3 L355.5,511.3 L355.5,510.3 L352.6,506.5 L352.3,503.4 L350.8,498.9 L351.9,499.3 L356.1,500.3 L357.2,498.5 L358.9,499.2 L362.7,498.9 L364.0,497.9 L365.0,495.2 L366.7,497.5 L369.7,498.6 L370.0,497.7 L373.3,499.1 L376.3,497.9 L374.9,495.6 L376.2,494.8 L374.5,493.6 L377.0,491.3 L379.9,490.7 L380.1,486.7 L378.5,485.3 L379.3,483.3 L384.3,481.0 L384.4,479.7 L387.4,479.4 L386.6,477.2 L388.0,476.0 L390.3,476.7 L395.3,479.0 L397.1,481.8 L400.2,483.2 L402.6,486.2 L406.0,486.3 L407.0,488.0 L410.1,489.0 L414.7,488.3 L417.5,488.8 L420.7,485.1 Z">
  <desc xmlns="http://www.highcharts.com/svg/namespace">
    <name>Croatia</name>
    <labelrank>6</labelrank>
    <country-abbrev>Cro.</country-abbrev>
    <subregion>Southern Europe</subregion>
    <region-wb>Europe &amp; Central Asia</region-wb>
    <iso-a3>HRV</iso-a3>
    <iso-a2>HR</iso-a2>
    <woe-id>23424843</woe-id>
    <continent>Europe</continent>
    <hc-middle-x>0.73</hc-middle-x>
    <hc-middle-y>0.26</hc-middle-y>
    <hc-key>hr</hc-key>
    <hc-a2>HR</hc-a2>
  </desc>
</path>

<path fill="#CEE3F5" stroke="#6E6E6E" stroke-width="0.4" id="GB" d="M148.6,413.9 L149.6,415.8 L147.0,415.1 L147.1,413.8 Z M163.7,386.5 L166.3,388.5 L164.7,390.0 L162.9,390.0 L160.9,388.0 Z M132.9,330.5 L133.2,330.5 L133.8,332.0 L132.5,331.1 Z M138.0,332.0 L139.8,332.2 L135.7,334.8 L134.9,334.6 L133.7,331.5 L134.2,329.3 L135.9,329.0 L137.5,329.8 Z M136.3,289.0 L134.0,287.7 L134.7,283.7 L136.8,284.4 L137.0,286.7 Z M138.6,283.7 L137.7,282.5 L137.3,279.8 L138.4,280.7 Z M127.3,279.2 L127.5,282.3 L124.0,283.4 L125.0,282.1 L124.4,279.7 L122.3,281.1 L123.6,278.2 L127.4,277.0 Z M128.2,273.8 L127.5,275.0 L126.6,275.1 L127.7,273.6 Z M131.5,276.4 L128.7,280.1 L127.6,279.7 L128.0,277.7 L129.3,276.1 L132.4,274.2 Z M134.4,272.2 L133.8,273.5 L133.6,272.8 L134.0,272.2 Z M129.5,267.0 L128.6,266.8 L128.4,266.4 L129.0,266.2 Z M121.8,265.7 L120.9,264.3 L123.7,264.0 L122.0,265.0 Z M125.8,263.5 L124.3,263.4 L125.7,262.4 L127.3,262.1 Z M119.0,254.1 L117.8,254.7 L117.1,254.3 L118.5,253.1 Z M130.7,256.3 L130.0,257.6 L128.7,256.1 L130.3,255.4 Z M135.5,251.9 L135.1,251.9 L134.6,251.2 L135.3,251.2 Z M121.3,246.2 L120.9,247.1 L122.3,248.8 L119.9,252.0 L119.4,249.2 Z M122.3,244.9 L122.9,246.4 L121.9,246.4 L120.9,245.3 Z M135.7,247.8 L135.0,250.6 L134.2,250.0 L135.2,247.8 Z M124.1,241.9 L123.8,244.7 L120.2,242.2 L121.2,241.1 Z M130.2,231.3 L130.7,232.3 L130.0,232.0 L129.9,231.4 Z M172.3,228.8 L171.4,230.5 L170.8,228.4 L171.7,228.3 Z M169.0,226.7 L169.4,228.3 L168.0,228.9 L167.0,226.8 Z M176.1,222.9 L176.9,224.2 L176.0,224.5 L175.6,222.8 Z M172.1,221.6 L172.5,222.6 L171.6,222.5 L171.4,221.3 Z M174.9,220.9 L174.9,222.8 L174.4,222.8 L174.2,221.7 Z M178.8,220.5 L177.4,221.6 L176.6,221.2 L176.9,220.7 Z M173.5,218.5 L174.0,220.4 L172.8,220.0 L172.2,218.6 Z M191.9,206.8 L191.7,207.7 L191.4,207.6 L191.7,206.5 Z M194.5,205.5 L194.3,206.9 L193.9,206.6 L193.9,205.5 Z M196.0,202.6 L195.4,202.5 L195.7,202.0 L196.7,201.8 Z M198.4,197.6 L198.5,198.3 L197.5,198.2 L197.2,197.0 Z M196.1,194.7 L197.0,194.9 L195.9,199.4 L194.8,199.0 L195.0,196.3 L195.6,197.0 Z M199.2,194.1 L198.5,196.1 L197.1,195.8 L198.4,192.9 Z M144.0,409.7 L142.4,409.4 L142.6,408.9 L144.5,408.1 Z M136.7,315.9 L134.3,316.0 L135.8,313.2 L138.4,310.8 L140.6,310.3 L140.6,312.8 L139.3,314.4 Z M693.4,642.0 L693.3,642.2 L691.9,643.2 L693.9,644.2 L693.3,644.7 L692.1,644.4 L691.6,644.3 L692.1,644.5 L691.7,644.5 L690.8,644.9 L690.8,644.9 L690.7,644.7 L690.5,644.0 L690.1,643.9 L691.5,643.5 L693.4,642.0 L693.4,642.0 L693.4,642.0 L693.4,642.0 L693.4,642.0 Z M691.3,644.1 L691.4,643.9 L691.2,643.9 L691.2,644.1 Z M53.5,659.3 L53.3,659.9 L53.2,659.2 Z M682.1,655.1 L681.4,656.8 L680.4,655.2 L678.0,656.1 L678.8,654.8 Z M167.6,386.1 L165.4,386.6 L162.5,383.8 L163.5,385.9 L155.5,386.8 L154.7,388.5 L149.3,386.8 L148.8,387.7 L146.4,385.1 L144.4,384.0 L139.4,384.2 L136.1,386.1 L135.7,388.7 L133.6,390.3 L133.1,391.9 L131.3,391.8 L129.7,389.4 L128.6,389.7 L127.3,387.8 L127.7,386.2 L126.0,387.4 L123.1,387.9 L119.9,387.2 L119.0,389.0 L115.7,389.0 L115.1,391.6 L113.1,393.2 L112.0,390.3 L110.3,389.1 L108.7,390.3 L107.2,390.0 L107.9,388.0 L110.2,387.4 L111.0,388.0 L116.7,384.6 L117.4,382.8 L120.5,382.1 L124.3,378.6 L125.4,374.7 L127.6,375.5 L129.4,374.3 L129.2,372.8 L130.6,371.9 L135.4,372.1 L139.7,374.2 L144.1,374.9 L144.7,372.6 L147.6,369.9 L148.9,369.6 L152.5,365.5 L149.5,367.8 L147.3,368.4 L146.0,367.9 L143.2,369.5 L142.9,370.6 L138.7,369.8 L136.6,367.5 L135.7,364.7 L134.1,365.6 L130.3,365.0 L130.5,363.8 L133.0,363.9 L130.7,362.8 L129.9,360.8 L126.3,361.0 L125.7,362.2 L122.7,362.6 L121.6,361.8 L122.4,360.4 L119.8,359.4 L121.5,358.6 L121.5,357.0 L119.9,355.7 L122.1,355.3 L122.8,354.2 L125.7,354.8 L128.5,353.0 L129.9,353.4 L134.2,351.4 L135.8,349.6 L136.8,346.7 L136.2,345.4 L137.6,343.3 L136.8,341.4 L137.7,339.5 L134.1,339.2 L132.4,340.9 L129.6,340.3 L132.0,338.1 L135.2,336.7 L135.7,335.2 L138.3,333.4 L142.2,333.0 L145.3,333.5 L148.2,332.9 L150.2,335.0 L149.9,332.7 L151.6,331.9 L151.5,329.7 L154.4,326.4 L152.9,325.5 L153.8,322.4 L155.3,322.4 L155.3,320.7 L157.0,319.2 L156.5,317.7 L154.9,318.3 L154.7,316.9 L152.9,318.9 L151.9,318.5 L150.3,312.6 L149.0,310.0 L153.0,303.4 L155.2,302.4 L151.4,300.9 L150.7,303.1 L147.9,302.8 L146.3,304.4 L144.0,303.5 L141.9,300.8 L142.2,302.8 L141.4,305.2 L136.8,300.5 L135.5,301.4 L135.8,305.0 L133.7,300.3 L133.9,297.1 L134.8,298.8 L136.2,295.0 L137.9,293.8 L138.9,291.7 L141.9,289.1 L141.7,287.3 L139.5,284.3 L140.3,283.6 L140.5,280.9 L141.9,279.9 L141.3,278.9 L141.8,276.8 L139.5,281.1 L137.7,279.4 L135.8,279.8 L136.1,277.4 L135.1,277.2 L134.9,280.2 L135.5,282.0 L133.1,284.2 L133.2,285.3 L131.7,287.8 L131.7,289.3 L130.0,290.4 L128.5,289.8 L129.8,287.5 L131.1,283.2 L134.3,280.5 L132.3,281.7 L132.3,277.3 L135.1,273.8 L134.5,272.3 L135.9,269.7 L136.7,269.2 L139.7,269.4 L136.8,268.5 L139.9,264.4 L134.8,267.6 L131.7,264.5 L133.1,263.7 L129.8,262.5 L130.5,261.5 L133.0,261.5 L133.9,262.4 L134.2,259.7 L135.8,256.6 L137.5,255.2 L138.8,252.8 L136.9,250.9 L136.9,248.0 L137.6,246.6 L139.3,247.9 L138.6,244.5 L139.0,241.6 L141.4,240.4 L142.7,242.2 L143.9,240.7 L146.4,242.7 L143.7,237.8 L145.1,238.4 L144.9,234.9 L149.7,235.5 L148.0,234.9 L147.6,233.3 L149.2,231.6 L148.9,230.3 L150.5,228.4 L153.5,230.5 L155.8,231.1 L154.8,232.9 L156.9,231.4 L162.1,231.9 L164.5,231.2 L166.7,232.2 L166.4,231.0 L170.3,232.1 L168.8,234.3 L168.8,236.3 L167.1,238.1 L164.6,239.1 L163.6,240.2 L157.0,243.4 L157.5,245.0 L155.4,244.8 L157.0,245.9 L159.6,246.2 L157.0,248.3 L156.2,247.5 L153.8,248.0 L152.0,249.7 L154.7,248.3 L156.8,248.7 L153.6,251.6 L160.9,250.2 L162.2,249.0 L164.3,249.3 L166.3,250.6 L168.1,250.3 L172.0,251.7 L176.4,251.7 L178.1,252.5 L179.0,254.0 L179.3,256.8 L176.5,259.4 L175.1,263.1 L173.7,264.8 L172.5,267.5 L169.7,269.8 L168.2,272.6 L165.4,274.2 L162.2,274.1 L160.0,275.6 L164.1,274.3 L164.2,276.1 L166.7,278.2 L164.2,279.6 L162.3,279.0 L159.5,281.4 L156.8,281.5 L153.5,279.9 L155.1,281.4 L160.1,283.7 L161.8,283.5 L163.6,282.0 L165.4,282.4 L168.5,285.4 L170.1,286.0 L172.8,292.1 L174.7,293.4 L174.6,301.6 L175.6,305.6 L175.9,309.4 L177.5,312.8 L180.9,314.5 L183.2,316.5 L184.4,320.8 L186.0,323.2 L187.6,324.4 L185.8,325.8 L186.2,328.3 L188.7,333.7 L186.7,333.8 L184.0,331.2 L185.0,333.7 L188.5,337.0 L190.1,342.1 L189.5,344.8 L187.4,346.0 L185.3,348.1 L186.3,348.1 L187.8,350.3 L189.4,350.6 L192.0,347.4 L196.7,347.9 L200.2,349.2 L204.1,352.7 L205.0,355.8 L205.0,358.5 L202.8,362.5 L201.8,366.0 L200.4,366.4 L196.8,369.4 L197.6,370.2 L195.8,371.2 L194.0,370.1 L193.2,374.1 L192.1,375.1 L186.9,375.5 L189.7,376.4 L187.9,377.4 L190.7,378.5 L190.5,377.1 L192.0,377.8 L192.4,378.8 L191.1,378.7 L192.8,379.3 L198.3,379.1 L197.8,382.4 L196.9,384.1 L192.7,385.3 L191.8,387.6 L189.7,386.9 L187.3,388.2 L184.1,388.6 L182.7,389.8 L177.5,387.5 L172.6,387.3 L169.4,388.1 L168.4,386.0 L167.9,386.1 L168.0,386.3 L168.1,386.9 L167.1,386.7 Z M128.8,269.0 L129.8,266.9 L127.9,265.0 L128.3,264.0 L130.7,263.5 L131.4,264.4 L131.9,266.4 L134.2,267.6 L134.5,269.5 L132.5,270.7 L131.5,270.1 L126.8,270.2 L130.5,269.0 Z M134.0,253.5 L130.8,253.4 L129.8,250.2 L130.3,248.5 L128.9,249.4 L127.4,246.7 L128.4,245.8 L129.8,246.3 L129.5,244.2 L131.7,246.5 L132.0,244.0 L133.3,243.1 L134.4,245.7 L133.5,249.1 L133.8,250.7 L135.5,252.8 L138.2,253.0 L137.4,254.3 L133.5,256.7 L134.7,254.4 Z M125.7,239.2 L129.0,237.4 L126.4,235.7 L126.9,233.2 L128.4,231.1 L129.5,232.9 L131.4,232.9 L130.8,230.8 L136.3,228.6 L137.3,227.8 L137.9,229.8 L137.3,230.9 L135.1,232.8 L137.2,232.9 L136.4,234.1 L134.6,233.3 L134.3,236.6 L131.9,238.4 L126.6,240.9 Z M169.0,222.1 L170.7,222.1 L172.1,223.8 L170.5,224.8 L172.5,225.1 L174.5,227.0 L173.0,227.7 L171.8,226.0 L169.5,226.4 L168.2,224.2 Z M192.9,204.0 L190.8,205.4 L190.6,203.6 L189.4,204.0 L189.3,202.2 L192.2,202.4 L191.9,198.9 L190.3,198.8 L192.5,196.7 L193.7,197.1 L192.4,200.8 L193.8,200.2 L194.4,201.4 L195.3,200.4 L194.9,202.8 L193.4,204.9 L193.3,207.7 L191.7,211.0 L190.8,210.3 L192.5,206.5 Z M111.5,290.8 L113.4,291.7 L115.2,289.1 L117.4,290.0 L120.7,289.4 L124.6,291.0 L124.5,293.7 L125.3,294.3 L126.4,298.7 L127.3,299.3 L126.6,301.1 L125.2,301.3 L124.3,303.0 L126.2,302.0 L128.4,302.9 L128.8,306.8 L127.5,309.1 L126.9,307.7 L127.5,305.3 L125.3,308.3 L126.8,308.0 L126.8,309.7 L123.0,310.2 L121.9,312.8 L120.2,313.5 L117.9,311.7 L113.8,312.0 L114.1,309.4 L112.6,308.4 L112.2,305.5 L110.7,303.7 L108.4,305.5 L108.9,306.5 L106.4,308.6 L103.2,307.4 L101.0,305.5 L100.8,303.7 L98.5,299.7 L100.8,298.6 L102.5,299.1 L103.9,298.0 L102.4,296.7 L103.4,295.5 L104.5,296.3 L106.8,296.2 L109.5,291.6 Z">
  <desc xmlns="http://www.highcharts.com/svg/namespace">
    <name>United Kingdom</name>
    <labelrank>2</labelrank>
    <country-abbrev>U.K.</country-abbrev>
    <subregion>Northern Europe</subregion>
    <region-wb>Europe &amp; Central Asia</region-wb>
    <iso-a3>GBR</iso-a3>
    <iso-a2>GB</iso-a2>
    <woe-id>-90</woe-id>
    <continent>Europe</continent>
    <hc-middle-x>0.18</hc-middle-x>
    <hc-middle-y>0.36</hc-middle-y>
    <hc-key>gb</hc-key>
    <hc-a2>GB</hc-a2>
  </desc>
</path>

<path fill="#CEE3F5" stroke="#6E6E6E" stroke-width="0.4" id="EE" d="M446.6,240.4 L445.9,240.4 L445.9,239.7 L446.5,239.5 Z M438.0,231.7 L438.8,233.0 L437.1,233.7 L435.2,232.7 L435.9,231.1 Z M435.1,223.9 L436.5,223.8 L437.0,224.9 L434.8,225.4 Z M446.4,211.7 L446.1,211.8 L445.7,211.2 L445.9,210.8 Z M431.1,240.4 L429.1,241.7 L428.5,246.2 L427.0,247.8 L426.5,246.5 L428.1,243.0 L424.3,241.3 L425.5,239.4 L423.7,236.8 L424.8,236.3 L425.9,237.9 L426.0,236.4 L427.6,234.7 L430.3,233.0 L431.1,233.7 L433.6,232.7 L438.3,234.7 L436.6,234.9 L435.7,237.4 L432.6,240.8 Z M424.0,227.7 L428.0,226.7 L428.9,224.2 L430.4,225.4 L432.6,225.6 L434.2,228.2 L431.3,229.4 L430.8,231.5 L429.9,232.0 L428.2,229.2 L426.8,228.4 L425.6,228.7 Z M450.6,244.4 L451.4,240.2 L450.8,236.7 L451.0,234.7 L448.8,234.4 L448.6,235.8 L447.2,237.6 L445.5,236.4 L443.0,236.4 L441.5,232.8 L440.0,232.8 L439.4,229.0 L442.2,228.8 L442.1,227.5 L438.3,228.9 L439.1,227.7 L437.8,226.1 L438.8,224.7 L437.2,223.9 L437.9,221.8 L437.1,220.2 L439.7,218.3 L442.9,217.1 L441.9,216.0 L444.6,214.6 L444.6,213.6 L446.4,213.8 L450.1,211.6 L452.0,211.5 L452.3,210.6 L455.0,211.0 L456.1,209.9 L455.0,207.4 L456.8,208.8 L457.4,207.0 L458.9,208.4 L459.1,207.3 L461.3,207.7 L465.0,207.6 L467.0,207.0 L468.9,208.1 L471.9,208.1 L474.7,207.2 L479.4,206.9 L480.4,205.2 L482.6,206.8 L480.1,209.4 L479.8,215.1 L478.0,215.2 L473.8,217.4 L473.1,218.8 L473.3,220.8 L475.9,222.8 L478.1,227.4 L479.9,227.7 L480.1,229.3 L482.5,232.6 L483.8,235.0 L486.1,236.5 L483.7,238.1 L483.8,240.0 L482.9,240.7 L483.1,243.9 L480.0,244.1 L477.8,243.2 L477.1,244.6 L474.5,246.2 L471.6,244.8 L468.5,242.4 L468.0,241.1 L465.8,241.4 L464.9,240.3 L463.6,240.8 L459.5,238.4 L459.2,240.1 L457.8,238.9 L456.6,240.4 L452.6,242.4 Z">
  <desc xmlns="http://www.highcharts.com/svg/namespace">
    <name>Estonia</name>
    <labelrank>6</labelrank>
    <country-abbrev>Est.</country-abbrev>
    <subregion>Northern Europe</subregion>
    <region-wb>Europe &amp; Central Asia</region-wb>
    <iso-a3>EST</iso-a3>
    <iso-a2>EE</iso-a2>
    <woe-id>23424805</woe-id>
    <continent>Europe</continent>
    <hc-middle-x>0.60</hc-middle-x>
    <hc-middle-y>0.51</hc-middle-y>
    <hc-key>ee</hc-key>
    <hc-a2>EE</hc-a2>
  </desc>
</path>

<path fill="#CEE3F5" stroke="#6E6E6E" stroke-width="0.4" id="CY" d="M691.3,644.1 L691.2,644.1 L691.2,643.9 L691.4,643.9 Z M695.3,641.6 L697.1,642.9 L693.9,644.2 L691.9,643.2 L693.3,642.2 L693.9,642.2 Z M690.8,644.9 L690.3,648.4 L685.4,652.7 L682.7,653.8 L682.1,655.1 L678.8,654.8 L678.0,656.1 L676.5,656.6 L671.8,656.0 L669.6,653.8 L667.6,650.0 L670.5,649.9 L671.9,647.0 L672.6,647.2 L673.0,646.3 L673.0,646.3 L673.5,646.2 L676.2,647.9 L681.3,644.1 L683.7,644.3 L685.1,642.9 L686.6,645.8 L687.5,644.6 L690.7,644.7 L690.8,644.9 Z M691.6,644.3 L691.9,644.3 L692.3,644.4 L692.1,644.4 Z">
  <desc xmlns="http://www.highcharts.com/svg/namespace">
    <name>Cyprus</name>
    <labelrank>5</labelrank>
    <country-abbrev>Cyp.</country-abbrev>
    <subregion>Western Asia</subregion>
    <region-wb>Europe &amp; Central Asia</region-wb>
    <iso-a3>CYP</iso-a3>
    <iso-a2>CY</iso-a2>
    <woe-id>-90</woe-id>
    <continent>Asia</continent>
    <hc-middle-x>0.21</hc-middle-x>
    <hc-middle-y>0.68</hc-middle-y>
    <hc-key>cy</hc-key>
    <hc-a2>CY</hc-a2>
  </desc>
</path>

<path fill="#CEE3F5" stroke="#6E6E6E" stroke-width="0.4" id="FI" d="M404.9,210.0 L403.8,210.6 L403.4,210.6 L403.8,209.7 Z M405.5,208.7 L406.5,208.9 L406.2,209.6 L405.4,209.6 Z M401.3,208.6 L402.7,210.2 L402.3,210.9 L400.7,209.7 Z M402.6,207.9 L403.1,207.8 L403.0,209.0 L402.3,208.6 Z M396.8,207.2 L396.0,208.6 L395.3,207.6 L395.8,206.1 Z M403.5,204.8 L404.2,205.2 L403.8,206.2 L403.6,205.4 Z M408.0,204.6 L407.6,204.8 L407.4,203.9 L408.1,204.2 Z M407.2,203.1 L406.9,203.5 L406.9,202.4 L407.2,202.6 Z M428.5,205.9 L428.3,205.9 L428.1,205.0 L428.8,204.7 Z M424.1,205.5 L424.3,206.9 L423.7,207.1 L423.2,205.5 Z M416.0,205.5 L415.9,206.2 L415.0,206.5 L415.3,205.0 Z M418.3,204.2 L417.2,205.7 L416.7,205.7 L416.9,204.3 Z M422.7,204.2 L422.3,203.9 L422.4,203.3 L423.0,203.0 Z M413.5,204.8 L413.6,205.4 L412.3,205.0 L413.1,204.5 Z M419.6,205.1 L418.8,204.3 L419.7,203.4 L419.6,204.3 Z M422.0,203.3 L421.4,203.3 L421.6,202.5 L422.0,202.3 Z M415.3,203.2 L415.6,203.3 L415.4,203.9 L415.1,203.9 Z M454.2,196.6 L453.3,195.5 L453.3,195.2 L454.5,195.9 Z M427.4,202.4 L427.8,204.0 L426.6,206.5 L424.6,206.8 L423.7,203.2 L427.1,201.8 Z M418.6,201.6 L418.6,202.3 L418.0,202.1 L417.8,201.7 Z M422.3,201.5 L421.1,202.3 L419.9,202.2 L420.2,201.2 Z M423.0,200.4 L422.6,201.3 L422.0,200.8 L422.7,200.0 Z M419.9,200.5 L421.5,199.8 L421.6,200.2 L420.7,200.6 Z M418.2,199.9 L418.6,201.3 L416.7,200.4 L416.9,198.7 Z M415.6,199.1 L415.4,199.1 L415.6,198.2 L416.0,197.8 Z M412.0,199.3 L411.2,199.1 L411.0,197.9 L411.7,198.6 Z M413.1,198.0 L413.1,199.3 L412.6,199.0 L411.8,197.8 Z M411.5,197.7 L410.5,196.8 L410.8,196.2 L411.2,196.8 Z M410.7,191.4 L409.7,190.3 L410.3,189.8 L411.0,190.5 Z M403.3,150.8 L403.4,151.3 L402.6,151.2 L402.6,150.2 Z M401.1,144.9 L402.3,145.7 L403.9,146.1 L403.0,147.4 Z M409.4,142.9 L409.7,143.2 L409.5,143.7 L409.0,143.6 Z M411.2,142.7 L410.6,143.3 L410.1,144.0 L409.7,142.9 Z M403.5,144.0 L403.2,144.6 L402.3,143.9 L403.2,143.0 Z M409.5,141.6 L409.2,142.0 L408.6,142.7 L408.9,141.7 Z M414.5,132.8 L414.7,133.5 L414.2,134.0 L413.6,133.2 Z M427.2,104.1 L425.6,106.5 L424.7,105.2 L425.3,104.2 Z M429.0,204.1 L428.8,204.4 L427.9,204.6 L428.5,203.6 L428.9,204.0 L427.8,202.5 L428.8,200.5 L427.5,200.3 L424.4,202.7 L423.5,202.1 L424.8,199.3 L421.6,199.7 L419.2,199.0 L417.1,197.5 L416.4,198.7 L416.4,195.6 L414.9,197.1 L415.0,198.5 L412.0,196.0 L412.0,193.8 L410.7,191.9 L411.6,191.0 L409.9,188.1 L411.4,188.0 L411.0,186.3 L411.9,184.9 L411.4,180.7 L410.3,177.8 L412.4,178.4 L410.3,176.2 L409.3,173.2 L407.9,170.9 L406.5,170.2 L406.6,167.4 L407.2,165.6 L406.4,165.2 L406.3,162.8 L404.3,162.1 L403.8,159.2 L404.2,158.2 L403.0,156.8 L403.7,153.1 L404.7,153.0 L405.5,150.9 L405.5,148.5 L407.3,149.1 L405.5,147.4 L405.0,145.9 L406.4,145.9 L408.4,144.3 L408.8,145.9 L409.7,144.3 L411.2,144.2 L412.4,142.4 L410.3,139.9 L412.3,139.0 L413.0,134.6 L414.6,135.9 L415.3,135.3 L416.1,131.7 L417.6,129.9 L419.0,129.5 L418.6,126.6 L420.6,126.6 L420.0,125.3 L421.8,122.3 L422.6,121.7 L422.6,119.1 L424.9,115.5 L425.0,112.5 L427.2,108.2 L429.4,106.7 L431.4,108.3 L432.0,106.5 L430.4,105.0 L432.3,105.1 L430.7,102.5 L429.7,102.4 L430.0,99.7 L429.3,95.1 L426.7,93.2 L424.3,92.5 L423.3,93.4 L421.4,90.1 L420.5,91.1 L418.3,90.5 L416.3,86.2 L414.8,84.2 L413.3,83.6 L411.8,79.2 L413.2,76.3 L412.6,72.6 L413.2,71.2 L408.6,65.1 L408.3,62.9 L409.3,62.1 L409.0,59.5 L406.2,58.7 L406.7,56.5 L405.6,53.6 L405.2,50.7 L406.2,49.4 L403.7,47.5 L403.0,46.0 L401.7,46.2 L401.4,44.5 L400.3,43.0 L398.2,41.4 L394.1,40.4 L392.4,40.7 L391.0,39.0 L387.3,37.2 L383.8,34.0 L382.5,33.6 L382.5,32.1 L380.0,31.1 L380.7,29.6 L383.0,30.5 L383.7,29.5 L382.6,27.7 L382.8,26.4 L384.2,25.2 L386.8,25.3 L390.2,30.0 L393.4,33.3 L394.2,35.5 L395.4,35.0 L397.5,35.7 L398.6,35.2 L400.2,36.4 L403.7,33.7 L403.8,31.9 L404.8,31.4 L408.1,33.0 L410.7,33.3 L412.6,35.1 L414.1,33.2 L414.0,29.6 L415.1,28.0 L416.9,27.4 L417.4,24.6 L416.2,21.2 L416.4,17.3 L415.8,14.3 L416.0,10.6 L417.0,9.9 L418.2,5.4 L420.6,4.4 L422.4,4.7 L425.0,1.5 L425.1,0.7 L427.0,0.0 L429.8,3.0 L431.4,3.4 L431.9,4.5 L437.6,5.7 L440.2,9.4 L439.8,11.4 L438.2,15.2 L438.5,17.5 L439.8,18.8 L436.9,22.3 L437.0,23.0 L439.7,22.9 L439.7,25.2 L438.8,29.3 L439.1,30.3 L442.0,35.6 L442.7,36.1 L447.3,36.7 L451.3,41.1 L454.8,43.0 L455.0,46.7 L453.2,51.6 L451.7,58.4 L452.4,61.5 L455.1,64.0 L457.6,67.3 L459.0,69.9 L462.6,73.9 L465.6,79.0 L466.7,82.1 L465.8,81.9 L463.7,83.6 L465.1,84.5 L464.7,85.7 L465.5,89.3 L464.8,91.4 L467.1,91.4 L467.6,93.6 L466.4,94.3 L466.2,96.1 L468.9,99.4 L471.2,99.0 L473.0,101.4 L471.6,103.2 L473.0,105.0 L473.1,106.5 L475.9,107.3 L478.5,108.6 L479.5,111.1 L479.3,113.1 L477.8,117.7 L476.3,119.2 L482.1,123.3 L485.4,124.1 L489.9,126.4 L490.6,127.9 L494.6,131.0 L494.2,133.6 L494.1,139.5 L492.3,144.4 L490.5,147.2 L489.0,151.6 L486.1,160.6 L484.5,163.3 L482.7,168.7 L479.7,172.5 L478.7,175.5 L478.0,176.0 L475.4,180.6 L473.0,186.3 L470.4,187.8 L467.2,186.5 L465.9,188.4 L463.3,190.4 L462.9,190.4 L462.2,191.5 L461.7,191.0 L462.1,190.4 L461.3,190.4 L460.0,191.9 L458.2,192.1 L456.7,191.1 L457.0,193.2 L456.1,194.1 L456.9,195.4 L455.0,195.8 L453.9,193.7 L452.7,194.7 L452.8,196.3 L449.9,196.9 L449.9,198.2 L447.9,199.4 L444.6,200.4 L443.9,203.2 L442.6,201.9 L437.3,205.1 L434.0,205.9 L432.7,208.5 L429.4,209.7 L432.4,206.9 L430.9,206.8 L432.0,204.6 L429.4,204.7 Z M398.2,207.1 L398.8,203.5 L400.5,203.5 L402.5,204.8 L401.8,207.0 L400.1,205.6 L400.8,208.8 L398.1,209.5 L396.4,205.9 L397.8,205.0 Z">
  <desc xmlns="http://www.highcharts.com/svg/namespace">
    <name>Finland</name>
    <labelrank>3</labelrank>
    <country-abbrev>Fin.</country-abbrev>
    <subregion>Northern Europe</subregion>
    <region-wb>Europe &amp; Central Asia</region-wb>
    <iso-a3>FIN</iso-a3>
    <iso-a2>FI</iso-a2>
    <woe-id>23424812</woe-id>
    <continent>Europe</continent>
    <hc-middle-x>0.58</hc-middle-x>
    <hc-middle-y>0.72</hc-middle-y>
    <hc-key>fi</hc-key>
    <hc-a2>FI</hc-a2>
  </desc>
</path>

<path fill="#CEE3F5" stroke="#6E6E6E" stroke-width="0.4" id="GR" d="M537.4,689.4 L537.0,689.6 L535.9,689.2 L537.1,688.7 Z M581.4,667.3 L581.6,667.8 L579.9,669.1 L579.8,667.7 Z M583.2,658.8 L583.0,663.0 L584.7,664.8 L583.9,666.8 L581.7,663.8 Z M587.3,649.3 L585.8,649.7 L585.9,649.2 L587.3,648.8 Z M514.6,665.4 L514.8,666.5 L512.3,665.7 L512.4,662.1 L515.3,664.6 Z M558.7,653.1 L557.5,653.5 L556.7,653.2 L557.2,652.6 Z M596.2,642.6 L596.4,643.8 L594.9,649.5 L591.6,655.1 L590.2,654.1 L590.3,651.4 L588.8,650.2 L591.3,645.8 L594.3,643.2 Z M552.9,654.1 L552.4,655.1 L550.9,654.9 L552.0,654.0 Z M582.2,645.3 L582.8,646.2 L582.8,647.0 L581.4,645.8 Z M578.7,644.3 L578.0,643.7 L578.7,643.2 L579.1,643.7 Z M567.3,646.3 L565.2,648.5 L564.2,647.0 L565.5,647.3 Z M588.6,640.6 L589.4,640.4 L589.9,642.0 L587.9,641.7 Z M543.6,651.5 L542.9,651.6 L541.6,651.0 L541.8,650.5 Z M546.0,649.8 L545.1,650.4 L545.4,649.1 L546.6,648.7 Z M534.8,650.2 L536.6,651.1 L533.3,652.6 L533.3,650.5 Z M549.9,647.5 L549.8,649.1 L547.6,648.0 L548.2,646.5 Z M536.5,648.1 L537.0,648.2 L536.6,649.2 L535.7,648.4 Z M577.8,639.3 L574.0,642.3 L575.6,639.3 L578.8,637.1 L580.1,637.7 Z M559.8,641.8 L557.2,644.5 L556.6,643.5 L558.6,641.2 Z M543.8,644.0 L543.0,643.6 L543.0,643.0 L543.7,642.4 Z M536.9,643.7 L538.9,645.2 L538.3,646.4 L536.7,644.2 Z M573.3,635.7 L574.5,636.1 L574.5,637.4 L572.8,637.8 Z M546.4,640.1 L545.8,643.1 L544.1,642.9 L544.4,640.8 Z M570.1,633.3 L571.7,634.8 L570.9,635.0 L569.5,633.7 Z M551.4,639.5 L551.3,642.3 L549.9,643.6 L547.5,640.9 L550.0,637.8 Z M533.5,641.2 L534.2,641.1 L534.6,642.5 L533.0,642.7 Z M512.5,644.5 L512.1,644.6 L511.4,644.1 L511.8,643.7 Z M518.2,641.2 L517.5,642.0 L515.6,642.6 L516.9,641.3 Z M565.4,630.7 L565.3,631.7 L565.2,632.3 L564.9,630.8 Z M532.4,636.9 L531.3,639.5 L530.9,636.9 L531.6,635.8 Z M545.8,632.4 L547.8,632.7 L547.0,634.0 L545.6,634.4 Z M540.2,635.7 L539.1,636.8 L538.7,636.2 L539.3,633.8 Z M541.1,630.5 L543.7,630.4 L543.6,632.3 L539.8,631.0 Z M529.9,632.1 L530.5,633.2 L528.9,635.4 L528.6,633.6 Z M560.4,626.5 L556.8,629.7 L555.5,629.4 L556.6,627.3 Z M516.1,634.8 L515.5,634.8 L514.7,633.4 L516.9,633.0 Z M569.7,621.8 L571.5,622.4 L567.6,624.6 L563.9,623.5 L564.9,622.2 L567.7,621.2 Z M472.6,638.8 L476.6,640.7 L474.2,642.6 L470.6,639.7 L471.3,637.4 Z M536.3,626.1 L538.0,625.9 L539.3,628.7 L538.2,629.7 L533.7,626.2 L534.6,624.8 Z M515.6,628.9 L516.0,629.9 L515.0,631.0 L513.8,630.6 Z M467.9,626.9 L469.1,629.2 L472.5,633.2 L472.6,634.5 L468.0,634.3 L466.4,631.1 L466.5,633.2 L465.1,632.9 L465.6,629.5 L467.1,630.3 Z M552.2,608.9 L553.9,609.4 L555.0,614.0 L553.3,617.4 L550.6,615.9 L552.2,613.8 L548.9,609.7 Z M544.8,610.0 L545.4,611.4 L544.7,611.6 L543.9,610.5 Z M472.4,624.0 L472.2,623.7 L472.6,622.8 L473.3,622.8 Z M470.7,622.5 L471.0,622.7 L470.3,623.5 L470.0,623.0 Z M469.3,622.5 L469.3,624.1 L467.1,622.7 L468.6,619.2 Z M528.2,608.0 L530.1,609.2 L527.9,609.8 L526.3,608.3 L526.5,606.3 Z M510.8,605.4 L510.2,606.5 L509.2,606.4 L510.1,604.9 Z M512.1,604.6 L515.3,605.8 L514.7,606.7 L513.5,606.7 Z M459.9,613.4 L459.7,613.8 L458.9,613.1 L459.1,612.7 Z M516.7,604.6 L516.3,604.3 L517.0,602.2 L517.5,602.2 Z M518.6,600.4 L519.1,600.4 L518.8,601.5 L518.3,600.9 Z M532.1,595.3 L531.6,594.0 L532.0,593.3 L532.7,593.6 Z M454.3,602.4 L453.4,605.3 L454.8,605.6 L455.2,608.5 L457.6,608.8 L458.4,610.2 L454.2,608.9 L453.6,607.3 L449.8,603.8 L453.1,601.9 Z M536.5,583.0 L535.7,585.6 L536.2,587.9 L533.5,586.3 L531.4,587.9 L530.6,584.9 L533.4,584.0 L534.5,584.7 Z M538.0,573.3 L538.4,574.5 L537.2,575.3 L534.9,574.1 Z M524.3,573.5 L522.4,574.9 L520.3,574.0 L521.5,570.4 L523.7,571.0 Z M469.8,628.6 L470.7,629.7 L469.8,628.6 L469.8,628.6 Z M542.3,547.4 L546.5,548.5 L548.2,552.8 L544.3,556.3 L546.0,561.7 L544.4,563.5 L543.6,566.3 L542.4,567.2 L540.6,565.4 L534.4,566.3 L530.6,565.5 L526.5,565.2 L523.6,568.9 L521.2,569.3 L519.8,567.7 L517.3,568.6 L516.9,570.8 L513.9,573.5 L509.3,573.3 L507.9,575.3 L511.7,578.0 L510.5,579.0 L513.1,580.7 L513.5,579.2 L517.4,581.1 L520.1,583.3 L519.1,584.6 L516.6,582.1 L512.5,581.0 L509.4,582.5 L511.0,584.6 L514.5,585.7 L515.1,588.9 L511.6,587.3 L509.4,584.6 L505.0,584.3 L504.4,585.8 L507.4,588.6 L510.2,589.2 L511.0,590.5 L507.3,590.0 L505.6,590.6 L503.7,585.4 L499.4,584.4 L495.6,581.5 L497.9,580.1 L496.5,578.5 L494.5,581.3 L492.1,582.8 L493.7,584.5 L492.8,588.8 L493.4,590.9 L495.9,592.4 L498.8,595.6 L500.4,598.8 L503.4,600.4 L506.6,603.3 L508.3,605.9 L504.8,608.1 L506.2,606.1 L504.9,604.4 L501.4,603.5 L500.2,605.2 L500.9,607.7 L504.6,609.3 L503.6,611.3 L500.9,613.4 L498.2,613.1 L497.5,614.8 L499.6,614.1 L500.9,615.2 L505.6,615.6 L506.3,617.0 L508.0,616.0 L509.9,616.5 L510.9,619.2 L513.5,618.9 L516.4,621.1 L520.9,621.5 L523.4,623.6 L522.2,624.7 L523.4,629.2 L525.1,631.7 L524.7,633.8 L522.1,631.7 L519.9,631.4 L518.0,629.1 L515.9,628.8 L516.1,627.4 L510.9,629.9 L508.0,633.0 L510.8,633.3 L511.3,637.1 L514.0,638.2 L515.0,636.2 L515.2,638.4 L517.5,639.5 L513.1,641.5 L513.0,643.2 L510.7,642.5 L511.3,640.5 L508.4,639.6 L504.6,639.9 L505.6,642.6 L509.7,647.4 L510.8,650.0 L513.5,653.7 L512.3,655.3 L516.1,660.4 L509.2,656.9 L507.8,654.3 L504.9,655.3 L504.0,659.0 L505.0,661.7 L502.3,661.3 L501.7,657.5 L498.9,654.0 L497.5,653.8 L497.4,651.7 L494.1,653.1 L493.9,658.3 L492.8,656.8 L490.9,656.9 L490.4,654.2 L488.5,652.7 L487.6,650.6 L489.0,647.8 L488.5,645.6 L486.0,642.6 L482.4,641.0 L481.4,639.1 L478.4,638.2 L481.4,632.0 L481.2,630.0 L485.0,630.8 L487.0,627.6 L489.9,626.2 L494.6,628.5 L496.2,628.4 L502.0,629.6 L505.4,631.6 L506.9,630.5 L504.9,629.8 L506.1,628.6 L508.1,628.7 L510.3,627.4 L508.6,626.3 L501.3,624.6 L500.4,623.3 L499.1,625.3 L496.4,622.8 L496.5,625.0 L490.1,624.7 L487.7,625.4 L486.9,626.9 L484.3,626.9 L483.3,628.2 L480.5,626.3 L477.5,628.9 L475.7,624.5 L472.5,621.7 L471.4,619.8 L469.4,620.1 L470.4,617.5 L473.6,616.8 L474.7,618.0 L475.4,615.2 L474.1,614.1 L473.0,615.2 L470.1,613.8 L469.1,617.2 L467.9,614.9 L462.4,611.3 L458.2,607.1 L458.3,604.8 L460.1,602.8 L459.5,601.5 L461.2,600.5 L459.5,597.6 L461.2,595.9 L464.2,594.9 L464.7,590.9 L465.9,587.2 L468.5,585.1 L468.2,582.4 L466.8,581.0 L467.7,579.3 L472.9,577.3 L476.0,577.5 L478.6,575.1 L480.1,572.2 L483.9,570.3 L487.6,570.6 L491.9,568.8 L491.7,565.8 L494.1,565.0 L497.1,564.9 L499.3,562.8 L504.2,562.4 L507.9,559.8 L510.2,559.5 L509.9,558.1 L512.7,556.8 L513.5,557.6 L516.5,556.1 L518.3,558.4 L521.2,559.4 L522.7,558.1 L529.1,560.0 L532.7,557.6 L537.6,556.8 L540.8,555.0 L540.7,551.7 L538.3,548.8 L540.7,547.1 Z M531.3,622.1 L531.5,625.8 L529.4,625.3 L528.7,626.5 L525.4,622.9 L521.9,620.5 L521.9,619.2 L515.6,620.0 L515.2,617.8 L507.4,613.1 L503.6,612.6 L505.7,609.8 L508.1,608.7 L510.8,611.1 L513.6,613.1 L518.0,614.1 L521.3,613.5 L524.4,616.1 L524.1,618.5 L525.7,621.6 L527.5,622.9 Z M546.1,596.5 L550.4,594.2 L550.2,593.1 L552.9,592.4 L554.2,593.4 L558.4,598.7 L556.0,600.2 L551.8,600.0 L550.6,598.9 L553.0,596.6 L551.2,596.6 L549.6,599.1 L546.1,598.1 Z M535.2,674.1 L537.5,678.2 L538.7,678.3 L544.5,675.5 L548.6,674.7 L550.3,675.8 L555.5,674.9 L557.4,675.4 L561.9,673.7 L561.7,676.9 L563.7,677.8 L567.2,674.6 L568.8,674.9 L570.1,672.9 L571.2,674.7 L570.9,677.8 L569.5,678.8 L566.7,678.7 L564.0,680.0 L560.6,680.6 L552.7,683.9 L546.9,685.3 L545.7,682.1 L543.3,682.4 L540.3,681.2 L534.2,682.3 L530.0,682.4 L526.8,682.9 L525.5,682.0 L525.7,675.4 L526.7,677.4 L527.9,677.0 L527.6,673.5 L529.4,676.3 L532.5,676.0 Z M469.8,628.6 L468.6,627.0 L469.5,626.5 L469.8,628.6 Z">
  <desc xmlns="http://www.highcharts.com/svg/namespace">
    <name>Greece</name>
    <labelrank>3</labelrank>
    <country-abbrev>Greece</country-abbrev>
    <subregion>Southern Europe</subregion>
    <region-wb>Europe &amp; Central Asia</region-wb>
    <iso-a3>GRC</iso-a3>
    <iso-a2>GR</iso-a2>
    <woe-id>23424833</woe-id>
    <continent>Europe</continent>
    <hc-middle-x>0.21</hc-middle-x>
    <hc-middle-y>0.39</hc-middle-y>
    <hc-key>gr</hc-key>
    <hc-a2>GR</hc-a2>
  </desc>
</path>

<path fill="#CEE3F5" stroke="#6E6E6E" stroke-width="0.4" id="SE" d="M364.3,290.9 L364.6,291.1 L364.6,291.7 L364.0,291.5 Z M398.0,250.7 L399.3,251.0 L396.3,252.5 L396.7,251.3 Z M320.5,255.2 L319.7,257.1 L318.4,257.3 L318.1,255.5 Z M397.8,243.6 L397.0,243.6 L396.7,242.8 L397.9,243.0 Z M372.9,245.4 L372.7,246.3 L372.7,246.9 L372.1,245.9 Z M386.8,232.8 L386.6,233.6 L385.6,234.1 L385.6,233.3 Z M385.3,231.8 L384.6,233.1 L383.8,232.7 L384.2,232.0 Z M380.2,234.3 L379.7,234.3 L379.5,231.7 L380.3,233.0 Z M387.7,230.9 L387.3,231.9 L386.6,231.5 L387.6,229.7 Z M390.4,226.5 L389.9,226.6 L390.3,225.8 L390.6,226.1 Z M387.8,226.3 L388.0,226.8 L387.9,227.5 L386.0,226.3 Z M389.3,224.4 L389.8,224.8 L389.4,225.9 L388.8,224.6 Z M391.4,223.5 L391.0,223.5 L390.9,222.9 L391.5,223.0 Z M388.8,221.3 L387.8,223.7 L387.2,222.5 L387.9,221.3 Z M391.5,219.2 L390.9,220.1 L390.5,219.7 L391.2,218.7 Z M389.7,220.4 L390.4,219.2 L390.8,219.1 L390.1,220.2 Z M391.2,215.5 L391.3,215.9 L390.3,216.2 L390.7,214.6 Z M388.3,208.7 L388.1,209.2 L387.6,208.8 L387.9,208.1 Z M384.3,203.6 L385.8,206.4 L384.1,205.4 L383.8,202.7 Z M375.9,159.1 L376.5,159.0 L376.3,160.2 L375.4,160.4 Z M397.9,136.0 L398.5,135.5 L398.5,136.9 L398.0,137.5 Z M405.5,100.5 L405.2,100.9 L404.6,101.1 L405.1,100.4 Z M404.1,101.2 L403.4,101.2 L403.2,100.5 L403.7,100.5 Z M404.3,99.2 L404.1,99.5 L404.3,100.1 L403.3,99.1 Z M406.1,97.3 L406.8,97.6 L406.6,98.2 L406.1,98.1 Z M409.2,94.7 L409.3,95.4 L408.3,94.5 L408.6,94.0 Z M415.7,92.6 L415.4,93.6 L414.8,93.2 L414.8,92.7 Z M407.8,94.7 L407.0,94.6 L407.0,93.8 L407.5,94.0 Z M319.3,251.3 L318.8,251.5 L318.0,251.0 L319.6,248.1 L318.4,247.4 L318.2,249.9 L317.0,248.0 L315.2,249.8 L315.7,245.1 L314.5,242.1 L315.0,240.8 L313.8,237.5 L314.8,235.1 L316.2,235.1 L317.2,238.9 L319.4,238.4 L320.7,231.9 L319.2,225.9 L321.3,221.7 L320.8,219.7 L323.6,219.1 L326.5,216.0 L327.1,214.7 L326.8,211.2 L327.7,209.2 L327.7,206.8 L325.4,202.2 L324.1,197.8 L326.5,196.3 L328.1,196.5 L329.3,193.2 L329.7,189.9 L327.1,186.5 L325.2,185.9 L322.7,183.1 L323.9,173.0 L323.5,171.0 L321.6,166.1 L322.1,163.2 L321.5,159.5 L322.5,157.9 L320.3,152.2 L322.1,148.9 L321.7,146.1 L322.8,144.8 L326.0,138.8 L328.5,136.6 L330.7,135.9 L336.9,137.2 L338.6,133.2 L337.9,128.5 L333.7,125.9 L338.8,115.6 L339.4,112.2 L340.3,110.8 L340.2,103.2 L340.7,100.3 L339.5,94.7 L343.6,93.8 L346.9,91.1 L346.1,86.8 L347.9,84.5 L350.3,78.5 L353.0,74.9 L352.9,71.9 L350.1,67.6 L350.5,65.9 L352.6,64.7 L353.4,62.8 L354.5,57.3 L357.3,54.4 L358.0,53.0 L362.6,55.3 L364.2,51.2 L363.4,46.4 L363.4,43.6 L365.3,42.6 L367.0,43.9 L369.9,43.4 L376.9,45.7 L378.9,42.8 L376.6,41.8 L378.3,39.1 L378.8,36.1 L378.4,33.9 L376.3,31.9 L380.0,31.1 L382.5,32.1 L382.5,33.6 L383.8,34.0 L387.3,37.2 L391.0,39.0 L392.4,40.7 L394.1,40.4 L398.2,41.4 L400.3,43.0 L401.4,44.5 L401.7,46.2 L403.0,46.0 L403.7,47.5 L406.2,49.4 L405.2,50.7 L405.6,53.6 L406.7,56.5 L406.2,58.7 L409.0,59.5 L409.3,62.1 L408.3,62.9 L408.6,65.1 L413.2,71.2 L412.6,72.6 L413.2,76.3 L411.8,79.2 L413.3,83.6 L414.8,84.2 L416.3,86.2 L418.3,90.5 L416.7,92.1 L414.5,91.1 L412.0,91.7 L410.4,94.2 L406.2,91.9 L406.5,93.9 L404.6,92.3 L403.5,93.7 L404.5,96.1 L403.3,95.9 L405.1,98.7 L399.5,96.7 L403.2,99.0 L400.6,99.6 L402.3,100.7 L401.7,101.9 L398.0,102.9 L397.8,103.6 L400.1,104.7 L399.3,105.8 L396.9,103.5 L399.9,107.5 L398.5,111.6 L397.5,111.8 L397.2,114.3 L396.1,114.8 L399.4,119.3 L400.5,119.6 L401.0,121.4 L401.9,120.8 L400.4,124.0 L399.4,124.6 L397.4,128.5 L397.4,131.5 L396.7,133.9 L394.9,136.0 L394.5,135.2 L393.2,138.7 L391.2,138.8 L388.7,141.9 L388.4,143.9 L386.2,141.6 L386.9,144.5 L384.8,143.8 L385.0,146.1 L383.8,146.9 L383.3,149.6 L382.1,149.1 L379.9,150.6 L378.1,154.9 L379.0,156.3 L375.7,158.6 L375.3,157.0 L374.2,157.8 L373.9,155.9 L373.0,155.5 L375.7,161.5 L374.9,161.8 L373.0,165.6 L371.6,165.5 L370.4,163.9 L369.7,166.6 L371.7,170.1 L371.6,173.2 L370.8,175.4 L370.9,177.9 L371.7,179.9 L372.8,180.2 L372.3,181.6 L371.4,180.2 L368.8,183.0 L370.1,184.8 L369.6,186.5 L370.6,187.7 L370.4,190.3 L371.0,194.5 L372.8,199.2 L371.7,200.1 L374.0,201.2 L375.5,200.8 L376.4,203.3 L378.9,201.4 L379.6,203.1 L383.4,205.7 L384.6,205.9 L386.0,207.9 L383.6,207.1 L385.6,209.4 L388.8,209.9 L390.6,213.9 L389.3,216.4 L391.7,216.0 L388.3,219.4 L388.7,219.9 L386.2,222.5 L382.4,224.6 L383.7,225.4 L383.6,224.8 L384.9,225.1 L384.6,225.6 L383.8,225.5 L384.7,226.0 L385.6,224.8 L387.3,225.2 L386.5,223.5 L388.9,225.3 L387.7,226.1 L385.3,226.1 L387.1,229.3 L383.5,231.3 L382.4,234.3 L380.9,234.3 L380.5,230.3 L379.1,231.1 L379.4,235.6 L378.1,235.6 L378.2,237.2 L375.3,238.6 L374.8,240.1 L373.1,241.0 L366.0,240.7 L367.9,242.0 L369.0,241.4 L371.8,241.4 L373.5,243.6 L371.4,244.8 L368.5,244.3 L371.4,245.6 L372.4,247.0 L372.5,250.7 L370.7,249.5 L372.2,251.7 L371.6,253.6 L372.8,255.7 L370.9,254.7 L369.2,255.7 L372.6,259.4 L371.2,259.1 L372.8,263.6 L371.5,265.5 L371.0,269.6 L372.5,272.1 L371.0,272.8 L371.4,274.0 L370.6,277.8 L370.9,279.4 L369.7,280.0 L368.3,284.7 L368.0,287.9 L366.2,291.4 L365.8,290.0 L363.0,289.3 L360.4,290.8 L356.3,290.4 L353.5,291.1 L354.5,293.3 L351.4,293.5 L348.7,297.8 L348.6,299.6 L350.7,303.5 L348.8,306.2 L345.5,305.5 L342.7,306.0 L338.9,307.6 L335.2,306.2 L334.8,303.2 L336.2,301.3 L334.6,299.9 L330.9,292.9 L329.7,289.8 L332.9,290.6 L333.2,289.6 L330.8,287.0 L331.8,286.0 L333.7,286.1 L334.2,284.7 L333.4,282.4 L331.9,282.5 L330.3,279.1 L327.9,277.4 L326.7,274.9 L324.2,266.9 L322.9,268.8 L322.6,263.7 L320.3,261.8 L321.3,260.8 L320.1,259.6 L321.2,255.6 L321.7,252.1 L321.3,250.2 L319.9,250.9 L321.0,251.5 L321.2,253.9 L318.2,254.7 L317.3,253.3 Z M371.4,282.0 L373.2,275.4 L374.2,274.9 L375.6,270.3 L376.0,266.6 L377.1,265.8 L377.2,268.0 L375.9,274.3 L375.0,276.4 L374.0,281.3 L373.5,285.6 L372.1,288.1 Z M394.5,265.8 L391.4,268.5 L390.9,272.2 L389.2,272.7 L390.3,270.3 L388.0,266.3 L388.6,263.8 L387.6,261.3 L390.6,255.3 L393.2,252.7 L393.9,254.1 L396.0,252.7 L397.0,254.0 L395.8,256.1 L394.4,256.2 L394.2,258.5 L394.9,261.7 L396.4,262.4 L393.9,264.8 Z">
  <desc xmlns="http://www.highcharts.com/svg/namespace">
    <name>Sweden</name>
    <labelrank>3</labelrank>
    <country-abbrev>Swe.</country-abbrev>
    <subregion>Northern Europe</subregion>
    <region-wb>Europe &amp; Central Asia</region-wb>
    <iso-a3>SWE</iso-a3>
    <iso-a2>SE</iso-a2>
    <woe-id>23424954</woe-id>
    <continent>Europe</continent>
    <hc-middle-x>0.52</hc-middle-x>
    <hc-middle-y>0.34</hc-middle-y>
    <hc-key>se</hc-key>
    <hc-a2>SE</hc-a2>
  </desc>
</path>

<path fill="#CEE3F5" stroke="#6E6E6E" stroke-width="0.4" id="NL" d="M230.2,376.3 L229.6,377.8 L226.3,375.5 L229.4,375.5 Z M242.7,349.8 L241.5,351.9 L240.6,350.7 L242.4,348.3 Z M243.4,347.6 L242.7,347.6 L244.1,346.4 L244.9,346.0 Z M249.4,344.5 L246.7,345.3 L246.4,344.7 L251.2,343.7 Z M255.1,343.5 L255.5,343.8 L252.3,344.2 L252.3,343.5 Z M257.9,343.7 L257.5,343.5 L258.6,343.0 L259.9,343.2 Z M221.6,381.9 L224.0,381.3 L227.7,383.1 L229.4,381.9 L232.2,383.0 L230.8,384.7 L228.3,385.8 L224.9,383.9 L221.9,384.5 Z M232.7,383.0 L228.9,381.1 L227.4,382.1 L225.9,380.8 L224.0,380.5 L223.2,378.6 L224.6,377.9 L227.8,377.9 L231.2,381.5 L233.1,381.5 L232.6,380.1 L229.7,378.5 L232.1,376.8 L230.9,376.1 L229.8,373.4 L231.2,373.6 L230.6,370.9 L232.2,370.6 L237.1,364.5 L238.4,361.3 L239.7,355.7 L240.8,352.4 L242.7,353.8 L244.7,353.0 L248.4,350.4 L249.4,348.1 L251.1,346.6 L255.8,344.9 L260.0,345.0 L264.5,344.2 L266.1,344.8 L266.4,346.4 L269.8,348.7 L269.4,354.1 L268.1,356.2 L267.4,360.2 L264.3,360.2 L263.2,363.4 L266.5,364.0 L267.4,365.7 L267.0,368.3 L262.6,371.9 L264.2,373.4 L258.9,375.8 L255.9,374.3 L253.4,375.9 L253.5,377.4 L255.3,379.2 L256.3,381.8 L256.3,384.2 L254.4,387.2 L255.4,388.8 L252.4,391.0 L254.1,393.5 L253.1,396.5 L249.3,396.0 L248.6,394.2 L249.8,393.2 L251.5,388.5 L248.1,387.0 L247.3,385.6 L244.1,386.0 L242.5,383.6 L241.9,381.7 L240.6,383.2 L239.0,381.0 L237.2,382.4 L235.5,381.2 L234.2,381.7 L234.2,383.5 Z M251.9,363.9 L252.3,363.8 L252.4,363.5 L252.4,363.5 L252.4,363.5 L253.3,362.8 L253.4,360.6 L251.1,360.1 L253.2,361.0 L252.4,363.5 L252.4,363.5 L252.4,363.5 L251.9,363.9 L251.9,363.9 L251.9,363.9 L251.9,363.9 L249.4,364.9 L247.9,366.5 L244.6,364.1 L251.1,360.0 L250.8,356.9 L252.1,355.7 L248.5,355.1 L248.3,350.8 L244.3,353.4 L245.0,356.5 L247.0,358.0 L245.0,359.4 L243.8,359.3 L244.2,363.0 L242.6,364.2 L248.2,366.8 L251.9,363.9 L251.9,363.9 L251.9,363.9 Z">
  <desc xmlns="http://www.highcharts.com/svg/namespace">
    <name>Netherlands</name>
    <labelrank>5</labelrank>
    <country-abbrev>Neth.</country-abbrev>
    <subregion>Western Europe</subregion>
    <region-wb>Europe &amp; Central Asia</region-wb>
    <iso-a3>NLD</iso-a3>
    <iso-a2>NL</iso-a2>
    <woe-id>-90</woe-id>
    <continent>Europe</continent>
    <hc-middle-x>0.35</hc-middle-x>
    <hc-middle-y>0.58</hc-middle-y>
    <hc-key>nl</hc-key>
    <hc-a2>NL</hc-a2>
  </desc>
</path>

<path fill="#CEE3F5" stroke="#6E6E6E" stroke-width="0.4" id="ES" d="M169.0,625.7 L169.6,626.8 L167.9,627.7 L168.1,626.3 Z M172.0,618.9 L172.5,620.5 L169.0,622.8 L168.7,624.0 L165.9,622.2 L168.5,619.0 Z M193.8,620.5 L192.9,620.9 L192.7,620.2 L193.8,619.6 Z M212.8,603.9 L215.0,605.8 L215.2,608.8 L211.0,606.4 L208.2,605.9 L208.3,603.7 Z M185.3,553.8 L185.1,553.4 L185.5,553.0 L185.9,553.8 Z M51.6,663.3 L52.2,663.4 L53.2,664.4 L52.2,665.1 Z M177.9,549.9 L177.4,552.0 L178.7,553.3 L181.7,552.2 L184.8,553.9 L186.4,555.7 L189.9,554.6 L192.4,556.6 L199.5,554.8 L203.0,555.9 L203.2,557.7 L204.8,558.2 L203.8,559.7 L202.3,559.3 L201.6,561.5 L202.9,565.1 L201.5,567.3 L198.0,569.6 L188.1,573.5 L184.2,576.9 L176.3,577.7 L167.8,579.6 L163.1,583.5 L165.2,585.5 L164.7,586.5 L160.8,587.3 L156.2,593.2 L151.3,597.6 L146.4,603.3 L143.9,606.9 L143.7,610.8 L144.4,615.8 L146.9,620.4 L148.7,621.0 L150.2,623.6 L146.1,625.2 L144.7,626.8 L140.6,627.7 L137.6,629.8 L137.3,632.4 L135.6,632.7 L134.4,636.3 L130.4,641.1 L132.5,643.5 L125.9,644.3 L123.9,643.0 L116.4,646.2 L113.7,648.9 L111.5,653.8 L107.1,657.4 L103.7,654.8 L100.2,654.7 L98.5,656.8 L96.9,656.8 L94.3,654.9 L89.6,653.9 L86.4,654.6 L83.6,653.1 L76.4,651.5 L70.3,651.1 L68.3,653.3 L64.8,654.4 L62.0,653.6 L57.1,654.5 L53.5,659.3 L53.2,659.2 L52.3,658.2 L51.4,660.6 L48.6,661.0 L44.5,656.4 L42.6,655.8 L41.1,653.1 L41.2,647.5 L38.9,645.8 L39.8,642.4 L38.7,639.1 L33.5,633.6 L30.7,632.1 L25.5,631.1 L26.0,625.0 L25.5,623.3 L28.0,620.2 L29.7,619.3 L31.5,616.3 L34.1,615.7 L35.5,616.4 L37.5,613.3 L35.0,613.2 L32.4,606.9 L35.1,601.6 L38.9,600.1 L40.9,597.3 L40.4,595.2 L38.5,594.7 L37.1,589.7 L37.9,587.5 L35.5,584.1 L35.3,582.3 L43.1,584.0 L47.0,578.4 L45.3,574.5 L49.8,572.0 L49.3,570.1 L50.9,566.3 L51.4,562.5 L50.7,558.7 L52.7,558.4 L56.1,554.9 L58.5,554.9 L61.6,553.1 L63.9,550.6 L63.2,549.2 L59.3,546.1 L60.3,542.5 L52.3,539.4 L50.2,541.4 L44.7,540.7 L43.6,539.0 L38.5,539.4 L36.6,539.0 L36.2,537.4 L39.0,534.9 L37.7,532.3 L31.4,532.8 L29.2,533.9 L27.2,535.0 L27.8,530.8 L32.7,528.0 L29.1,527.9 L32.8,525.5 L29.9,524.9 L32.2,520.9 L28.4,522.2 L27.9,520.7 L31.0,517.6 L28.2,516.3 L28.7,514.3 L26.5,513.7 L27.4,511.2 L30.1,508.9 L32.8,509.1 L32.6,508.0 L35.0,507.4 L36.8,508.9 L42.4,508.0 L43.8,510.0 L44.1,508.6 L42.7,506.8 L43.4,505.0 L50.4,502.8 L50.6,503.9 L53.6,503.9 L57.1,506.2 L58.4,508.8 L61.1,509.8 L66.6,510.5 L68.4,511.6 L72.6,511.6 L77.0,512.7 L78.0,511.5 L79.6,513.7 L83.6,514.8 L86.7,516.9 L92.6,519.6 L97.4,521.2 L106.6,521.3 L109.6,521.0 L110.0,522.8 L115.6,525.1 L118.1,524.1 L120.6,524.3 L125.7,527.9 L129.0,529.0 L134.0,527.9 L134.4,529.9 L139.1,531.6 L137.4,534.6 L144.2,538.1 L147.4,538.8 L149.5,542.1 L153.3,541.8 L155.5,543.0 L157.0,545.4 L160.1,545.0 L161.5,546.4 L166.8,546.8 L167.4,543.8 L173.2,545.7 L174.0,547.0 L176.6,547.4 Z M191.0,613.0 L189.6,611.6 L186.9,613.2 L185.1,610.2 L190.8,606.7 L194.5,605.1 L198.4,604.4 L196.9,606.0 L197.7,608.3 L200.7,608.3 L202.5,609.2 L201.1,612.2 L197.9,616.5 L195.2,618.1 L193.8,616.1 L190.9,615.0 Z">
  <desc xmlns="http://www.highcharts.com/svg/namespace">
    <name>Spain</name>
    <labelrank>2</labelrank>
    <country-abbrev>Sp.</country-abbrev>
    <subregion>Southern Europe</subregion>
    <region-wb>Europe &amp; Central Asia</region-wb>
    <iso-a3>ESP</iso-a3>
    <iso-a2>ES</iso-a2>
    <woe-id>23424950</woe-id>
    <continent>Europe</continent>
    <hc-middle-x>0.40</hc-middle-x>
    <hc-middle-y>0.51</hc-middle-y>
    <hc-key>es</hc-key>
    <hc-a2>ES</hc-a2>
  </desc>
</path>

<path fill="#CEE3F5" stroke="#6E6E6E" stroke-width="0.4" id="LT" d="M424.3,300.5 L423.5,300.4 L424.6,296.0 L424.0,291.7 L424.7,292.9 L425.1,297.4 Z M456.5,321.3 L455.0,317.0 L453.5,316.0 L447.8,313.8 L446.9,314.8 L445.6,313.1 L445.2,307.9 L446.2,306.6 L445.5,304.4 L443.4,303.5 L442.5,301.7 L438.8,302.1 L437.3,303.2 L430.2,301.1 L427.5,299.4 L426.1,295.3 L423.8,291.3 L422.6,285.0 L424.0,284.5 L425.1,281.6 L432.7,276.5 L434.0,276.8 L437.2,276.2 L439.1,276.7 L441.2,275.2 L443.9,276.7 L445.5,275.1 L447.7,275.5 L450.0,274.6 L453.1,274.9 L454.7,275.6 L456.4,274.5 L458.3,274.9 L459.9,272.5 L462.3,270.5 L463.9,273.1 L465.6,274.9 L471.7,274.4 L472.4,275.4 L478.4,278.7 L480.0,280.5 L483.7,281.1 L483.6,287.8 L487.7,288.1 L486.0,291.6 L482.9,291.8 L481.8,295.5 L479.4,296.5 L478.4,298.3 L478.4,302.2 L479.2,304.1 L478.3,305.3 L477.8,308.9 L479.7,308.9 L481.1,310.4 L481.0,312.1 L478.8,312.8 L478.5,311.0 L477.3,309.9 L476.4,311.1 L474.7,311.3 L473.6,314.0 L471.1,314.3 L470.5,315.5 L471.0,317.8 L469.7,317.6 L466.7,320.3 L464.5,319.5 L461.3,320.2 L458.4,321.7 Z">
  <desc xmlns="http://www.highcharts.com/svg/namespace">
    <name>Lithuania</name>
    <labelrank>5</labelrank>
    <country-abbrev>Lith.</country-abbrev>
    <subregion>Northern Europe</subregion>
    <region-wb>Europe &amp; Central Asia</region-wb>
    <iso-a3>LTU</iso-a3>
    <iso-a2>LT</iso-a2>
    <woe-id>23424875</woe-id>
    <continent>Europe</continent>
    <hc-middle-x>0.60</hc-middle-x>
    <hc-middle-y>0.49</hc-middle-y>
    <hc-key>lt</hc-key>
    <hc-a2>LT</hc-a2>
  </desc>
</path>

<path fill="#CEE3F5" stroke="#6E6E6E" stroke-width="0.4" id="IT" d="M334.5,671.7 L335.7,672.4 L335.4,673.4 L333.8,672.5 Z M381.1,638.4 L380.3,638.0 L380.4,637.3 L381.0,637.8 Z M380.5,636.8 L379.4,636.3 L379.5,635.7 L380.2,635.5 Z M378.7,635.0 L377.6,634.7 L378.5,634.3 L378.9,634.6 Z M277.0,626.0 L278.6,627.2 L277.7,629.1 L276.8,627.1 Z M276.2,626.2 L275.4,626.2 L275.0,625.2 L276.2,624.5 Z M362.2,592.9 L360.5,593.0 L360.7,592.0 L362.3,592.5 Z M277.5,586.5 L277.5,587.3 L276.3,587.7 L276.7,586.5 Z M294.1,584.6 L293.2,584.6 L293.1,584.3 L293.9,583.7 Z M316.3,562.5 L316.0,562.7 L315.1,561.8 L315.4,561.3 Z M308.7,553.0 L308.0,554.8 L304.0,554.2 L304.8,553.0 Z M299.9,549.2 L299.4,548.8 L300.0,547.9 L300.4,548.5 Z M261.8,491.1 L264.0,492.1 L266.5,491.6 L269.0,490.2 L272.9,491.7 L275.0,490.1 L276.8,487.7 L276.4,485.2 L281.4,481.8 L281.2,485.3 L283.5,487.9 L286.6,489.1 L285.7,490.7 L287.1,491.4 L287.4,493.8 L289.6,492.7 L288.6,491.0 L289.9,488.1 L292.6,484.4 L292.5,481.0 L294.9,480.8 L295.1,483.2 L296.5,484.8 L298.6,483.8 L302.0,483.5 L303.1,486.2 L304.7,485.4 L303.7,484.1 L304.3,482.4 L303.1,482.0 L303.7,478.7 L305.1,478.2 L308.2,480.0 L308.8,478.7 L307.5,477.3 L308.6,473.6 L311.4,473.6 L312.1,474.9 L315.9,475.4 L317.1,472.5 L320.1,471.0 L323.8,470.7 L325.9,471.2 L328.5,469.9 L331.9,468.9 L330.7,470.7 L332.9,473.0 L333.0,474.6 L334.8,476.5 L340.6,477.8 L343.8,477.9 L346.1,478.7 L349.4,478.3 L352.4,479.0 L348.1,483.8 L348.9,484.9 L351.9,485.7 L349.7,489.2 L351.9,489.9 L351.5,493.0 L354.3,494.2 L356.0,496.3 L353.5,497.1 L353.6,495.0 L351.1,493.4 L349.4,494.8 L346.6,493.9 L344.6,495.2 L344.9,496.6 L342.9,496.9 L335.7,501.1 L337.8,499.0 L337.0,498.3 L333.8,500.5 L333.0,503.6 L334.8,507.6 L337.8,510.1 L336.6,513.0 L334.5,512.7 L334.0,514.5 L334.6,519.6 L335.9,524.2 L337.6,526.4 L340.9,529.3 L344.4,530.9 L348.9,534.5 L354.2,537.6 L357.8,545.4 L359.7,551.8 L361.8,555.6 L369.3,562.5 L371.4,563.2 L372.2,565.1 L376.0,566.3 L378.0,567.7 L382.8,567.9 L391.3,566.5 L393.0,566.8 L394.0,569.3 L390.3,572.6 L390.3,575.3 L392.0,576.7 L400.9,580.3 L408.1,582.1 L411.5,583.8 L414.8,586.4 L423.2,589.1 L423.8,590.9 L427.1,592.5 L430.5,595.9 L432.1,598.8 L431.0,600.7 L430.6,605.3 L425.8,603.5 L423.9,600.8 L424.2,599.6 L421.6,596.5 L416.5,596.7 L411.7,595.2 L411.8,593.8 L409.0,593.2 L407.1,594.8 L404.9,599.7 L403.1,602.4 L403.8,604.7 L401.9,608.1 L402.5,610.4 L406.2,611.4 L412.9,615.0 L412.9,620.7 L414.4,622.4 L413.0,625.2 L408.9,625.2 L405.5,627.5 L404.6,629.5 L405.6,635.3 L402.2,638.2 L399.8,641.6 L398.9,645.5 L393.8,646.4 L392.2,645.7 L391.3,643.3 L391.5,640.3 L393.6,639.4 L395.1,635.3 L393.9,631.7 L399.0,629.5 L399.3,626.4 L396.9,623.1 L394.9,616.0 L392.8,613.7 L391.0,607.8 L388.0,603.9 L384.1,605.6 L380.5,602.6 L377.2,601.4 L378.3,598.2 L376.4,594.8 L374.2,592.9 L367.9,595.1 L369.9,592.1 L367.1,590.1 L364.1,590.4 L360.1,584.4 L358.1,582.4 L355.9,583.4 L352.1,581.9 L348.0,583.4 L345.6,580.1 L341.7,579.3 L338.8,575.8 L335.6,573.8 L334.2,570.5 L330.7,568.0 L329.4,568.1 L326.8,563.3 L322.9,561.0 L318.5,561.0 L319.8,558.7 L316.9,555.0 L313.1,553.2 L313.8,551.4 L312.4,550.3 L310.0,550.8 L309.4,549.6 L310.4,546.5 L308.8,541.7 L307.2,540.0 L306.3,533.5 L304.0,529.4 L300.3,527.6 L299.9,528.5 L295.2,524.9 L291.7,522.7 L286.0,521.2 L284.6,521.2 L280.9,523.5 L280.0,525.7 L277.5,527.4 L276.5,530.2 L273.5,532.2 L269.7,533.3 L266.9,533.2 L266.6,531.7 L269.8,527.5 L269.4,525.7 L265.4,526.6 L260.6,524.1 L258.4,521.4 L259.2,520.2 L258.3,518.0 L260.3,515.2 L261.3,515.4 L259.7,511.9 L256.9,510.4 L257.0,508.8 L255.4,506.9 L257.3,506.0 L258.7,506.6 L262.5,504.2 L263.3,501.3 L261.0,499.2 L260.8,496.7 L258.6,495.0 L258.7,492.9 Z M337.5,531.2 L337.7,529.4 L336.9,529.8 L336.4,530.6 Z M351.4,643.7 L354.8,643.0 L356.1,645.3 L362.5,647.5 L366.1,645.8 L370.1,646.3 L375.7,644.6 L377.2,643.0 L379.9,642.2 L382.8,643.2 L385.1,640.8 L385.9,641.4 L389.3,639.3 L390.5,640.4 L389.4,643.6 L385.2,650.7 L384.8,654.3 L383.9,655.8 L384.3,659.3 L386.7,660.4 L385.7,661.5 L388.3,665.2 L385.9,666.8 L384.8,669.8 L384.7,672.6 L381.5,671.4 L379.9,672.1 L375.0,670.5 L373.3,667.6 L371.4,665.7 L368.2,664.4 L365.1,664.9 L357.8,661.3 L353.2,657.8 L350.8,657.7 L348.2,656.2 L344.9,656.5 L342.1,654.3 L341.1,651.8 L342.1,647.7 L346.1,644.1 L348.4,647.1 L350.4,646.3 Z M279.5,614.1 L280.2,610.9 L278.0,610.3 L278.2,608.0 L279.5,606.4 L279.1,602.2 L277.0,596.9 L274.7,597.2 L275.3,594.7 L274.4,593.9 L275.9,590.3 L277.1,591.5 L280.2,592.1 L283.9,590.4 L287.6,586.4 L291.0,583.6 L294.2,586.2 L296.0,586.5 L295.2,588.5 L296.1,590.7 L298.3,591.9 L297.3,592.8 L299.9,598.4 L298.7,601.2 L296.8,603.5 L298.4,607.0 L297.1,615.9 L297.0,619.0 L295.6,625.8 L293.9,626.1 L291.5,624.2 L287.6,625.0 L287.2,628.7 L284.6,630.9 L282.5,629.8 L280.7,630.4 L280.1,627.3 L278.3,626.0 L277.3,623.7 L277.4,620.8 L278.8,616.9 L278.7,613.2 Z">
  <desc xmlns="http://www.highcharts.com/svg/namespace">
    <name>Italy</name>
    <labelrank>2</labelrank>
    <country-abbrev>Italy</country-abbrev>
    <subregion>Southern Europe</subregion>
    <region-wb>Europe &amp; Central Asia</region-wb>
    <iso-a3>ITA</iso-a3>
    <iso-a2>IT</iso-a2>
    <woe-id>23424853</woe-id>
    <continent>Europe</continent>
    <hc-middle-x>0.44</hc-middle-x>
    <hc-middle-y>0.38</hc-middle-y>
    <hc-key>it</hc-key>
    <hc-a2>IT</hc-a2>
  </desc>
</path>

<path fill="#CEE3F5" stroke="#6E6E6E" stroke-width="0.4" id="MT" d="M377.5,689.5 L376.9,690.5 L373.8,689.0 L373.4,687.2 L376.5,687.9 Z M372.6,686.4 L371.0,686.1 L372.2,685.2 L373.5,686.0 Z">
  <desc xmlns="http://www.highcharts.com/svg/namespace">
    <name>Malta</name>
    <labelrank>5</labelrank>
    <country-abbrev>Malta</country-abbrev>
    <subregion>Southern Europe</subregion>
    <region-wb>Middle East &amp; North Africa</region-wb>
    <iso-a3>MLT</iso-a3>
    <iso-a2>MT</iso-a2>
    <woe-id>23424897</woe-id>
    <continent>Europe</continent>
    <hc-middle-x>0.66</hc-middle-x>
    <hc-middle-y>0.64</hc-middle-y>
    <hc-key>mt</hc-key>
    <hc-a2>MT</hc-a2>
  </desc>
</path>

<path fill="#CEE3F5" stroke="#6E6E6E" stroke-width="0.4" id="NC" d="M672.1,646.8 L672.4,646.6 L672.7,646.4 L672.4,647.0 Z M693.4,642.0 L691.5,643.5 L690.1,643.9 L686.5,643.8 L684.6,642.2 L681.4,643.5 L676.5,647.5 L673.8,646.2 L676.4,645.8 L677.0,644.1 L675.8,640.9 L684.2,639.6 L687.6,637.8 L692.8,633.6 L694.5,631.2 L700.0,626.3 L700.0,627.4 L694.8,634.1 L694.1,636.3 L692.3,637.9 L692.7,640.2 L695.1,641.5 L694.3,641.7 L693.4,642.0 L693.4,642.0 Z">
  <desc xmlns="http://www.highcharts.com/svg/namespace">
    <name>Northern Cyprus</name>
    <labelrank>6</labelrank>
    <country-abbrev>N. Cy.</country-abbrev>
    <subregion>Western Asia</subregion>
    <region-wb>Europe &amp; Central Asia</region-wb>
    <iso-a3>-99</iso-a3>
    <iso-a2>NC</iso-a2>
    <woe-id>-90</woe-id>
    <continent>Asia</continent>
    <hc-middle-x>0.59</hc-middle-x>
    <hc-middle-y>0.61</hc-middle-y>
    <hc-key>nc</hc-key>
    <hc-a2>NC</hc-a2>
  </desc>
</path>

<path fill="#CEE3F5" stroke="#6E6E6E" stroke-width="0.4" id="PL" d="M351.7,339.0 L352.0,338.0 L354.6,339.5 L355.8,335.8 L350.8,335.6 L350.5,335.0 L350.8,334.4 L352.6,334.7 L357.3,332.1 L362.9,329.7 L372.3,326.0 L374.5,324.5 L374.2,323.6 L376.7,320.4 L380.8,319.0 L381.8,317.7 L385.0,315.8 L391.0,313.7 L395.8,312.9 L397.4,313.6 L397.1,314.8 L399.3,318.1 L399.7,320.3 L401.3,321.2 L404.6,321.5 L408.8,320.3 L407.2,321.3 L409.1,322.2 L412.6,319.5 L412.9,318.6 L446.2,315.2 L446.9,314.8 L447.8,313.8 L453.5,316.0 L455.0,317.0 L456.5,321.3 L458.9,327.3 L462.3,333.4 L464.0,335.5 L465.9,343.2 L465.5,344.7 L460.6,348.8 L458.7,353.5 L459.5,354.6 L462.4,354.9 L465.0,356.4 L465.8,358.1 L465.3,362.9 L465.6,365.8 L468.2,369.3 L467.7,370.7 L471.3,374.0 L472.3,376.4 L475.5,379.1 L473.6,379.7 L475.4,381.6 L476.4,384.8 L475.4,387.7 L472.6,388.6 L466.2,398.3 L461.9,407.6 L463.5,410.5 L464.0,414.3 L466.1,415.6 L466.5,417.3 L462.2,416.6 L457.9,416.0 L455.1,415.0 L454.7,413.8 L452.2,412.2 L451.5,412.9 L449.3,411.7 L447.2,412.4 L444.9,412.0 L442.2,413.4 L441.4,415.6 L437.9,414.0 L433.1,415.0 L431.1,416.9 L430.5,419.6 L428.5,418.9 L426.6,419.5 L427.1,418.1 L426.3,415.8 L424.5,415.9 L421.7,412.4 L419.5,414.3 L418.8,416.7 L416.2,417.3 L415.5,415.1 L414.3,415.1 L413.1,412.0 L411.3,411.7 L409.9,407.9 L408.9,408.2 L403.2,406.7 L400.8,407.6 L399.2,405.4 L397.2,404.3 L399.0,403.3 L398.1,401.3 L397.3,402.4 L393.9,402.5 L391.7,400.6 L387.8,400.2 L389.3,403.7 L386.3,406.7 L381.3,401.7 L379.4,400.9 L381.6,398.9 L380.8,396.5 L377.7,396.7 L376.5,397.6 L375.9,396.0 L369.6,394.3 L368.4,394.7 L367.2,391.5 L363.4,391.0 L363.8,393.6 L361.7,393.8 L363.2,389.6 L363.8,386.2 L362.6,382.2 L359.9,381.1 L359.6,378.0 L357.8,375.6 L359.5,370.1 L358.6,369.3 L358.5,366.8 L357.4,366.4 L356.5,363.6 L357.5,360.5 L354.2,357.6 L351.1,355.6 L351.2,353.4 L353.4,351.6 L353.9,347.2 L352.4,342.7 Z">
  <desc xmlns="http://www.highcharts.com/svg/namespace">
    <name>Poland</name>
    <labelrank>3</labelrank>
    <country-abbrev>Pol.</country-abbrev>
    <subregion>Eastern Europe</subregion>
    <region-wb>Europe &amp; Central Asia</region-wb>
    <iso-a3>POL</iso-a3>
    <iso-a2>PL</iso-a2>
    <woe-id>23424923</woe-id>
    <continent>Europe</continent>
    <hc-middle-x>0.55</hc-middle-x>
    <hc-middle-y>0.50</hc-middle-y>
    <hc-key>pl</hc-key>
    <hc-a2>PL</hc-a2>
  </desc>
</path>

<path fill="#CEE3F5" stroke="#6E6E6E" stroke-width="0.4" id="SK" d="M462.2,416.6 L460.8,421.3 L460.7,424.2 L459.0,426.7 L459.3,430.3 L454.3,432.4 L449.7,428.8 L445.9,430.8 L441.5,429.9 L437.8,431.3 L436.4,436.3 L434.1,437.3 L431.2,440.0 L427.5,438.6 L426.1,439.6 L426.0,441.1 L422.8,442.5 L417.8,443.5 L416.8,445.0 L418.0,447.6 L416.6,448.9 L414.7,448.8 L410.7,450.0 L405.3,450.7 L401.8,449.5 L398.4,446.6 L395.9,446.7 L393.5,443.9 L392.8,441.7 L391.3,440.1 L392.2,435.3 L392.9,432.5 L394.5,430.1 L399.3,430.5 L403.3,427.9 L403.7,426.1 L405.7,425.2 L406.7,420.6 L408.3,419.7 L410.6,416.1 L414.3,415.1 L415.5,415.1 L416.2,417.3 L418.8,416.7 L419.5,414.3 L421.7,412.4 L424.5,415.9 L426.3,415.8 L427.1,418.1 L426.6,419.5 L428.5,418.9 L430.5,419.6 L431.1,416.9 L433.1,415.0 L437.9,414.0 L441.4,415.6 L442.2,413.4 L444.9,412.0 L447.2,412.4 L449.3,411.7 L451.5,412.9 L452.2,412.2 L454.7,413.8 L455.1,415.0 L457.9,416.0 Z">
  <desc xmlns="http://www.highcharts.com/svg/namespace">
    <name>Slovakia</name>
    <labelrank>6</labelrank>
    <country-abbrev>Svk.</country-abbrev>
    <subregion>Eastern Europe</subregion>
    <region-wb>Europe &amp; Central Asia</region-wb>
    <iso-a3>SVK</iso-a3>
    <iso-a2>SK</iso-a2>
    <woe-id>23424877</woe-id>
    <continent>Europe</continent>
    <hc-middle-x>0.41</hc-middle-x>
    <hc-middle-y>0.46</hc-middle-y>
    <hc-key>sk</hc-key>
    <hc-a2>SK</hc-a2>
  </desc>
</path>

<path fill="#CEE3F5" stroke="#6E6E6E" stroke-width="0.4" id="HU" d="M459.3,430.3 L461.1,430.0 L462.7,432.9 L464.3,432.6 L466.3,435.1 L468.1,434.4 L470.4,437.4 L469.1,440.0 L467.0,441.8 L465.5,441.4 L463.2,443.2 L462.2,446.1 L460.4,448.1 L460.9,450.0 L459.4,452.2 L458.7,455.9 L457.2,458.0 L456.5,464.0 L454.3,466.5 L452.9,473.4 L451.7,474.5 L449.0,474.1 L446.3,477.3 L444.3,476.8 L441.4,478.5 L437.0,478.0 L435.3,478.9 L431.9,478.7 L428.5,482.7 L425.8,482.5 L423.7,484.3 L420.7,485.1 L417.5,488.8 L414.7,488.3 L410.1,489.0 L407.0,488.0 L406.0,486.3 L402.6,486.2 L400.2,483.2 L397.1,481.8 L395.3,479.0 L390.3,476.7 L388.1,474.1 L388.6,473.6 L386.5,469.9 L384.1,470.2 L386.3,467.2 L389.1,467.1 L387.6,460.3 L390.3,458.0 L390.8,456.6 L389.9,454.8 L386.9,454.3 L389.4,452.3 L392.0,453.5 L395.6,452.5 L394.3,449.6 L395.9,446.7 L398.4,446.6 L401.8,449.5 L405.3,450.7 L410.7,450.0 L414.7,448.8 L416.6,448.9 L418.0,447.6 L416.8,445.0 L417.8,443.5 L422.8,442.5 L426.0,441.1 L426.1,439.6 L427.5,438.6 L431.2,440.0 L434.1,437.3 L436.4,436.3 L437.8,431.3 L441.5,429.9 L445.9,430.8 L449.7,428.8 L454.3,432.4 Z">
  <desc xmlns="http://www.highcharts.com/svg/namespace">
    <name>Hungary</name>
    <labelrank>5</labelrank>
    <country-abbrev>Hun.</country-abbrev>
    <subregion>Eastern Europe</subregion>
    <region-wb>Europe &amp; Central Asia</region-wb>
    <iso-a3>HUN</iso-a3>
    <iso-a2>HU</iso-a2>
    <woe-id>23424844</woe-id>
    <continent>Europe</continent>
    <hc-middle-x>0.52</hc-middle-x>
    <hc-middle-y>0.50</hc-middle-y>
    <hc-key>hu</hc-key>
    <hc-a2>HU</hc-a2>
  </desc>
</path>

<path fill="#CEE3F5" stroke="#6E6E6E" stroke-width="0.4" id="LU" d="M256.1,421.9 L253.5,421.0 L251.2,421.9 L249.2,419.9 L250.5,417.9 L248.8,415.0 L248.6,413.1 L250.8,409.1 L252.5,407.7 L253.9,408.8 L253.6,410.2 L255.0,413.4 L258.4,415.4 L258.2,417.2 L256.3,419.7 Z">
  <desc xmlns="http://www.highcharts.com/svg/namespace">
    <name>Luxembourg</name>
    <labelrank>6</labelrank>
    <country-abbrev>Lux.</country-abbrev>
    <subregion>Western Europe</subregion>
    <region-wb>Europe &amp; Central Asia</region-wb>
    <iso-a3>LUX</iso-a3>
    <iso-a2>LU</iso-a2>
    <woe-id>23424881</woe-id>
    <continent>Europe</continent>
    <hc-middle-x>0.46</hc-middle-x>
    <hc-middle-y>0.05</hc-middle-y>
    <hc-key>lu</hc-key>
    <hc-a2>LU</hc-a2>
  </desc>
</path>

<path fill="#CEE3F5" stroke="#6E6E6E" stroke-width="0.4" id="SI" d="M351.9,499.3 L351.9,498.4 L353.5,497.1 L356.0,496.3 L354.3,494.2 L351.5,493.0 L351.9,489.9 L349.7,489.2 L351.9,485.7 L348.9,484.9 L348.1,483.8 L352.4,479.0 L357.2,479.5 L358.6,480.3 L362.0,480.1 L363.9,481.2 L367.1,478.4 L367.8,476.5 L370.6,475.4 L375.0,475.2 L376.0,475.7 L378.2,473.5 L383.3,473.6 L382.7,470.9 L384.1,470.2 L386.5,469.9 L388.6,473.6 L388.1,474.1 L390.3,476.7 L388.0,476.0 L386.6,477.2 L387.4,479.4 L384.4,479.7 L384.3,481.0 L379.3,483.3 L378.5,485.3 L380.1,486.7 L379.9,490.7 L377.0,491.3 L374.5,493.6 L376.2,494.8 L374.9,495.6 L376.3,497.9 L373.3,499.1 L370.0,497.7 L369.7,498.6 L366.7,497.5 L365.0,495.2 L364.0,497.9 L362.7,498.9 L358.9,499.2 L357.2,498.5 L356.1,500.3 Z">
  <desc xmlns="http://www.highcharts.com/svg/namespace">
    <name>Slovenia</name>
    <labelrank>6</labelrank>
    <country-abbrev>Slo.</country-abbrev>
    <subregion>Southern Europe</subregion>
    <region-wb>Europe &amp; Central Asia</region-wb>
    <iso-a3>SVN</iso-a3>
    <iso-a2>SI</iso-a2>
    <woe-id>23424945</woe-id>
    <continent>Europe</continent>
    <hc-middle-x>0.39</hc-middle-x>
    <hc-middle-y>0.61</hc-middle-y>
    <hc-key>si</hc-key>
    <hc-a2>SI</hc-a2>
  </desc>
</path>

<path fill="#CEE3F5" stroke="#6E6E6E" stroke-width="0.4" id="BE" d="M253.9,408.8 L252.5,407.7 L250.8,409.1 L248.6,413.1 L248.8,415.0 L250.5,417.9 L249.2,419.9 L247.3,419.7 L245.2,420.5 L244.3,418.3 L243.0,418.0 L238.9,414.2 L237.7,414.3 L237.1,410.6 L238.4,407.4 L235.9,408.4 L235.5,410.2 L232.6,411.1 L229.0,409.9 L230.0,408.4 L229.1,407.0 L230.2,404.6 L228.1,402.8 L223.6,402.8 L223.6,400.3 L221.5,398.7 L219.1,398.3 L218.0,393.5 L213.5,393.9 L211.3,391.4 L211.8,389.1 L211.0,386.5 L218.8,382.6 L221.6,381.9 L221.9,384.5 L224.9,383.9 L228.3,385.8 L230.8,384.7 L232.2,383.0 L233.2,384.9 L232.7,383.0 L234.2,383.5 L234.2,381.7 L235.5,381.2 L237.2,382.4 L239.0,381.0 L240.6,383.2 L241.9,381.7 L242.5,383.6 L244.1,386.0 L247.3,385.6 L248.1,387.0 L251.5,388.5 L249.8,393.2 L248.6,394.2 L249.3,396.0 L253.1,396.5 L255.2,399.2 L255.3,401.7 L257.0,401.9 L257.3,405.2 L254.4,407.0 Z">
  <desc xmlns="http://www.highcharts.com/svg/namespace">
    <name>Belgium</name>
    <labelrank>2</labelrank>
    <country-abbrev>Belg.</country-abbrev>
    <subregion>Western Europe</subregion>
    <region-wb>Europe &amp; Central Asia</region-wb>
    <iso-a3>BEL</iso-a3>
    <iso-a2>BE</iso-a2>
    <woe-id>23424757</woe-id>
    <continent>Europe</continent>
    <hc-middle-x>0.53</hc-middle-x>
    <hc-middle-y>0.37</hc-middle-y>
    <hc-key>be</hc-key>
    <hc-a2>BE</hc-a2>
  </desc>
</path>

<path fill="#CEE3F5" stroke="#6E6E6E" stroke-width="0.4" id="CNM" d="M695.1,641.5 L695.3,641.6 L693.9,642.2 L693.3,642.2 L693.4,642.0 L693.4,642.0 L694.3,641.7 Z M671.9,647.0 L672.1,646.8 L672.4,647.0 L672.7,646.4 L672.8,646.4 L673.0,646.3 L672.6,647.2 Z M673.5,646.2 L673.8,646.2 L676.5,647.5 L681.4,643.5 L684.6,642.2 L686.5,643.8 L690.1,643.9 L690.5,644.0 L690.7,644.7 L687.5,644.6 L686.6,645.8 L685.1,642.9 L683.7,644.3 L681.3,644.1 L676.2,647.9 Z">
  <desc xmlns="http://www.highcharts.com/svg/namespace">
    <name>Cyprus No Mans Area</name>
    <labelrank>9</labelrank>
    <country-abbrev>NULL</country-abbrev>
    <subregion>Western Asia</subregion>
    <region-wb>Europe &amp; Central Asia</region-wb>
    <iso-a3>-99</iso-a3>
    <iso-a2>NULL</iso-a2>
    <woe-id>-99</woe-id>
    <continent>Asia</continent>
    <hc-middle-x>0.55</hc-middle-x>
    <hc-middle-y>0.16</hc-middle-y>
    <hc-key>cnm</hc-key>
    <hc-a2>CN</hc-a2>
  </desc>
</path>

<path fill="#CEE3F5" stroke="#6E6E6E" stroke-width="0.4" id="BG" d="M564.4,500.8 L565.7,504.5 L564.8,508.3 L562.4,507.7 L560.2,508.6 L558.5,514.2 L558.4,517.2 L559.9,522.9 L557.8,523.3 L556.6,525.4 L557.2,526.7 L555.3,527.2 L554.9,529.1 L557.4,528.6 L560.1,530.4 L560.0,531.7 L564.3,534.7 L565.3,536.5 L562.2,536.9 L562.2,537.9 L559.5,538.4 L558.9,539.6 L554.1,536.9 L550.6,538.1 L549.7,539.9 L544.4,542.6 L544.6,544.6 L542.5,545.3 L542.3,547.4 L540.7,547.1 L538.3,548.8 L540.7,551.7 L540.8,555.0 L537.6,556.8 L532.7,557.6 L529.1,560.0 L522.7,558.1 L521.2,559.4 L518.3,558.4 L516.5,556.1 L513.5,557.6 L512.7,556.8 L509.9,558.1 L510.2,559.5 L507.9,559.8 L504.2,562.4 L499.3,562.8 L497.1,564.9 L494.1,565.0 L493.5,560.1 L494.1,557.3 L491.7,554.6 L490.6,552.0 L485.7,550.5 L482.4,547.4 L484.5,545.2 L484.3,543.2 L482.7,542.2 L482.9,538.8 L481.9,537.6 L482.8,536.2 L485.9,535.3 L486.3,533.4 L488.2,530.9 L488.4,528.6 L485.5,526.6 L480.9,524.5 L479.7,521.5 L477.4,518.4 L477.5,514.7 L480.1,512.5 L480.8,509.4 L486.0,511.2 L484.3,513.5 L484.1,515.5 L485.3,516.5 L490.8,514.4 L503.0,514.8 L507.5,512.9 L510.6,513.4 L514.2,512.5 L518.4,512.5 L520.1,513.2 L522.8,512.3 L525.7,510.4 L527.2,507.3 L529.6,503.8 L531.6,502.6 L537.9,499.8 L540.9,497.9 L544.3,498.2 L546.6,499.8 L550.3,498.7 L551.5,499.9 L554.0,498.3 L555.6,500.8 L559.3,501.7 Z">
  <desc xmlns="http://www.highcharts.com/svg/namespace">
    <name>Bulgaria</name>
    <labelrank>4</labelrank>
    <country-abbrev>Bulg.</country-abbrev>
    <subregion>Eastern Europe</subregion>
    <region-wb>Europe &amp; Central Asia</region-wb>
    <iso-a3>BGR</iso-a3>
    <iso-a2>BG</iso-a2>
    <woe-id>23424771</woe-id>
    <continent>Europe</continent>
    <hc-middle-x>0.52</hc-middle-x>
    <hc-middle-y>0.58</hc-middle-y>
    <hc-key>bg</hc-key>
    <hc-a2>BG</hc-a2>
  </desc>
</path>

<path fill="#CEE3F5" stroke="#6E6E6E" stroke-width="0.4" id="RO" d="M480.8,509.4 L480.4,508.0 L477.6,506.5 L477.0,504.7 L480.6,502.4 L475.4,500.3 L474.1,501.5 L472.8,505.1 L471.7,505.4 L469.8,502.9 L467.6,502.4 L464.9,503.0 L463.3,501.4 L461.2,501.7 L460.4,500.2 L462.2,498.6 L459.8,497.8 L461.2,494.5 L453.7,492.0 L450.2,489.3 L449.8,484.3 L448.8,484.8 L446.5,482.1 L443.0,480.5 L441.4,478.5 L444.3,476.8 L446.3,477.3 L449.0,474.1 L451.7,474.5 L452.9,473.4 L454.3,466.5 L456.5,464.0 L457.2,458.0 L458.7,455.9 L459.4,452.2 L460.9,450.0 L460.4,448.1 L462.2,446.1 L463.2,443.2 L465.5,441.4 L467.0,441.8 L469.1,440.0 L470.4,437.4 L472.1,436.3 L473.0,434.0 L476.4,435.3 L481.9,434.4 L488.0,435.0 L490.3,433.4 L492.1,433.3 L497.3,436.8 L500.0,435.1 L501.2,432.2 L507.4,430.2 L512.5,427.8 L513.2,423.3 L517.5,421.0 L519.4,420.9 L522.2,422.1 L525.3,425.2 L528.4,430.6 L532.7,433.5 L533.3,435.3 L535.6,436.5 L537.4,438.9 L540.8,440.3 L545.3,446.6 L546.6,451.0 L546.5,459.6 L549.4,466.3 L548.2,467.4 L552.0,469.9 L553.1,471.6 L556.8,472.2 L559.6,471.8 L559.3,470.0 L561.6,469.4 L565.7,465.8 L570.6,466.4 L571.8,469.8 L572.7,475.7 L572.2,476.7 L566.2,479.3 L564.7,476.2 L563.3,475.3 L562.4,477.9 L564.2,480.0 L562.4,481.7 L564.3,481.7 L562.3,484.5 L562.9,486.0 L564.6,483.6 L562.3,489.4 L563.0,492.7 L564.3,495.4 L564.4,500.8 L559.3,501.7 L555.6,500.8 L554.0,498.3 L551.5,499.9 L550.3,498.7 L546.6,499.8 L544.3,498.2 L540.9,497.9 L537.9,499.8 L531.6,502.6 L529.6,503.8 L527.2,507.3 L525.7,510.4 L522.8,512.3 L520.1,513.2 L518.4,512.5 L514.2,512.5 L510.6,513.4 L507.5,512.9 L503.0,514.8 L490.8,514.4 L485.3,516.5 L484.1,515.5 L484.3,513.5 L486.0,511.2 Z">
  <desc xmlns="http://www.highcharts.com/svg/namespace">
    <name>Romania</name>
    <labelrank>3</labelrank>
    <country-abbrev>Rom.</country-abbrev>
    <subregion>Eastern Europe</subregion>
    <region-wb>Europe &amp; Central Asia</region-wb>
    <iso-a3>ROU</iso-a3>
    <iso-a2>RO</iso-a2>
    <woe-id>23424933</woe-id>
    <continent>Europe</continent>
    <hc-middle-x>0.45</hc-middle-x>
    <hc-middle-y>0.54</hc-middle-y>
    <hc-key>ro</hc-key>
    <hc-a2>RO</hc-a2>
  </desc>
</path>

<path fill="#CEE3F5" stroke="#6E6E6E" stroke-width="0.4" id="LV" d="M422.6,285.0 L421.1,281.6 L420.5,275.9 L420.8,273.1 L420.4,270.0 L421.9,268.6 L423.4,265.8 L422.8,260.9 L424.8,255.3 L427.8,253.9 L433.3,249.8 L434.6,253.0 L439.2,256.0 L440.3,256.3 L442.5,261.0 L443.6,261.9 L447.7,262.9 L450.2,261.5 L452.5,258.8 L453.8,256.5 L453.6,254.2 L451.8,247.8 L450.6,244.4 L452.6,242.4 L456.6,240.4 L457.8,238.9 L459.2,240.1 L459.5,238.4 L463.6,240.8 L464.9,240.3 L465.8,241.4 L468.0,241.1 L468.5,242.4 L471.6,244.8 L474.5,246.2 L477.1,244.6 L477.8,243.2 L480.0,244.1 L483.1,243.9 L484.9,243.5 L485.2,245.4 L489.2,247.2 L489.7,249.7 L488.6,250.8 L489.5,252.1 L489.2,256.2 L490.7,255.2 L492.4,256.1 L492.1,257.5 L493.6,258.2 L494.2,259.7 L495.9,260.7 L498.0,265.3 L498.1,267.6 L495.7,269.5 L493.7,273.6 L493.8,276.1 L491.0,276.1 L490.3,277.1 L487.1,277.1 L486.0,279.8 L483.7,281.1 L480.0,280.5 L478.4,278.7 L472.4,275.4 L471.7,274.4 L465.6,274.9 L463.9,273.1 L462.3,270.5 L459.9,272.5 L458.3,274.9 L456.4,274.5 L454.7,275.6 L453.1,274.9 L450.0,274.6 L447.7,275.5 L445.5,275.1 L443.9,276.7 L441.2,275.2 L439.1,276.7 L437.2,276.2 L434.0,276.8 L432.7,276.5 L425.1,281.6 L424.0,284.5 Z">
  <desc xmlns="http://www.highcharts.com/svg/namespace">
    <name>Latvia</name>
    <labelrank>5</labelrank>
    <country-abbrev>Lat.</country-abbrev>
    <subregion>Northern Europe</subregion>
    <region-wb>Europe &amp; Central Asia</region-wb>
    <iso-a3>LVA</iso-a3>
    <iso-a2>LV</iso-a2>
    <woe-id>23424874</woe-id>
    <continent>Europe</continent>
    <hc-middle-x>0.68</hc-middle-x>
    <hc-middle-y>0.47</hc-middle-y>
    <hc-key>lv</hc-key>
    <hc-a2>LV</hc-a2>
  </desc>
</path>

<path fill="#CEE3F5" stroke="#6E6E6E" stroke-width="0.4" id="AT" d="M308.6,473.6 L307.4,471.0 L304.0,473.9 L300.7,472.1 L300.6,470.6 L296.9,469.8 L297.4,468.9 L296.1,465.8 L297.9,462.9 L296.6,461.0 L298.8,460.3 L301.8,460.7 L303.5,462.4 L303.5,463.8 L305.0,463.5 L304.6,465.7 L306.6,465.0 L308.5,462.4 L308.0,459.7 L313.0,460.8 L315.5,463.2 L319.2,463.0 L321.2,460.9 L323.0,460.7 L323.9,459.2 L326.5,459.4 L328.0,458.7 L331.1,458.7 L331.2,456.7 L334.4,456.9 L335.4,458.1 L338.9,457.2 L339.2,459.4 L341.4,461.0 L342.7,460.5 L343.0,457.9 L342.3,456.2 L340.6,456.1 L341.8,453.6 L338.6,449.5 L338.3,448.4 L342.0,445.5 L345.1,444.5 L346.7,443.0 L348.0,438.9 L350.6,440.0 L351.6,438.2 L351.6,435.2 L353.9,436.2 L355.2,438.4 L358.3,438.9 L360.1,437.1 L363.2,437.9 L364.3,434.2 L365.8,434.4 L366.3,429.6 L369.9,429.8 L375.5,431.8 L377.2,431.4 L380.2,433.4 L384.4,433.6 L385.3,432.2 L391.0,433.2 L392.2,435.3 L391.3,440.1 L392.8,441.7 L393.5,443.9 L395.9,446.7 L394.3,449.6 L395.6,452.5 L392.0,453.5 L389.4,452.3 L386.9,454.3 L389.9,454.8 L390.8,456.6 L390.3,458.0 L387.6,460.3 L389.1,467.1 L386.3,467.2 L384.1,470.2 L382.7,470.9 L383.3,473.6 L378.2,473.5 L376.0,475.7 L375.0,475.2 L370.6,475.4 L367.8,476.5 L367.1,478.4 L363.9,481.2 L362.0,480.1 L358.6,480.3 L357.2,479.5 L352.4,479.0 L349.4,478.3 L346.1,478.7 L343.8,477.9 L340.6,477.8 L334.8,476.5 L333.0,474.6 L332.9,473.0 L330.7,470.7 L331.9,468.9 L328.5,469.9 L325.9,471.2 L323.8,470.7 L320.1,471.0 L317.1,472.5 L315.9,475.4 L312.1,474.9 L311.4,473.6 Z">
  <desc xmlns="http://www.highcharts.com/svg/namespace">
    <name>Austria</name>
    <labelrank>4</labelrank>
    <country-abbrev>Aust.</country-abbrev>
    <subregion>Western Europe</subregion>
    <region-wb>Europe &amp; Central Asia</region-wb>
    <iso-a3>AUT</iso-a3>
    <iso-a2>AT</iso-a2>
    <woe-id>23424750</woe-id>
    <continent>Europe</continent>
    <hc-middle-x>0.68</hc-middle-x>
    <hc-middle-y>0.50</hc-middle-y>
    <hc-key>at</hc-key>
    <hc-a2>AT</hc-a2>
  </desc>
</path>

<path fill="#CEE3F5" stroke="#6E6E6E" stroke-width="0.4" id="CZ" d="M351.6,435.2 L348.8,431.8 L347.2,432.1 L344.7,429.1 L343.1,428.7 L340.7,425.4 L338.1,424.8 L336.1,422.9 L335.8,421.4 L332.6,417.0 L334.2,413.7 L333.5,412.5 L330.7,411.1 L328.4,405.9 L330.4,407.0 L331.1,408.8 L331.7,406.9 L333.7,404.3 L337.6,403.2 L338.8,403.8 L339.9,402.1 L341.7,401.9 L342.5,400.2 L345.2,399.8 L347.0,397.5 L349.9,397.1 L350.5,396.0 L356.0,393.7 L354.5,391.8 L355.1,390.7 L357.6,390.9 L359.5,392.9 L359.3,394.2 L361.7,393.8 L363.8,393.6 L363.4,391.0 L367.2,391.5 L368.4,394.7 L369.6,394.3 L375.9,396.0 L376.5,397.6 L377.7,396.7 L380.8,396.5 L381.6,398.9 L379.4,400.9 L381.3,401.7 L386.3,406.7 L389.3,403.7 L387.8,400.2 L391.7,400.6 L393.9,402.5 L397.3,402.4 L398.1,401.3 L399.0,403.3 L397.2,404.3 L399.2,405.4 L400.8,407.6 L403.2,406.7 L408.9,408.2 L409.9,407.9 L411.3,411.7 L413.1,412.0 L414.3,415.1 L410.6,416.1 L408.3,419.7 L406.7,420.6 L405.7,425.2 L403.7,426.1 L403.3,427.9 L399.3,430.5 L394.5,430.1 L392.9,432.5 L392.2,435.3 L391.0,433.2 L385.3,432.2 L384.4,433.6 L380.2,433.4 L377.2,431.4 L375.5,431.8 L369.9,429.8 L366.3,429.6 L365.8,434.4 L364.3,434.2 L363.2,437.9 L360.1,437.1 L358.3,438.9 L355.2,438.4 L353.9,436.2 Z">
  <desc xmlns="http://www.highcharts.com/svg/namespace">
    <name>Czech Republic</name>
    <labelrank>5</labelrank>
    <country-abbrev>Cz. Rep.</country-abbrev>
    <subregion>Eastern Europe</subregion>
    <region-wb>Europe &amp; Central Asia</region-wb>
    <iso-a3>CZE</iso-a3>
    <iso-a2>CZ</iso-a2>
    <woe-id>23424810</woe-id>
    <continent>Europe</continent>
    <hc-middle-x>0.43</hc-middle-x>
    <hc-middle-y>0.48</hc-middle-y>
    <hc-key>cz</hc-key>
    <hc-a2>CZ</hc-a2>
  </desc>
</path>

<path fill="#CEE3F5" stroke="#6E6E6E" stroke-width="0.4" id="PT" d="M25.5,631.1 L23.9,631.1 L18.9,632.9 L16.1,632.6 L13.1,630.1 L9.0,629.1 L6.3,627.6 L5.2,628.1 L0.0,628.0 L2.9,624.4 L5.5,619.8 L7.5,611.2 L6.5,610.4 L9.5,606.4 L10.1,603.0 L8.5,600.0 L12.4,602.6 L10.8,600.6 L8.4,599.5 L4.2,600.3 L5.2,597.7 L4.8,595.2 L7.9,595.5 L10.0,594.2 L9.7,591.4 L7.7,592.9 L7.1,594.8 L3.7,594.8 L1.4,593.4 L3.6,589.4 L3.9,587.4 L6.6,583.3 L6.3,580.9 L8.9,580.7 L12.0,578.3 L12.8,576.4 L18.1,568.7 L18.9,565.8 L22.4,559.3 L24.3,558.7 L23.9,556.8 L25.7,552.9 L26.2,550.2 L25.8,547.7 L26.4,543.3 L26.2,537.8 L27.0,535.5 L29.2,533.9 L31.4,532.8 L37.7,532.3 L39.0,534.9 L36.2,537.4 L36.6,539.0 L38.5,539.4 L43.6,539.0 L44.7,540.7 L50.2,541.4 L52.3,539.4 L60.3,542.5 L59.3,546.1 L63.2,549.2 L63.9,550.6 L61.6,553.1 L58.5,554.9 L56.1,554.9 L52.7,558.4 L50.7,558.7 L51.4,562.5 L50.9,566.3 L49.3,570.1 L49.8,572.0 L45.3,574.5 L47.0,578.4 L43.1,584.0 L35.3,582.3 L35.5,584.1 L37.9,587.5 L37.1,589.7 L38.5,594.7 L40.4,595.2 L40.9,597.3 L38.9,600.1 L35.1,601.6 L32.4,606.9 L35.0,613.2 L37.5,613.3 L35.5,616.4 L34.1,615.7 L31.5,616.3 L29.7,619.3 L28.0,620.2 L25.5,623.3 L26.0,625.0 Z">
  <desc xmlns="http://www.highcharts.com/svg/namespace">
    <name>Portugal</name>
    <labelrank>2</labelrank>
    <country-abbrev>Port.</country-abbrev>
    <subregion>Southern Europe</subregion>
    <region-wb>Europe &amp; Central Asia</region-wb>
    <iso-a3>PRT</iso-a3>
    <iso-a2>PT</iso-a2>
    <woe-id>23424925</woe-id>
    <continent>Europe</continent>
    <hc-middle-x>0.48</hc-middle-x>
    <hc-middle-y>0.35</hc-middle-y>
    <hc-key>pt</hc-key>
    <hc-a2>PT</hc-a2>
  </desc>
</path>
</g>
</svg>