<?xml version="1.0" standalone="no"?><!DOCTYPE svg PUBLIC "-//W3C//DTD SVG 1.1//EN" "http://www.w3.org/Graphics/SVG/1.1/DTD/svg11.dtd"><svg xmlns:xlink="http://www.w3.org/1999/xlink" version="1.1" style="font-family:&quot;Lucida Grande&quot;, &quot;Lucida Sans Unicode&quot;, Arial, Helvetica, sans-serif;font-size:12px;" xmlns="http://www.w3.org/2000/svg" width="150" height="100"><desc>Created with Highstock 2.0.4-modified</desc><defs><clipPath id="highcharts-1"><rect x="0" y="0" width="130" height="75"></rect></clipPath></defs><rect x="0" y="0" width="150" height="100" strokeWidth="0" fill="#FFFFFF" class=" highcharts-background"></rect><g class="highcharts-series-group" zIndex="3"><g class="highcharts-series highcharts-tracker" visibility="visible" zIndex="0.1" transform="translate(10,10) scale(1 1)" style=""><path fill="#7cb5ec" d="M 6.5 75 L 123.5 75 113.84466019417476 62.62135922330097 16.155339805825243 62.62135922330097 Z" stroke="#FFFFFF" stroke-width="1"></path><path fill="#434348" d="M 16.155339805825243 62.62135922330097 L 113.84466019417476 62.62135922330097 111.57281553398059 59.70873786407767 18.42718446601942 59.70873786407767 Z" stroke="#FFFFFF" stroke-width="1"></path><path fill="#90ed7d" d="M 18.42718446601942 59.70873786407767 L 111.57281553398059 59.70873786407767 108.16504854368932 55.33980582524272 21.834951456310677 55.33980582524272 Z" stroke="#FFFFFF" stroke-width="1"></path><path fill="#f7a35c" d="M 21.834951456310677 55.33980582524272 L 108.16504854368932 55.33980582524272 97.94174757281553 42.23300970873787 32.05825242718446 42.23300970873787 Z" stroke="#FFFFFF" stroke-width="1"></path><path fill="#8085e9" d="M 32.05825242718447 42.23300970873786 L 97.94174757281553 42.23300970873786 65 0 65 0 Z" stroke="#FFFFFF" stroke-width="1"></path></g><g class="highcharts-markers" visibility="visible" zIndex="0.1" transform="translate(10,10) scale(1 1)"></g></g><g class="highcharts-legend" zIndex="7"><g zIndex="1"><g></g></g></g><g class="highcharts-tooltip" zIndex="8" style="cursor:default;padding:0;white-space:nowrap;" transform="translate(0,-9999)"><path fill="none" d="M 3 0 L 13 0 C 16 0 16 0 16 3 L 16 13 C 16 16 16 16 13 16 L 3 16 C 0 16 0 16 0 13 L 0 3 C 0 0 0 0 3 0" isShadow="true" stroke="black" stroke-width="5" transform="translate(1, 1)" opacity="0.049999999999999996"></path><path fill="none" d="M 3 0 L 13 0 C 16 0 16 0 16 3 L 16 13 C 16 16 16 16 13 16 L 3 16 C 0 16 0 16 0 13 L 0 3 C 0 0 0 0 3 0" isShadow="true" stroke="black" stroke-width="3" transform="translate(1, 1)" opacity="0.09999999999999999"></path><path fill="none" d="M 3 0 L 13 0 C 16 0 16 0 16 3 L 16 13 C 16 16 16 16 13 16 L 3 16 C 0 16 0 16 0 13 L 0 3 C 0 0 0 0 3 0" isShadow="true" stroke="black" stroke-width="1" transform="translate(1, 1)" opacity="0.15"></path><path fill="rgba(249, 249, 249, .85)" d="M 3 0 L 13 0 C 16 0 16 0 16 3 L 16 13 C 16 16 16 16 13 16 L 3 16 C 0 16 0 16 0 13 L 0 3 C 0 0 0 0 3 0"></path><text x="8" zIndex="1" style="font-size:12px;color:#333333;fill:#333333;" y="21"></text></g></svg>