<?xml version="1.0" standalone="no"?><!DOCTYPE svg PUBLIC "-//W3C//DTD SVG 1.1//EN" "http://www.w3.org/Graphics/SVG/1.1/DTD/svg11.dtd"><svg xmlns:xlink="http://www.w3.org/1999/xlink" version="1.1" style="font-family:&quot;Lucida Grande&quot;, &quot;Lucida Sans Unicode&quot;, Arial, Helvetica, sans-serif;font-size:12px;" xmlns="http://www.w3.org/2000/svg" width="225" height="150"><desc>Created with Highstock 2.0.4-modified</desc><defs><clipPath id="highcharts-1"><rect x="0" y="0" width="205" height="125"></rect></clipPath></defs><rect x="0" y="0" width="225" height="150" strokeWidth="0" fill="#FFFFFF" class=" highcharts-background"></rect><g class="highcharts-grid" zIndex="1"></g><g class="highcharts-grid" zIndex="1"><path fill="none" d="M 10 9.5 L 215 9.5" stroke="#C0C0C0" stroke-width="1" zIndex="1" opacity="1"></path><path fill="none" d="M 10 35.5 L 215 35.5" stroke="#C0C0C0" stroke-width="1" zIndex="1" opacity="1"></path><path fill="none" d="M 10 60.5 L 215 60.5" stroke="#C0C0C0" stroke-width="1" zIndex="1" opacity="1"></path><path fill="none" d="M 10 85.5 L 215 85.5" stroke="#C0C0C0" stroke-width="1" zIndex="1" opacity="1"></path><path fill="none" d="M 10 110.5 L 215 110.5" stroke="#C0C0C0" stroke-width="1" zIndex="1" opacity="1"></path><path fill="none" d="M 10 135.5 L 215 135.5" stroke="#C0C0C0" stroke-width="1" zIndex="1" opacity="1"></path></g><g class="highcharts-axis" zIndex="2"></g><g class="highcharts-axis" zIndex="2"></g><g class="highcharts-series-group" zIndex="3"><g class="highcharts-series" visibility="visible" zIndex="0.1" transform="translate(10,10) scale(1 1)" clip-path="url(#highcharts-1)"><path fill="none" d="M 2.0098039215686274 85 C 2.0098039215686274 85 19.23669467787115 80 30.72128851540616 80 C 42.205882352941174 80 47.948179271708675 90 59.43277310924369 90 C 70.9173669467787 90 76.65966386554621 60 88.14425770308122 60 C 99.62885154061624 60 105.37114845938375 70 116.85574229691876 70 C 128.34033613445376 70 134.0826330532213 64 145.5672268907563 60 C 157.05182072829132 56 162.79411764705884 60 174.27871148459383 50 C 185.76330532212882 40 202.99019607843135 10 202.99019607843135 10" stroke="#7cb5ec" stroke-width="2" zIndex="1" stroke-linejoin="round" stroke-linecap="round"></path><path fill="none" d="M -7.990196078431373 85 L 2.0098039215686274 85 C 2.0098039215686274 85 19.23669467787115 80 30.72128851540616 80 C 42.205882352941174 80 47.948179271708675 90 59.43277310924369 90 C 70.9173669467787 90 76.65966386554621 60 88.14425770308122 60 C 99.62885154061624 60 105.37114845938375 70 116.85574229691876 70 C 128.34033613445376 70 134.0826330532213 64 145.5672268907563 60 C 157.05182072829132 56 162.79411764705884 60 174.27871148459383 50 C 185.76330532212882 40 202.99019607843135 10 202.99019607843135 10 L 212.99019607843135 10" stroke-linejoin="round" visibility="visible" stroke="rgba(192,192,192,0.0001)" stroke-width="22" zIndex="2" class=" highcharts-tracker" style=""></path></g><g class="highcharts-markers highcharts-tracker" visibility="visible" zIndex="0.1" transform="translate(10,10) scale(1 1)" style="" clip-path="none"></g><g class="highcharts-series" visibility="visible" zIndex="0.1" transform="translate(10,10) scale(1 1)" clip-path="url(#highcharts-1)"><path fill="none" d="M 2.0098039215686274 115 C 2.0098039215686274 115 19.23669467787115 78.80000000000001 30.72128851540616 65 C 42.205882352941174 51.2 47.948179271708675 46 59.43277310924369 46 C 70.9173669467787 46 76.65966386554621 115 88.14425770308122 115 C 99.62885154061624 115 105.37114845938375 32 116.85574229691876 32 C 128.34033613445376 32 134.0826330532213 54.39999999999999 145.5672268907563 70 C 157.05182072829132 85.6 162.79411764705884 110 174.27871148459383 110 C 185.76330532212882 110 202.99019607843135 90 202.99019607843135 90" stroke="#434348" stroke-width="2" zIndex="1" stroke-linejoin="round" stroke-linecap="round"></path><path fill="none" d="M -7.990196078431373 115 L 2.0098039215686274 115 C 2.0098039215686274 115 19.23669467787115 78.80000000000001 30.72128851540616 65 C 42.205882352941174 51.2 47.948179271708675 46 59.43277310924369 46 C 70.9173669467787 46 76.65966386554621 115 88.14425770308122 115 C 99.62885154061624 115 105.37114845938375 32 116.85574229691876 32 C 128.34033613445376 32 134.0826330532213 54.39999999999999 145.5672268907563 70 C 157.05182072829132 85.6 162.79411764705884 110 174.27871148459383 110 C 185.76330532212882 110 202.99019607843135 90 202.99019607843135 90 L 212.99019607843135 90" stroke-linejoin="round" visibility="visible" stroke="rgba(192,192,192,0.0001)" stroke-width="22" zIndex="2" class=" highcharts-tracker" style=""></path></g><g class="highcharts-markers highcharts-tracker" visibility="visible" zIndex="0.1" transform="translate(10,10) scale(1 1)" style="" clip-path="none"></g></g><g class="highcharts-data-labels" visibility="visible" zIndex="6" transform="translate(10,10) scale(1 1)" opacity="1"><g zIndex="1" style="cursor:default;" transform="translate(0,65)"><text x="3" zIndex="1" style="font-size:11px;color:#606060;fill:#606060;" y="15">15</text></g><g zIndex="1" style="cursor:default;" transform="translate(21,60)"><text x="3" zIndex="1" style="font-size:11px;color:#606060;fill:#606060;" y="15">20</text></g><g zIndex="1" style="cursor:default;" transform="translate(50,70)"><text x="3" zIndex="1" style="font-size:11px;color:#606060;fill:#606060;" y="15">10</text></g><g zIndex="1" style="cursor:default;" transform="translate(79,40)"><text x="3" zIndex="1" style="font-size:11px;color:#606060;fill:#606060;" y="15">40</text></g><g zIndex="1" style="cursor:default;" transform="translate(107,50)"><text x="3" zIndex="1" style="font-size:11px;color:#606060;fill:#606060;" y="15">30</text></g><g zIndex="1" style="cursor:default;" transform="translate(136,40)"><text x="3" zIndex="1" style="font-size:11px;color:#606060;fill:#606060;" y="15">40</text></g><g zIndex="1" style="cursor:default;" transform="translate(165,30)"><text x="3" zIndex="1" style="font-size:11px;color:#606060;fill:#606060;" y="15">50</text></g><g zIndex="1" style="cursor:default;" transform="translate(186,10)"><text x="3" zIndex="1" style="font-size:11px;color:#606060;fill:#606060;" y="15">90</text></g></g><g class="highcharts-data-labels" visibility="visible" zIndex="6" transform="translate(10,10) scale(1 1)" opacity="1"><g zIndex="1" style="cursor:default;" transform="translate(0,95)"><text x="3" zIndex="1" style="font-size:11px;color:#606060;fill:#606060;" y="15"><tspan>-15</tspan></text></g><g zIndex="1" style="cursor:default;" transform="translate(21,45)"><text x="3" zIndex="1" style="font-size:11px;color:#606060;fill:#606060;" y="15">35</text></g><g zIndex="1" style="cursor:default;" transform="translate(50,26)"><text x="3" zIndex="1" style="font-size:11px;color:#606060;fill:#606060;" y="15">54</text></g><g zIndex="1" style="cursor:default;" transform="translate(76,95)"><text x="3" zIndex="1" style="font-size:11px;color:#606060;fill:#606060;" y="15"><tspan>-15</tspan></text></g><g zIndex="1" style="cursor:default;" transform="translate(107,12)"><text x="3" zIndex="1" style="font-size:11px;color:#606060;fill:#606060;" y="15">68</text></g><g zIndex="1" style="cursor:default;" transform="translate(136,50)"><text x="3" zIndex="1" style="font-size:11px;color:#606060;fill:#606060;" y="15">30</text></g><g zIndex="1" style="cursor:default;" transform="translate(161,90)"><text x="3" zIndex="1" style="font-size:11px;color:#606060;fill:#606060;" y="15"><tspan>-10</tspan></text></g><g zIndex="1" style="cursor:default;" transform="translate(186,70)"><text x="3" zIndex="1" style="font-size:11px;color:#606060;fill:#606060;" y="15">10</text></g></g><g class="highcharts-axis-labels highcharts-xaxis-labels" zIndex="7"></g><g class="highcharts-axis-labels highcharts-yaxis-labels" zIndex="7"></g><g class="highcharts-tooltip" zIndex="8" style="cursor:default;padding:0;white-space:nowrap;" transform="translate(0,-9999)"><path fill="none" d="M 3 0 L 13 0 C 16 0 16 0 16 3 L 16 13 C 16 16 16 16 13 16 L 3 16 C 0 16 0 16 0 13 L 0 3 C 0 0 0 0 3 0" isShadow="true" stroke="black" stroke-width="5" transform="translate(1, 1)" opacity="0.049999999999999996"></path><path fill="none" d="M 3 0 L 13 0 C 16 0 16 0 16 3 L 16 13 C 16 16 16 16 13 16 L 3 16 C 0 16 0 16 0 13 L 0 3 C 0 0 0 0 3 0" isShadow="true" stroke="black" stroke-width="3" transform="translate(1, 1)" opacity="0.09999999999999999"></path><path fill="none" d="M 3 0 L 13 0 C 16 0 16 0 16 3 L 16 13 C 16 16 16 16 13 16 L 3 16 C 0 16 0 16 0 13 L 0 3 C 0 0 0 0 3 0" isShadow="true" stroke="black" stroke-width="1" transform="translate(1, 1)" opacity="0.15"></path><path fill="rgba(249, 249, 249, .85)" d="M 3 0 L 13 0 C 16 0 16 0 16 3 L 16 13 C 16 16 16 16 13 16 L 3 16 C 0 16 0 16 0 13 L 0 3 C 0 0 0 0 3 0"></path><text x="8" zIndex="1" style="font-size:12px;color:#333333;fill:#333333;" y="21"></text></g></svg>