<?xml version="1.0" standalone="no"?><!DOCTYPE svg PUBLIC "-//W3C//DTD SVG 1.1//EN" "http://www.w3.org/Graphics/SVG/1.1/DTD/svg11.dtd"><svg xmlns:xlink="http://www.w3.org/1999/xlink" version="1.1" style="font-family:&quot;Lucida Grande&quot;, &quot;Lucida Sans Unicode&quot;, Arial, Helvetica, sans-serif;font-size:12px;" xmlns="http://www.w3.org/2000/svg" width="300" height="200"><desc>Created with Highstock 2.0.4-modified</desc><defs><clipPath id="highcharts-1"><rect x="0" y="0" width="300" height="200"></rect></clipPath></defs><rect x="0" y="0" width="300" height="200" strokeWidth="0" fill="#FFFFFF" class=" highcharts-background"></rect><g class="highcharts-series-group" zIndex="3"><g class="highcharts-series highcharts-tracker" visibility="visible" zIndex="0.1" transform="translate(10,10) scale(1 1)" style="cursor:pointer;"><path fill="rgba(99,156,211,1)" d="M 201.5452659426414 35.26645924042376 L 201.5452659426414 40.56976009932286 L 173.52710641211024 52.28481956399708 L 173.52710641211024 46.981518705097976 Z" zIndex="-70.7849985318209" transform="translate(0,0)" visibility="visible"></path><path fill="rgba(103,108,208,1)" d="M 167.6322882928453 107.62996163252274 L 167.6322882928453 112.93326249142184 L 155.05283397211642 91.70521702095171 L 155.05283397211642 86.4019161620526 Z" zIndex="-70.78499436603266" transform="translate(0,0)" visibility="visible"></path><path fill="rgba(99,156,211,1)" d="M 139.9854373659358 10.441866193807698 C 166.0544015512525 10.43811177530682 188.27644642896274 19.39936513658637 201.5452659426414 35.26645924042376 L 201.5452659426414 40.56976009932286 C 188.27644642896274 24.702665995485475 166.0544015512525 15.741412634205926 139.9854373659358 15.745167052706805 Z" zIndex="-36.392722350073555" transform="translate(0,0)" visibility="visible"></path><path fill="rgba(99,156,211,1)" d="M 139.99206692871607 33.4581914440393 C 154.193271894004 33.45614620486994 166.29884739032306 38.337835973007536 173.52710641211024 46.981518705097976 L 173.52710641211024 52.28481956399708 C 166.29884739032306 43.64113683190664 154.193271894004 38.759447063769045 139.99206692871607 38.76149230293841 Z" zIndex="-36.392722350073555" transform="translate(0,0)" visibility="visible"></path><path fill="rgba(99,156,211,1)" d="M 139.9854373659358 10.441866193807698 L 139.9854373659358 15.745167052706805 L 139.99206692871607 38.76149230293841 L 139.99206692871607 33.4581914440393 Z" zIndex="-36.02879512657282" transform="translate(0,0)" visibility="visible"></path><path fill="rgba(42,42,47,1)" d="M 208.5142326398912 46.542304371600736 L 208.5142326398912 51.84560523049984 L 177.3234875709617 58.42739533825363 L 177.3234875709617 53.124094479354525 Z" zIndex="-36.02818582663855" transform="translate(0,0)" visibility="visible"></path><path fill="rgba(42,42,47,1)" d="M 201.54562986678764 35.26689443245941 C 204.66755440120255 39.00023340631236 206.7602339017701 42.386252097348745 208.5142326398912 46.542304371600736 L 208.5142326398912 51.84560523049984 C 206.7602339017701 47.68955295624785 204.66755440120255 44.30353426521147 201.54562986678764 40.570195291358516 Z" zIndex="-20.446269238344442" transform="translate(0,0)" visibility="visible"></path><path fill="rgba(42,42,47,1)" d="M 173.5273046616976 46.981755778241876 C 175.2279894255502 49.015511764697436 176.36798755907617 50.860063205478795 177.3234875709617 53.124094479354525 L 177.3234875709617 58.42739533825363 C 176.36798755907617 56.1633640643779 175.2279894255502 54.31881262359654 173.5273046616976 52.28505663714098 Z" zIndex="-20.446269238344442" transform="translate(0,0)" visibility="visible"></path><path fill="rgba(42,42,47,1)" d="M 201.54562986678764 35.26689443245941 L 201.54562986678764 40.570195291358516 L 173.5273046616976 52.28505663714098 L 173.5273046616976 46.981755778241876 Z" zIndex="-20.241806545960998" transform="translate(0,0)" visibility="visible"></path><path fill="rgba(119,212,100,1)" d="M 211.2936616564876 64.83821622699087 L 211.2936616564876 70.14151708588997 L 178.8375961051775 68.39418927905706 L 178.8375961051775 63.09088842015796 Z" zIndex="-20.241128254045783" transform="translate(0,0)" visibility="visible"></path><path fill="rgba(119,212,100,1)" d="M 211.5 61 C 211.5 62.35079878932315 211.4386870504059 63.49131564164824 211.2936616564876 64.83821622699087 L 211.2936616564876 70.14151708588997 C 211.4386870504059 68.79461650054735 211.5 67.65409964822226 211.5 66.3033008588991 Z" zIndex="5.428057443530973" transform="translate(0,0)" visibility="visible"></path><path fill="rgba(119,212,100,1)" d="M 177.32359895121957 53.12435839665991 C 178.75682052168486 56.52046183803518 179.2180992484307 59.55702519437634 178.8375961051775 63.09088842015796 L 178.8375961051775 68.39418927905706 C 179.2180992484307 64.86032605327544 178.75682052168486 61.82376269693429 177.32359895121957 58.427659255559014 Z" zIndex="5.428057443530973" transform="translate(0,0)" visibility="visible"></path><path fill="rgba(119,212,100,1)" d="M 208.51443709915785 46.54278884110869 L 208.51443709915785 51.846089700007795 L 177.32359895121957 58.427659255559014 L 177.32359895121957 53.12435839665991 Z" zIndex="5.373776869095663" transform="translate(0,0)" visibility="visible"></path><path fill="rgba(222,138,67,1)" d="M 167.6329477387052 107.62976624040692 L 167.6329477387052 112.93306709930603 L 155.05319320870723 91.70511058007183 L 155.05319320870723 86.40180972117273 Z" zIndex="5.374482676077361" transform="translate(0,0)" visibility="visible"></path><path fill="rgba(222,138,67,1)" d="M 211.29360737234848 64.83872034911508 C 209.19784020785775 84.30025802058232 193.09068471531285 100.08659830135441 167.6329477387052 107.62976624040692 L 167.6329477387052 112.93306709930603 C 193.09068471531285 105.38989916025352 209.19784020785775 89.60355887948143 211.29360737234848 70.14202120801419 Z" zIndex="65.94444782747055" transform="translate(0,0)" visibility="visible"></path><path fill="rgba(222,138,67,1)" d="M 178.83756653360803 63.091163043329125 C 177.69588637896587 73.69293776086268 168.92142894631377 82.29262942430425 155.05319320870723 86.40180972117273 L 155.05319320870723 91.70511058007183 C 168.92142894631377 87.59593028320336 177.69588637896587 78.99623861976178 178.83756653360803 68.39446390222822 Z" zIndex="65.94444782747055" transform="translate(0,0)" visibility="visible"></path><path fill="rgba(222,138,67,1)" d="M 211.29360737234848 64.83872034911508 L 211.29360737234848 70.14202120801419 L 178.83756653360803 68.39446390222822 L 178.83756653360803 63.091163043329125 Z" zIndex="65.28500334919585" transform="translate(0,0)" visibility="visible"></path><path fill="rgba(103,108,208,1)" d="M 167.6322882928453 107.62996163252274 C 131.21202281098562 118.42104144755305 89.3161672734157 106.29199512640989 74.05527584634928 80.53897843157256 C 70.20024667510627 74.03355041771307 68.5 68.05345437350205 68.5 61.00000000000001 L 68.5 66.3033008588991 C 68.5 94.22578771911493 100.51164038709825 116.86143571373727 140 116.86143571373727 C 149.97509083658642 116.86143571373727 158.43222376660333 115.65917976007972 167.6322882928453 112.93326249142184 Z" zIndex="65.94472415365072" transform="translate(0,0)" visibility="visible"></path><path fill="rgba(103,108,208,1)" d="M 155.05283397211642 86.4019161620526 C 135.21270333549495 92.28041348786283 112.38971629789569 85.67305189054076 104.0762656533609 71.64396097775875 C 95.76281500882612 57.61487006497674 105.1070353912621 41.476581163757636 124.94716602788355 35.59808383794741 C 129.95391006123367 34.11461924035356 134.5559409892964 33.45972456811577 139.98445971442862 33.45819306491017 L 139.98445971442862 38.761493923809276 C 118.47297042067628 38.76756278282565 101.04142043740552 51.10336954717409 101.0500031001346 66.31428950020819 C 101.05858576286369 81.5252094532423 118.50405099181903 93.8511766530053 140.01554028557138 93.84510779398893 C 145.4440590107036 93.84357629078333 150.04608993876633 93.18868161854554 155.05283397211642 91.70521702095171 Z" zIndex="65.94472415365072" transform="translate(0,0)" visibility="visible"></path><path fill="rgba(103,108,208,1)" d="M 139.97147290325154 10.441869169218926 L 139.97147290325154 15.745170028118032 L 139.98445971442862 38.761493923809276 L 139.98445971442862 33.45819306491017 Z" zIndex="65.28527691211421" transform="translate(0,0)" visibility="visible"></path><g zIndex="7150" stroke="#7cb5ec" stroke-width="1" stroke-linejoin="round"><path fill="#7cb5ec" d="M 139.9854373659358 10.441866193807698 C 166.0544015512525 10.43811177530682 188.27644642896274 19.39936513658637 201.5452659426414 35.26645924042376 L 173.52710641211024 46.981518705097976 C 166.29884739032306 38.337835973007536 154.193271894004 33.45614620486994 139.99206692871607 33.4581914440393 Z" zIndex="71.5" transform="translate(0,0)" visibility="visible"></path></g><g zIndex="7150" stroke="#434348" stroke-width="1" stroke-linejoin="round"><path fill="#434348" d="M 201.54562986678764 35.26689443245941 C 204.66755440120255 39.00023340631236 206.7602339017701 42.386252097348745 208.5142326398912 46.542304371600736 L 177.3234875709617 53.124094479354525 C 176.36798755907617 50.860063205478795 175.2279894255502 49.015511764697436 173.5273046616976 46.981755778241876 Z" zIndex="71.5" transform="translate(0,0)" visibility="visible"></path></g><g zIndex="7150" stroke="#90ed7d" stroke-width="1" stroke-linejoin="round"><path fill="#90ed7d" d="M 208.51443709915785 46.54278884110869 C 211.14538298589127 52.77697102489128 211.99214624551462 58.351150228444375 211.2936616564876 64.83821622699087 L 178.8375961051775 63.09088842015796 C 179.2180992484307 59.55702519437634 178.75682052168486 56.52046183803518 177.32359895121957 53.12435839665991 Z" zIndex="71.5" transform="translate(0,0)" visibility="visible"></path></g><g zIndex="7150" stroke="#f7a35c" stroke-width="1" stroke-linejoin="round"><path fill="#f7a35c" d="M 211.29360737234848 64.83872034911508 C 209.19784020785775 84.30025802058232 193.09068471531285 100.08659830135441 167.6329477387052 107.62976624040692 L 155.05319320870723 86.40180972117273 C 168.92142894631377 82.29262942430425 177.69588637896587 73.69293776086268 178.83756653360803 63.091163043329125 Z" zIndex="71.5" transform="translate(0,0)" visibility="visible"></path></g><g zIndex="7150" stroke="#8085e9" stroke-width="1" stroke-linejoin="round"><path fill="#8085e9" d="M 167.6322882928453 107.62996163252274 C 131.21202281098562 118.42104144755305 89.3161672734157 106.29199512640989 74.05527584634928 80.53897843157256 C 58.79438441928285 54.785961736735246 75.94744622529501 25.1611181825076 112.36771170715468 14.370038367477271 C 121.55852552960738 11.646862020161233 130.00641285583293 10.444680529403783 139.97147290325154 10.441869169218926 L 139.98445971442862 33.45819306491017 C 118.47297042067628 33.46426192392654 101.04142043740552 45.80006868827498 101.0500031001346 61.01098864130909 C 101.05858576286369 76.22190859434319 118.50405099181903 88.54787579410619 140.01554028557138 88.54180693508982 C 145.4440590107036 88.54027543188423 150.04608993876633 87.88538075964644 155.05283397211642 86.4019161620526 Z" zIndex="71.5" transform="translate(0,0)" visibility="visible"></path></g></g><g class="highcharts-markers" visibility="visible" zIndex="0.1" transform="translate(10,10) scale(1 1)"></g></g><g class="highcharts-legend" zIndex="7" transform="translate(32,152)"><g zIndex="1"><g><g class="highcharts-legend-item" zIndex="1" transform="translate(8,3)"><text x="21" style="color:#333333;font-size:12px;font-weight:bold;cursor:pointer;fill:#333333;" text-anchor="start" zIndex="2" y="15">Firefox</text><rect x="0" y="4" width="16" height="12" zIndex="3" fill="#7cb5ec"></rect></g><g class="highcharts-legend-item" zIndex="1" transform="translate(95,3)"><text x="21" y="15" style="color:#333333;font-size:12px;font-weight:bold;cursor:pointer;fill:#333333;" text-anchor="start" zIndex="2">Opera</text><rect x="0" y="4" width="16" height="12" zIndex="3" fill="#434348"></rect></g><g class="highcharts-legend-item" zIndex="1" transform="translate(176,3)"><text x="21" y="15" style="color:#333333;font-size:12px;font-weight:bold;cursor:pointer;fill:#333333;" text-anchor="start" zIndex="2">Safari</text><rect x="0" y="4" width="16" height="12" zIndex="3" fill="#90ed7d"></rect></g><g class="highcharts-legend-item" zIndex="1" transform="translate(8,18)"><text x="21" y="15" style="color:#333333;font-size:12px;font-weight:bold;cursor:pointer;fill:#333333;" text-anchor="start" zIndex="2">Chrome</text><rect x="0" y="4" width="16" height="12" zIndex="3" fill="#f7a35c"></rect></g><g class="highcharts-legend-item" zIndex="1" transform="translate(100,18)"><text x="21" y="15" style="color:#333333;font-size:12px;font-weight:bold;cursor:pointer;fill:#333333;" text-anchor="start" zIndex="2">IE</text><rect x="0" y="4" width="16" height="12" zIndex="3" fill="#8085e9"></rect></g></g></g></g><g class="highcharts-tooltip" zIndex="8" style="cursor:default;padding:0;white-space:nowrap;" transform="translate(0,-9999)"><path fill="none" d="M 3 0 L 13 0 C 16 0 16 0 16 3 L 16 13 C 16 16 16 16 13 16 L 3 16 C 0 16 0 16 0 13 L 0 3 C 0 0 0 0 3 0" isShadow="true" stroke="black" stroke-width="5" transform="translate(1, 1)" opacity="0.049999999999999996"></path><path fill="none" d="M 3 0 L 13 0 C 16 0 16 0 16 3 L 16 13 C 16 16 16 16 13 16 L 3 16 C 0 16 0 16 0 13 L 0 3 C 0 0 0 0 3 0" isShadow="true" stroke="black" stroke-width="3" transform="translate(1, 1)" opacity="0.09999999999999999"></path><path fill="none" d="M 3 0 L 13 0 C 16 0 16 0 16 3 L 16 13 C 16 16 16 16 13 16 L 3 16 C 0 16 0 16 0 13 L 0 3 C 0 0 0 0 3 0" isShadow="true" stroke="black" stroke-width="1" transform="translate(1, 1)" opacity="0.15"></path><path fill="rgba(249, 249, 249, .85)" d="M 3 0 L 13 0 C 16 0 16 0 16 3 L 16 13 C 16 16 16 16 13 16 L 3 16 C 0 16 0 16 0 13 L 0 3 C 0 0 0 0 3 0"></path><text x="8" zIndex="1" style="font-size:12px;color:#333333;fill:#333333;" y="21"></text></g></svg>