<?xml version="1.0" standalone="no"?><!DOCTYPE svg PUBLIC "-//W3C//DTD SVG 1.1//EN" "http://www.w3.org/Graphics/SVG/1.1/DTD/svg11.dtd"><svg xmlns:xlink="http://www.w3.org/1999/xlink" version="1.1" style="font-family:&quot;Lucida Grande&quot;, &quot;Lucida Sans Unicode&quot;, Arial, Helvetica, sans-serif;font-size:12px;" xmlns="http://www.w3.org/2000/svg" width="225" height="150"><desc>Created with Highstock 2.0.4-modified</desc><defs><clipPath id="highcharts-1"><rect x="0" y="0" width="125" height="205"></rect></clipPath></defs><rect x="0" y="0" width="225" height="150" strokeWidth="0" fill="#FFFFFF" class=" highcharts-background"></rect><g class="highcharts-grid" zIndex="1"></g><g class="highcharts-grid" zIndex="1"><path fill="none" d="M 9.5 10 L 9.5 135" stroke="#C0C0C0" stroke-width="1" zIndex="1" opacity="1"></path><path fill="none" d="M 50.5 10 L 50.5 135" stroke="#C0C0C0" stroke-width="1" zIndex="1" opacity="1"></path><path fill="none" d="M 91.5 10 L 91.5 135" stroke="#C0C0C0" stroke-width="1" zIndex="1" opacity="1"></path><path fill="none" d="M 132.5 10 L 132.5 135" stroke="#C0C0C0" stroke-width="1" zIndex="1" opacity="1"></path><path fill="none" d="M 173.5 10 L 173.5 135" stroke="#C0C0C0" stroke-width="1" zIndex="1" opacity="1"></path><path fill="none" d="M 215.5 10 L 215.5 135" stroke="#C0C0C0" stroke-width="1" zIndex="1" opacity="1"></path></g><g class="highcharts-axis" zIndex="2"></g><g class="highcharts-axis" zIndex="2"></g><g class="highcharts-series-group" zIndex="3"><g class="highcharts-series highcharts-tracker" visibility="visible" zIndex="0.1" transform="translate(215,135) rotate(90) scale(-1,1) scale(1 1)" style="" width="205" height="125" clip-path="url(#highcharts-1)"><rect x="93.5" y="88.5" width="20" height="70" fill="#7cb5ec" rx="0" ry="0" stroke="#FFFFFF" stroke-width="1"></rect><rect x="52.5" y="32.5" width="20" height="63" fill="#7cb5ec" rx="0" ry="0" stroke="#FFFFFF" stroke-width="1"></rect><rect x="11.5" y="47.5" width="20" height="32" fill="#7cb5ec" rx="0" ry="0" stroke="#FFFFFF" stroke-width="1"></rect></g><g class="highcharts-markers" visibility="visible" zIndex="0.1" transform="translate(215,135) rotate(90) scale(-1,1) scale(1 1)" width="205" height="125" clip-path="none"></g><g class="highcharts-series highcharts-tracker" visibility="visible" zIndex="0.1" transform="translate(215,135) rotate(90) scale(-1,1) scale(1 1)" style="" width="205" height="125" clip-path="url(#highcharts-1)"><rect x="93.5" y="158.5" width="20" height="47" fill="#434348" rx="0" ry="0" stroke="#FFFFFF" stroke-width="1"></rect><rect x="52.5" y="95.5" width="20" height="110" fill="#434348" rx="0" ry="0" stroke="#FFFFFF" stroke-width="1"></rect><rect x="11.5" y="79.5" width="20" height="126" fill="#434348" rx="0" ry="0" stroke="#FFFFFF" stroke-width="1"></rect></g><g class="highcharts-markers" visibility="visible" zIndex="0.1" transform="translate(215,135) rotate(90) scale(-1,1) scale(1 1)" width="205" height="125" clip-path="none"></g></g><g class="highcharts-data-labels highcharts-tracker" visibility="visible" zIndex="6" transform="translate(10,10) scale(1 1)" opacity="1" style=""><g zIndex="1" style="cursor:default;" transform="translate(72,12)"><text x="3" zIndex="1" style="font-size:11px;color:#ffffff;fill:#ffffff;" y="15">22</text></g><g zIndex="1" style="cursor:default;" transform="translate(131,53)"><text x="3" zIndex="1" style="font-size:11px;color:#ffffff;fill:#ffffff;" y="15">20</text></g><g zIndex="1" style="cursor:default;" transform="translate(132,94)"><text x="3" zIndex="1" style="font-size:11px;color:#ffffff;fill:#ffffff;" y="15">10</text></g></g><g class="highcharts-data-labels highcharts-tracker" visibility="visible" zIndex="6" transform="translate(10,10) scale(1 1)" opacity="1" style=""><g zIndex="1" style="cursor:default;" transform="translate(13,12)"><text x="3" zIndex="1" style="font-size:11px;color:#ffffff;fill:#ffffff;" y="15">15</text></g><g zIndex="1" style="cursor:default;" transform="translate(45,53)"><text x="3" zIndex="1" style="font-size:11px;color:#ffffff;fill:#ffffff;" y="15">35</text></g><g zIndex="1" style="cursor:default;" transform="translate(53,94)"><text x="3" zIndex="1" style="font-size:11px;color:#ffffff;fill:#ffffff;" y="15">40</text></g></g><g class="highcharts-axis-labels highcharts-xaxis-labels" zIndex="7"></g><g class="highcharts-axis-labels highcharts-yaxis-labels" zIndex="7"></g><g class="highcharts-tooltip" zIndex="8" style="cursor:default;padding:0;white-space:nowrap;" transform="translate(0,-9999)"><path fill="none" d="M 3 0 L 13 0 C 16 0 16 0 16 3 L 16 13 C 16 16 16 16 13 16 L 3 16 C 0 16 0 16 0 13 L 0 3 C 0 0 0 0 3 0" isShadow="true" stroke="black" stroke-width="5" transform="translate(1, 1)" opacity="0.049999999999999996"></path><path fill="none" d="M 3 0 L 13 0 C 16 0 16 0 16 3 L 16 13 C 16 16 16 16 13 16 L 3 16 C 0 16 0 16 0 13 L 0 3 C 0 0 0 0 3 0" isShadow="true" stroke="black" stroke-width="3" transform="translate(1, 1)" opacity="0.09999999999999999"></path><path fill="none" d="M 3 0 L 13 0 C 16 0 16 0 16 3 L 16 13 C 16 16 16 16 13 16 L 3 16 C 0 16 0 16 0 13 L 0 3 C 0 0 0 0 3 0" isShadow="true" stroke="black" stroke-width="1" transform="translate(1, 1)" opacity="0.15"></path><path fill="rgba(249, 249, 249, .85)" d="M 3 0 L 13 0 C 16 0 16 0 16 3 L 16 13 C 16 16 16 16 13 16 L 3 16 C 0 16 0 16 0 13 L 0 3 C 0 0 0 0 3 0"></path><text x="8" zIndex="1" style="font-size:12px;color:#333333;fill:#333333;" y="21"></text></g></svg>