<?xml version="1.0" standalone="no"?><!DOCTYPE svg PUBLIC "-//W3C//DTD SVG 1.1//EN" "http://www.w3.org/Graphics/SVG/1.1/DTD/svg11.dtd"><svg xmlns:xlink="http://www.w3.org/1999/xlink" version="1.1" style="font-family:&quot;Lucida Grande&quot;, &quot;Lucida Sans Unicode&quot;, Arial, Helvetica, sans-serif;font-size:12px;" xmlns="http://www.w3.org/2000/svg" width="150" height="100"><desc>Created with Highstock 2.0.4-modified</desc><defs><clipPath id="highcharts-1"><rect x="0" y="0" width="75" height="130"></rect></clipPath></defs><rect x="0" y="0" width="150" height="100" strokeWidth="0" fill="#FFFFFF" class=" highcharts-background"></rect><g class="highcharts-grid" zIndex="1"></g><g class="highcharts-grid" zIndex="1"><path fill="none" d="M 9.5 10 L 9.5 85" stroke="#C0C0C0" stroke-width="1" zIndex="1" opacity="1"></path><path fill="none" d="M 42.5 10 L 42.5 85" stroke="#C0C0C0" stroke-width="1" zIndex="1" opacity="1"></path><path fill="none" d="M 74.5 10 L 74.5 85" stroke="#C0C0C0" stroke-width="1" zIndex="1" opacity="1"></path><path fill="none" d="M 107.5 10 L 107.5 85" stroke="#C0C0C0" stroke-width="1" zIndex="1" opacity="1"></path><path fill="none" d="M 140.5 10 L 140.5 85" stroke="#C0C0C0" stroke-width="1" zIndex="1" opacity="1"></path></g><g class="highcharts-axis" zIndex="2"></g><g class="highcharts-axis" zIndex="2"></g><g class="highcharts-series-group" zIndex="3"><g class="highcharts-series" visibility="visible" zIndex="0.1" transform="translate(140,85) rotate(90) scale(-1,1) scale(1 1)" width="130" height="75" clip-path="url(#highcharts-1)"><path fill="none" d="M 74.24669279764821 78 L 55.87334639882411 71.5 L 37.50000000000001 84.5 L 19.126653601175903 45.5 L 0.7533072023517917 19.5" stroke="#7cb5ec" stroke-width="2" zIndex="1" stroke-linejoin="round" stroke-linecap="round"></path><path fill="none" d="M 64.24669279764821 78 L 74.24669279764821 78 L 55.87334639882411 71.5 L 37.50000000000001 84.5 L 19.126653601175903 45.5 L 0.7533072023517917 19.5 L 10.753307202351792 19.5" stroke-linejoin="round" visibility="visible" stroke="rgba(192,192,192,0.0001)" stroke-width="22" zIndex="2" class=" highcharts-tracker" style=""></path></g><g class="highcharts-markers highcharts-tracker" visibility="visible" zIndex="0.1" transform="translate(140,85) rotate(90) scale(-1,1) scale(1 1)" style="" width="130" height="75" clip-path="none"></g><g class="highcharts-series" visibility="visible" zIndex="0.1" transform="translate(140,85) rotate(90) scale(-1,1) scale(1 1)" width="130" height="75" clip-path="url(#highcharts-1)"><path fill="none" d="M 74.24669279764821 117 L 55.87334639882411 52 L 37.50000000000001 45.5 L 19.126653601175903 78 L 0.7533072023517917 65" stroke="#434348" stroke-width="2" zIndex="1" stroke-linejoin="round" stroke-linecap="round"></path><path fill="none" d="M 64.24669279764821 117 L 74.24669279764821 117 L 55.87334639882411 52 L 37.50000000000001 45.5 L 19.126653601175903 78 L 0.7533072023517917 65 L 10.753307202351792 65" stroke-linejoin="round" visibility="visible" stroke="rgba(192,192,192,0.0001)" stroke-width="22" zIndex="2" class=" highcharts-tracker" style=""></path></g><g class="highcharts-markers highcharts-tracker" visibility="visible" zIndex="0.1" transform="translate(140,85) rotate(90) scale(-1,1) scale(1 1)" style="" width="130" height="75" clip-path="none"></g></g><g class="highcharts-axis-labels highcharts-xaxis-labels" zIndex="7"></g><g class="highcharts-axis-labels highcharts-yaxis-labels" zIndex="7"></g><g class="highcharts-tooltip" zIndex="8" style="cursor:default;padding:0;white-space:nowrap;" transform="translate(0,-9999)"><path fill="none" d="M 3 0 L 13 0 C 16 0 16 0 16 3 L 16 13 C 16 16 16 16 13 16 L 3 16 C 0 16 0 16 0 13 L 0 3 C 0 0 0 0 3 0" isShadow="true" stroke="black" stroke-width="5" transform="translate(1, 1)" opacity="0.049999999999999996"></path><path fill="none" d="M 3 0 L 13 0 C 16 0 16 0 16 3 L 16 13 C 16 16 16 16 13 16 L 3 16 C 0 16 0 16 0 13 L 0 3 C 0 0 0 0 3 0" isShadow="true" stroke="black" stroke-width="3" transform="translate(1, 1)" opacity="0.09999999999999999"></path><path fill="none" d="M 3 0 L 13 0 C 16 0 16 0 16 3 L 16 13 C 16 16 16 16 13 16 L 3 16 C 0 16 0 16 0 13 L 0 3 C 0 0 0 0 3 0" isShadow="true" stroke="black" stroke-width="1" transform="translate(1, 1)" opacity="0.15"></path><path fill="rgba(249, 249, 249, .85)" d="M 3 0 L 13 0 C 16 0 16 0 16 3 L 16 13 C 16 16 16 16 13 16 L 3 16 C 0 16 0 16 0 13 L 0 3 C 0 0 0 0 3 0"></path><text x="8" zIndex="1" style="font-size:12px;color:#333333;fill:#333333;" y="21"></text></g></svg>