<?xml version="1.0" standalone="no"?><!DOCTYPE svg PUBLIC "-//W3C//DTD SVG 1.1//EN" "http://www.w3.org/Graphics/SVG/1.1/DTD/svg11.dtd"><svg xmlns:xlink="http://www.w3.org/1999/xlink" version="1.1" style="font-family:&quot;Lucida Grande&quot;, &quot;Lucida Sans Unicode&quot;, Arial, Helvetica, sans-serif;font-size:12px;" xmlns="http://www.w3.org/2000/svg" width="225" height="150"><desc>Created with Highstock 2.0.4-modified</desc><defs><clipPath id="highcharts-1"><rect x="0" y="0" width="205" height="91"></rect></clipPath><clipPath id="highcharts-2"><rect x="0" y="0" width="205" height="91"></rect></clipPath></defs><rect x="0" y="0" width="225" height="150" strokeWidth="0" fill="#FFFFFF" class=" highcharts-background"></rect><g class="highcharts-scrollbar" transform="translate(10,122)"><rect x="0" y="-0.5" fill="#eeeeee" stroke="#eeeeee" stroke-width="1" rx="0" ry="0" height="14" width="205"></rect><rect y="-0.5" height="14" fill="#bfc8d1" stroke="#bfc8d1" stroke-width="1" rx="0" ry="0" x="171.5" width="19"></rect><path fill="none" stroke="#666" stroke-width="1" visibility="visible" d="M 177.5 3.5 L 177.5 9.333333333333334 M 180.5 3.5 L 180.5 9.333333333333334 M 183.5 3.5 L 183.5 9.333333333333334"></path><g><rect x="-0.5" y="-0.5" width="14" height="14" strokeWidth="1" stroke="#bbb" stroke-width="1" fill="#ebe7e8"></rect><path fill="#666" d="M 8 4 L 8 10 5 7"></path></g><g transform="translate(191,0)"><rect x="-0.5" y="-0.5" width="14" height="14" strokeWidth="1" stroke="#bbb" stroke-width="1" fill="#ebe7e8"></rect><path fill="#666" d="M 6 4 L 6 10 9 7"></path></g></g><g class="highcharts-grid" zIndex="1"></g><g class="highcharts-grid" zIndex="1"><path fill="none" d="M 137.5 101 L 137.5 121" stroke="#EEE" stroke-width="1" zIndex="1" opacity="1"></path></g><g class="highcharts-grid" zIndex="1"><path fill="none" d="M 10 101.5 L 215 101.5" stroke="#C0C0C0" stroke-width="1" zIndex="1" opacity="1"></path><path fill="none" d="M 10 56.5 L 215 56.5" stroke="#C0C0C0" stroke-width="1" zIndex="1" opacity="1"></path><path fill="none" d="M 10 9.5 L 215 9.5" stroke="#C0C0C0" stroke-width="1" zIndex="1" opacity="1"></path></g><g class="highcharts-grid" zIndex="1"></g><g class="highcharts-axis" zIndex="2"></g><g class="highcharts-axis" zIndex="2"></g><g class="highcharts-axis" zIndex="2"></g><g class="highcharts-axis" zIndex="2"></g><g class="highcharts-series-group" zIndex="3"><g class="highcharts-series" visibility="visible" zIndex="0.1" transform="translate(10,10) scale(1 1)" clip-path="url(#highcharts-1)"><path fill="rgba(124,181,236,0.75)" d="M -1.2878013148283418 34.037822 L 1.2279035792549307 35.721685999999984 L 3.743608473338203 41.35695200000001 L 6.259313367421475 46.47133399999999 L 8.775018261504748 44.520293999999986 L 11.29072315558802 39.225004 L 13.806428049671293 37.01607000000002 L 16.322132943754564 42.55760600000001 L 18.83783783783784 44.25402799999999 L 21.35354273192111 44.455138 L 23.869247626004384 37.11726200000001 L 26.384952520087655 36.07076199999998 L 28.90065741417093 35.59100999999999 L 31.4163623082542 34.99841799999997 L 33.93206720233747 37.63687199999999 L 36.44777209642074 39.50491999999998 L 38.96347699050402 40.024347999999996 L 41.47918188458729 41.386618000000006 L 43.99488677867056 40.43293800000001 L 46.51059167275383 38.779650000000004 L 49.02629656683711 40.92306400000001 L 51.54200146092038 47.56260600000001 L 54.05770635500365 48.67080399999999 L 56.573411249086924 48.75324999999999 L 59.089116143170195 47.66379800000001 L 61.60482103725347 46.921056 L 64.12052593133674 44.807308 L 66.63623082542001 43.47470400000001 L 69.15193571950329 40.794936 L 71.66764061358656 40.748707999999986 L 74.18334550766983 45.668532000000006 L 76.6990504017531 47.98357199999999 L 79.21475529583638 45.203886 L 81.73046018991965 41.857270000000014 L 84.24616508400293 43.460508000000004 L 86.7618699780862 39.16694599999998 L 89.27757487216947 35.204988 L 91.79327976625274 29.687111999999992 L 94.30898466033601 29.159494000000016 L 96.82468955441928 25.220649999999978 L 99.34039444850255 27.487096 L 101.85609934258584 31.04192000000002 L 104.3718042366691 27.76373599999998 L 106.88750913075238 27.762279999999983 L 109.40321402483565 24.749269999999996 L 111.91891891891892 22.42258199999999 L 114.43462381300219 21.756643999999966 L 116.95032870708546 24.25149999999998 L 119.46603360116873 25.91352400000001 L 121.981738495252 26.872663999999986 L 124.49744338933529 26.002340000000004 L 127.01314828341856 29.425031999999987 L 129.52885317750182 29.640702000000005 L 132.0445580715851 27.713504000000015 L 134.56026296566836 24.470628000000005 L 137.07596785975164 25.686206000000013 L 139.59167275383493 28.72706199999999 L 142.10737764791818 36.05747600000001 L 144.62308254200147 37.68928800000002 L 147.13878743608473 37.665810000000015 L 149.654492330168 41.69802 L 152.17019722425127 41.255396 L 154.68590211833455 44.202158000000004 L 157.2016070124178 44.732505999999994 L 159.7173119065011 42.634409999999995 L 162.23301680058438 45.76899600000001 L 164.74872169466764 52.23563800000001 L 167.26442658875092 55.5373 L 169.78013148283418 56.08384599999999 L 172.29583637691746 58.20687600000001 L 174.81154127100072 57.867810000000006 L 177.327246165084 59.249736 L 179.84295105916726 60.82403599999999 L 182.35865595325055 58.71956999999999 L 184.87436084733383 58.82949799999999 L 187.3900657414171 60.28167599999999 L 189.90577063550037 58.032884 L 192.42147552958363 67.439918 L 194.93718042366692 68.794908 L 197.45288531775017 71.399146 L 199.96859021183346 75.2388 L 202.48429510591671 79.195662 L 205 83.51306600000001 L 205 91 L -1.2878013148283418 91" zIndex="0"></path><path fill="none" d="M -1.2878013148283418 34.037822 L 1.2279035792549307 35.721685999999984 L 3.743608473338203 41.35695200000001 L 6.259313367421475 46.47133399999999 L 8.775018261504748 44.520293999999986 L 11.29072315558802 39.225004 L 13.806428049671293 37.01607000000002 L 16.322132943754564 42.55760600000001 L 18.83783783783784 44.25402799999999 L 21.35354273192111 44.455138 L 23.869247626004384 37.11726200000001 L 26.384952520087655 36.07076199999998 L 28.90065741417093 35.59100999999999 L 31.4163623082542 34.99841799999997 L 33.93206720233747 37.63687199999999 L 36.44777209642074 39.50491999999998 L 38.96347699050402 40.024347999999996 L 41.47918188458729 41.386618000000006 L 43.99488677867056 40.43293800000001 L 46.51059167275383 38.779650000000004 L 49.02629656683711 40.92306400000001 L 51.54200146092038 47.56260600000001 L 54.05770635500365 48.67080399999999 L 56.573411249086924 48.75324999999999 L 59.089116143170195 47.66379800000001 L 61.60482103725347 46.921056 L 64.12052593133674 44.807308 L 66.63623082542001 43.47470400000001 L 69.15193571950329 40.794936 L 71.66764061358656 40.748707999999986 L 74.18334550766983 45.668532000000006 L 76.6990504017531 47.98357199999999 L 79.21475529583638 45.203886 L 81.73046018991965 41.857270000000014 L 84.24616508400293 43.460508000000004 L 86.7618699780862 39.16694599999998 L 89.27757487216947 35.204988 L 91.79327976625274 29.687111999999992 L 94.30898466033601 29.159494000000016 L 96.82468955441928 25.220649999999978 L 99.34039444850255 27.487096 L 101.85609934258584 31.04192000000002 L 104.3718042366691 27.76373599999998 L 106.88750913075238 27.762279999999983 L 109.40321402483565 24.749269999999996 L 111.91891891891892 22.42258199999999 L 114.43462381300219 21.756643999999966 L 116.95032870708546 24.25149999999998 L 119.46603360116873 25.91352400000001 L 121.981738495252 26.872663999999986 L 124.49744338933529 26.002340000000004 L 127.01314828341856 29.425031999999987 L 129.52885317750182 29.640702000000005 L 132.0445580715851 27.713504000000015 L 134.56026296566836 24.470628000000005 L 137.07596785975164 25.686206000000013 L 139.59167275383493 28.72706199999999 L 142.10737764791818 36.05747600000001 L 144.62308254200147 37.68928800000002 L 147.13878743608473 37.665810000000015 L 149.654492330168 41.69802 L 152.17019722425127 41.255396 L 154.68590211833455 44.202158000000004 L 157.2016070124178 44.732505999999994 L 159.7173119065011 42.634409999999995 L 162.23301680058438 45.76899600000001 L 164.74872169466764 52.23563800000001 L 167.26442658875092 55.5373 L 169.78013148283418 56.08384599999999 L 172.29583637691746 58.20687600000001 L 174.81154127100072 57.867810000000006 L 177.327246165084 59.249736 L 179.84295105916726 60.82403599999999 L 182.35865595325055 58.71956999999999 L 184.87436084733383 58.82949799999999 L 187.3900657414171 60.28167599999999 L 189.90577063550037 58.032884 L 192.42147552958363 67.439918 L 194.93718042366692 68.794908 L 197.45288531775017 71.399146 L 199.96859021183346 75.2388 L 202.48429510591671 79.195662 L 205 83.51306600000001" stroke="#7cb5ec" stroke-width="2" zIndex="1" stroke-linejoin="round" stroke-linecap="round"></path><path fill="none" d="M -11.287801314828341 34.037822 L -1.2878013148283418 34.037822 L 1.2279035792549307 35.721685999999984 L 3.743608473338203 41.35695200000001 L 6.259313367421475 46.47133399999999 L 8.775018261504748 44.520293999999986 L 11.29072315558802 39.225004 L 13.806428049671293 37.01607000000002 L 16.322132943754564 42.55760600000001 L 18.83783783783784 44.25402799999999 L 21.35354273192111 44.455138 L 23.869247626004384 37.11726200000001 L 26.384952520087655 36.07076199999998 L 28.90065741417093 35.59100999999999 L 31.4163623082542 34.99841799999997 L 33.93206720233747 37.63687199999999 L 36.44777209642074 39.50491999999998 L 38.96347699050402 40.024347999999996 L 41.47918188458729 41.386618000000006 L 43.99488677867056 40.43293800000001 L 46.51059167275383 38.779650000000004 L 49.02629656683711 40.92306400000001 L 51.54200146092038 47.56260600000001 L 54.05770635500365 48.67080399999999 L 56.573411249086924 48.75324999999999 L 59.089116143170195 47.66379800000001 L 61.60482103725347 46.921056 L 64.12052593133674 44.807308 L 66.63623082542001 43.47470400000001 L 69.15193571950329 40.794936 L 71.66764061358656 40.748707999999986 L 74.18334550766983 45.668532000000006 L 76.6990504017531 47.98357199999999 L 79.21475529583638 45.203886 L 81.73046018991965 41.857270000000014 L 84.24616508400293 43.460508000000004 L 86.7618699780862 39.16694599999998 L 89.27757487216947 35.204988 L 91.79327976625274 29.687111999999992 L 94.30898466033601 29.159494000000016 L 96.82468955441928 25.220649999999978 L 99.34039444850255 27.487096 L 101.85609934258584 31.04192000000002 L 104.3718042366691 27.76373599999998 L 106.88750913075238 27.762279999999983 L 109.40321402483565 24.749269999999996 L 111.91891891891892 22.42258199999999 L 114.43462381300219 21.756643999999966 L 116.95032870708546 24.25149999999998 L 119.46603360116873 25.91352400000001 L 121.981738495252 26.872663999999986 L 124.49744338933529 26.002340000000004 L 127.01314828341856 29.425031999999987 L 129.52885317750182 29.640702000000005 L 132.0445580715851 27.713504000000015 L 134.56026296566836 24.470628000000005 L 137.07596785975164 25.686206000000013 L 139.59167275383493 28.72706199999999 L 142.10737764791818 36.05747600000001 L 144.62308254200147 37.68928800000002 L 147.13878743608473 37.665810000000015 L 149.654492330168 41.69802 L 152.17019722425127 41.255396 L 154.68590211833455 44.202158000000004 L 157.2016070124178 44.732505999999994 L 159.7173119065011 42.634409999999995 L 162.23301680058438 45.76899600000001 L 164.74872169466764 52.23563800000001 L 167.26442658875092 55.5373 L 169.78013148283418 56.08384599999999 L 172.29583637691746 58.20687600000001 L 174.81154127100072 57.867810000000006 L 177.327246165084 59.249736 L 179.84295105916726 60.82403599999999 L 182.35865595325055 58.71956999999999 L 184.87436084733383 58.82949799999999 L 187.3900657414171 60.28167599999999 L 189.90577063550037 58.032884 L 192.42147552958363 67.439918 L 194.93718042366692 68.794908 L 197.45288531775017 71.399146 L 199.96859021183346 75.2388 L 202.48429510591671 79.195662 L 205 83.51306600000001 L 215 83.51306600000001" stroke-linejoin="round" visibility="visible" stroke="rgba(192,192,192,0.0001)" stroke-width="22" zIndex="2" class=" highcharts-tracker" style=""></path></g><g class="highcharts-markers highcharts-tracker" visibility="visible" zIndex="0.1" transform="translate(10,10) scale(1 1)" style="" clip-path="none"></g><g class="highcharts-series" visibility="visible" zIndex="0.1" transform="translate(24,101) scale(1 1)" clip-path="url(#highcharts-1)"><path fill="rgba(69,114,167,0.05)" d="M 0 16.008590840823057 C 0 16.008590840823057 0.6174418604651157 16.206867241247714 1.0290697674418594 16.206867241247714 C 1.4406976744186033 16.206867241247714 1.6465116279069751 16.079084929318686 2.058139534883719 15.95088808350878 C 2.469767441860463 15.822691237698873 2.6755813953488343 15.69592402533095 3.087209302325578 15.565883012198181 C 3.4988372093023217 15.435841999065413 3.704651162790694 15.300683017844936 4.116279069767438 15.300683017844936 C 4.527906976744181 15.300683017844936 4.733720930232553 15.39235123377964 5.145348837209297 15.538172648516184 C 5.5569767441860405 15.683994063252726 5.762790697674413 16.008444288440927 6.174418604651156 16.029790091527644 C 6.586046511627901 16.05113589461436 6.791860465116271 16.05113589461436 7.203488372093015 16.05113589461436 C 7.615116279069758 16.05113589461436 7.820930232558132 15.983688899321027 8.232558139534875 15.983688899321027 C 8.644186046511619 15.983688899321027 8.84999999999999 16.37541803319286 9.261627906976734 16.516588054772548 C 9.673255813953478 16.657758076352238 9.87906976744185 16.650870712565197 10.290697674418594 16.68953900721947 C 10.702325581395337 16.72820730187374 10.908139534883711 16.68953900721947 11.319767441860453 16.72820730187374 C 11.731395348837196 16.766875596528013 11.937209302325568 16.895910961232886 12.348837209302312 17.149486181366527 C 12.760465116279056 17.403061401500167 12.966279069767428 17.78400858689288 13.377906976744171 17.99608340254195 C 13.789534883720915 18.208158218191016 13.995348837209287 18.142410273453585 14.40697674418603 18.20986025961186 C 14.818604651162776 18.27731024577014 15.024418604651146 18.333333333333336 15.43604651162789 18.333333333333336 C 15.847674418604635 18.333333333333336 16.053488372093007 18.228021987881974 16.46511627906975 18.228021987881974 C 16.876744186046494 18.228021987881974 17.082558139534864 18.229469566513608 17.494186046511608 18.229469566513608 C 17.905813953488355 18.229469566513608 18.111627906976725 17.482588380657187 18.52325581395347 17.428275469667483 C 18.934883720930213 17.37396255867778 19.140697674418583 17.416754897182432 19.552325581395326 17.37396255867778 C 19.963953488372074 17.33117022017312 20.169767441860444 17.214313777144195 20.581395348837187 17.214313777144195 C 20.99302325581395 17.214313777144195 21.198837209302333 17.296466257181365 21.610465116279094 17.296466257181365 C 22.022093023255817 17.296466257181365 22.227906976744183 17.165447949020344 22.639534883720906 17.099903622368128 C 23.051162790697667 17.03435929571591 23.25697674418605 17.099903622368128 23.668604651162813 16.96874462392027 C 24.080232558139556 16.83758562547241 24.286046511627926 16.32469834734374 24.697674418604674 16.32469834734374 C 25.109302325581417 16.32469834734374 25.315116279069787 16.399822175134044 25.72674418604653 16.44538872032374 C 26.138372093023275 16.490955265513435 26.344186046511645 16.552531073292222 26.755813953488392 16.552531073292222 C 27.167441860465136 16.552531073292222 27.373255813953506 16.16877068033564 27.78488372093025 15.88915064938856 C 28.196511627906993 15.60953061844148 28.402325581395367 15.440958172634156 28.81395348837211 15.15443091855683 C 29.225581395348854 14.867903664479504 29.431395348837224 14.456514379001927 29.843023255813968 14.456514379001927 C 30.254651162790715 14.456514379001927 30.460465116279085 14.865247776411552 30.87209302325583 15.07606906074638 C 31.283720930232572 15.286890345081211 31.489534883720943 15.51062080067608 31.901162790697686 15.51062080067608 C 32.31279069767443 15.51062080067608 32.518604651162796 15.046534269450136 32.930232558139544 14.986971194142308 C 33.341860465116284 14.92740811883448 33.547674418604664 14.92740811883448 33.959302325581405 14.92740811883448 C 34.370930232558145 14.92740811883448 34.576744186046525 15.093631419682236 34.988372093023266 15.093631419682236 C 35.40000000000001 15.093631419682236 35.60581395348838 14.715367159776552 36.01744186046513 14.715367159776552 C 36.429069767441874 14.715367159776552 36.63488372093024 14.760425138291613 37.04651162790699 14.760425138291613 C 37.45813953488373 14.760425138291613 37.6639534883721 14.188879820586388 38.07558139534884 13.981224665878514 C 38.48720930232558 13.77356951117064 38.693023255813955 13.947012281448528 39.1046511627907 13.722149364752251 C 39.51627906976745 13.497286448055977 39.72209302325582 13.13252773787964 40.13372093023256 12.856910082397134 C 40.54534883720931 12.581292426914624 40.75116279069768 12.495583688827539 41.162790697674424 12.344061087339716 C 41.57441860465117 12.192538485851891 41.78023255813954 12.30287699673134 42.19186046511628 12.099297074958013 C 42.603488372093025 11.89571715318468 42.80930232558139 11.451049829484806 43.22093023255814 11.326161478473068 C 43.63255813953488 11.20127312746133 43.83837209302326 11.249195756417258 44.25 11.20127312746133 C 44.66162790697674 11.153350498505404 44.86744186046512 11.086548333693433 45.27906976744186 11.086548333693433 C 45.69069767441861 11.086548333693433 45.896511627906975 11.324251512121497 46.308139534883715 11.411601517253821 C 46.71976744186046 11.498951522386147 46.92558139534883 11.491032908367318 47.337209302325576 11.523298359355058 C 47.74883720930232 11.555563810342797 47.95465116279069 11.538594240838323 48.36627906976744 11.572928772192517 C 48.77790697674418 11.60726330354671 48.98372093023255 11.694971016126027 49.3953488372093 11.694971016126027 C 49.806976744186045 11.694971016126027 50.01279069767442 10.34743621860878 50.42441860465116 10.34743621860878 C 50.83604651162792 10.34743621860878 51.0418604651163 10.451197099674513 51.45348837209306 10.695100939299081 C 51.86511627906979 10.93900477892363 52.07093023255815 11.56695541673157 52.48255813953487 11.56695541673157 C 52.89418604651164 11.56695541673157 53.10000000000002 11.56695541673157 53.511627906976784 11.543627268361698 C 53.9232558139535 11.520299119991826 54.12906976744186 11.543627268361698 54.540697674418595 11.273686753076342 C 54.95232558139536 11.003746237790986 55.15813953488373 9.757126812434244 55.5697674418605 9.757126812434244 C 55.981395348837225 9.757126812434244 56.187209302325584 10.005714346557042 56.59883720930231 10.293177143188021 C 57.01046511627908 10.580639939819031 57.21627906976746 11.194440795589218 57.62790697674422 11.194440795589218 C 58.03953488372095 11.194440795589218 58.245348837209306 10.327540985018642 58.65697674418603 10.245911906346212 C 59.06860465116279 10.164282827673782 59.27441860465118 10.245911906346212 59.686046511627936 10.164282827673782 C 60.09767441860466 10.082653749001352 60.30348837209302 9.735379396003182 60.71511627906975 9.403480960034148 C 61.126744186046515 9.071582524065079 61.332558139534896 8.587854743499834 61.74418604651166 8.504790647828527 C 62.155813953488384 8.421726552157219 62.36162790697674 8.421726552157219 62.77325581395347 8.421726552157219 C 63.18488372093022 8.421726552157219 63.390697674418604 9.221486828350436 63.80232558139537 9.221486828350436 C 64.2139534883721 9.221486828350436 64.41976744186046 8.333485867445345 64.83139534883719 8.333485867445345 C 65.24302325581395 8.333485867445345 65.44883720930233 8.49195361623087 65.86046511627909 8.658528283891947 C 66.2720930232558 8.825102951553008 66.47790697674418 9.000791143594308 66.8895348837209 9.166359205750693 C 67.30116279069766 9.331927267907094 67.50697674418605 9.486368594673918 67.91860465116281 9.486368594673918 C 68.33023255813953 9.486368594673918 68.5360465116279 8.632246716209718 68.94767441860462 8.240366483841074 C 69.3593023255814 7.848486251472375 69.56511627906977 7.526967432830558 69.97674418604653 7.526967432830558 C 70.38837209302326 7.526967432830558 70.59418604651162 8.410896630204435 71.00581395348834 8.410896630204435 C 71.4174418604651 8.410896630204435 71.62325581395348 8.063017165411344 72.03488372093025 8.063017165411344 C 72.44651162790697 8.063017165411344 72.65232558139533 8.063017165411344 73.06395348837206 8.260952607232678 C 73.47558139534883 8.458888049054012 73.68139534883721 9.592520373173809 74.09302325581397 9.592520373173809 C 74.5046511627907 9.592520373173809 74.71046511627905 9.386369384262258 75.12209302325579 9.240329277481203 C 75.53372093023253 9.094289170700145 75.73953488372092 8.939198228068047 76.15116279069768 8.862319839268526 C 76.5627906976744 8.785441450469005 76.76860465116276 8.785441450469005 77.1802325581395 8.785441450469005 C 77.59186046511626 8.785441450469005 77.79767441860464 9.817987923126637 78.2093023255814 9.817987923126637 C 78.62093023255814 9.817987923126637 78.8267441860465 8.86198007701119 79.23837209302322 8.840471570871657 C 79.64999999999998 8.818963064732124 79.85581395348837 8.840471570871657 80.26744186046513 8.818963064732124 C 80.67906976744186 8.797454558592591 80.88488372093022 8.256113387757505 81.29651162790694 8.256113387757505 C 81.70813953488371 8.256113387757505 81.91395348837209 8.256113387757505 82.32558139534885 8.269306093013986 C 82.73720930232561 8.282498798270467 82.94302325581398 8.40503932030321 83.35465116279074 8.40503932030321 C 83.76627906976748 8.40503932030321 83.97209302325584 8.368133243272407 84.38372093023256 8.368133243272407 C 84.79534883720927 8.368133243272407 85.00116279069763 9.111019829913102 85.41279069767437 9.111019829913102 C 85.82441860465113 9.111019829913102 86.0302325581395 8.502116934205523 86.44186046511628 8.21975045180006 C 86.85348837209304 7.937383969394606 87.05930232558141 7.906556047732306 87.47093023255819 7.699187417885804 C 87.88255813953491 7.491818788039332 88.08837209302328 7.182907302567624 88.5 7.182907302567624 C 88.91162790697672 7.182907302567624 89.11744186046509 7.266391315676703 89.52906976744181 7.266391315676703 C 89.94069767441859 7.266391315676703 90.14651162790696 6.8799365123117155 90.55813953488372 6.395457426473174 C 90.96976744186048 5.910978340634632 91.17558139534886 5.306738323005304 91.58720930232562 4.843995886483995 C 91.99883720930234 4.381253449962735 92.20465116279071 4.281473769037737 92.61627906976743 4.0817452438667505 C 93.0279069767442 3.882016718695737 93.23372093023258 4.002650025972676 93.64534883720934 3.845353260628997 C 94.05697674418607 3.6880564952853283 94.26279069767443 3.730998735940817 94.67441860465115 3.2952614171483816 C 95.08604651162793 2.8595240983558856 95.2918604651163 1.6666666666666679 95.70348837209306 1.6666666666666679 C 96.1151162790698 1.6666666666666679 96.32093023255814 1.6666666666666679 96.73255813953487 2.50302017541782 C 97.14418604651163 3.3393736841689723 97.35000000000002 4.873420613950347 97.76162790697678 5.947359461050926 C 98.1732558139535 7.021298308151393 98.37906976744186 6.598816502779273 98.7906976744186 7.872714410920436 C 99.20232558139536 9.146612319061685 99.40813953488374 11.035290292154823 99.8197674418605 12.316849001756957 C 100.23139534883724 13.598407711359002 100.4372093023256 13.590597845189517 100.84883720930232 14.280507958930878 C 101.26046511627908 14.97041807267231 101.46627906976747 15.766399570463939 101.87790697674421 15.766399570463939 C 102.28953488372095 15.766399570463939 102.4953488372093 15.243893670683757 102.90697674418603 15.243893670683757 C 103.31860465116279 15.243893670683757 103.52441860465117 16.13749711979706 103.93604651162794 16.13749711979706 C 104.34767441860467 16.13749711979706 104.55348837209301 16.12725938910267 104.96511627906975 16.000297172340577 C 105.37674418604652 15.873334955578471 105.58255813953488 15.764882843034883 105.99418604651166 15.502686035986567 C 106.40581395348838 15.240489228938289 106.61162790697674 15.007544755901147 107.02325581395347 14.689313137099099 C 107.43488372093023 14.371081518297027 107.6406976744186 13.911527941976262 108.05232558139538 13.911527941976262 C 108.46395348837208 13.911527941976262 108.66976744186047 14.525602760975099 109.08139534883719 14.525602760975099 C 109.49302325581395 14.525602760975099 109.69883720930234 13.654824994921512 110.11046511627909 13.654824994921512 C 110.52209302325582 13.654824994921512 110.72790697674418 14.120969241227137 111.1395348837209 14.120969241227137 C 111.55116279069766 14.120969241227137 111.75697674418605 13.500738025832948 112.16860465116281 13.287056876441149 C 112.58023255813953 13.07337572704937 112.78604651162792 13.148153451948637 113.19767441860462 13.052563494268188 C 113.6093023255814 12.956973536587723 113.81511627906977 12.890357642844313 114.22674418604653 12.809107088038862 C 114.63837209302326 12.72785653323342 114.84418604651162 12.646310720240951 115.25581395348834 12.646310720240951 C 115.66744186046512 12.646310720240951 115.87325581395348 13.26477732531973 116.28488372093025 13.26477732531973 C 116.69651162790699 13.26477732531973 116.90232558139533 13.255473462294642 117.31395348837206 13.175592723632354 C 117.72558139534881 13.095711984970063 117.93139534883721 12.865373632008284 118.34302325581396 12.865373632008284 C 118.7546511627907 12.865373632008284 118.96046511627905 13.865689945884487 119.37209302325577 13.893289647563654 C 119.78372093023253 13.92088934924282 119.98953488372092 13.92088934924282 120.40116279069768 13.92088934924282 C 120.8127906976744 13.92088934924282 121.01860465116276 13.787170170405119 121.4302325581395 13.627111042201582 C 121.84186046511627 13.467051913998027 122.04767441860463 13.330772435135923 122.4593023255814 13.120593708225094 C 122.87093023255815 12.91041498131428 123.07674418604657 12.851375307371198 123.48837209302332 12.576217407647476 C 123.90000000000005 12.301059507923766 124.10581395348841 12.003240661981298 124.51744186046513 11.744804209606514 C 124.92906976744185 11.48636775723173 125.1348837209302 11.582591419375964 125.54651162790694 11.28403514577356 C 125.95813953488368 10.985478872171145 126.16395348837209 10.552778836543972 126.57558139534885 10.252022841594462 C 126.9872093023256 9.951266846644963 127.19302325581398 9.94652823986642 127.60465116279074 9.780255171026031 C 128.01627906976745 9.613982102185663 128.2220930232558 9.560868647672052 128.63372093023256 9.420657497392568 C 129.04534883720927 9.280446347113095 129.25116279069766 9.298173203620703 129.66279069767438 9.07919941962864 C 130.07441860465116 8.860225635636546 130.28023255813952 8.32578857743218 130.6918604651163 8.32578857743218 C 131.10348837209304 8.32578857743218 131.30930232558143 9.619986682276592 131.72093023255817 9.651330946862382 C 132.1325581395349 9.682675211448172 132.33837209302328 9.682675211448172 132.75 9.682675211448172 C 133.16162790697672 9.682675211448172 133.36744186046508 9.614700627579175 133.7790697674418 9.614700627579175 C 134.19069767441857 9.614700627579175 134.39651162790693 9.839292811180957 134.8081395348837 10.061572936548444 C 135.21976744186048 10.28385306191593 135.42558139534884 10.44206838170038 135.83720930232562 10.726101254416607 C 136.24883720930234 11.010134127132792 136.45465116279073 11.45794496952069 136.86627906976744 11.481737300129469 C 137.2779069767442 11.505529630738247 137.48372093023255 11.481737300129469 137.89534883720924 11.505529630738247 C 138.30697674418602 11.529321961347025 138.51279069767438 12.059488662588084 138.92441860465115 12.059488662588084 C 139.3360465116279 12.059488662588084 139.54186046511632 12.041774965886193 139.95348837209306 11.928037157548955 C 140.3651162790698 11.814299349211717 140.57093023255817 11.49079962090189 140.98255813953486 11.49079962090189 C 141.3941860465116 11.49079962090189 141.59999999999997 11.496826213758798 142.01162790697668 11.64983108791157 C 142.42325581395343 11.802835962064353 142.62906976744185 12.018240088931584 143.0406976744186 12.255823991665777 C 143.45232558139537 12.493407894399986 143.65813953488373 12.5896213876034 144.0697674418605 12.837750601582574 C 144.48139534883722 13.085879815561714 144.68720930232558 13.496470061561569 145.0988372093023 13.496470061561569 C 145.51046511627905 13.496470061561569 145.71627906976747 12.335531140526863 146.1279069767442 12.04835666327622 C 146.53953488372093 11.761182186025577 146.7453488372093 11.931882811690596 147.15697674418604 11.761182186025577 C 147.5686046511628 11.590481560360558 147.7744186046512 11.194853534951125 148.18604651162795 11.194853534951125 C 148.59767441860467 11.194853534951125 148.80348837209303 11.365557869288686 149.21511627906975 11.534535038939866 C 149.62674418604652 11.70351220859107 149.83255813953488 11.89807646708504 150.24418604651166 12.039739383207085 C 150.65581395348835 12.1814022993291 150.8616279069767 12.190317349911817 151.27325581395345 12.242849619550016 C 151.6848837209302 12.295381889188214 151.89069767441862 12.302400731398077 152.30232558139537 12.302400731398077 C 152.71395348837208 12.302400731398077 152.91976744186044 12.255109174944783 153.3313953488372 12.255109174944783 C 153.74302325581397 12.255109174944783 153.94883720930233 12.397663368819334 154.3604651162791 12.568830569415221 C 154.77209302325582 12.739997770011085 154.97790697674418 12.995019252795803 155.3895348837209 13.110945177924163 C 155.80116279069767 13.226871103052524 156.00697674418603 13.119461366758278 156.4186046511628 13.226871103052524 C 156.83023255813956 13.33428083934676 157.03604651162792 13.553811522390928 157.44767441860463 13.64799385939537 C 157.85930232558138 13.742176196399813 158.06511627906974 13.742176196399813 158.47674418604652 13.742176196399813 C 158.88837209302324 13.742176196399813 159.09418604651162 13.691273469616275 159.50581395348834 13.654612643510669 C 159.91744186046512 13.617951817405059 160.12325581395348 13.558872065871768 160.53488372093025 13.558872065871768 C 160.94651162790697 13.558872065871768 161.15232558139533 13.582851265722086 161.56395348837205 13.712650377698388 C 161.9755813953488 13.842449489674701 162.1813953488372 14.207867625753309 162.59302325581396 14.207867625753309 C 163.0046511627907 14.207867625753309 163.21046511627907 13.849102608919523 163.6220930232558 13.849102608919523 C 164.03372093023253 13.849102608919523 164.23953488372095 14.005438708444023 164.6511627906977 14.005438708444023 C 165.06279069767442 14.005438708444023 165.26860465116278 13.470446067168112 165.6802325581395 13.24752601633778 C 166.09186046511627 13.024605965507416 166.29767441860463 13.010892969385749 166.7093023255814 12.890838454292284 C 167.12093023255815 12.770783939198829 167.32674418604657 12.64725344087048 167.73837209302332 12.64725344087048 C 168.15000000000003 12.64725344087048 168.3558139534884 12.774484835477308 168.7674418604651 12.79977558942172 C 169.17906976744183 12.825066343366133 169.3848837209302 12.79977558942172 169.79651162790694 12.825066343366133 C 170.20813953488368 12.850357097310546 170.4139534883721 13.150564567629806 170.82558139534885 13.361262628329044 C 171.23720930232562 13.571960689028296 171.44302325581398 13.65017898532153 171.85465116279076 13.878556646862357 C 172.26627906976745 14.106934308403137 172.4720930232558 14.291895856647118 172.88372093023256 14.503150936033055 C 173.29534883720927 14.714406015418977 173.50116279069766 14.819936172549466 173.91279069767438 14.934832043792007 C 174.32441860465116 15.04972791503456 174.53023255813952 14.934832043792007 174.9418604651163 15.077630292245788 C 175.35348837209304 15.220428540699569 175.55930232558143 15.605976154910522 175.97093023255817 15.900028425180402 C 176.3825581395349 16.19408069545026 177 16.547891643595136 177 16.547891643595136 L 177 20 L 0 20" zIndex="0"></path><path fill="none" d="M 0 16.008590840823057 C 0 16.008590840823057 0.6174418604651157 16.206867241247714 1.0290697674418594 16.206867241247714 C 1.4406976744186033 16.206867241247714 1.6465116279069751 16.079084929318686 2.058139534883719 15.95088808350878 C 2.469767441860463 15.822691237698873 2.6755813953488343 15.69592402533095 3.087209302325578 15.565883012198181 C 3.4988372093023217 15.435841999065413 3.704651162790694 15.300683017844936 4.116279069767438 15.300683017844936 C 4.527906976744181 15.300683017844936 4.733720930232553 15.39235123377964 5.145348837209297 15.538172648516184 C 5.5569767441860405 15.683994063252726 5.762790697674413 16.008444288440927 6.174418604651156 16.029790091527644 C 6.586046511627901 16.05113589461436 6.791860465116271 16.05113589461436 7.203488372093015 16.05113589461436 C 7.615116279069758 16.05113589461436 7.820930232558132 15.983688899321027 8.232558139534875 15.983688899321027 C 8.644186046511619 15.983688899321027 8.84999999999999 16.37541803319286 9.261627906976734 16.516588054772548 C 9.673255813953478 16.657758076352238 9.87906976744185 16.650870712565197 10.290697674418594 16.68953900721947 C 10.702325581395337 16.72820730187374 10.908139534883711 16.68953900721947 11.319767441860453 16.72820730187374 C 11.731395348837196 16.766875596528013 11.937209302325568 16.895910961232886 12.348837209302312 17.149486181366527 C 12.760465116279056 17.403061401500167 12.966279069767428 17.78400858689288 13.377906976744171 17.99608340254195 C 13.789534883720915 18.208158218191016 13.995348837209287 18.142410273453585 14.40697674418603 18.20986025961186 C 14.818604651162776 18.27731024577014 15.024418604651146 18.333333333333336 15.43604651162789 18.333333333333336 C 15.847674418604635 18.333333333333336 16.053488372093007 18.228021987881974 16.46511627906975 18.228021987881974 C 16.876744186046494 18.228021987881974 17.082558139534864 18.229469566513608 17.494186046511608 18.229469566513608 C 17.905813953488355 18.229469566513608 18.111627906976725 17.482588380657187 18.52325581395347 17.428275469667483 C 18.934883720930213 17.37396255867778 19.140697674418583 17.416754897182432 19.552325581395326 17.37396255867778 C 19.963953488372074 17.33117022017312 20.169767441860444 17.214313777144195 20.581395348837187 17.214313777144195 C 20.99302325581395 17.214313777144195 21.198837209302333 17.296466257181365 21.610465116279094 17.296466257181365 C 22.022093023255817 17.296466257181365 22.227906976744183 17.165447949020344 22.639534883720906 17.099903622368128 C 23.051162790697667 17.03435929571591 23.25697674418605 17.099903622368128 23.668604651162813 16.96874462392027 C 24.080232558139556 16.83758562547241 24.286046511627926 16.32469834734374 24.697674418604674 16.32469834734374 C 25.109302325581417 16.32469834734374 25.315116279069787 16.399822175134044 25.72674418604653 16.44538872032374 C 26.138372093023275 16.490955265513435 26.344186046511645 16.552531073292222 26.755813953488392 16.552531073292222 C 27.167441860465136 16.552531073292222 27.373255813953506 16.16877068033564 27.78488372093025 15.88915064938856 C 28.196511627906993 15.60953061844148 28.402325581395367 15.440958172634156 28.81395348837211 15.15443091855683 C 29.225581395348854 14.867903664479504 29.431395348837224 14.456514379001927 29.843023255813968 14.456514379001927 C 30.254651162790715 14.456514379001927 30.460465116279085 14.865247776411552 30.87209302325583 15.07606906074638 C 31.283720930232572 15.286890345081211 31.489534883720943 15.51062080067608 31.901162790697686 15.51062080067608 C 32.31279069767443 15.51062080067608 32.518604651162796 15.046534269450136 32.930232558139544 14.986971194142308 C 33.341860465116284 14.92740811883448 33.547674418604664 14.92740811883448 33.959302325581405 14.92740811883448 C 34.370930232558145 14.92740811883448 34.576744186046525 15.093631419682236 34.988372093023266 15.093631419682236 C 35.40000000000001 15.093631419682236 35.60581395348838 14.715367159776552 36.01744186046513 14.715367159776552 C 36.429069767441874 14.715367159776552 36.63488372093024 14.760425138291613 37.04651162790699 14.760425138291613 C 37.45813953488373 14.760425138291613 37.6639534883721 14.188879820586388 38.07558139534884 13.981224665878514 C 38.48720930232558 13.77356951117064 38.693023255813955 13.947012281448528 39.1046511627907 13.722149364752251 C 39.51627906976745 13.497286448055977 39.72209302325582 13.13252773787964 40.13372093023256 12.856910082397134 C 40.54534883720931 12.581292426914624 40.75116279069768 12.495583688827539 41.162790697674424 12.344061087339716 C 41.57441860465117 12.192538485851891 41.78023255813954 12.30287699673134 42.19186046511628 12.099297074958013 C 42.603488372093025 11.89571715318468 42.80930232558139 11.451049829484806 43.22093023255814 11.326161478473068 C 43.63255813953488 11.20127312746133 43.83837209302326 11.249195756417258 44.25 11.20127312746133 C 44.66162790697674 11.153350498505404 44.86744186046512 11.086548333693433 45.27906976744186 11.086548333693433 C 45.69069767441861 11.086548333693433 45.896511627906975 11.324251512121497 46.308139534883715 11.411601517253821 C 46.71976744186046 11.498951522386147 46.92558139534883 11.491032908367318 47.337209302325576 11.523298359355058 C 47.74883720930232 11.555563810342797 47.95465116279069 11.538594240838323 48.36627906976744 11.572928772192517 C 48.77790697674418 11.60726330354671 48.98372093023255 11.694971016126027 49.3953488372093 11.694971016126027 C 49.806976744186045 11.694971016126027 50.01279069767442 10.34743621860878 50.42441860465116 10.34743621860878 C 50.83604651162792 10.34743621860878 51.0418604651163 10.451197099674513 51.45348837209306 10.695100939299081 C 51.86511627906979 10.93900477892363 52.07093023255815 11.56695541673157 52.48255813953487 11.56695541673157 C 52.89418604651164 11.56695541673157 53.10000000000002 11.56695541673157 53.511627906976784 11.543627268361698 C 53.9232558139535 11.520299119991826 54.12906976744186 11.543627268361698 54.540697674418595 11.273686753076342 C 54.95232558139536 11.003746237790986 55.15813953488373 9.757126812434244 55.5697674418605 9.757126812434244 C 55.981395348837225 9.757126812434244 56.187209302325584 10.005714346557042 56.59883720930231 10.293177143188021 C 57.01046511627908 10.580639939819031 57.21627906976746 11.194440795589218 57.62790697674422 11.194440795589218 C 58.03953488372095 11.194440795589218 58.245348837209306 10.327540985018642 58.65697674418603 10.245911906346212 C 59.06860465116279 10.164282827673782 59.27441860465118 10.245911906346212 59.686046511627936 10.164282827673782 C 60.09767441860466 10.082653749001352 60.30348837209302 9.735379396003182 60.71511627906975 9.403480960034148 C 61.126744186046515 9.071582524065079 61.332558139534896 8.587854743499834 61.74418604651166 8.504790647828527 C 62.155813953488384 8.421726552157219 62.36162790697674 8.421726552157219 62.77325581395347 8.421726552157219 C 63.18488372093022 8.421726552157219 63.390697674418604 9.221486828350436 63.80232558139537 9.221486828350436 C 64.2139534883721 9.221486828350436 64.41976744186046 8.333485867445345 64.83139534883719 8.333485867445345 C 65.24302325581395 8.333485867445345 65.44883720930233 8.49195361623087 65.86046511627909 8.658528283891947 C 66.2720930232558 8.825102951553008 66.47790697674418 9.000791143594308 66.8895348837209 9.166359205750693 C 67.30116279069766 9.331927267907094 67.50697674418605 9.486368594673918 67.91860465116281 9.486368594673918 C 68.33023255813953 9.486368594673918 68.5360465116279 8.632246716209718 68.94767441860462 8.240366483841074 C 69.3593023255814 7.848486251472375 69.56511627906977 7.526967432830558 69.97674418604653 7.526967432830558 C 70.38837209302326 7.526967432830558 70.59418604651162 8.410896630204435 71.00581395348834 8.410896630204435 C 71.4174418604651 8.410896630204435 71.62325581395348 8.063017165411344 72.03488372093025 8.063017165411344 C 72.44651162790697 8.063017165411344 72.65232558139533 8.063017165411344 73.06395348837206 8.260952607232678 C 73.47558139534883 8.458888049054012 73.68139534883721 9.592520373173809 74.09302325581397 9.592520373173809 C 74.5046511627907 9.592520373173809 74.71046511627905 9.386369384262258 75.12209302325579 9.240329277481203 C 75.53372093023253 9.094289170700145 75.73953488372092 8.939198228068047 76.15116279069768 8.862319839268526 C 76.5627906976744 8.785441450469005 76.76860465116276 8.785441450469005 77.1802325581395 8.785441450469005 C 77.59186046511626 8.785441450469005 77.79767441860464 9.817987923126637 78.2093023255814 9.817987923126637 C 78.62093023255814 9.817987923126637 78.8267441860465 8.86198007701119 79.23837209302322 8.840471570871657 C 79.64999999999998 8.818963064732124 79.85581395348837 8.840471570871657 80.26744186046513 8.818963064732124 C 80.67906976744186 8.797454558592591 80.88488372093022 8.256113387757505 81.29651162790694 8.256113387757505 C 81.70813953488371 8.256113387757505 81.91395348837209 8.256113387757505 82.32558139534885 8.269306093013986 C 82.73720930232561 8.282498798270467 82.94302325581398 8.40503932030321 83.35465116279074 8.40503932030321 C 83.76627906976748 8.40503932030321 83.97209302325584 8.368133243272407 84.38372093023256 8.368133243272407 C 84.79534883720927 8.368133243272407 85.00116279069763 9.111019829913102 85.41279069767437 9.111019829913102 C 85.82441860465113 9.111019829913102 86.0302325581395 8.502116934205523 86.44186046511628 8.21975045180006 C 86.85348837209304 7.937383969394606 87.05930232558141 7.906556047732306 87.47093023255819 7.699187417885804 C 87.88255813953491 7.491818788039332 88.08837209302328 7.182907302567624 88.5 7.182907302567624 C 88.91162790697672 7.182907302567624 89.11744186046509 7.266391315676703 89.52906976744181 7.266391315676703 C 89.94069767441859 7.266391315676703 90.14651162790696 6.8799365123117155 90.55813953488372 6.395457426473174 C 90.96976744186048 5.910978340634632 91.17558139534886 5.306738323005304 91.58720930232562 4.843995886483995 C 91.99883720930234 4.381253449962735 92.20465116279071 4.281473769037737 92.61627906976743 4.0817452438667505 C 93.0279069767442 3.882016718695737 93.23372093023258 4.002650025972676 93.64534883720934 3.845353260628997 C 94.05697674418607 3.6880564952853283 94.26279069767443 3.730998735940817 94.67441860465115 3.2952614171483816 C 95.08604651162793 2.8595240983558856 95.2918604651163 1.6666666666666679 95.70348837209306 1.6666666666666679 C 96.1151162790698 1.6666666666666679 96.32093023255814 1.6666666666666679 96.73255813953487 2.50302017541782 C 97.14418604651163 3.3393736841689723 97.35000000000002 4.873420613950347 97.76162790697678 5.947359461050926 C 98.1732558139535 7.021298308151393 98.37906976744186 6.598816502779273 98.7906976744186 7.872714410920436 C 99.20232558139536 9.146612319061685 99.40813953488374 11.035290292154823 99.8197674418605 12.316849001756957 C 100.23139534883724 13.598407711359002 100.4372093023256 13.590597845189517 100.84883720930232 14.280507958930878 C 101.26046511627908 14.97041807267231 101.46627906976747 15.766399570463939 101.87790697674421 15.766399570463939 C 102.28953488372095 15.766399570463939 102.4953488372093 15.243893670683757 102.90697674418603 15.243893670683757 C 103.31860465116279 15.243893670683757 103.52441860465117 16.13749711979706 103.93604651162794 16.13749711979706 C 104.34767441860467 16.13749711979706 104.55348837209301 16.12725938910267 104.96511627906975 16.000297172340577 C 105.37674418604652 15.873334955578471 105.58255813953488 15.764882843034883 105.99418604651166 15.502686035986567 C 106.40581395348838 15.240489228938289 106.61162790697674 15.007544755901147 107.02325581395347 14.689313137099099 C 107.43488372093023 14.371081518297027 107.6406976744186 13.911527941976262 108.05232558139538 13.911527941976262 C 108.46395348837208 13.911527941976262 108.66976744186047 14.525602760975099 109.08139534883719 14.525602760975099 C 109.49302325581395 14.525602760975099 109.69883720930234 13.654824994921512 110.11046511627909 13.654824994921512 C 110.52209302325582 13.654824994921512 110.72790697674418 14.120969241227137 111.1395348837209 14.120969241227137 C 111.55116279069766 14.120969241227137 111.75697674418605 13.500738025832948 112.16860465116281 13.287056876441149 C 112.58023255813953 13.07337572704937 112.78604651162792 13.148153451948637 113.19767441860462 13.052563494268188 C 113.6093023255814 12.956973536587723 113.81511627906977 12.890357642844313 114.22674418604653 12.809107088038862 C 114.63837209302326 12.72785653323342 114.84418604651162 12.646310720240951 115.25581395348834 12.646310720240951 C 115.66744186046512 12.646310720240951 115.87325581395348 13.26477732531973 116.28488372093025 13.26477732531973 C 116.69651162790699 13.26477732531973 116.90232558139533 13.255473462294642 117.31395348837206 13.175592723632354 C 117.72558139534881 13.095711984970063 117.93139534883721 12.865373632008284 118.34302325581396 12.865373632008284 C 118.7546511627907 12.865373632008284 118.96046511627905 13.865689945884487 119.37209302325577 13.893289647563654 C 119.78372093023253 13.92088934924282 119.98953488372092 13.92088934924282 120.40116279069768 13.92088934924282 C 120.8127906976744 13.92088934924282 121.01860465116276 13.787170170405119 121.4302325581395 13.627111042201582 C 121.84186046511627 13.467051913998027 122.04767441860463 13.330772435135923 122.4593023255814 13.120593708225094 C 122.87093023255815 12.91041498131428 123.07674418604657 12.851375307371198 123.48837209302332 12.576217407647476 C 123.90000000000005 12.301059507923766 124.10581395348841 12.003240661981298 124.51744186046513 11.744804209606514 C 124.92906976744185 11.48636775723173 125.1348837209302 11.582591419375964 125.54651162790694 11.28403514577356 C 125.95813953488368 10.985478872171145 126.16395348837209 10.552778836543972 126.57558139534885 10.252022841594462 C 126.9872093023256 9.951266846644963 127.19302325581398 9.94652823986642 127.60465116279074 9.780255171026031 C 128.01627906976745 9.613982102185663 128.2220930232558 9.560868647672052 128.63372093023256 9.420657497392568 C 129.04534883720927 9.280446347113095 129.25116279069766 9.298173203620703 129.66279069767438 9.07919941962864 C 130.07441860465116 8.860225635636546 130.28023255813952 8.32578857743218 130.6918604651163 8.32578857743218 C 131.10348837209304 8.32578857743218 131.30930232558143 9.619986682276592 131.72093023255817 9.651330946862382 C 132.1325581395349 9.682675211448172 132.33837209302328 9.682675211448172 132.75 9.682675211448172 C 133.16162790697672 9.682675211448172 133.36744186046508 9.614700627579175 133.7790697674418 9.614700627579175 C 134.19069767441857 9.614700627579175 134.39651162790693 9.839292811180957 134.8081395348837 10.061572936548444 C 135.21976744186048 10.28385306191593 135.42558139534884 10.44206838170038 135.83720930232562 10.726101254416607 C 136.24883720930234 11.010134127132792 136.45465116279073 11.45794496952069 136.86627906976744 11.481737300129469 C 137.2779069767442 11.505529630738247 137.48372093023255 11.481737300129469 137.89534883720924 11.505529630738247 C 138.30697674418602 11.529321961347025 138.51279069767438 12.059488662588084 138.92441860465115 12.059488662588084 C 139.3360465116279 12.059488662588084 139.54186046511632 12.041774965886193 139.95348837209306 11.928037157548955 C 140.3651162790698 11.814299349211717 140.57093023255817 11.49079962090189 140.98255813953486 11.49079962090189 C 141.3941860465116 11.49079962090189 141.59999999999997 11.496826213758798 142.01162790697668 11.64983108791157 C 142.42325581395343 11.802835962064353 142.62906976744185 12.018240088931584 143.0406976744186 12.255823991665777 C 143.45232558139537 12.493407894399986 143.65813953488373 12.5896213876034 144.0697674418605 12.837750601582574 C 144.48139534883722 13.085879815561714 144.68720930232558 13.496470061561569 145.0988372093023 13.496470061561569 C 145.51046511627905 13.496470061561569 145.71627906976747 12.335531140526863 146.1279069767442 12.04835666327622 C 146.53953488372093 11.761182186025577 146.7453488372093 11.931882811690596 147.15697674418604 11.761182186025577 C 147.5686046511628 11.590481560360558 147.7744186046512 11.194853534951125 148.18604651162795 11.194853534951125 C 148.59767441860467 11.194853534951125 148.80348837209303 11.365557869288686 149.21511627906975 11.534535038939866 C 149.62674418604652 11.70351220859107 149.83255813953488 11.89807646708504 150.24418604651166 12.039739383207085 C 150.65581395348835 12.1814022993291 150.8616279069767 12.190317349911817 151.27325581395345 12.242849619550016 C 151.6848837209302 12.295381889188214 151.89069767441862 12.302400731398077 152.30232558139537 12.302400731398077 C 152.71395348837208 12.302400731398077 152.91976744186044 12.255109174944783 153.3313953488372 12.255109174944783 C 153.74302325581397 12.255109174944783 153.94883720930233 12.397663368819334 154.3604651162791 12.568830569415221 C 154.77209302325582 12.739997770011085 154.97790697674418 12.995019252795803 155.3895348837209 13.110945177924163 C 155.80116279069767 13.226871103052524 156.00697674418603 13.119461366758278 156.4186046511628 13.226871103052524 C 156.83023255813956 13.33428083934676 157.03604651162792 13.553811522390928 157.44767441860463 13.64799385939537 C 157.85930232558138 13.742176196399813 158.06511627906974 13.742176196399813 158.47674418604652 13.742176196399813 C 158.88837209302324 13.742176196399813 159.09418604651162 13.691273469616275 159.50581395348834 13.654612643510669 C 159.91744186046512 13.617951817405059 160.12325581395348 13.558872065871768 160.53488372093025 13.558872065871768 C 160.94651162790697 13.558872065871768 161.15232558139533 13.582851265722086 161.56395348837205 13.712650377698388 C 161.9755813953488 13.842449489674701 162.1813953488372 14.207867625753309 162.59302325581396 14.207867625753309 C 163.0046511627907 14.207867625753309 163.21046511627907 13.849102608919523 163.6220930232558 13.849102608919523 C 164.03372093023253 13.849102608919523 164.23953488372095 14.005438708444023 164.6511627906977 14.005438708444023 C 165.06279069767442 14.005438708444023 165.26860465116278 13.470446067168112 165.6802325581395 13.24752601633778 C 166.09186046511627 13.024605965507416 166.29767441860463 13.010892969385749 166.7093023255814 12.890838454292284 C 167.12093023255815 12.770783939198829 167.32674418604657 12.64725344087048 167.73837209302332 12.64725344087048 C 168.15000000000003 12.64725344087048 168.3558139534884 12.774484835477308 168.7674418604651 12.79977558942172 C 169.17906976744183 12.825066343366133 169.3848837209302 12.79977558942172 169.79651162790694 12.825066343366133 C 170.20813953488368 12.850357097310546 170.4139534883721 13.150564567629806 170.82558139534885 13.361262628329044 C 171.23720930232562 13.571960689028296 171.44302325581398 13.65017898532153 171.85465116279076 13.878556646862357 C 172.26627906976745 14.106934308403137 172.4720930232558 14.291895856647118 172.88372093023256 14.503150936033055 C 173.29534883720927 14.714406015418977 173.50116279069766 14.819936172549466 173.91279069767438 14.934832043792007 C 174.32441860465116 15.04972791503456 174.53023255813952 14.934832043792007 174.9418604651163 15.077630292245788 C 175.35348837209304 15.220428540699569 175.55930232558143 15.605976154910522 175.97093023255817 15.900028425180402 C 176.3825581395349 16.19408069545026 177 16.547891643595136 177 16.547891643595136" stroke="#4572A7" stroke-width="1" zIndex="1" stroke-linejoin="round" stroke-linecap="round"></path></g><g class="highcharts-markers" visibility="visible" zIndex="0.1" transform="translate(24,101) scale(1 1)" clip-path="none"></g></g><g class="highcharts-navigator" zIndex="3"><rect fill="rgba(128,179,236,0.3)" x="181" y="101" width="20" height="20"></rect><path fill="none" stroke="#b2b1b6" stroke-width="1" d="M 10 101.5 L 180.5 101.5 180.5 135.5 L 200.5 135.5 L 200.5 101.5 215 101.5 M 181.5 101.5 L 200.5 101.5"></path></g><g class="highcharts-navigator-handle-right" style="cursor:e-resize;" zIndex="3" transform="translate(201,103)"><rect x="-4.5" y="0.5" width="8" height="15" strokeWidth="1" fill="#ebe7e8" stroke="#b2b1b6" stroke-width="1"></rect><path fill="#ebe7e8" d="M -1.5 4 L -1.5 12 M 0.5 4 L 0.5 12" stroke="#b2b1b6" stroke-width="1"></path></g><g class="highcharts-navigator-handle-left" style="cursor:e-resize;" zIndex="4" transform="translate(181,103)"><rect x="-4.5" y="0.5" width="8" height="15" strokeWidth="1" fill="#ebe7e8" stroke="#b2b1b6" stroke-width="1"></rect><path fill="#ebe7e8" d="M -1.5 4 L -1.5 12 M 0.5 4 L 0.5 12" stroke="#b2b1b6" stroke-width="1"></path></g><g class="highcharts-axis-labels highcharts-xaxis-labels" zIndex="7"></g><g class="highcharts-axis-labels highcharts-xaxis-labels" zIndex="7"><text x="141.40907818418012" style="color:#888;cursor:default;font-size:11px;fill:#888;width:195px;text-overflow:clip;" text-anchor="start" y="117" opacity="1">2010</text></g><g class="highcharts-axis-labels highcharts-yaxis-labels" zIndex="7"></g><g class="highcharts-axis-labels highcharts-yaxis-labels" zIndex="7"></g><g class="highcharts-tooltip" zIndex="8" style="cursor:default;padding:0;white-space:nowrap;" transform="translate(0,-9999)"><path fill="none" d="M 3 0 L 13 0 C 16 0 16 0 16 3 L 16 13 C 16 16 16 16 13 16 L 3 16 C 0 16 0 16 0 13 L 0 3 C 0 0 0 0 3 0" isShadow="true" stroke="black" stroke-width="5" transform="translate(1, 1)" opacity="0.049999999999999996"></path><path fill="none" d="M 3 0 L 13 0 C 16 0 16 0 16 3 L 16 13 C 16 16 16 16 13 16 L 3 16 C 0 16 0 16 0 13 L 0 3 C 0 0 0 0 3 0" isShadow="true" stroke="black" stroke-width="3" transform="translate(1, 1)" opacity="0.09999999999999999"></path><path fill="none" d="M 3 0 L 13 0 C 16 0 16 0 16 3 L 16 13 C 16 16 16 16 13 16 L 3 16 C 0 16 0 16 0 13 L 0 3 C 0 0 0 0 3 0" isShadow="true" stroke="black" stroke-width="1" transform="translate(1, 1)" opacity="0.15"></path><path fill="rgba(249, 249, 249, .85)" d="M 3 0 L 13 0 C 16 0 16 0 16 3 L 16 13 C 16 16 16 16 13 16 L 3 16 C 0 16 0 16 0 13 L 0 3 C 0 0 0 0 3 0"></path><text x="8" zIndex="1" style="font-size:12px;color:#333333;fill:#333333;" y="21"></text></g><text x="215" text-anchor="end" zIndex="8" style="cursor:pointer;color:#909090;font-size:9px;fill:#909090;" y="145">Highcharts</text></svg>