<?xml version="1.0" standalone="no"?><!DOCTYPE svg PUBLIC "-//W3C//DTD SVG 1.1//EN" "http://www.w3.org/Graphics/SVG/1.1/DTD/svg11.dtd"><svg xmlns:xlink="http://www.w3.org/1999/xlink" version="1.1" style="font-family:&quot;Lucida Grande&quot;, &quot;Lucida Sans Unicode&quot;, Arial, Helvetica, sans-serif;font-size:12px;" xmlns="http://www.w3.org/2000/svg" width="300" height="200"><desc>Created with Highstock 2.0.4-modified</desc><defs><clipPath id="highcharts-1"><rect x="0" y="0" width="280" height="175"></rect></clipPath></defs><rect x="0" y="0" width="300" height="200" strokeWidth="0" fill="#FFFFFF" class=" highcharts-background"></rect><g class="highcharts-series-group" zIndex="3"><g class="highcharts-series highcharts-tracker" visibility="visible" zIndex="0.1" transform="translate(10,10) scale(1 1)" style="cursor:pointer;"><path fill="#7cb5ec" d="M 139.98559012083857 17.250001467453146 A 70.75 70.75 0 0 1 200.86400552118897 51.92874646041977 L 174.8408794856276 67.35143790313782 A 40.5 40.5 0 0 0 139.99175123525035 47.50000084002618 Z" stroke="#FFFFFF" stroke-width="1" stroke-linejoin="round" transform="translate(0,0)"></path><path fill="#434348" d="M 200.90004633671646 51.98962849142223 A 70.75 70.75 0 0 1 207.77548917809474 67.70109444649877 L 178.7972764906408 76.38013180329612 A 40.5 40.5 0 0 0 174.86151062384477 67.38628910109682 Z" stroke="#FFFFFF" stroke-width="1" stroke-linejoin="round" transform="translate(0,0)"></path><path fill="#90ed7d" d="M 207.79575419252333 67.76888007383289 A 70.75 70.75 0 0 1 210.55110888143867 93.30127678954652 L 180.3861471335444 91.03465314454607 A 40.5 40.5 0 0 0 178.80887695826425 76.41893488325417 Z" stroke="#FFFFFF" stroke-width="1" stroke-linejoin="round" transform="translate(0,0)"></path><path fill="#f7a35c" d="M 210.54577232998116 93.37182523603127 A 70.75 70.75 0 0 1 167.4076784291323 153.22562121685985 L 155.68920107957396 125.33763476018126 A 40.5 40.5 0 0 0 180.38309228783373 91.07503776762213 Z" stroke="#FFFFFF" stroke-width="1" stroke-linejoin="round" transform="translate(0,0)"></path><path fill="#8085e9" d="M 167.34243911494832 153.25299627791313 A 70.75 70.75 0 1 1 139.90172966938144 17.250068247791788 L 139.9437463125081 47.50003906764053 A 40.5 40.5 0 1 0 155.65185560643684 125.35330528983013 Z" stroke="#FFFFFF" stroke-width="1" stroke-linejoin="round" transform="translate(0,0)"></path></g><g class="highcharts-markers" visibility="visible" zIndex="0.1" transform="translate(10,10) scale(1 1)"></g></g><g class="highcharts-data-labels highcharts-tracker" visibility="visible" zIndex="6" transform="translate(10,10) scale(1 1)" style="cursor:pointer;"><path fill="none" d="M 194.9430926154959 0 C 189.9430926154959 0 185.96607757491083 6.9414361326042595 180.51457511319634 16.495551523885695 L 175.06307265148186 26.04966691516713" stroke="#7cb5ec" stroke-width="1"></path><path fill="none" d="M 237.32901197205604 47.17735067900502 C 232.32901197205604 47.17735067900502 224.9976760338282 50.37914913625525 214.91708911876503 54.7816220149743 L 204.83650220370185 59.184094893693356" stroke="#434348" stroke-width="1"></path><path fill="none" d="M 245.1764596709348 76.7650371310575 C 240.1764596709348 76.7650371310575 232.22200133478117 77.6174411305765 221.28462112256992 78.78949662991513 L 210.34724091035866 79.96155212925377" stroke="#90ed7d" stroke-width="1"></path><path fill="none" d="M 226.68870715270074 146.47048095208567 C 221.68870715270074 146.47048095208567 215.20225894206447 141.7879613727637 206.28339265243957 135.34949695119604 L 197.36452636281467 128.9110325296284" stroke="#f7a35c" stroke-width="1"></path><path fill="none" d="M 36.22353163793447 107.34368408128563 C 41.22353163793447 107.34368408128563 49.06682441110097 105.76800693339197 59.851351974204896 103.60145085503821 L 70.63587953730882 101.43489477668444" stroke="#8085e9" stroke-width="1"></path><g zIndex="1" style="cursor:pointer;" transform="translate(200,-10)"><text x="3" zIndex="1" style="font-size:11px;color:#606060;fill:#606060;" y="15">Firefox</text></g><g zIndex="1" style="cursor:pointer;" transform="translate(242,37)"><text x="3" zIndex="1" style="font-size:11px;color:#606060;fill:#606060;" y="15">Opera</text></g><g zIndex="1" style="cursor:pointer;" transform="translate(250,67)"><text x="3" zIndex="1" style="font-size:11px;color:#606060;fill:#606060;" y="15">Safari</text></g><g zIndex="1" style="cursor:pointer;" transform="translate(232,136)"><text x="3" zIndex="1" style="font-size:11px;color:#606060;fill:#606060;" y="15">Chrome</text></g><g zIndex="1" style="cursor:pointer;" transform="translate(19,97)"><text x="3" zIndex="1" style="font-size:11px;color:#606060;fill:#606060;" y="15">IE</text></g></g><g class="highcharts-legend" zIndex="7"><g zIndex="1"><g></g></g></g><g class="highcharts-tooltip" zIndex="8" style="cursor:default;padding:0;white-space:nowrap;" transform="translate(0,-9999)"><path fill="none" d="M 3 0 L 13 0 C 16 0 16 0 16 3 L 16 13 C 16 16 16 16 13 16 L 3 16 C 0 16 0 16 0 13 L 0 3 C 0 0 0 0 3 0" isShadow="true" stroke="black" stroke-width="5" transform="translate(1, 1)" opacity="0.049999999999999996"></path><path fill="none" d="M 3 0 L 13 0 C 16 0 16 0 16 3 L 16 13 C 16 16 16 16 13 16 L 3 16 C 0 16 0 16 0 13 L 0 3 C 0 0 0 0 3 0" isShadow="true" stroke="black" stroke-width="3" transform="translate(1, 1)" opacity="0.09999999999999999"></path><path fill="none" d="M 3 0 L 13 0 C 16 0 16 0 16 3 L 16 13 C 16 16 16 16 13 16 L 3 16 C 0 16 0 16 0 13 L 0 3 C 0 0 0 0 3 0" isShadow="true" stroke="black" stroke-width="1" transform="translate(1, 1)" opacity="0.15"></path><path fill="rgba(249, 249, 249, .85)" d="M 3 0 L 13 0 C 16 0 16 0 16 3 L 16 13 C 16 16 16 16 13 16 L 3 16 C 0 16 0 16 0 13 L 0 3 C 0 0 0 0 3 0"></path><text x="8" zIndex="1" style="font-size:12px;color:#333333;fill:#333333;" y="21"></text></g></svg>