<?xml version="1.0" standalone="no"?><!DOCTYPE svg PUBLIC "-//W3C//DTD SVG 1.1//EN" "http://www.w3.org/Graphics/SVG/1.1/DTD/svg11.dtd"><svg xmlns:xlink="http://www.w3.org/1999/xlink" version="1.1" style="font-family:&quot;Lucida Grande&quot;, &quot;Lucida Sans Unicode&quot;, Arial, Helvetica, sans-serif;font-size:12px;" xmlns="http://www.w3.org/2000/svg" width="150" height="100"><desc>Created with Highstock 2.0.4-modified</desc><defs><clipPath id="highcharts-1"><rect x="0" y="0" width="130" height="80"></rect></clipPath></defs><rect x="0" y="0" width="150" height="100" strokeWidth="0" fill="#FFFFFF" class=" highcharts-background"></rect><g class="highcharts-grid" zIndex="1"><path fill="none" d="M 9.5 10 L 9.5 90" stroke="#C0C0C0" stroke-width="1" zIndex="1" opacity="1"></path><path fill="none" d="M 35.5 10 L 35.5 90" stroke="#C0C0C0" stroke-width="1" zIndex="1" opacity="1"></path><path fill="none" d="M 61.5 10 L 61.5 90" stroke="#C0C0C0" stroke-width="1" zIndex="1" opacity="1"></path><path fill="none" d="M 87.5 10 L 87.5 90" stroke="#C0C0C0" stroke-width="1" zIndex="1" opacity="1"></path><path fill="none" d="M 113.5 10 L 113.5 90" stroke="#C0C0C0" stroke-width="1" zIndex="1" opacity="1"></path></g><g class="highcharts-grid" zIndex="1"><path fill="none" d="M 10 9.5 L 140 9.5" stroke="#C0C0C0" stroke-width="1" zIndex="1" opacity="1"></path><path fill="none" d="M 10 30.5 L 140 30.5" stroke="#C0C0C0" stroke-width="1" zIndex="1" opacity="1"></path><path fill="none" d="M 10 50.5 L 140 50.5" stroke="#C0C0C0" stroke-width="1" zIndex="1" opacity="1"></path><path fill="none" d="M 10 70.5 L 140 70.5" stroke="#C0C0C0" stroke-width="1" zIndex="1" opacity="1"></path><path fill="none" d="M 10 90.5 L 140 90.5" stroke="#C0C0C0" stroke-width="1" zIndex="1" opacity="1"></path></g><g class="highcharts-axis" zIndex="2"><path fill="none" d="M 10 90.5 L 140 90.5" stroke="#C0D0E0" stroke-width="1" zIndex="7" visibility="visible"></path></g><g class="highcharts-axis" zIndex="2"></g><g class="highcharts-series-group" zIndex="3"><g class="highcharts-series highcharts-tracker" visibility="visible" zIndex="0.1" transform="translate(10,10) scale(1 1)" style="" clip-path="url(#highcharts-1)"><circle cx="122.414356469698" cy="30.4" r="6.5" stroke="#7cb5ec" stroke-width="1" fill="rgba(124,181,236,0.5)"></circle><circle cx="88.55506638233473" cy="29.599999999999994" r="6.5" stroke="#7cb5ec" stroke-width="1" fill="rgba(124,181,236,0.5)"></circle><circle cx="83.34594483043269" cy="25.199999999999996" r="6.5" stroke="#7cb5ec" stroke-width="1" fill="rgba(124,181,236,0.5)"></circle><circle cx="88.55506638233473" cy="49.2" r="6.5" stroke="#7cb5ec" stroke-width="1" fill="rgba(124,181,236,0.5)"></circle><circle cx="96.36874871018779" cy="20.4" r="6" stroke="#7cb5ec" stroke-width="1" fill="rgba(124,181,236,0.5)"></circle><circle cx="9.115962715828575" cy="22.799999999999997" r="7" stroke="#7cb5ec" stroke-width="1" fill="rgba(124,181,236,0.5)"></circle><circle cx="66.41629978675104" cy="32.4" r="6" stroke="#7cb5ec" stroke-width="1" fill="rgba(124,181,236,0.5)"></circle><circle cx="49.48665474306941" cy="50.8" r="6" stroke="#7cb5ec" stroke-width="1" fill="rgba(124,181,236,0.5)"></circle></g><g class="highcharts-markers" visibility="visible" zIndex="0.1" transform="translate(10,10) scale(1 1)" clip-path="none"></g><g class="highcharts-series highcharts-tracker" visibility="visible" zIndex="0.1" transform="translate(10,10) scale(1 1)" style="" clip-path="url(#highcharts-1)"><circle cx="122.414356469698" cy="59.2" r="6.5" stroke="#434348" stroke-width="1" fill="rgba(67,67,72,0.5)"></circle><circle cx="88.55506638233473" cy="55.599999999999994" r="6.5" stroke="#434348" stroke-width="1" fill="rgba(67,67,72,0.5)"></circle><circle cx="83.34594483043269" cy="25.599999999999994" r="6.5" stroke="#434348" stroke-width="1" fill="rgba(67,67,72,0.5)"></circle><circle cx="88.55506638233473" cy="58" r="4" stroke="#434348" stroke-width="1" fill="rgba(67,67,72,0.5)"></circle><circle cx="96.36874871018779" cy="34.8" r="6" stroke="#434348" stroke-width="1" fill="rgba(67,67,72,0.5)"></circle><circle cx="9.115962715828575" cy="46.8" r="5.5" stroke="#434348" stroke-width="1" fill="rgba(67,67,72,0.5)"></circle><circle cx="66.41629978675104" cy="58.8" r="6.5" stroke="#434348" stroke-width="1" fill="rgba(67,67,72,0.5)"></circle><circle cx="49.48665474306941" cy="33.199999999999996" r="6" stroke="#434348" stroke-width="1" fill="rgba(67,67,72,0.5)"></circle></g><g class="highcharts-markers" visibility="visible" zIndex="0.1" transform="translate(10,10) scale(1 1)" clip-path="none"></g></g><g class="highcharts-axis-labels highcharts-xaxis-labels" zIndex="7"></g><g class="highcharts-axis-labels highcharts-yaxis-labels" zIndex="7"></g><g class="highcharts-tooltip" zIndex="8" style="cursor:default;padding:0;white-space:nowrap;" transform="translate(0,-9999)"><path fill="none" d="M 3 0 L 13 0 C 16 0 16 0 16 3 L 16 13 C 16 16 16 16 13 16 L 3 16 C 0 16 0 16 0 13 L 0 3 C 0 0 0 0 3 0" isShadow="true" stroke="black" stroke-width="5" transform="translate(1, 1)" opacity="0.049999999999999996"></path><path fill="none" d="M 3 0 L 13 0 C 16 0 16 0 16 3 L 16 13 C 16 16 16 16 13 16 L 3 16 C 0 16 0 16 0 13 L 0 3 C 0 0 0 0 3 0" isShadow="true" stroke="black" stroke-width="3" transform="translate(1, 1)" opacity="0.09999999999999999"></path><path fill="none" d="M 3 0 L 13 0 C 16 0 16 0 16 3 L 16 13 C 16 16 16 16 13 16 L 3 16 C 0 16 0 16 0 13 L 0 3 C 0 0 0 0 3 0" isShadow="true" stroke="black" stroke-width="1" transform="translate(1, 1)" opacity="0.15"></path><path fill="rgba(249, 249, 249, .85)" d="M 3 0 L 13 0 C 16 0 16 0 16 3 L 16 13 C 16 16 16 16 13 16 L 3 16 C 0 16 0 16 0 13 L 0 3 C 0 0 0 0 3 0"></path><text x="8" zIndex="1" style="font-size:12px;color:#333333;fill:#333333;" y="21"></text></g></svg>