<?xml version="1.0" standalone="no"?><!DOCTYPE svg PUBLIC "-//W3C//DTD SVG 1.1//EN" "http://www.w3.org/Graphics/SVG/1.1/DTD/svg11.dtd"><svg xmlns:xlink="http://www.w3.org/1999/xlink" version="1.1" style="font-family:&quot;Lucida Grande&quot;, &quot;Lucida Sans Unicode&quot;, Arial, Helvetica, sans-serif;font-size:12px;" xmlns="http://www.w3.org/2000/svg" width="150" height="100"><desc>Created with Highstock 2.0.4-modified</desc><defs><clipPath id="highcharts-1"><rect x="0" y="0" width="130" height="80"></rect></clipPath></defs><rect x="0" y="0" width="150" height="100" strokeWidth="0" fill="#FFFFFF" class=" highcharts-background"></rect><g class="highcharts-grid" zIndex="1"><path fill="none" d="M 9.5 10 L 9.5 90" stroke="#C0C0C0" stroke-width="1" zIndex="1" opacity="1"></path><path fill="none" d="M 58.5 10 L 58.5 90" stroke="#C0C0C0" stroke-width="1" zIndex="1" opacity="1"></path><path fill="none" d="M 106.5 10 L 106.5 90" stroke="#C0C0C0" stroke-width="1" zIndex="1" opacity="1"></path></g><g class="highcharts-grid" zIndex="1"><path fill="none" d="M 10 9.5 L 140 9.5" stroke="#C0C0C0" stroke-width="1" zIndex="1" opacity="1"></path><path fill="none" d="M 10 37.5 L 140 37.5" stroke="#C0C0C0" stroke-width="1" zIndex="1" opacity="1"></path><path fill="none" d="M 10 63.5 L 140 63.5" stroke="#C0C0C0" stroke-width="1" zIndex="1" opacity="1"></path><path fill="none" d="M 10 90.5 L 140 90.5" stroke="#C0C0C0" stroke-width="1" zIndex="1" opacity="1"></path></g><g class="highcharts-axis" zIndex="2"><path fill="none" d="M 10 90.5 L 140 90.5" stroke="#C0D0E0" stroke-width="1" zIndex="7" visibility="visible"></path></g><g class="highcharts-axis" zIndex="2"></g><g class="highcharts-series-group" zIndex="3"><g class="highcharts-series" visibility="visible" zIndex="0.1" transform="translate(10,10) scale(1 1)" clip-path="url(#highcharts-1)"><path fill="none" d="M 54.488978705886694 51.626666666666665 L 109.46446615021893 47.78666666666666 L 101.68032633509227 48.85333333333333 L 48.65087384454174 56.53333333333333 L 21.406384491598395 57.38666666666666 L 58.38104861345009 48 L 128.9248156880356 18.133333333333333 L 48.65087384454174 48.64 L 54.975487444332224 34.239999999999995 L 79.78743310504848 46.29333333333333" stroke="#7cb5ec" stroke-width="1" zIndex="1" stroke-linejoin="round" stroke-linecap="round"></path></g><g class="highcharts-markers highcharts-tracker" visibility="visible" zIndex="0.1" transform="translate(10,10) scale(1 1)" style="" clip-path="none"></g><g class="highcharts-series" visibility="visible" zIndex="0.1" transform="translate(10,10) scale(1 1)" clip-path="url(#highcharts-1)"><path fill="none" d="M 54.488978705886694 36.69333333333334 L 109.46446615021893 24.960000000000008 L 101.68032633509227 17.49333333333334 L 48.65087384454174 41.70666666666667 L 21.406384491598395 26.880000000000003 L 58.38104861345009 32 L 128.9248156880356 29.439999999999998 L 48.65087384454174 16.960000000000008 L 54.975487444332224 33.49333333333334 L 79.78743310504848 21.226666666666674" stroke="#434348" stroke-width="1" zIndex="1" stroke-linejoin="round" stroke-linecap="round"></path></g><g class="highcharts-markers highcharts-tracker" visibility="visible" zIndex="0.1" transform="translate(10,10) scale(1 1)" style="" clip-path="none"></g></g><g class="highcharts-axis-labels highcharts-xaxis-labels" zIndex="7"></g><g class="highcharts-axis-labels highcharts-yaxis-labels" zIndex="7"></g><g class="highcharts-tooltip" zIndex="8" style="cursor:default;padding:0;white-space:nowrap;" transform="translate(0,-9999)"><path fill="none" d="M 3 0 L 13 0 C 16 0 16 0 16 3 L 16 13 C 16 16 16 16 13 16 L 3 16 C 0 16 0 16 0 13 L 0 3 C 0 0 0 0 3 0" isShadow="true" stroke="black" stroke-width="5" transform="translate(1, 1)" opacity="0.049999999999999996"></path><path fill="none" d="M 3 0 L 13 0 C 16 0 16 0 16 3 L 16 13 C 16 16 16 16 13 16 L 3 16 C 0 16 0 16 0 13 L 0 3 C 0 0 0 0 3 0" isShadow="true" stroke="black" stroke-width="3" transform="translate(1, 1)" opacity="0.09999999999999999"></path><path fill="none" d="M 3 0 L 13 0 C 16 0 16 0 16 3 L 16 13 C 16 16 16 16 13 16 L 3 16 C 0 16 0 16 0 13 L 0 3 C 0 0 0 0 3 0" isShadow="true" stroke="black" stroke-width="1" transform="translate(1, 1)" opacity="0.15"></path><path fill="rgba(249, 249, 249, .85)" d="M 3 0 L 13 0 C 16 0 16 0 16 3 L 16 13 C 16 16 16 16 13 16 L 3 16 C 0 16 0 16 0 13 L 0 3 C 0 0 0 0 3 0"></path><text x="8" zIndex="1" style="font-size:12px;color:#333333;fill:#333333;" y="21"></text></g></svg>