<?xml version="1.0" standalone="no"?><!DOCTYPE svg PUBLIC "-//W3C//DTD SVG 1.1//EN" "http://www.w3.org/Graphics/SVG/1.1/DTD/svg11.dtd"><svg xmlns:xlink="http://www.w3.org/1999/xlink" version="1.1" style="font-family:&quot;Lucida Grande&quot;, &quot;Lucida Sans Unicode&quot;, Arial, Helvetica, sans-serif;font-size:12px;" xmlns="http://www.w3.org/2000/svg" width="150" height="100"><desc>Created with Highstock 2.0.4-modified</desc><defs><clipPath id="highcharts-1"><rect x="0" y="0" width="130" height="80"></rect></clipPath></defs><rect x="0" y="0" width="150" height="100" strokeWidth="0" fill="#FFFFFF" class=" highcharts-background"></rect><g class="highcharts-grid" zIndex="1"><path fill="none" d="M 9.5 10 L 9.5 90" stroke="#C0C0C0" stroke-width="1" zIndex="1" opacity="1"></path><path fill="none" d="M 58.5 10 L 58.5 90" stroke="#C0C0C0" stroke-width="1" zIndex="1" opacity="1"></path><path fill="none" d="M 106.5 10 L 106.5 90" stroke="#C0C0C0" stroke-width="1" zIndex="1" opacity="1"></path></g><g class="highcharts-grid" zIndex="1"><path fill="none" d="M 10 9.5 L 140 9.5" stroke="#C0C0C0" stroke-width="1" zIndex="1" opacity="1"></path><path fill="none" d="M 10 37.5 L 140 37.5" stroke="#C0C0C0" stroke-width="1" zIndex="1" opacity="1"></path><path fill="none" d="M 10 63.5 L 140 63.5" stroke="#C0C0C0" stroke-width="1" zIndex="1" opacity="1"></path><path fill="none" d="M 10 90.5 L 140 90.5" stroke="#C0C0C0" stroke-width="1" zIndex="1" opacity="1"></path></g><g class="highcharts-axis" zIndex="2"><path fill="none" d="M 10 90.5 L 140 90.5" stroke="#C0D0E0" stroke-width="1" zIndex="7" visibility="visible"></path></g><g class="highcharts-axis" zIndex="2"></g><g class="highcharts-series-group" zIndex="3"><g class="highcharts-series" visibility="visible" zIndex="0.1" transform="translate(10,10) scale(1 1)" clip-path="url(#highcharts-1)"><path fill="none" d="M 54.488978705886694 51.626666666666665 L 109.46446615021893 47.78666666666666 L 101.68032633509227 48.85333333333333 L 48.65087384454174 56.53333333333333 L 21.406384491598395 57.38666666666666 L 58.38104861345009 48 L 128.9248156880356 18.133333333333333 L 48.65087384454174 48.64 L 54.975487444332224 34.239999999999995 L 79.78743310504848 46.29333333333333" stroke="#7cb5ec" stroke-width="1" zIndex="1" stroke-linejoin="round" stroke-linecap="round"></path></g><g class="highcharts-markers highcharts-tracker" visibility="visible" zIndex="0.1" transform="translate(10,10) scale(1 1)" style="" clip-path="none"><path fill="#7cb5ec" d="M 79 43.29333333333333 C 82.996 43.29333333333333 82.996 49.29333333333333 79 49.29333333333333 C 75.004 49.29333333333333 75.004 43.29333333333333 79 43.29333333333333 Z"></path><path fill="#7cb5ec" d="M 54 31.239999999999995 C 57.996 31.239999999999995 57.996 37.239999999999995 54 37.239999999999995 C 50.004 37.239999999999995 50.004 31.239999999999995 54 31.239999999999995 Z"></path><path fill="#7cb5ec" d="M 48 45.64 C 51.996 45.64 51.996 51.64 48 51.64 C 44.004 51.64 44.004 45.64 48 45.64 Z"></path><path fill="#7cb5ec" d="M 128 15.133333333333333 C 131.996 15.133333333333333 131.996 21.133333333333333 128 21.133333333333333 C 124.004 21.133333333333333 124.004 15.133333333333333 128 15.133333333333333 Z"></path><path fill="#7cb5ec" d="M 58 45 C 61.996 45 61.996 51 58 51 C 54.004 51 54.004 45 58 45 Z"></path><path fill="#7cb5ec" d="M 21 54.38666666666666 C 24.996 54.38666666666666 24.996 60.38666666666666 21 60.38666666666666 C 17.004 60.38666666666666 17.004 54.38666666666666 21 54.38666666666666 Z"></path><path fill="#7cb5ec" d="M 48 53.53333333333333 C 51.996 53.53333333333333 51.996 59.53333333333333 48 59.53333333333333 C 44.004 59.53333333333333 44.004 53.53333333333333 48 53.53333333333333 Z"></path><path fill="#7cb5ec" d="M 101 45.85333333333333 C 104.996 45.85333333333333 104.996 51.85333333333333 101 51.85333333333333 C 97.004 51.85333333333333 97.004 45.85333333333333 101 45.85333333333333 Z"></path><path fill="#7cb5ec" d="M 109 44.78666666666666 C 112.996 44.78666666666666 112.996 50.78666666666666 109 50.78666666666666 C 105.004 50.78666666666666 105.004 44.78666666666666 109 44.78666666666666 Z"></path><path fill="#7cb5ec" d="M 54 48.626666666666665 C 57.996 48.626666666666665 57.996 54.626666666666665 54 54.626666666666665 C 50.004 54.626666666666665 50.004 48.626666666666665 54 48.626666666666665 Z"></path></g><g class="highcharts-series" visibility="visible" zIndex="0.1" transform="translate(10,10) scale(1 1)" clip-path="url(#highcharts-1)"><path fill="none" d="M 54.488978705886694 36.69333333333334 L 109.46446615021893 24.960000000000008 L 101.68032633509227 17.49333333333334 L 48.65087384454174 41.70666666666667 L 21.406384491598395 26.880000000000003 L 58.38104861345009 32 L 128.9248156880356 29.439999999999998 L 48.65087384454174 16.960000000000008 L 54.975487444332224 33.49333333333334 L 79.78743310504848 21.226666666666674" stroke="#434348" stroke-width="1" zIndex="1" stroke-linejoin="round" stroke-linecap="round"></path></g><g class="highcharts-markers highcharts-tracker" visibility="visible" zIndex="0.1" transform="translate(10,10) scale(1 1)" style="" clip-path="none"><path fill="#434348" d="M 79 18.226666666666674 L 82 21.226666666666674 79 24.226666666666674 76 21.226666666666674 Z"></path><path fill="#434348" d="M 54 30.49333333333334 L 57 33.49333333333334 54 36.49333333333334 51 33.49333333333334 Z"></path><path fill="#434348" d="M 48 13.960000000000008 L 51 16.960000000000008 48 19.960000000000008 45 16.960000000000008 Z"></path><path fill="#434348" d="M 128 26.439999999999998 L 131 29.439999999999998 128 32.44 125 29.439999999999998 Z"></path><path fill="#434348" d="M 58 29 L 61 32 58 35 55 32 Z"></path><path fill="#434348" d="M 21 23.880000000000003 L 24 26.880000000000003 21 29.880000000000003 18 26.880000000000003 Z"></path><path fill="#434348" d="M 48 38.70666666666667 L 51 41.70666666666667 48 44.70666666666667 45 41.70666666666667 Z"></path><path fill="#434348" d="M 101 14.49333333333334 L 104 17.49333333333334 101 20.49333333333334 98 17.49333333333334 Z"></path><path fill="#434348" d="M 109 21.960000000000008 L 112 24.960000000000008 109 27.960000000000008 106 24.960000000000008 Z"></path><path fill="#434348" d="M 54 33.69333333333334 L 57 36.69333333333334 54 39.69333333333334 51 36.69333333333334 Z"></path></g></g><g class="highcharts-axis-labels highcharts-xaxis-labels" zIndex="7"></g><g class="highcharts-axis-labels highcharts-yaxis-labels" zIndex="7"></g><g class="highcharts-tooltip" zIndex="8" style="cursor:default;padding:0;white-space:nowrap;" transform="translate(0,-9999)"><path fill="none" d="M 3 0 L 13 0 C 16 0 16 0 16 3 L 16 13 C 16 16 16 16 13 16 L 3 16 C 0 16 0 16 0 13 L 0 3 C 0 0 0 0 3 0" isShadow="true" stroke="black" stroke-width="5" transform="translate(1, 1)" opacity="0.049999999999999996"></path><path fill="none" d="M 3 0 L 13 0 C 16 0 16 0 16 3 L 16 13 C 16 16 16 16 13 16 L 3 16 C 0 16 0 16 0 13 L 0 3 C 0 0 0 0 3 0" isShadow="true" stroke="black" stroke-width="3" transform="translate(1, 1)" opacity="0.09999999999999999"></path><path fill="none" d="M 3 0 L 13 0 C 16 0 16 0 16 3 L 16 13 C 16 16 16 16 13 16 L 3 16 C 0 16 0 16 0 13 L 0 3 C 0 0 0 0 3 0" isShadow="true" stroke="black" stroke-width="1" transform="translate(1, 1)" opacity="0.15"></path><path fill="rgba(249, 249, 249, .85)" d="M 3 0 L 13 0 C 16 0 16 0 16 3 L 16 13 C 16 16 16 16 13 16 L 3 16 C 0 16 0 16 0 13 L 0 3 C 0 0 0 0 3 0"></path><text x="8" zIndex="1" style="font-size:12px;color:#333333;fill:#333333;" y="21"></text></g></svg>