<?xml version="1.0" standalone="no"?><!DOCTYPE svg PUBLIC "-//W3C//DTD SVG 1.1//EN" "http://www.w3.org/Graphics/SVG/1.1/DTD/svg11.dtd"><svg xmlns:xlink="http://www.w3.org/1999/xlink" version="1.1" style="font-family:&quot;Lucida Grande&quot;, &quot;Lucida Sans Unicode&quot;, Arial, Helvetica, sans-serif;font-size:12px;" xmlns="http://www.w3.org/2000/svg" width="150" height="100"><desc>Created with Highstock 2.0.4-modified</desc><defs><clipPath id="highcharts-1"><rect x="0" y="0" width="130" height="75"></rect></clipPath><clipPath id="highcharts-2"><rect x="0" y="0" width="150" height="38"></rect></clipPath><clipPath id="highcharts-3"><rect x="0" y="38" width="150" height="150"></rect></clipPath></defs><rect x="0" y="0" width="150" height="100" strokeWidth="0" fill="#FFFFFF" class=" highcharts-background"></rect><g class="highcharts-grid" zIndex="1"></g><g class="highcharts-grid" zIndex="1"><path fill="none" d="M 10 9.5 L 140 9.5" stroke="#C0C0C0" stroke-width="1" zIndex="1" opacity="1"></path><path fill="none" d="M 10 85.5 L 140 85.5" stroke="#C0C0C0" stroke-width="1" zIndex="1" opacity="1"></path></g><g class="highcharts-axis" zIndex="2"></g><g class="highcharts-axis" zIndex="2"></g><g class="highcharts-series-group" zIndex="3"><g class="highcharts-series" visibility="visible" zIndex="0.1" transform="translate(10,10) scale(1 1)" clip-path="url(#highcharts-1)"><path fill="rgba(255,0,0,0.75)" d="M 9.285714285714286 54.375 L 27.85714285714286 22.5 L 46.42857142857143 7.5 L 65.00000000000001 45 L 83.57142857142858 18.75 L 102.14285714285715 45 L 120.71428571428574 57.9 L 120.71428571428574 37.5 L 9.285714285714286 37.5" zIndex="0" clip-path="url(#highcharts-2)"></path><path fill="rgba(0,136,255,0.75)" d="M 9.285714285714286 54.375 L 27.85714285714286 22.5 L 46.42857142857143 7.5 L 65.00000000000001 45 L 83.57142857142858 18.75 L 102.14285714285715 45 L 120.71428571428574 57.9 L 120.71428571428574 37.5 L 9.285714285714286 37.5" zIndex="0" clip-path="url(#highcharts-3)"></path><path fill="none" d="M 9.285714285714286 54.375 L 27.85714285714286 22.5 L 46.42857142857143 7.5 L 65.00000000000001 45 L 83.57142857142858 18.75 L 102.14285714285715 45 L 120.71428571428574 57.9" stroke="#ff0000" stroke-width="2" zIndex="1" stroke-linejoin="round" stroke-linecap="round" clip-path="url(#highcharts-2)"></path><path fill="none" d="M 9.285714285714286 54.375 L 27.85714285714286 22.5 L 46.42857142857143 7.5 L 65.00000000000001 45 L 83.57142857142858 18.75 L 102.14285714285715 45 L 120.71428571428574 57.9" stroke="#0088ff" stroke-width="2" zIndex="1" stroke-linejoin="round" stroke-linecap="round" clip-path="url(#highcharts-3)"></path><path fill="none" d="M -0.7142857142857135 54.375 L 9.285714285714286 54.375 L 27.85714285714286 22.5 L 46.42857142857143 7.5 L 65.00000000000001 45 L 83.57142857142858 18.75 L 102.14285714285715 45 L 120.71428571428574 57.9 L 130.71428571428572 57.9" stroke-linejoin="round" visibility="visible" stroke="rgba(192,192,192,0.0001)" stroke-width="22" zIndex="2" class=" highcharts-tracker" style=""></path></g><g class="highcharts-markers highcharts-tracker" visibility="visible" zIndex="0.1" transform="translate(10,10) scale(1 1)" style="" clip-path="none"></g></g><g class="highcharts-axis-labels highcharts-xaxis-labels" zIndex="7"></g><g class="highcharts-axis-labels highcharts-yaxis-labels" zIndex="7"></g><g class="highcharts-tooltip" zIndex="8" style="cursor:default;padding:0;white-space:nowrap;" transform="translate(0,-9999)"><path fill="none" d="M 3 0 L 13 0 C 16 0 16 0 16 3 L 16 13 C 16 16 16 16 13 16 L 3 16 C 0 16 0 16 0 13 L 0 3 C 0 0 0 0 3 0" isShadow="true" stroke="black" stroke-width="5" transform="translate(1, 1)" opacity="0.049999999999999996"></path><path fill="none" d="M 3 0 L 13 0 C 16 0 16 0 16 3 L 16 13 C 16 16 16 16 13 16 L 3 16 C 0 16 0 16 0 13 L 0 3 C 0 0 0 0 3 0" isShadow="true" stroke="black" stroke-width="3" transform="translate(1, 1)" opacity="0.09999999999999999"></path><path fill="none" d="M 3 0 L 13 0 C 16 0 16 0 16 3 L 16 13 C 16 16 16 16 13 16 L 3 16 C 0 16 0 16 0 13 L 0 3 C 0 0 0 0 3 0" isShadow="true" stroke="black" stroke-width="1" transform="translate(1, 1)" opacity="0.15"></path><path fill="rgba(249, 249, 249, .85)" d="M 3 0 L 13 0 C 16 0 16 0 16 3 L 16 13 C 16 16 16 16 13 16 L 3 16 C 0 16 0 16 0 13 L 0 3 C 0 0 0 0 3 0"></path><text x="8" zIndex="1" style="font-size:12px;color:#333333;fill:#333333;" y="21"></text></g></svg>